<?xml version="1.0" standalone="no"?>
<!DOCTYPE svg PUBLIC "-//W3C//DTD SVG 1.1//EN" "http://www.w3.org/Graphics/SVG/1.1/DTD/svg11.dtd" >
<svg xmlns="http://www.w3.org/2000/svg">
<metadata></metadata>
<defs>
<font id="cmu_serif_extraboldslanted" horiz-adv-x="1177" >
<font-face units-per-em="2048" ascent="1638" descent="-410" />
<missing-glyph horiz-adv-x="784" />
<glyph unicode="&#xfb01;" horiz-adv-x="1308" d="M72 0l16 98h141l119 715h-149l16 98h152q5 41 21 136.5t22 113.5q39 129 204.5 201t393.5 72q130 0 202 -61.5t72 -149.5q0 -67 -43.5 -115.5t-110.5 -48.5q-53 0 -85.5 32.5t-32.5 84.5q0 105 114 147q-68 35 -141 35q-144 0 -241 -59.5t-124 -151.5q-3 -10 -10.5 -56.5 t-17.5 -106.5t-12 -73h299l2 9l364 10l-137 -832h141l-16 -98q-216 6 -244 6q-130 0 -262 -6l16 98h142l88 527q22 139 22 147q0 23 -10 31t-37 10h-373l-120 -715h141l-14 -98q-222 6 -244 6q-132 0 -264 -6z" />
<glyph unicode="&#xfb02;" horiz-adv-x="1308" d="M72 0l16 98h141l119 715h-149l16 98h152q4 36 20 131.5t21 112.5q36 130 197.5 204.5t393.5 74.5q71 0 120 -11.5t63 -11.5q13 0 143 10l-219 -1323h141l-16 -98q-216 6 -244 6q-130 0 -262 -6l16 98h142l118 715h-428l-120 -715h141l-14 -98q-222 6 -244 6 q-132 0 -264 -6zM578 911h440q10 65 20 121.5t13.5 77t3.5 31.5q0 9 -14.5 39t-14.5 57q0 56 53 115q-47 6 -96 6q-77 0 -139.5 -16t-101 -40t-67 -57t-41.5 -60t-20.5 -57.5t-8.5 -42.5t-1 -20q-9 -47 -26 -154z" />
<glyph unicode="&#xfb03;" horiz-adv-x="1961" d="M72 0l16 98h141l119 715h-149l16 98h152q5 42 21 138t22 112q10 30 29 61t64 71t106.5 69.5t163 50.5t226.5 21q151 0 230 -93q177 93 430 93q133 0 204.5 -61t71.5 -150q0 -72 -44 -117t-109 -45q-57 0 -87 33t-30 82q0 104 113 147q-64 35 -140 35q-145 0 -241.5 -59.5 t-124.5 -151.5q-2 -9 -41 -236h301v9l366 10l-137 -832h142l-17 -98q-222 6 -244 6q-132 0 -264 -6l17 98h141l88 527q4 28 10.5 63t9.5 53.5t3 30.5q0 23 -10.5 31t-37.5 10h-372l-121 -715h143l-16 -98q-222 6 -244 6q-132 0 -264 -6l16 98h142l121 715h-431l-120 -715 h141l-14 -98q-222 6 -244 6q-132 0 -264 -6zM578 911h442l27 168q-25 24 -36.5 44.5t-11.5 50.5q0 48 28.5 88t86.5 61q-57 35 -137 35q-127 0 -227.5 -54.5t-131.5 -154.5q-3 -10 -11 -57.5t-17.5 -107t-11.5 -73.5z" />
<glyph unicode="&#xfb04;" horiz-adv-x="1961" d="M72 0l16 98h141l119 715h-149l16 98h152q5 42 21 138t22 112q41 128 201 200.5t386 72.5q94 0 147 -21t97 -63q179 84 414 84q72 0 121.5 -11.5t58.5 -11.5q17 0 145 10l-219 -1323h142l-17 -98q-222 6 -244 6q-132 0 -264 -6l17 98h141l121 715h-430l-121 -715h143 l-16 -98q-222 6 -244 6q-132 0 -264 -6l16 98h142l121 715h-431l-120 -715h141l-14 -98q-222 6 -244 6q-132 0 -264 -6zM578 911h442l35 217q-19 24 -26 40t-7 42q0 76 80 129q-60 19 -121 19q-146 0 -240.5 -58.5t-122.5 -150.5q-3 -10 -11 -57.5t-17.5 -107t-11.5 -73.5z M1231 911h442q10 67 19.5 121.5t13.5 76.5t4 32q0 9 -15.5 39t-15.5 57q0 56 56 115q-50 6 -99 6q-257 0 -344 -168q-27 -51 -35 -125q-4 -25 -13 -77t-13 -77z" />
<glyph horiz-adv-x="0" />
<glyph unicode="&#xd;" horiz-adv-x="2048" />
<glyph unicode=" "  horiz-adv-x="784" />
<glyph unicode="&#x09;" horiz-adv-x="784" />
<glyph unicode="&#xa0;" horiz-adv-x="784" />
<glyph unicode="!" horiz-adv-x="716" d="M223 141q0 72 55.5 125t124.5 53q61 0 101.5 -41t40.5 -100q0 -72 -55.5 -125t-124.5 -53q-60 0 -101 39.5t-41 101.5zM391 512q0 39 4 195l17 530q0 62 6 82q17 55 67.5 90t108.5 35q59 0 100 -36t41 -93q0 -31 -22 -94l-213 -699q-12 -35 -22.5 -47t-39.5 -12 q-21 0 -32 7.5t-13 16t-2 25.5z" />
<glyph unicode="&#x22;" d="M475 735q1 135 1 321q1 217 3.5 257.5t18.5 65.5q1 2 2 3q22 34 57.5 53t75.5 19q46 0 78 -26t32 -74q0 -28 -20 -90l-174 -529h-74zM868 735l2 62v90q0 94 1 240t1 151q0 45 12.5 79.5t29.5 52t40.5 28.5t39.5 13.5t32 2.5q47 0 80 -26t33 -74q0 -24 -32.5 -125.5 t-84.5 -255t-78 -238.5h-76z" />
<glyph unicode="#" horiz-adv-x="1961" d="M178 285q0 37 58 37h419l183 380h-523q-17 0 -28 1.5t-21 10.5t-10 25q0 37 59 37h559l277 576q1 2 7.5 16t12 23.5t16.5 18.5t23 9q13 0 23 -11t10 -26q0 -12 -20 -57l-265 -549h469l277 576l3 8q3 8 5 12t6.5 12t8.5 13t9.5 11t11.5 8.5t13 2.5q15 0 25 -11t10 -26 q0 -17 -22 -57l-265 -549h383q58 0 58 -37t-60 -37h-417l-183 -380h522q62 0 62 -37q0 -39 -66 -39h-555l-276 -574q-1 -2 -5 -11t-6.5 -13.5t-6.5 -12.5t-7.5 -12t-8.5 -9t-10 -7t-11 -2h-7q-13 1 -21.5 11.5t-8.5 25.5q0 17 22 57l262 547h-469l-276 -574q-1 -2 -7 -16 t-9.5 -19t-10 -14.5t-13.5 -13.5t-15 -4h-7q-12 2 -20 12t-8 25q0 12 20 57l264 547h-380q-60 0 -60 39zM739 322h469l183 380h-469z" />
<glyph unicode="$" d="M188 315q0 60 14.5 102.5t39 62.5t48.5 28t50 8q46 0 79.5 -29.5t33.5 -78.5q0 -21 -7.5 -44.5t-23.5 -47.5t-48 -40t-75 -16h-4q6 -19 10 -30t23 -38.5t44 -45.5t73 -35.5t110 -22.5l84 514q-1 0 -19.5 4t-26.5 6t-30 8.5t-35 12t-36 16t-38.5 21t-36 26.5t-35.5 33.5 t-30.5 40.5t-27.5 49q-29 65 -29 142q0 60 17.5 121.5t56.5 122t94 108.5t137 80.5t178 38.5l17 104h98l-19 -104q83 -7 147.5 -29.5t102.5 -53t62.5 -70.5t33.5 -76.5t9 -76.5q0 -57 -14.5 -97t-39 -59.5t-48.5 -27.5t-50 -8q-48 0 -80 30.5t-32 77.5q0 20 6.5 42t22 47 t47.5 41.5t77 17.5q-32 66 -92.5 101t-165.5 42l-2 -2l-76 -454q23 -5 40 -9.5t55.5 -18.5t67 -30.5t64 -47t58.5 -66.5t39 -90t16 -117q0 -54 -14.5 -114.5t-50.5 -128t-89 -122.5t-139.5 -95t-193.5 -48l-17 -103h-98l17 103q-82 8 -145.5 32.5t-101 57t-61.5 74 t-32.5 80.5t-8.5 81zM479 1083q0 -142 211 -184l72 432q-70 -8 -123.5 -31.5t-82.5 -52t-47.5 -62.5t-24 -58t-5.5 -44zM651 90q74 12 129.5 40.5t84.5 61t46.5 71.5t22 64t4.5 46q0 18 -3 36t-15 45.5t-32.5 49.5t-60.5 43.5t-94 32.5z" />
<glyph unicode="%" horiz-adv-x="1961" d="M309 1030q0 94 29.5 184t82.5 162t135 116t179 44q91 0 162 -61q191 -156 424 -156q124 0 239 47t205 145q25 25 50 25q26 0 44.5 -18.5t18.5 -44.5q0 -25 -29 -54l-1415 -1505q-25 -29 -53 -29q-23 0 -42.5 17t-19.5 47q0 26 25 51l1204 1280l-2 2q-110 -37 -227 -37 q-175 0 -346 88q8 -35 8 -100q0 -130 -43 -247.5t-130.5 -196t-201.5 -78.5q-81 0 -146.5 33t-108 107t-42.5 179zM508 938q0 -11 0.5 -20.5t3 -30t9.5 -36.5t18 -32.5t30.5 -25.5t44.5 -9q60 0 113 42.5t87 109t53.5 146.5t19.5 157q0 101 -40.5 162t-111.5 61 q-121 0 -178 -200q-13 -46 -31 -158t-18 -166zM1217 205q0 130 51 245t149.5 188t222.5 73q105 0 176.5 -75.5t71.5 -227.5q0 -95 -25 -187t-71 -167.5t-119 -122t-160 -46.5q-80 0 -145.5 33t-108 107t-42.5 180zM1415 113q0 -19 2.5 -37t11 -48.5t32.5 -49.5t61 -19 q78 0 142 70.5t97 173.5t33 211t-42 165.5t-110 57.5q-57 0 -103.5 -48.5t-74.5 -152.5q-12 -43 -30.5 -153.5t-18.5 -169.5z" />
<glyph unicode="&#x26;" horiz-adv-x="1830" d="M143 248q0 137 144 244l268 202q-33 127 -33 250q0 112 19.5 187.5t70.5 140.5q61 79 155 125.5t187 46.5q90 0 140.5 -62.5t50.5 -160.5q0 -68 -28 -122.5t-120 -144.5q-84 -84 -213 -180q17 -63 52 -136t68.5 -127t74 -111t56.5 -77t28 -34q187 153 477 506 q-55 18 -143 18l16 96q135 -6 248 -6q104 0 203 6l-17 -96q-133 0 -188 -18q-236 -278 -325.5 -375t-213.5 -199q2 -3 14 -17t37 -36.5t55.5 -43t73 -35.5t84.5 -15q54 0 106 16.5t96 56t56 95.5h97q-21 -117 -130 -191t-245 -74q-219 0 -410 129q-213 -129 -426 -129 q-101 0 -186 28.5t-142 91.5t-57 151zM414 274q0 -200 141 -200q151 0 324 90q-99 89 -177 209t-122 245q-86 -57 -126 -151t-40 -193zM748 1022q0 -82 16 -170q116 91 188 168q59 65 79 112.5t20 98.5q0 19 -3 38.5t-11.5 44.5t-29 40.5t-49.5 15.5q-52 0 -97.5 -34.5 t-74.5 -86.5q-38 -74 -38 -227z" />
<glyph unicode="'" horiz-adv-x="653" d="M410 735v107q0 13 2 165t2 193v53q0 60 4 83.5t16 45.5q22 34 57.5 53t75.5 19h2q42 0 75.5 -24t33.5 -80q0 -17 -14 -63.5t-86 -266.5q-55 -168 -93 -285h-75z" />
<glyph unicode="(" horiz-adv-x="915" d="M287 287q0 162 35.5 318t92 277t128 229t143.5 184t137 131.5t110.5 82.5t63.5 27q35 0 35 -29q0 -10 -4 -16q-4 -4 -39 -35q-122 -103 -217 -244t-149 -276.5t-88.5 -283.5t-46 -256.5t-11.5 -202.5q0 -403 209 -644q16 -18 16 -30q0 -29 -36 -29q-38 0 -127 96 t-152 224q-100 209 -100 477z" />
<glyph unicode=")" horiz-adv-x="915" d="M51 -481q0 10 4.5 15.5t24.5 21.5q235 203 356 477q170 386 170 801q0 197 -48 355t-157 286q-3 4 -7 9t-5.5 6.5t-3 5t-2 5.5t-0.5 6q0 29 37 29t124 -93.5t142 -203.5q111 -221 111 -500q0 -144 -27.5 -283t-73.5 -250.5t-105 -213.5t-122.5 -178.5t-125.5 -139 t-115 -102.5t-89.5 -61t-50.5 -21q-37 0 -37 29z" />
<glyph unicode="*" d="M299 885q0 70 76 96l307 100l-266 99q-28 9 -42 22.5t-14 44.5q0 42 34.5 77.5t74.5 35.5q8 0 15 -1.5t12 -2.5l4 -2l239 -207v278q0 32 4.5 46.5t24.5 33.5q31 31 76 31q35 0 56.5 -20t21.5 -48q0 -6 -9 -36l-94 -285l285 190q33 23 55 23q36 0 57 -25.5t21 -56.5 q0 -70 -76 -96l-307 -101l266 -98q28 -9 42 -23t14 -45q0 -42 -34.5 -77t-74.5 -35q-8 0 -15 1.5t-12 3.5l-4 1l-239 207v-279q0 -32 -4.5 -46.5t-24.5 -33.5q-30 -30 -76 -30q-35 0 -56.5 19.5t-21.5 47.5q0 15 4 27l99 295l-254 -170q-65 -43 -86 -43q-36 0 -57 25.5 t-21 56.5z" />
<glyph unicode="+" horiz-adv-x="1830" d="M217 512q0 37 68 37h684q0 4 57.5 354t60.5 359q12 32 37 32q35 0 35 -45q0 -10 -3 -27.5t-3 -21.5l-109 -651h658q19 0 29 -0.5t24 -4t20.5 -11.5t6.5 -21q0 -37 -64 -37h-686l-2 -2q0 -1 -29 -176t-58.5 -353.5t-31.5 -185.5q-12 -28 -37 -28q-13 0 -23.5 10t-10.5 31 q0 18 19 129t48.5 283t46.5 292h-663q-22 0 -35.5 1.5t-26 10.5t-12.5 25z" />
<glyph unicode="," horiz-adv-x="653" d="M168 -356q0 2 0.5 4t0.5 3.5t1 3t1.5 2.5t2.5 3t2.5 3t3 3t4 2.5t4.5 3.5t5 4q194 138 249 361l-6 -4q-5 -4 -15 -9t-22.5 -10.5t-30.5 -9.5t-36 -4q-65 0 -103.5 37.5t-38.5 99.5q0 69 51.5 125.5t131.5 56.5q77 0 116 -57.5t39 -140.5q0 -77 -29 -157.5t-71.5 -143 t-88.5 -113t-82.5 -77.5t-51.5 -27q-13 0 -25 14t-12 27z" />
<glyph unicode="-" horiz-adv-x="784" d="M84 356l33 199h626l-32 -199h-627z" />
<glyph unicode="." horiz-adv-x="653" d="M193 139q0 73 57 126.5t125 53.5q60 0 99.5 -38.5t39.5 -100.5q0 -70 -54 -125t-128 -55q-60 0 -99.5 40t-39.5 99z" />
<glyph unicode="/" d="M53 -473q0 13 15 35l1110 1874q4 7 15.5 26.5t17 28t14.5 21t17.5 17.5t17.5 5q13 0 22.5 -11.5t9.5 -25.5q0 -16 -24 -55l-1123 -1895q-18 -31 -29.5 -44t-27.5 -13q-13 0 -24 11.5t-11 25.5z" />
<glyph unicode="0" d="M176 406q0 71 13.5 181.5t53.5 258t97 237.5q20 31 36.5 54t59.5 65t90 69t123 48.5t162 21.5q408 0 408 -434q0 -29 -6 -92t-20 -164.5t-48.5 -213.5t-81.5 -193q-155 -267 -479 -267q-408 0 -408 429zM414 254q0 -57 18 -99t46.5 -63t58 -31t59.5 -10q67 0 131 41 t102 117q40 84 97 415t57 445q0 47 -11.5 83.5t-31.5 57t-39.5 33.5t-44 18t-35.5 6t-22 1q-77 0 -145.5 -48.5t-96.5 -121.5q-41 -118 -92 -431.5t-51 -412.5z" />
<glyph unicode="1" d="M197 0l16 96h285l174 1057q-129 -39 -273 -39h-39l15 96h41q32 0 66.5 2.5t105.5 13t145.5 40.5t134.5 75h25t19 -2t17 -6t9 -11.5t4 -18.5q0 -3 -0.5 -6.5t-1.5 -10t-2 -12.5l-197 -1178h287l-16 -96q-90 6 -408 6q-317 0 -407 -6z" />
<glyph unicode="2" d="M117 0l10 59q3 14 7 20.5t20 22.5l501 439q285 249 285 475q0 103 -57 166t-166 63q-54 0 -108.5 -17t-79.5 -31.5t-37 -25.5q47 -13 70.5 -46.5t23.5 -73.5q0 -72 -51 -122t-119 -50q-19 0 -39 6t-41.5 19t-35 39t-13.5 61q0 134 139 235.5t350 101.5q198 0 322.5 -89 t124.5 -244q0 -47 -12.5 -92t-29.5 -80t-50 -73t-58.5 -62.5t-70.5 -58.5t-71 -51.5t-75 -49.5q-196 -128 -410 -285h297q193 0 213 12q21 13 45.5 77.5t36.5 109.5h97l-140 -455h-878z" />
<glyph unicode="3" d="M143 250q0 93 54.5 143.5t126.5 50.5q71 0 105 -41.5t34 -89.5q0 -59 -40 -112t-110 -66q90 -69 244 -69q149 0 221 137q22 44 37.5 116t20 117t4.5 60q0 180 -183 180h-88q-20 0 -29.5 1t-18.5 7.5t-9 20.5q0 41 25 45q4 0 9.5 0.5t13.5 1t28.5 2t48.5 2.5 q64 4 115 37.5t80.5 79t49 99.5t26.5 95t7 70q0 125 -145 125q-133 0 -242 -76q11 -2 24 -8t31 -18.5t30 -37t12 -55.5q0 -65 -45.5 -114.5t-118.5 -49.5q-56 0 -90.5 33t-34.5 88q0 53 30 107.5t84 102t142 77.5t192 30q192 0 299 -69t107 -182q0 -112 -92 -215t-252 -156 q142 -33 219.5 -110t77.5 -193q0 -57 -20.5 -116t-66.5 -117.5t-111.5 -103.5t-164.5 -73.5t-217 -28.5q-180 0 -300 72.5t-120 200.5z" />
<glyph unicode="4" d="M119 319l16 99l871 899q17 19 26.5 22.5t40.5 3.5q14 0 20 -0.5t16 -3t14.5 -9t4.5 -17.5l-2 -29l-145 -868h199l-17 -97h-198l-37 -223h198l-16 -96q-72 6 -332 6q-274 0 -352 -6l16 96h230l37 223h-590zM242 416h506l106 635z" />
<glyph unicode="5" d="M168 283q0 51 16 89t36 55.5t46.5 28t39 12t22.5 1.5q44 0 82.5 -29t38.5 -88q0 -57 -39 -106t-123 -53q74 -127 241 -127q202 0 273 188q20 54 39.5 179.5t19.5 176.5q0 68 -33.5 111t-107.5 43q-177 0 -295 -115q-14 -15 -22 -19.5t-25 -4.5q-45 0 -45 41q0 10 6 43 l96 583q4 28 12 38.5t23 10.5q5 0 33 -12q137 -53 301 -53q167 0 321 55q23 10 31 10q13 0 22 -9t9 -21q0 -27 -42 -70t-79.5 -71t-71.5 -50q-162 -98 -338 -98q-57 0 -153 16l-43 -268q122 68 268 68q198 0 303 -98.5t105 -254.5q0 -100 -41.5 -191t-116.5 -162 t-191.5 -113t-255.5 -42q-162 0 -262 87.5t-100 218.5z" />
<glyph unicode="6" d="M186 434q0 168 38.5 313.5t107 253.5t162 185t205.5 116t235 39q136 0 202 -60.5t66 -154.5q0 -48 -14.5 -83.5t-37.5 -53.5t-47 -26.5t-48 -8.5q-59 0 -87 33.5t-28 75.5q0 10 2 23t10.5 34t22 38.5t40.5 32t62 17.5q-44 54 -143 54q-72 0 -152 -34t-143 -110 q-95 -117 -143 -411q37 52 77.5 85.5t80.5 45.5t60.5 15t47.5 3q98 0 175.5 -29.5t123.5 -79t70 -110t24 -127.5q0 -232 -156 -382.5t-403 -150.5q-207 0 -308.5 121t-101.5 336zM434 244q0 -90 49 -134t115 -44q60 0 105 18t70.5 50t36.5 54t21 52q16 56 40 198.5t24 198.5 q0 145 -156 145q-91 0 -161 -72.5t-107 -194t-37 -271.5z" />
<glyph unicode="7" d="M274 864l160 520h96q0 -13 1.5 -20t11 -15t28.5 -12q19 -5 171 -11.5t202 -6.5h418q-6 -54 -11.5 -68.5t-29.5 -38.5l-410 -403q-37 -44 -67.5 -95t-54.5 -115t-39 -109.5t-32 -125.5t-23 -113t-21 -118q-22 -156 -148 -156q-47 0 -80.5 28.5t-33.5 82.5q0 38 20.5 113.5 t63 181t126.5 234t193 237.5q128 131 211 209h-344q-209 0 -225 -14q-35 -24 -86 -185h-97z" />
<glyph unicode="8" d="M147 274q0 55 15.5 105.5t37.5 87t56 70t62 54t63.5 40t53 27.5t38.5 16q-149 97 -149 260q0 54 17 109t55 109t93 96t138.5 67.5t183.5 25.5q173 0 276 -65.5t103 -190.5q0 -205 -258 -329q41 -27 63 -43t55.5 -47.5t51 -60.5t31.5 -73t14 -94q0 -58 -18 -118.5 t-61 -123t-105.5 -110.5t-160.5 -78.5t-216 -30.5q-200 0 -319.5 75.5t-119.5 221.5zM326 276q0 -59 23.5 -101.5t64 -65.5t86 -33t98.5 -10q91 0 161 21t110 56t59.5 75t19.5 83q0 30 -7.5 51t-31.5 43t-47.5 37.5t-77.5 48.5l-221 137q-102 -50 -169.5 -140t-67.5 -202z M500 1079q0 -57 73 -104l273 -166q190 114 190 276q0 84 -62 130.5t-175 46.5q-88 0 -150.5 -18.5t-93 -48.5t-43 -58.5t-12.5 -57.5z" />
<glyph unicode="9" d="M195 197q0 48 14.5 83t38 52.5t47 25t47.5 7.5q53 0 83 -30.5t30 -78.5q0 -56 -35 -96t-88 -49q56 -45 160 -45q80 0 149 36t117 93q57 69 86.5 167t56.5 254q-101 -151 -266 -151q-105 0 -185 32.5t-124 85t-65 110.5t-21 118q0 229 157.5 379.5t413.5 150.5 q199 0 299 -117.5t100 -330.5q0 -53 -5.5 -111.5t-22 -151.5t-58 -193.5t-102.5 -186.5q-85 -118 -225.5 -195.5t-304.5 -77.5q-59 0 -110 11.5t-94 36t-68 68.5t-25 104zM502 688q0 -18 1 -30.5t9 -37t22.5 -40.5t45.5 -28.5t75 -12.5q78 0 139.5 50.5t97.5 132.5 t54.5 176.5t18.5 191.5q0 75 -41.5 123.5t-114.5 48.5q-86 0 -147.5 -41t-90.5 -119q-21 -61 -45 -207.5t-24 -206.5z" />
<glyph unicode=":" horiz-adv-x="653" d="M190 139q0 69 55.5 124.5t127.5 55.5q63 0 102 -40t39 -99q0 -70 -55 -125t-127 -55q-63 0 -102.5 40.5t-39.5 98.5zM289 729q0 69 55.5 124.5t126.5 55.5q63 0 102 -40t39 -99q0 -70 -55 -125t-127 -55q-63 0 -102 40t-39 99z" />
<glyph unicode=";" horiz-adv-x="653" d="M168 -356q0 2 0.5 4t0.5 3.5t1 3t1.5 2.5t2.5 3t2.5 3t3 3t4 2.5t4.5 3.5t5 4q194 138 249 361l-6 -4q-5 -4 -15 -9t-22.5 -10.5t-30.5 -9.5t-36 -4q-65 0 -103.5 37.5t-38.5 99.5q0 69 51.5 125.5t131.5 56.5q77 0 116 -57.5t39 -140.5q0 -77 -29 -157.5t-71.5 -143 t-88.5 -113t-82.5 -77.5t-51.5 -27q-13 0 -25 14t-12 27zM291 731q0 69 54 123.5t126 54.5q60 0 100.5 -38.5t40.5 -98.5q0 -74 -57.5 -127t-124.5 -53q-61 0 -100 40t-39 99z" />
<glyph unicode="&#x3c;" horiz-adv-x="1830" d="M283 512q0 27 49 45l1409 602q24 12 43 12q15 0 25 -10t10 -24q0 -5 -1.5 -9.5t-3 -7.5t-5.5 -7t-6.5 -5.5t-8 -5t-7 -4t-8.5 -3.5l-7 -3l-1366 -584q15 -6 163 -80l1002 -500q39 -19 39 -43q0 -14 -11 -24.5t-24 -10.5q-8 0 -17.5 3.5t-20.5 9.5t-15 8l-1194 594 q-2 1 -6.5 3.5t-6.5 3.5t-6.5 4t-7 4.5t-6 4.5t-5 6t-3.5 6t-3 7t-1 8z" />
<glyph unicode="=" horiz-adv-x="1830" d="M178 285q0 37 64 37h1448q53 0 53 -39q0 -34 -51 -37h-1456q-58 0 -58 39zM254 739q0 37 59 37h1452q30 0 42 -11.5t12 -25.5t-12 -25.5t-42 -11.5h-1454q-57 0 -57 37z" />
<glyph unicode="&#x3e;" horiz-adv-x="1830" d="M180 -115q0 30 45 45l1164 498q23 10 64 27t75 31t63 28l-186 92l-942 469q-25 11 -35 16.5t-23 16t-16 22.5q-3 16 7 28.5t28 12.5q15 0 55 -20l1192 -594q45 -20 45 -45q0 -29 -49 -47l-1409 -602q-39 -13 -43 -13q-15 0 -25 10.5t-10 24.5z" />
<glyph unicode="?" horiz-adv-x="1112" d="M324 1151q0 34 14 70.5t47.5 75t83 68.5t128.5 49.5t175 19.5q28 0 49 -0.5t66.5 -5t79.5 -13t76 -25.5t69.5 -41t46.5 -62t19 -85q0 -69 -41 -130.5t-123 -104.5q-64 -34 -116 -71.5t-86.5 -68.5t-61.5 -68t-41 -62t-25.5 -60.5t-15 -52t-9.5 -47.5q-9 -55 -10 -56 q-3 -10 -10 -12q-8 -6 -35 -6q-16 0 -24 1t-15.5 9t-7.5 23q0 7 9.5 64t17.5 85q60 218 247 379q91 76 91 236q0 21 -3 33t-17 30.5t-50.5 27.5t-95.5 9q-138 0 -246 -68q74 -23 74 -102q0 -64 -43.5 -106t-102.5 -42q-51 0 -82.5 31t-31.5 78zM387 139q0 71 54.5 125.5 t127.5 54.5q62 0 102 -41t40 -98q0 -71 -55 -125.5t-128 -54.5q-61 0 -101 41t-40 98z" />
<glyph unicode="@" horiz-adv-x="1830" d="M238 582q0 100 25.5 200.5t74 196t126 178t176 144.5t229.5 97.5t280 35.5q147 0 270 -38t214.5 -110.5t142.5 -186.5t51 -259q0 -32 -4 -73.5t-14.5 -98t-26.5 -111t-44 -109t-62.5 -95t-85.5 -66t-111 -25.5q-34 0 -71 4t-92 26.5t-79 61.5q-44 -37 -116 -64.5 t-163 -27.5q-115 0 -204.5 40t-144 125t-54.5 204q0 95 35.5 187.5t101 169t172 124t236.5 47.5q42 0 82 -7.5t82.5 -25.5t79.5 -53.5t61 -85.5h78q22 0 32.5 -1t19.5 -8.5t9 -23.5q0 -7 -20 -124.5t-25 -145.5q-45 -277 -45 -278q0 -70 49 -70q46 0 84 32.5t61.5 84.5 t41 110t26 118t12 99.5t3.5 61.5q0 130 -45 230.5t-125 162.5t-185 93.5t-231 31.5q-157 0 -292 -46t-229 -123.5t-160.5 -178.5t-98 -211t-31.5 -221q0 -110 35 -202.5t104.5 -164t186 -112t268.5 -40.5q308 0 618 115q25 10 35.5 12t36.5 2h49q17 0 23.5 -0.5t16.5 -2.5 t13.5 -8.5t3.5 -16.5q0 -20 -22 -29q-50 -20 -115.5 -40t-169.5 -46t-233.5 -42.5t-257.5 -16.5q-174 0 -308 46t-216 127.5t-123 188t-41 232.5zM784 588q0 -107 46 -179.5t139 -72.5q130 0 231 96q20 19 25 28t8 32l74 444q3 21 6 33q-66 116 -211 116q-74 0 -136.5 -47 t-101 -120.5t-59.5 -159.5t-21 -170z" />
<glyph unicode="A" horiz-adv-x="1779" d="M84 0l16 96h43q55 0 107 6q40 5 52 11t24 28l714 1241q18 32 37 40t49 8q38 0 51.5 -10.5t22.5 -47.5l311 -1276h199l-16 -96q-72 6 -332 6q-285 0 -363 -6l15 96h194l-71 299h-549l-158 -276q35 -15 86 -19q37 -4 94 -4l-16 -96q-76 6 -268 6q-28 0 -68 -1t-92 -2.5 t-82 -2.5zM645 492h467l-139 569z" />
<glyph unicode="B" horiz-adv-x="1675" d="M80 0l14 96h223l201 1213h-221l16 96h889q91 0 170.5 -18t144 -53.5t101.5 -96t37 -139.5q0 -131 -108 -231t-302 -134q170 -15 267.5 -96t97.5 -207q0 -58 -22 -117.5t-69 -116t-113.5 -100t-164 -70t-211.5 -26.5h-950zM586 96h377q88 0 156.5 31.5t109.5 84t61.5 116 t20.5 133.5q0 48 -10.5 86t-26 62t-39.5 41.5t-43 25.5t-44.5 12.5t-37 5t-27.5 0.5h-397zM698 768h320q83 0 151 29.5t110 78.5t64.5 109.5t22.5 124.5q0 47 -12 83.5t-33.5 57t-42.5 33.5t-48.5 18t-40.5 6t-30 1h-371z" />
<glyph unicode="C" horiz-adv-x="1699" d="M238 582q0 104 28.5 207t81.5 197t135.5 174.5t185 140t235.5 93t282 33.5q231 0 383 -139l182 139q13 0 18.5 -0.5t15 -3t13.5 -9t4 -17.5q0 -5 -4 -25l-76 -454q-6 -32 -14.5 -39t-42.5 -7q-14 0 -21.5 1t-20 6.5t-13 16.5t1.5 32q-4 104 -39 184t-90.5 126.5 t-120.5 69.5t-137 23q-152 0 -287.5 -58t-218.5 -163q-49 -64 -85.5 -151.5t-53 -158.5t-26 -148.5t-10.5 -106t-1 -47.5q0 -105 26 -179t86 -131q57 -54 151 -84t204 -30q74 0 153 21.5t158.5 66.5t142 127t88.5 190q4 20 15 24.5t35 4.5q14 0 22 -1t16.5 -8.5t8.5 -21.5 q0 -5 -2.5 -21.5t-15.5 -55t-33.5 -78.5t-63 -91.5t-98.5 -95.5q-208 -158 -480 -158q-212 0 -372.5 68.5t-253 206.5t-92.5 330z" />
<glyph unicode="D" horiz-adv-x="1804" d="M80 0l14 96h223l201 1213h-221l16 96h883q61 0 120.5 -8.5t120 -28.5t113.5 -50t99.5 -76t79.5 -103.5t52 -135.5t19 -169q0 -168 -60 -319.5t-166.5 -266t-265.5 -181.5t-345 -67h-883zM596 96h299q95 0 175.5 21t135 52.5t99.5 79t70.5 88t46.5 94.5t28.5 83t16.5 67 q1 3 1 5t5.5 32.5t11.5 64.5t12 77t10 87.5t4 78.5q0 200 -114 293q-111 90 -301 90h-297z" />
<glyph unicode="E" horiz-adv-x="1546" d="M80 0l14 96h223l199 1200h-221l16 97h1272l-18 -494h-97q2 18 2 68q0 88 -15.5 147t-54.5 101.5t-107.5 61.5t-172.5 19h-311l-88 -526h113q67 0 112 13t74 44t44.5 73.5t25.5 109.5h96l-96 -576h-97q13 60 13 98q0 44 -14 73t-41.5 43.5t-58.5 20t-75 5.5h-112l-97 -578 h312q96 0 171 14t130 49.5t91.5 68t69.5 97.5t50 108t47 128h96l-189 -561h-1306z" />
<glyph unicode="F" horiz-adv-x="1480" d="M80 0l14 96h223l199 1200h-221l16 97h1239l-18 -494h-96q2 20 2 74q0 85 -14 141t-51 99.5t-105.5 63t-173.5 19.5h-285l-92 -551h102q129 0 182 53t72 187h96l-96 -575h-96q12 59 12 100q0 81 -45.5 110t-140.5 29h-103l-92 -553h277l-17 -96q-90 6 -411 6 q-299 0 -377 -6z" />
<glyph unicode="G" horiz-adv-x="1851" d="M238 582q0 125 38.5 246t118.5 229.5t190.5 190.5t266 130.5t334.5 48.5q231 0 381 -139l182 139q13 0 18.5 -0.5t15 -3t13.5 -9t4 -17.5q0 -5 -4 -25l-76 -454q-6 -32 -14.5 -39t-42.5 -7q-14 0 -21.5 1t-20 6.5t-13 16.5t1.5 32q-6 192 -115 297.5t-272 105.5 q-52 0 -109 -9t-129 -30.5t-143 -69t-125 -114.5q-48 -60 -83 -144.5t-52 -155t-26.5 -147t-11 -108.5t-1.5 -51q0 -114 29 -187t92 -131q62 -54 157.5 -82t196.5 -28q134 0 217 57q21 14 35 29t22.5 26.5t15 33t9 34t8.5 43.5q5 29 14.5 86.5t14.5 85.5h-293l14 96h2 q90 -6 416 -6q260 0 332 6l-17 -96h-163l-70 -424q-2 -16 -4.5 -23.5t-9.5 -14.5t-19 -7q-6 0 -37.5 14.5t-74.5 40.5t-70 51q-143 -129 -402 -129q-329 0 -524.5 159.5t-195.5 445.5z" />
<glyph unicode="H" horiz-adv-x="1843" d="M80 0l14 96h223l201 1213h-221l16 96q78 -6 367 -6q291 0 369 6l-17 -96h-221l-88 -531h655l88 531h-221l17 96q78 -6 366 -6q291 0 369 6l-17 -96h-221l-203 -1213h222l-17 -96q-78 6 -366 6q-289 0 -367 -6l14 96h224l96 586h-655l-99 -586h221l-16 -96q-78 6 -367 6 q-288 0 -366 -6z" />
<glyph unicode="I" horiz-adv-x="892" d="M68 0l16 96h233l201 1213h-231l16 96q78 -6 377 -6q301 0 379 6l-17 -96h-231l-203 -1213h234l-19 -96q-78 6 -377 6q-294 0 -378 -6z" />
<glyph unicode="J" horiz-adv-x="1216" d="M84 205q0 88 55 137t123 49q53 0 96 -34.5t43 -100.5q0 -17 -4 -36t-15.5 -45.5t-38.5 -50.5t-67 -40q75 -33 158 -33q102 0 167 70t83 178l168 1010h-287l15 96h2q90 -6 405 -6q254 0 328 6l-17 -96h-165l-168 -1010q-24 -145 -163 -233.5t-356 -88.5q-166 0 -264 61 t-98 167z" />
<glyph unicode="K" horiz-adv-x="1845" d="M80 0l14 96h223l201 1213h-221l16 96q78 -6 367 -6q291 0 369 6l-17 -96h-221l-111 -656l865 633v2q-56 21 -144 21l17 96q74 -6 299 -6q104 0 209 6l-15 -96h-37q-46 0 -72 -1t-63 -10t-61 -26l-561 -410l432 -727q9 -17 17.5 -23.5t34.5 -11t81 -4.5h59l-16 -96 q-76 6 -299 6q-277 0 -361 -6l17 96q151 0 151 23q0 7 -10 22l-332 555l-231 -168l-72 -432h221l-16 -96q-78 6 -367 6q-288 0 -366 -6z" />
<glyph unicode="L" horiz-adv-x="1415" d="M80 0l14 96h223l201 1213h-221l16 96q78 -6 375 -6q318 0 416 6l-17 -96h-276l-203 -1213h211q75 0 139.5 18t110.5 47.5t84 70t63 82.5t44.5 87.5t31.5 83t22 71.5q1 3 1 5h96l-158 -561h-1173z" />
<glyph unicode="M" horiz-adv-x="2234" d="M82 0l14 96h54q118 0 172 21l198 1192h-221l16 96h457q45 0 57.5 -9.5t22.5 -45.5l311 -1080l674 1086q21 34 39 41.5t57 7.5h455l-16 -96h-222l-202 -1213h221l-17 -96q-74 6 -348 6q-276 0 -350 -6l14 96h224l200 1209l-2 2l-782 -1260q-26 -47 -70 -47q-29 0 -39.5 13 t-19.5 46l-350 1221h-2l-195 -1163q54 -21 164 -21h53l-16 -96q-78 6 -275 6q-192 0 -276 -6z" />
<glyph unicode="N" horiz-adv-x="1843" d="M80 0l14 96h53q118 0 172 21l199 1192h-221l16 96h465q34 0 43.5 -4t24.5 -25l655 -960l139 839l2 25q0 29 -161 29h-54l17 96q84 -6 276 -6q197 0 277 6l-17 -96h-53q-53 0 -106 -6q-46 -4 -55.5 -10.5t-14.5 -32.5l-201 -1207q-6 -35 -17 -44t-42 -9q-25 0 -32 4 t-23 27l-822 1200l-184 -1114q54 -21 164 -21h53l-16 -96q-78 6 -275 6q-192 0 -276 -6z" />
<glyph unicode="O" horiz-adv-x="1767" d="M236 555q0 129 36 253.5t110 236.5t177.5 197t248.5 135t312 50q299 0 472 -155.5t173 -431.5q0 -127 -35 -249.5t-108 -234t-176 -195.5t-249 -134t-316 -50q-138 0 -254 35.5t-204 105t-137.5 181.5t-49.5 256zM541 485q0 -191 80 -295q100 -127 274 -127q49 0 99 12 t106.5 38.5t111.5 78t99 121.5q47 77 80.5 183t48 202t20.5 156.5t6 89.5q0 95 -23.5 168t-59.5 116.5t-85.5 71t-95 37t-94.5 9.5q-69 0 -137.5 -21t-136 -65.5t-125.5 -124.5t-93 -187q-36 -111 -55.5 -248.5t-19.5 -214.5z" />
<glyph unicode="P" horiz-adv-x="1609" d="M80 0l14 96h223l201 1213h-221l16 96h854q212 0 347 -89.5t135 -252.5q0 -125 -78.5 -227t-214 -160t-299.5 -58h-361l-88 -522h221l-16 -96q-78 6 -367 6q-288 0 -366 -6zM698 702h273q201 0 291 99q38 43 61 146.5t23 180.5q0 92 -67 136.5t-206 44.5h-274z" />
<glyph unicode="Q" horiz-adv-x="1767" d="M236 555q0 129 36 253.5t110 236.5t177.5 197t248.5 135t312 50q299 0 472 -155.5t173 -431.5q0 -123 -35.5 -245t-102.5 -231.5t-174 -196.5t-239 -132q22 -42 44.5 -68.5t46 -36t37.5 -12t38 -2.5q23 0 48.5 3t57 10.5t55.5 25.5t32 43q4 13 7 19.5t11 13t21 6.5 q14 0 25.5 -10t11.5 -29t-11 -61t-37.5 -100t-63.5 -109.5t-97.5 -88t-130.5 -36.5q-42 0 -74.5 11.5t-55 27.5t-39.5 48.5t-26.5 58.5t-17 75t-10.5 81t-7 91q-105 -19 -198 -19q-138 0 -254 35.5t-204 105t-137.5 181.5t-49.5 256zM526 475q0 -274 185 -373q-4 20 -4 29 q0 76 66.5 131t156.5 55q46 0 83 -14.5t65 -44t45 -54t38 -63.5q64 40 116 105.5t83.5 133.5t55 149.5t34.5 143.5t17.5 126.5t7 87.5t0.5 37q0 97 -23.5 172.5t-60 121.5t-86.5 76t-98 41t-99 11q-40 0 -82.5 -8t-99 -29t-116.5 -68t-110 -115q-51 -71 -88.5 -173.5 t-54.5 -201t-24 -167t-7 -109.5zM782 131q0 -72 111 -72q88 0 176 33q-12 81 -45 116.5t-92 35.5t-104.5 -34t-45.5 -79z" />
<glyph unicode="R" horiz-adv-x="1765" d="M80 0l14 96h223l201 1213h-221l16 96h779q156 0 279 -37t197 -114.5t74 -184.5q0 -135 -116 -234.5t-289 -140.5q59 -22 100.5 -54t60.5 -68t26.5 -66t7.5 -60q0 -24 -4.5 -107t-4.5 -106q0 -39 4 -67.5t14.5 -56.5t33.5 -43t57 -15q18 0 38.5 6t45 21t45.5 48t33 79 q6 21 16 28t33 7q47 0 47 -37q0 -13 -7 -36.5t-26.5 -57t-48 -62.5t-79.5 -49.5t-113 -20.5q-410 0 -410 238q0 29 16 121q21 124 21 143q0 31 -9 60.5t-30 59.5t-64.5 48.5t-103.5 18.5h-246l-94 -570h221l-16 -96q-74 6 -361 6q-286 0 -360 -6zM705 739h235q202 0 305 90 q34 30 56.5 97t28 114.5t5.5 77.5q0 43 -12.5 74.5t-43.5 59.5t-91.5 42.5t-149.5 14.5h-239z" />
<glyph unicode="S" horiz-adv-x="1306" d="M133 6l68 416q4 31 13 38t38 7q14 0 22.5 -1t17.5 -8.5t9 -21.5q0 -1 -3 -20t-3 -49q0 -64 22.5 -114.5t61.5 -81t82.5 -51.5t95 -30t88 -12.5t72.5 -3.5q88 0 153.5 30.5t98.5 77t48 90.5t15 84q0 45 -16 80.5t-35 55t-51 35t-46.5 20t-39.5 10.5q-82 17 -174 39 q-79 17 -116.5 27t-83.5 35.5t-85 66.5q-90 96 -90 233q0 58 18 120t59.5 125t100.5 112.5t149.5 80.5t198.5 31q206 0 336 -114l111 96q14 12 20 15t19 3q36 0 36 -30q0 -5 -4 -25l-63 -387q-6 -33 -15.5 -40t-37.5 -7q-33 0 -40 9t-7 44q-1 46 -7.5 86.5t-29 91t-59 86 t-104 60t-157.5 24.5q-66 0 -120 -17.5t-87.5 -45t-56.5 -62t-32 -66.5t-9 -61q0 -70 47.5 -116t120.5 -62l276 -61q139 -31 216 -133.5t77 -229.5q0 -63 -18 -129.5t-59.5 -135t-101.5 -122t-153.5 -87.5t-205.5 -34q-256 0 -396 113q-33 -32 -108 -94q-16 -13 -22 -16 t-19 -3q-35 0 -35 29z" />
<glyph unicode="T" horiz-adv-x="1638" d="M233 889l127 493h1377l-39 -493h-96q8 64 8 137q0 46 -3.5 77t-19 68.5t-44 60.5t-81 38.5t-127.5 15.5h-155l-199 -1190h313l-16 -96q-111 6 -459 6t-459 -6l17 96h313l197 1190h-156q-62 0 -112 -11t-85 -25.5t-65 -47t-47.5 -57t-36.5 -76t-28 -83t-27 -97.5h-97z" />
<glyph unicode="U" horiz-adv-x="1810" d="M297 1309l16 96q78 -6 367 -6q291 0 369 6l-17 -96h-221l-143 -860q-13 -84 -13 -119q0 -256 306 -256q115 0 209.5 32.5t156.5 89t100 125.5t52 148l131 786l2 25q0 29 -162 29h-53l16 96q84 -6 277 -6q196 0 276 6l-16 -96h-54q-54 0 -106 -6q-46 -4 -55.5 -10.5 t-14.5 -32.5l-133 -801q-11 -65 -38.5 -129t-80 -129t-122 -114t-173 -79.5t-225.5 -30.5q-144 0 -256.5 34t-180.5 93t-103 134.5t-35 162.5q0 27 6 68l139 840h-221z" />
<glyph unicode="V" horiz-adv-x="1779" d="M270 1309l17 96q72 -6 323 -6q285 0 363 6l-15 -96h-192l270 -981l570 934q12 18 12 22q0 25 -174 25l16 96q76 -6 266 -6q31 0 70 1t87.5 2.5t76.5 2.5l-16 -96h-39q-72 0 -110.5 -6.5t-48.5 -14t-20 -24.5l-749 -1229q-21 -33 -38 -42t-52 -9q-29 0 -43.5 6.5 t-19.5 15.5t-11 31l-352 1272h-191z" />
<glyph unicode="W" horiz-adv-x="2433" d="M268 1309l17 96q74 -6 311 -6q280 0 358 6l-14 -96h-197l205 -938l400 721l-50 217h-174l17 96q74 -6 311 -6q280 0 358 6l-14 -96h-197l205 -938l492 886l12 31q-66 21 -203 21l17 96q76 -6 276 -6q60 0 219 6l-16 -96q-85 0 -125.5 -5t-51.5 -12.5t-22 -27.5 l-682 -1229q-11 -20 -18 -29t-21.5 -15.5t-38.5 -6.5q-29 0 -43.5 10.5t-21.5 44.5l-201 919l-512 -923q-11 -20 -18 -29t-21.5 -15.5t-38.5 -6.5q-29 0 -43.5 10.5t-21.5 44.5l-279 1270h-174z" />
<glyph unicode="X" horiz-adv-x="1779" d="M70 0l16 96h59q60 0 123 6q52 4 66.5 9.5t32.5 25.5l501 545l-348 627h-201l15 96h2q72 -6 330 -6q292 0 370 6l-16 -96h-170l225 -404l352 381q-68 23 -184 23l14 96h3q72 -6 309 -6q188 0 274 6l-16 -96h-60q-65 0 -127 -6q-46 -4 -60.5 -10t-29.5 -23l-424 -457 l400 -717h200l-18 -96q-72 6 -330 6q-286 0 -370 -6l16 96h170l-274 494l-433 -471q70 -23 185 -23l-17 -96q-74 6 -311 6q-188 0 -274 -6z" />
<glyph unicode="Y" horiz-adv-x="1779" d="M258 1309l16 96q72 -6 336 -6q291 0 375 6l-16 -96h-174l315 -609l496 586q-1 1 -2 2.5t-4 3t-9 2.5q-44 15 -139 15l16 96q80 -6 271 -6q23 0 233 6l-16 -96h-41q-55 0 -115 -6q-38 -4 -48.5 -9.5t-29.5 -27.5l-600 -705l-78 -465h224l-19 -96q-74 6 -360 6 q-287 0 -361 -6l15 96h223l78 465l-387 748h-199z" />
<glyph unicode="Z" horiz-adv-x="1437" d="M137 33q0 7 0.5 13.5t1 11t3 9.5t3.5 7.5t4.5 8t5 7t6.5 8t7 8.5l1018 1203h-266q-205 0 -332 -91.5t-176 -306.5h-97l107 494h1053q20 0 30 -1t19.5 -8t9.5 -22q0 -7 -1 -13t-1.5 -11t-3 -10.5t-3.5 -8t-4.5 -7.5t-4 -6.5t-5 -6.5t-4.5 -6l-1018 -1201h287 q69 0 128.5 9.5t105 24.5t84.5 41.5t66 50.5t51.5 62.5t39 67t29.5 73.5t22.5 73.5t18.5 75.5h96l-133 -582h-1087q-22 0 -32 1t-19 8.5t-9 23.5z" />
<glyph unicode="[" horiz-adv-x="653" d="M129 -512l342 2048h385l-10 -74h-166l-315 -1900h163l-12 -74h-387z" />
<glyph unicode="\" d="M381 1495q0 18 11 28.5t24 10.5q16 0 26.5 -13t13.5 -23.5t3 -14.5l502 -1927q2 -8 2 -27q0 -18 -10 -28.5t-23 -10.5q-16 0 -26.5 12.5t-13.5 23t-3 15.5l-502 1927q-4 20 -4 27z" />
<glyph unicode="]" horiz-adv-x="653" d="M-33 -512l13 74h163l318 1900h-164l12 74h385l-340 -2048h-387z" />
<glyph unicode="^" horiz-adv-x="1439" d="M442 1028l492 266l403 -266v-2l-59 -84l-373 184l-432 -184z" />
<glyph unicode="_" horiz-adv-x="1830" d="M102 -569q0 24 18 43.5t64 19.5h1268q84 0 84 -63q0 -60 -82 -62h-1270q-82 0 -82 62z" />
<glyph unicode="`" d="M434 1208q0 52 44 100t97 48q14 0 24.5 -2.5t24.5 -11.5t25.5 -19.5t33.5 -34t42 -45.5t59 -64.5t76 -82.5v-2l-63 -82q-266 96 -271 99q-71 29 -85 56q-7 14 -7 41z" />
<glyph unicode="a" horiz-adv-x="1144" d="M100 195q0 90 72 164t186 112q108 38 193 50t270 22q19 112 19 139q0 172 -187 172q-33 0 -70 -2.5t-60 -6.5t-23 -7q0 -1 3 -6.5t3 -6.5q22 -27 22 -67q0 -64 -44 -106t-101 -42q-51 0 -83 30.5t-32 78.5q0 43 18.5 77.5t45 55.5t67.5 36.5t74 23t77.5 11.5t65 4.5 t48.5 0.5q114 0 197 -23.5t127 -64t63.5 -84.5t19.5 -94q0 -37 -18 -134q-1 -9 -6.5 -38.5t-9.5 -55.5t-5 -33q-5 -28 -25 -144.5t-20 -123.5q0 -12 14.5 -20.5t37 -11.5t37 -4t26.5 -1q51 0 51 -39q0 -21 -4.5 -33t-16.5 -17t-21 -6t-28 -1h-98q-199 0 -199 115q0 12 5 37 q-3 -6 -14 -20.5t-39.5 -40.5t-64 -48t-91.5 -38.5t-117 -16.5q-30 0 -61 2.5t-76 9t-82.5 21t-71.5 36t-54 57.5t-20 81zM340 195q0 -60 45 -97t113 -37q44 0 97 17.5t95 52.5q34 28 54 60.5t26 54.5t12 61q5 29 14.5 86t14.5 86q-117 -6 -207 -31.5t-138.5 -57.5 t-78.5 -72t-38.5 -69t-8.5 -54z" />
<glyph unicode="b" horiz-adv-x="1306" d="M217 0l203 1221q6 33 6 45q0 22 -10.5 30t-38.5 11q-23 2 -84 2l16 96l367 16l-98 -594q152 95 309 95q194 0 310 -102.5t116 -280.5q0 -83 -25 -163t-75.5 -150t-121 -123.5t-167.5 -84t-209 -30.5q-60 0 -111.5 15t-85.5 39t-51.5 41t-30.5 34q-25 -25 -43 -39 q-41 -38 -78 -78h-98zM485 205q0 -7 7 -22t24.5 -36.5t40.5 -40t60.5 -32t80.5 -13.5q85 0 160 42.5t117 119.5q43 78 65.5 218t22.5 192q0 13 -0.5 24t-4.5 34.5t-11 42t-22 41t-35.5 37.5t-53.5 25.5t-74 10.5q-67 0 -145 -31.5t-148 -103.5l-80 -484q-4 -20 -4 -24z" />
<glyph unicode="c" horiz-adv-x="1046" d="M147 375q0 77 21.5 153t69 148.5t115.5 128t169.5 89.5t222.5 34q332 0 332 -166q0 -70 -46 -111t-99 -41q-51 0 -83 30.5t-32 78.5q0 75 57 117q-60 10 -124 10q-50 0 -93.5 -13.5t-71.5 -32t-51 -43.5t-33 -41.5t-18 -31.5q-34 -65 -54.5 -160.5t-24 -141.5t-3.5 -65 q0 -127 65 -187t167 -60q88 0 163 43t117 116q17 28 25 33.5t33 5.5h10t10 -0.5t10.5 -2.5t8 -5t6.5 -8t2 -12q0 -8 -12 -32.5t-44.5 -63t-78 -72.5t-124 -59t-171.5 -25q-89 0 -166.5 22.5t-140 67.5t-98.5 121.5t-36 175.5z" />
<glyph unicode="d" horiz-adv-x="1306" d="M147 371q0 114 43.5 215t120.5 175t188.5 117.5t241.5 43.5q159 0 265 -95l65 394q6 33 6 45q0 22 -10.5 30t-38.5 11q-23 2 -84 2l17 96l366 16l-209 -1255q-1 -7 -2 -13l-1.5 -9t-0.5 -5q0 -30 26 -36.5t107 -6.5l-16 -96l-377 -12l14 96q-139 -96 -297 -96 q-81 0 -153 20.5t-134.5 63.5t-99.5 120t-37 179zM395 276q0 -93 47 -154t152 -61q99 0 190 60q33 21 51.5 35t37.5 39t24 53l80 479q-74 121 -217 121q-78 0 -154.5 -39.5t-122.5 -122.5q-43 -78 -65.5 -218t-22.5 -192z" />
<glyph unicode="e" horiz-adv-x="1079" d="M135 383q0 76 22.5 152t70.5 147t115 125.5t164.5 87.5t211.5 33q181 0 282 -83t101 -255q0 -53 -3.5 -82.5t-14.5 -43t-22 -16t-36 -2.5h-623q-16 -99 -16 -143q0 -117 62 -174q66 -59 176 -59q19 0 40 1.5t62.5 11.5t78 27t77.5 52.5t69 83.5q9 12 13.5 17t14 9t24.5 4 q47 0 47 -36q0 -12 -14.5 -39t-50 -64t-84.5 -70t-128 -56t-170 -23q-217 0 -343 107t-126 288zM414 514h489q10 90 10 113q0 227 -192 227q-50 0 -93 -16.5t-72.5 -39.5t-54 -59t-38.5 -64t-25.5 -66.5t-15.5 -55t-8 -39.5z" />
<glyph unicode="f" horiz-adv-x="718" d="M98 0l15 96h143l119 717h-154l17 96h153l35 217q22 136 150.5 222t318.5 86q106 0 158.5 -47t52.5 -111q0 -66 -44.5 -107t-98.5 -41q-44 0 -78.5 28t-34.5 81q0 12 3 29t18.5 45t41.5 45q-8 4 -26 4q-93 0 -161 -61.5t-87 -157.5l-39 -232h248l-17 -96h-235l-119 -717 h178l-18 -96q-80 6 -281 6q-75 0 -258 -6z" />
<glyph unicode="g" d="M39 -174q0 42 20 78t52 59.5t66 39t69 22.5q-60 64 -60 155q0 121 101 226q-72 72 -72 174q0 62 28 121.5t82 109.5t143.5 80.5t201.5 30.5q172 0 266 -68q106 78 227 78q35 0 60 -12t36.5 -30.5t16 -34t4.5 -28.5q0 -40 -26.5 -71t-73.5 -31q-33 0 -55.5 20t-22.5 56 q0 33 14 53q-64 -7 -133 -43q53 -67 53 -154q0 -59 -26.5 -117t-79 -109.5t-143.5 -83.5t-207 -32q-151 0 -242 54q-37 -42 -37 -95q0 -30 10.5 -51t23.5 -31t34 -15.5t32.5 -6t28.5 -0.5h135q53 0 81.5 -0.5t80 -2.5t81 -7t73.5 -14t69.5 -22t55.5 -34t46 -47t27 -62.5 t11 -80.5q0 -71 -35 -126.5t-90.5 -90t-132 -56.5t-151.5 -30.5t-157 -8.5q-107 0 -192.5 14t-139 37t-89 54.5t-50 64t-14.5 68.5zM215 -176q0 -71 79 -116.5t232 -45.5q102 0 180.5 21t120.5 54t62 66t20 64q0 106 -270 106h-238q-51 0 -88.5 -14.5t-55.5 -32.5 t-28.5 -42.5t-12 -37t-1.5 -22.5zM434 518q0 -16 1.5 -29t10 -33t23 -33.5t44.5 -23.5t71 -10q63 0 112 27t72 69q18 36 30.5 95.5t15.5 94t3 44.5q0 129 -149 129q-127 0 -183 -90q-23 -39 -37 -120t-14 -120z" />
<glyph unicode="h" horiz-adv-x="1306" d="M92 0l14 96h144l186 1125q6 33 6 45q0 22 -10.5 30t-38.5 11q-23 2 -84 2l17 96l366 16l-114 -690h2q19 26 45.5 52.5t72.5 61t113 56t141 21.5q154 0 215.5 -58.5t61.5 -163.5q0 -38 -6 -75l-88 -529h141l-16 -96q-171 6 -259 6q-156 0 -258 -6l15 96h143l96 582 q4 25 4 61q0 53 -16.5 81t-66.5 28q-117 0 -223 -84.5t-136 -210.5q-8 -64 -76 -457h142l-17 -96q-171 6 -258 6q-156 0 -258 -6z" />
<glyph unicode="i" horiz-adv-x="653" d="M96 0l15 96h143l106 647q0 3 2.5 13t2.5 12q0 28 -25.5 34.5t-101.5 6.5l16 96l358 17l-137 -826h127l-16 -96q-198 6 -240 6q-97 0 -250 -6zM369 1243q0 71 55 125.5t127 54.5q61 0 101 -41t40 -98q0 -69 -54 -124.5t-128 -55.5q-61 0 -101 41t-40 98z" />
<glyph unicode="j" horiz-adv-x="718" d="M-154 -242q0 61 42 104.5t104 43.5q53 0 83.5 -32.5t30.5 -78.5q0 -32 -14.5 -63t-34.5 -45q-14 -9 -14 -13t27 -7t41 -3q38 0 70.5 19t53.5 46t37.5 62t24.5 62.5t12 52.5l137 823q2 10 3.5 18.5t2.5 12.5t1 6q0 12 -4 20t-15 12t-16.5 5.5t-22.5 3.5q-20 2 -90 2l14 96 l381 17l-168 -1016q-24 -141 -146 -228.5t-271 -87.5q-116 0 -192.5 43t-76.5 125zM436 1243q0 73 55.5 126.5t126.5 53.5q61 0 101.5 -40.5t40.5 -100.5q0 -67 -54 -122.5t-128 -55.5q-60 0 -101 39.5t-41 99.5z" />
<glyph unicode="k" horiz-adv-x="1241" d="M76 0l14 96h143l187 1125q6 33 6 45q0 22 -10.5 30t-38.5 11q-23 2 -84 2l16 96l367 16l-156 -934l416 287q18 14 18 19q0 22 -63 22l16 94q153 -6 234 -6q113 0 162 6l-17 -96q-83 0 -122.5 -7.5t-67.5 -27.5l-301 -209l276 -434q8 -12 11 -16t9.5 -10t14 -8t20.5 -3 q23 -2 91 -2l-15 -96q-108 6 -211 6q-153 0 -252 -6l17 96q67 0 67 21q0 1 -2.5 5.5t-5.5 10t-4 6.5l-195 307l-129 -90l-43 -260h142l-17 -96q-228 6 -245 6q-44 0 -248 -6z" />
<glyph unicode="l" horiz-adv-x="653" d="M96 0l15 96h143l186 1125q6 33 6 45q0 22 -10.5 30t-38.5 11q-23 2 -84 2l17 96l366 16l-221 -1325h141l-16 -96q-210 6 -252 6q-93 0 -252 -6z" />
<glyph unicode="m" horiz-adv-x="1961" d="M92 0l14 96h144l106 645q4 20 4 27q0 28 -27.5 34.5t-107.5 6.5l17 96l356 17l-35 -211h2q10 15 19 27.5t47 50.5t78 63.5t106 47.5t137 22q78 0 132.5 -15t84.5 -43.5t44 -61t18 -75.5q10 14 20 27t46.5 47t75.5 57.5t102.5 43.5t130.5 20q155 0 216.5 -58t61.5 -164 q0 -38 -6 -75l-88 -529h141l-16 -96q-171 6 -258 6q-156 0 -258 -6l14 96h143l97 582q4 25 4 59q0 57 -18 84t-68 27q-115 0 -222 -83.5t-137 -211.5q-11 -85 -75 -457h141l-16 -96q-171 6 -258 6q-157 0 -259 -6l15 96h143l96 582q5 31 5 59q0 57 -18 84t-68 27 q-115 0 -222 -83.5t-137 -211.5q-8 -64 -76 -457h142l-17 -96q-171 6 -258 6q-156 0 -258 -6z" />
<glyph unicode="n" horiz-adv-x="1306" d="M92 0l14 96h144l106 645q4 20 4 27q0 28 -27.5 34.5t-107.5 6.5l17 96l356 17l-35 -211h2q24 36 57 69.5t80.5 67.5t112.5 54t137 20q154 0 215.5 -58.5t61.5 -163.5q0 -38 -6 -75l-88 -529h141l-16 -96q-171 6 -259 6q-156 0 -258 -6l15 96h143l96 582q4 25 4 61 q0 53 -16.5 81t-66.5 28q-117 0 -223 -84.5t-136 -210.5q-8 -64 -76 -457h142l-17 -96q-171 6 -258 6q-156 0 -258 -6z" />
<glyph unicode="o" d="M133 365q0 78 23.5 156.5t73 152t119.5 130t171.5 90.5t220.5 34q202 0 326.5 -100t124.5 -293q0 -82 -24 -160.5t-74 -148.5t-121 -123t-170.5 -84t-216.5 -31q-211 0 -332 100t-121 277zM385 281q0 -23 1.5 -41t13 -53t32 -57.5t64 -41t104.5 -18.5q83 0 155.5 39.5 t106.5 115.5q37 79 60.5 218t23.5 204q0 15 -0.5 26t-4.5 34.5t-12 40.5t-24 38.5t-38 35t-57.5 23t-80.5 9.5q-90 0 -160.5 -41.5t-109.5 -124.5q-26 -58 -50 -196t-24 -211z" />
<glyph unicode="p" horiz-adv-x="1306" d="M8 -397l17 96h141l174 1042q4 20 4 27q0 15 -8.5 24t-16 10.5t-26.5 4.5q-23 2 -84 2l16 96l367 17l-14 -97q152 97 317 97q193 0 305.5 -102t112.5 -279q0 -106 -40.5 -204.5t-114 -176.5t-189 -125t-254.5 -47q-156 0 -250 94l-64 -383h142l-17 -96q-105 6 -258 6 q-131 0 -260 -6zM485 197q31 -64 86 -100t125 -36q83 0 153 47t114 122.5t68 166.5t24 183q0 32 -4.5 63.5t-17.5 68.5t-33.5 64t-57.5 45.5t-84 18.5q-54 0 -126.5 -24t-137.5 -83q-20 -20 -24 -27.5t-7 -29.5z" />
<glyph unicode="q" horiz-adv-x="1241" d="M147 373q0 111 42.5 211t118 175t187 119t242.5 44q191 0 285 -164q25 28 40 45.5t29.5 36t30.5 37.5q12 20 37 45h84l-203 -1223h142l-17 -96q-105 6 -258 6q-131 0 -260 -6l17 96h141l65 395q-135 -106 -299 -106q-58 0 -113.5 10.5t-113 38t-100.5 69.5t-70 111 t-27 156zM403 326q0 -118 50 -191.5t143 -73.5q54 0 106 20t88 48t64.5 58t42 50t14.5 25q3 12 9 55q36 216 36 222q13 54 13 77q0 10 -3.5 30.5t-17.5 55.5t-35 64.5t-62 51.5t-93 22q-104 0 -187 -75t-125.5 -191t-42.5 -248z" />
<glyph unicode="r" horiz-adv-x="968" d="M76 0l14 96h143l107 645q4 20 4 27q0 28 -27.5 34.5t-107.5 6.5l16 96l344 17l-34 -217q53 99 129.5 158t171.5 59q79 0 137.5 -39t58.5 -111q0 -63 -42.5 -103t-98.5 -40q-41 0 -76 25.5t-35 80.5q0 68 51 113q-66 -2 -121.5 -39t-88.5 -85.5t-58 -106.5t-34.5 -94 t-12.5 -56l-61 -371h178l-19 -96q-80 6 -280 6q-75 0 -258 -6z" />
<glyph unicode="s" horiz-adv-x="927" d="M82 16l2 29l41 238q5 30 12.5 37.5t38.5 7.5q30 0 38 -7t11 -34q9 -70 34 -117.5t62.5 -70t73.5 -30.5t82 -8q54 0 98 9.5t71 23.5t47 34t29 36.5t14.5 35.5t6 26t0.5 14q0 15 -3 27.5t-10.5 23.5t-14.5 19.5t-22 16.5t-25 14t-32 12t-34.5 9.5t-40 9.5t-42 8.5 t-46.5 8.5q-20 3 -35 6.5t-47.5 12.5t-56.5 19.5t-54 30t-49.5 42t-33 55.5t-13.5 72q0 11 1 23t9 44t22.5 59.5t46 61t74 57.5t112 40t155.5 16q127 0 203 -39q78 39 96 39q37 0 37 -33q0 -2 -0.5 -5.5t-1.5 -10t-2 -11.5l-29 -174q-6 -31 -14.5 -38t-36.5 -7 q-14 0 -22.5 1t-17.5 8.5t-9 21.5q0 2 2 16t2 21q0 30 -10 53.5t-24 38.5t-36 26t-39.5 16t-40.5 7.5t-34 3t-25 0.5q-72 0 -124.5 -14.5t-77 -32t-38.5 -42.5t-16 -36t-2 -22q0 -19 7.5 -35t25.5 -27.5t33.5 -19.5t47 -15.5t48.5 -11t55 -10.5q103 -17 152.5 -33t99.5 -55 q88 -75 88 -182q0 -14 -1.5 -30.5t-10.5 -51.5t-24.5 -66t-48 -67.5t-75.5 -62t-112.5 -43t-155.5 -17.5q-142 0 -229 65q-6 -4 -30 -17.5t-30 -17.5q-47 -30 -67 -30q-35 0 -35 28z" />
<glyph unicode="t" horiz-adv-x="915" d="M178 813q0 1 6 36t6 38q77 2 144 40t112.5 99t75.5 130.5t43 143.5h97l-66 -391h299l-16 -96h-299l-95 -575q-6 -35 -6 -62q0 -106 92 -106q81 0 131 102q21 42 43 190h97q-21 -135 -33.5 -175.5t-50.5 -92.5q-85 -106 -219 -106q-59 0 -108 10.5t-92 33.5t-67 66 t-24 103q0 22 6 57l92 555h-168z" />
<glyph unicode="u" horiz-adv-x="1306" d="M225 809l17 96l379 17l-121 -727q-4 -24 -4 -54q0 -18 2.5 -28t14.5 -24.5t43 -21t81 -6.5q63 0 118 25t92.5 65t61 86.5t31.5 94.5l68 409q1 5 2 11t1.5 9.5t0.5 6.5q0 28 -27.5 34.5t-107.5 6.5l16 96l379 17l-125 -756q-1 -7 -2 -13l-1.5 -9t-0.5 -5q0 -30 26 -36.5 t107 -6.5l-16 -96l-365 -12l25 149h-2q-112 -149 -314 -149q-56 0 -100.5 4.5t-90 18t-75.5 36.5t-49 62t-19 92q0 22 6 57l80 483q1 5 2 11t1.5 9.5t0.5 6.5q0 28 -27.5 34.5t-107.5 6.5z" />
<glyph unicode="v" horiz-adv-x="1241" d="M188 813l19 96q228 -6 229 -6q176 0 256 6l-16 -96h-111l168 -559l324 514q12 16 12 23q0 22 -94 22l18 96q105 -6 183 -6q86 0 163 6l-18 -96q-62 0 -94 -5.5t-41.5 -12.5t-20.5 -25l-460 -727q-11 -18 -18.5 -27t-24.5 -16.5t-41 -7.5q-20 0 -31 2.5t-22.5 14.5 t-18.5 36l-230 768h-131z" />
<glyph unicode="w" horiz-adv-x="1699" d="M186 813l17 96q210 -6 223 -6q153 0 252 6l-16 -96h-115l127 -528l227 397q1 1 6.5 12t5.5 13l-24 106h-121l16 96q99 -6 205 -6q45 0 234 6l-17 -96h-114l139 -573l303 526l12 27q-39 20 -114 20l16 96q75 -6 194 -6q87 0 158 6l-16 -96q-58 0 -88.5 -6t-39 -13 t-18.5 -24l-417 -729q-13 -23 -29 -34.5t-25.5 -13t-25.5 -1.5q-35 0 -47.5 11.5t-20.5 45.5l-127 529l-307 -537q-13 -23 -29 -34.5t-25.5 -13t-25.5 -1.5q-35 0 -47 12t-20 45l-185 764h-121z" />
<glyph unicode="x" horiz-adv-x="1241" d="M45 0l16 96q81 0 125 5t57.5 12t28.5 22l320 301l-256 377h-146l19 96q159 -6 223 -6q89 0 248 6l-16 -96h-80l159 -235l224 213q-12 10 -31 18q-27 6 -43 6l16 94q171 -6 211 -6q96 0 187 6l-15 -96h-2q-80 0 -123.5 -5t-57 -12t-28.5 -22l-288 -270l276 -408h145 l-16 -96q-210 6 -223 6q-101 0 -248 -6l14 96h82l-180 266l-237 -225q-15 -15 -19 -22q37 -21 74 -21l-17 -94q-171 6 -211 6q-80 0 -188 -6z" />
<glyph unicode="y" horiz-adv-x="1241" d="M6 -248q0 67 42 106.5t97 39.5q41 0 71 -24t30 -73q0 -44 -25 -79t-59 -50q19 -8 47 -8q55 0 112 32t99 85q21 25 57 78.5t62 96.5t26 46q0 9 -6 27l-240 784h-131l19 96q228 -6 229 -6q162 0 256 6l-16 -96h-111l168 -553l324 508l14 27q-32 18 -96 18l16 96 q129 -6 185 -6q86 0 163 6l-16 -96q-64 0 -96 -5t-41.5 -12.5t-20.5 -25.5l-602 -942q-66 -103 -165 -170.5t-201 -67.5q-85 0 -138 46.5t-53 115.5zM152 -322z" />
<glyph unicode="z" horiz-adv-x="1046" d="M72 33q0 14 4.5 25t8.5 16.5t15 17.5l707 744h-184q-109 0 -174.5 -29t-102 -89t-59.5 -167h-97l84 358h752q23 0 32 -1t18 -8t9 -23q0 -17 -4.5 -26t-23.5 -28l-703 -741h187q57 0 103 8t80.5 21t62.5 36.5t47 48t35 62t27 72t24 84.5h96l-107 -414h-778q-22 0 -32 1 t-18.5 8.5t-8.5 23.5z" />
<glyph unicode="{" d="M244 510q0 13 4 21t14 12t18 5t25.5 2.5t26.5 2.5q84 13 157 62t101 122q8 23 49 282t55 296q20 52 60.5 91.5t94 62.5t103.5 38t108.5 20.5t88 7t61.5 1.5h7q49 0 49 -35q0 -18 -11.5 -27t-26.5 -11t-45 -5.5t-53 -9.5q-202 -54 -221 -225q-21 -127 -48 -288 q-23 -137 -28.5 -166t-11.5 -48q-54 -154 -280 -211q39 -10 73 -26t66 -41.5t51 -64t19 -85.5q0 -43 -43 -285t-43 -276q0 -71 60 -115.5t159 -52.5q47 0 51 -25q2 -4 2 -12q0 -39 -51 -39q-69 0 -130 6t-122.5 23t-105.5 43t-71.5 69t-27.5 99q0 40 44 288t44 277 q0 65 -55.5 117.5t-155.5 62.5q-2 0 -10.5 0.5t-12 1t-11 2t-11 4t-8 6.5t-6.5 9.5t-2 13.5z" />
<glyph unicode="|" horiz-adv-x="653" d="M190 -446q0 16 9 61l305 1827q8 55 23 73q17 19 44 19q24 0 43 -18.5t19 -45.5q0 -5 -6 -47l-305 -1831q-1 -4 -3.5 -17.5t-4 -20t-5 -18.5t-8 -18.5t-11.5 -14t-17 -10.5t-23 -3q-24 0 -42 18t-18 46z" />
<glyph unicode="}" d="M82 -477q0 18 11 27t25.5 11t44.5 5.5t54 9.5q34 9 63.5 21.5t50 27t37.5 30t27.5 32t18.5 31t12.5 29.5t6.5 24.5t3.5 19t1.5 10.5q23 140 51 308q29 173 37 198q17 45 51.5 83t68.5 59t74.5 37.5t56.5 21t28 6.5q-39 10 -73 26.5t-66 42t-51 64t-19 84.5q0 29 44 280 t44 281q0 76 -65.5 118.5t-155.5 49.5q-1 0 -10 1t-14.5 2.5t-13 4.5t-11.5 10t-4 17q0 23 14 32t43 9q85 0 158.5 -11t142.5 -36t109.5 -74.5t40.5 -118.5q0 -28 -43.5 -282t-43.5 -283q0 -66 56 -118t153 -62q2 0 12 -0.5t14.5 -1t12.5 -3t12 -6t7.5 -10.5t3.5 -16 q0 -13 -4 -21t-13.5 -12t-17 -5t-25 -2.5t-26.5 -2.5q-86 -13 -158.5 -62t-99.5 -122q-9 -24 -50.5 -282.5t-56.5 -295.5q-19 -52 -59.5 -91.5t-94 -62.5t-103.5 -38t-107.5 -20.5t-86.5 -7t-59 -1.5h-12q-24 0 -35.5 7.5t-11.5 27.5z" />
<glyph unicode="~" horiz-adv-x="1439" d="M403 1251q14 13 51 47.5t49 44t41.5 31t50.5 28t54 13t72 6.5q82 0 247.5 -34.5t248.5 -34.5q53 0 97.5 12.5t60 22t42.5 30.5q4 3 6 4l45 -49v-2q-14 -13 -44.5 -42t-42 -39t-36 -29.5t-40.5 -26.5t-41.5 -17t-52.5 -13t-60 -3q-82 0 -247.5 35t-248.5 35 q-70 0 -115.5 -17.5t-90.5 -52.5z" />
<glyph unicode="&#xa1;" horiz-adv-x="716" d="M150 -293q0 29 22 92l213 699q1 3 3.5 11.5t3 10.5t3 9t4 9t4.5 7t5.5 6.5t6 4.5t8 4t10 2t11.5 1q31 0 41.5 -12.5t10.5 -38.5q0 -4 -1 -17t-1 -20l-19 -676q0 -55 -4 -84q-11 -56 -62.5 -95.5t-115.5 -39.5q-59 0 -101 35.5t-42 91.5zM342 846q0 72 55 125t125 53 q59 0 99.5 -40.5t40.5 -98.5q0 -72 -56 -126t-125 -54q-61 0 -100 41t-39 100z" />
<glyph unicode="&#xa2;" d="M147 385q0 61 17.5 126.5t62.5 137.5t112 129.5t176.5 98.5t244.5 49l31 190h96l-31 -188q40 -1 63 -1.5t65 -4t68.5 -10t59.5 -18.5t52 -28.5t32.5 -42.5t13.5 -59q0 -62 -41.5 -107t-105.5 -45q-48 0 -80.5 29t-32.5 80q0 58 54 115q-25 3 -160 8l-129 -772 q75 3 134.5 20t95 42t57.5 48t38.5 46.5t22.5 29.5q17 10 41 10q43 0 43 -28q0 -5 -9 -25.5t-39.5 -57.5t-76 -70.5t-130.5 -62t-192 -34.5l-30 -189h-99l31 189q-207 9 -331 114t-124 281zM406 346q0 -167 120 -233q35 -19 92 -33l125 760q-67 -11 -110 -33 q-56 -26 -103 -76q-90 -97 -116 -297q-8 -58 -8 -88z" />
<glyph unicode="&#xa3;" horiz-adv-x="1681" d="M145 90q0 32 18 64.5t54 62.5t99.5 49t144.5 19q23 0 119 -11l67 388h-108q-32 0 -45 8t-13 30q0 37 15.5 48.5t44.5 11.5h123q0 3 12 80.5t27 164t20 107.5q26 92 82.5 160t127.5 103t140 51t137 16q154 0 249 -92.5t95 -227.5q0 -47 -12 -82t-28.5 -54t-39 -30.5 t-39 -14.5t-32.5 -3q-47 0 -80 30.5t-33 80.5q0 19 7 40.5t23 46t48.5 41t77.5 17.5q-18 62 -60 103t-85 55t-89 14q-122 0 -192 -90q-35 -45 -50.5 -107t-54.5 -295l-18 -114h180q51 0 51 -39q0 -20 -5.5 -33t-16 -18t-19 -6.5t-20.5 -1.5h-186q-8 -47 -16.5 -101 t-13.5 -82.5t-10 -61t-9 -49.5t-7 -35t-7 -29.5t-6.5 -20.5t-8.5 -21t-9 -18.5t-12 -24.5q1 0 60.5 -19.5t97 -30.5t99 -22.5t106.5 -11.5q46 0 85.5 10.5t64.5 25t44 34t28.5 34.5t14.5 29q8 26 18 35.5t34 9.5q49 0 49 -37q0 -20 -11 -48t-31.5 -60.5t-55 -64t-77 -57 t-102 -41t-125.5 -15.5q-35 0 -74.5 5t-69 10.5t-74 18.5t-66 20t-70.5 23.5t-63 20.5q-134 -100 -330 -100q-189 0 -189 102zM279 94q0 -14 15 -22.5t40 -8.5q97 0 170 66q-49 8 -109 8q-45 0 -73 -8t-35.5 -16.5t-7.5 -18.5z" />
<glyph unicode="&#xa4;" horiz-adv-x="1583" d="M102 -37q0 10 2.5 18.5t11.5 19.5t19.5 21t32.5 29t44.5 37.5t61.5 52t78 66.5q-69 120 -69 268q0 133 49 266.5t147 235.5q-37 48 -75.5 93t-55.5 64.5t-28 38t-11 33.5q0 25 18 43.5t44 18.5q14 0 24.5 -4.5t26 -21.5t30.5 -36t49.5 -62t71.5 -85q95 61 190.5 92 t211.5 31q223 0 371 -123q227 209 268 209q25 0 42 -19t17 -41q0 -25 -17.5 -44t-121.5 -109q-18 -15 -54 -45.5t-55 -44.5q68 -127 68 -271q0 -286 -197 -504q13 -14 44 -50t60.5 -71t33.5 -40q1 -1 6 -7.5t6.5 -8.5t5.5 -8t6 -10t4 -10t3 -12t1 -12q0 -24 -18 -40.5 t-41 -16.5q-30 0 -68 43q-9 11 -42 51t-60.5 73t-32.5 40q-96 -61 -191 -92t-212 -31q-63 0 -121 11t-93.5 23.5t-74.5 35t-49.5 30.5t-32.5 25q-207 -180 -226 -194q-21 -15 -40 -15q-25 0 -43.5 16t-18.5 43zM408 475q0 -84 24.5 -149t63.5 -104.5t92 -64.5t103.5 -34.5 t105.5 -9.5q133 0 243.5 49.5t181.5 131.5t109.5 186t38.5 216q0 83 -24.5 148t-63.5 104t-92 64.5t-104.5 35t-106.5 9.5q-131 0 -240.5 -49t-180.5 -130t-110.5 -185.5t-39.5 -217.5z" />
<glyph unicode="&#xa5;" horiz-adv-x="1779" d="M213 446q0 16 12.5 25t26 10.5t35.5 1.5h542l15 80l-158 301h-321q-37 0 -50 4t-22 19q-7 14 -1 27.5t15 17.5q14 6 60 6h280l-190 369h-201l16 98q147 -6 330 -6q190 0 383 6l-16 -98h-172l190 -369h285q26 0 36.5 6t34.5 33q252 294 252 305q0 25 -143 25l16 98 q138 -6 277 -6q92 0 227 6l-14 -98h-4q-101 0 -149.5 -7t-61 -15.5t-35.5 -35.5l-264 -311h207q104 0 114 -4q15 -5 21.5 -19t-0.5 -28q-10 -23 -57 -23h-308q-28 0 -37.5 -5t-31.5 -30q-174 -199 -205 -241t-34 -79q-1 -5 -1 -8t-0.5 -8t-1.5 -10h545q17 0 28 -1.5 t21 -10.5t10 -25q0 -38 -59 -38q-3 0 -8 1t-7 1h-542l-54 -312h222l-15 -98q-176 6 -354 6q-183 0 -371 -6l17 98h223l51 312h-545q-17 0 -27.5 1.5t-21 10t-10.5 24.5zM1026 864l84 -162l137 162h-221z" />
<glyph unicode="&#xa6;" horiz-adv-x="393" d="M59 -446q0 10 4 34l109 658q0 1 2.5 13.5t3.5 15t3.5 14t5 15t6.5 12t8.5 12t10.5 8.5t13.5 6.5t16.5 1.5q59 0 59 -70q0 -18 -2 -28l-111 -658q0 -1 -1.5 -11t-2.5 -15.5t-3.5 -16t-5.5 -17t-8.5 -15t-11.5 -13.5t-15.5 -8.5t-20.5 -3.5q-24 0 -42 19t-18 47zM258 743 q0 11 4 35l109 658q3 22 6 33t10 29.5t20.5 27t32.5 8.5q25 0 43.5 -18.5t18.5 -45.5q0 -6 -2 -17.5t-2 -16.5l-111 -658q0 -1 -1.5 -10.5t-2.5 -15t-4 -15.5t-6 -16.5t-8.5 -15t-11.5 -13.5t-15.5 -8.5t-20.5 -3.5q-25 0 -42 17t-17 46z" />
<glyph unicode="&#xa7;" horiz-adv-x="1083" d="M168 -184q0 42 14.5 73t37 46.5t43.5 22.5t40 7q42 0 72.5 -28.5t30.5 -71.5q0 -40 -27 -79.5t-80 -51.5q68 -68 178 -68q65 0 121.5 29.5t90 71.5t52.5 84t19 73q0 15 -6 29t-20.5 26t-28.5 21t-38.5 20t-42.5 18t-49 19t-49 19q-117 46 -198.5 145.5t-81.5 239.5 q0 211 200 323q-102 122 -102 265q0 90 39 164.5t102 121t138.5 72t152.5 25.5q132 0 219.5 -63.5t87.5 -164.5q0 -41 -14.5 -71.5t-36.5 -45.5t-42.5 -21.5t-39.5 -6.5q-44 0 -73 27.5t-29 72.5q0 40 25 76.5t81 52.5q-70 70 -178 70q-65 0 -121.5 -29.5t-90 -72t-52 -84.5 t-18.5 -72q0 -16 6.5 -30t20.5 -26t28.5 -21.5t38.5 -20t42 -17.5t48 -18.5t47 -18.5q138 -57 209.5 -160.5t71.5 -226.5q0 -55 -15 -104t-36.5 -82.5t-51 -62t-52 -44t-46.5 -28.5q104 -128 104 -265q0 -89 -39 -164t-101.5 -122t-139 -73t-154.5 -26q-130 0 -218.5 63 t-88.5 163zM395 512q0 -36 33 -63t77.5 -43t111 -43.5t112.5 -57.5q62 42 95.5 105t33.5 102q0 35 -34.5 62.5t-80 44t-111 44t-108.5 56.5h-2q-65 -51 -96 -109.5t-31 -97.5z" />
<glyph unicode="&#xa8;" d="M406 1227q0 71 55.5 124.5t124.5 53.5q60 0 100.5 -39.5t40.5 -101.5q0 -72 -55.5 -125.5t-124.5 -53.5q-59 0 -100 40t-41 102zM864 1227q0 68 54 123t126 55q60 0 101 -39.5t41 -101.5q0 -68 -54.5 -123.5t-125.5 -55.5q-60 0 -101 40t-41 102z" />
<glyph unicode="&#xa9;" horiz-adv-x="2615" d="M201 336q0 83 13 172t48 197t88.5 208t141.5 203t200 184q179 128 399 193.5t463 65.5q223 0 410 -55.5t326 -162t217 -273.5t78 -380q0 -118 -25.5 -238.5t-79.5 -241t-132.5 -229.5t-191 -203.5t-247.5 -163t-309.5 -108t-370.5 -39.5q-224 0 -411.5 56t-325 163 t-214.5 274t-77 378zM324 336q0 -185 67 -328.5t188.5 -234t285.5 -137t364 -46.5q236 0 439 63t346.5 169.5t245.5 247.5t151 298t49 320q0 148 -44 270.5t-123.5 210t-192 147.5t-249 89t-295.5 29q-64 0 -129 -5t-157.5 -22t-178 -44t-182.5 -76.5t-180 -114.5 t-162.5 -162.5t-136.5 -216.5q-106 -222 -106 -457zM729 420q0 171 104 306t278 207.5t384 72.5q174 0 295 -86q22 12 53 30t44 25t29 15.5t24.5 11t15.5 2.5q35 0 35 -37q0 -6 -13 -84.5t-26 -154.5l-13 -77q-5 -30 -15 -40.5t-40 -10.5q-19 0 -30.5 2.5t-17 10.5t-7 13 t-2.5 20.5t-2 23.5q-2 24 -10 50.5t-28.5 61t-50.5 61.5t-82 45.5t-118 18.5q-126 0 -228.5 -40.5t-162.5 -118.5q-42 -55 -68.5 -143.5t-33.5 -148.5t-7 -102q0 -65 20.5 -114.5t53.5 -80t81 -49.5t97 -26.5t107 -7.5q174 0 293 100q38 32 60 64.5t28 53.5t11.5 38t17 25 t36.5 8q43 0 43 -35q0 -30 -18 -72t-61 -92t-103.5 -91.5t-157 -69.5t-209.5 -28q-92 0 -177 14.5t-164.5 48t-137 83.5t-92.5 126t-35 171z" />
<glyph unicode="&#xaa;" horiz-adv-x="1046" d="M70 608q0 37 57 37h745q27 -1 38.5 -13t11.5 -26q0 -37 -56 -37h-741q-55 0 -55 39zM90 905q0 96 135 148.5t434 58.5q25 151 25 199q0 69 -26 118.5t-87 49.5q-59 0 -129 -31v-2q56 -34 56 -96q0 -60 -44.5 -103t-101.5 -43q-50 0 -81 30t-31 79q0 37 20 76.5t59 77 t110 61.5t161 24q142 -2 232.5 -74.5t90.5 -207.5q0 -29 -14 -122t-29 -179.5t-16 -94.5q47 -8 90 -8h10q19 0 31 -2t23.5 -12t11.5 -29q0 -55 -62 -55h-127q-70 0 -109 10t-52 24.5t-21 41.5q-17 -17 -33 -28.5t-46 -26.5t-76.5 -23t-106.5 -8q-297 0 -297 147zM332 907 q0 -29 25 -52.5t79 -23.5q45 0 78 6.5t54.5 20.5t35 29t21.5 40t11.5 45t7.5 51q0 5 0.5 8t1 7.5t1.5 8.5q-174 -12 -244.5 -51t-70.5 -89z" />
<glyph unicode="&#xab;" horiz-adv-x="1308" d="M336 455q0 8 4.5 15.5t9.5 11.5t13 9.5t10 6.5q124 76 230 148t164.5 117t103.5 80t68 50.5t36 15.5q33 0 33 -26q0 -27 -169 -191.5t-261 -238.5q91 -110 161 -209.5t95 -143.5t30 -59q10 -39 -33 -39q-14 0 -28 10.5t-39 38t-57.5 63.5t-98 97.5t-147.5 128.5 q-23 19 -47.5 38.5t-36.5 28.5t-23 18.5t-14.5 16t-3.5 13.5zM760 455q0 16 25.5 36t109.5 84t178 148q20 18 41.5 38.5t31 29.5t20.5 18t19 11.5t17 2.5q35 0 35 -28q0 -18 -89.5 -124t-203.5 -220q21 -26 100.5 -162.5t79.5 -173.5l-2 -6q-9 -21 -30 -21q-15 0 -25.5 7 t-26.5 28t-35.5 48t-63.5 78.5t-99 108.5q-16 17 -32.5 33t-24 23.5t-14.5 15t-9 13t-2 12.5z" />
<glyph unicode="&#xac;" horiz-adv-x="1568" d="M248 696q0 23 15 40t34 20q12 2 35 2h1141q79 0 79 -66q0 -20 -77 -471q-3 -18 -4.5 -25.5t-6.5 -24t-11 -24.5t-18 -15t-28 -7q-23 0 -42 16.5t-19 42.5q0 16 30.5 200.5t42.5 250.5h-1100q-40 1 -55.5 20.5t-15.5 40.5z" />
<glyph unicode="&#xad;" horiz-adv-x="393" d="M84 356l33 199h626l-32 -199h-627z" />
<glyph unicode="&#xae;" horiz-adv-x="2615" d="M201 336q0 83 13 172t48 197t88.5 208t141.5 203t200 184q179 128 399 193.5t463 65.5q223 0 410 -55.5t326 -162t217 -273.5t78 -380q0 -118 -25.5 -238.5t-79.5 -241t-132.5 -229.5t-191 -203.5t-247.5 -163t-309.5 -108t-370.5 -39.5q-224 0 -411.5 56t-325 163 t-214.5 274t-77 378zM324 336q0 -185 67 -328.5t188.5 -234t285.5 -137t364 -46.5q236 0 439 63t346.5 169.5t245.5 247.5t151 298t49 320q0 148 -44 270.5t-123.5 210t-192 147.5t-249 89t-295.5 29q-64 0 -129 -5t-157.5 -22t-178 -44t-182.5 -76.5t-180 -114.5 t-162.5 -162.5t-136.5 -216.5q-106 -222 -106 -457zM563 0l17 98h221l131 787h-221l16 98h645q230 0 354 -45q95 -33 143 -86t48 -117q0 -90 -85 -155t-212 -95q41 -24 66 -47t36 -50t14 -48.5t3 -58.5v-37q0 -42 3 -69t12.5 -58.5t33 -47.5t59.5 -16q43 0 82.5 31.5 t57.5 83.5q10 39 25 49q11 8 28 8q47 0 47 -43q0 -13 -6 -34.5t-24.5 -52t-46 -56t-77 -44t-110.5 -18.5h-11q-46 0 -74.5 0.5t-74 4t-74.5 10.5t-63 20t-54 32t-33.5 48t-13.5 66q0 28 12.5 93t12.5 87q0 45 -33 81t-112 36h-164l-60 -357h222l-17 -98q-176 6 -352 6 q-186 0 -371 -6zM1153 528h121q81 0 136 7t90 19.5t55.5 37t30 51.5t16.5 72q6 24 6 53q0 68 -58 92.5t-196 24.5h-142z" />
<glyph unicode="&#xaf;" d="M383 1321l16 106h850l-16 -106h-850z" />
<glyph unicode="&#xb0;" horiz-adv-x="784" d="M317 1104q0 123 84.5 212t214.5 89q105 0 167.5 -60t62.5 -161q0 -124 -84 -212.5t-213 -88.5q-105 0 -168.5 60t-63.5 161zM442 1104q0 -96 107 -96q82 0 128 54t46 122q0 49 -30 73.5t-75 24.5q-73 0 -124.5 -51t-51.5 -127z" />
<glyph unicode="&#xb1;" horiz-adv-x="1830" d="M129 -16q0 63 84 63h647l98 598h-616q-33 0 -47 4q-20 6 -32.5 23t-12.5 37q0 23 14.5 38t30.5 19t49 4h637q2 20 104 635q3 17 5 25t9 26t20.5 26.5t33.5 8.5q27 0 44 -19.5t17 -44.5q0 -10 -27 -174t-54 -323l-27 -160h618q32 0 48 -4q19 -6 32 -21.5t13 -35.5 q0 -19 -13.5 -36.5t-34.5 -23.5q-14 -4 -49 -4h-635l-100 -598h629q33 0 52.5 -12.5t23.5 -24.5t4 -26q0 -60 -80 -62h-1403q-46 0 -64 19t-18 43z" />
<glyph unicode="&#xb2;" horiz-adv-x="1046" d="M236 711q10 55 21 127q10 69 17.5 83t40.5 28q11 4 17 7q48 22 125.5 54t125.5 52t106.5 50.5t91.5 58t56 65.5t23 81q0 55 -48 97.5t-169 45.5q4 -24 4 -39q0 -72 -50.5 -121t-119.5 -49q-54 0 -91.5 35.5t-37.5 89.5q0 69 43.5 108.5t108.5 55.5q81 19 211 19 q62 0 110 -3.5t105 -14.5t102.5 -35.5t75.5 -61.5q41 -52 41 -125q0 -84 -62 -152h39l-137 -456h-749zM561 969h156q208 0 231 16q4 3 8 7t8 11t7.5 12.5t7.5 15.5t6.5 16t7 18t6 17t6 18t5.5 16l-80 -33l-170 -47l-115 -37z" />
<glyph unicode="&#xb3;" horiz-adv-x="1046" d="M252 913q0 77 53.5 131t126.5 54q59 0 99 -36t40 -97q0 -100 -94 -160q75 -17 135 -17q43 0 75 11.5t50 26.5t30.5 41t16.5 44t9 47q6 27 6 60t-13 54t-37.5 29.5t-42 10.5t-44.5 2h-25q-25 0 -49 12h-2q-47 -28 -92 -28q-54 0 -89.5 31.5t-35.5 89.5q0 22 2 36 q11 51 41 102.5t77 97.5t117.5 75t151.5 29q100 0 173.5 -17.5t110 -46.5t52.5 -58t16 -59q0 -17 -3 -34t-16.5 -44t-36.5 -50.5t-66.5 -50t-102.5 -46.5q40 -8 76 -22t70 -35.5t54.5 -54t20.5 -72.5q0 -43 -26 -87.5t-80 -86.5t-153 -68.5t-229 -26.5q-73 0 -131.5 9.5 t-97.5 26.5t-67 38t-42.5 46t-21 47.5t-6.5 45.5zM541 1382q13 -1 26.5 -5.5t36 -16t37 -37t14.5 -61.5q0 -37 -14 -72q7 1 19.5 2.5t20.5 2.5t18 3.5t18 5.5q52 23 83 85t31 118q0 34 -18.5 52t-67.5 18q-109 0 -204 -95z" />
<glyph unicode="&#xb4;" d="M680 1096q263 211 295 233q37 25 67 27h7h2q45 0 72.5 -34t27.5 -77q0 -19 -2.5 -33.5t-12 -28t-19 -23t-32 -21t-42 -19.5t-58 -21t-71 -23t-90.5 -29t-107 -35z" />
<glyph unicode="&#xb5;" horiz-adv-x="1308" d="M23 -399l16 98h141q3 21 10.5 62t10.5 61l153 917q0 4 1 11t1 10q0 30 -26 38.5t-107 8.5l17 98l378 17q-121 -733 -123 -761q-1 -10 -1 -18q0 -39 29.5 -59.5t111.5 -20.5q37 0 74 9t74.5 31t68.5 54t55 82.5t35 112.5q66 392 66 412q0 25 -24.5 34t-84.5 9h-22l16 98 l379 17l-123 -732q-4 -36 -4 -45q0 -29 20.5 -38t83.5 -9h27l-16 -98l-367 -10l25 153q-41 -53 -87.5 -87t-94.5 -47t-75 -16t-65 -3q-74 0 -131 8l-49 -299h141l-16 -98q-132 6 -267 6h-6q-106 0 -245 -6z" />
<glyph unicode="&#xb6;" horiz-adv-x="1439" d="M281 877q0 105 50 203.5t138 174t220 121t286 45.5h528q94 0 94 -61q0 -39 -36 -55q-16 -7 -62 -7h-106l-263 -1572h93q39 0 59 -9q33 -22 33 -53q0 -24 -18 -43.5t-62 -19.5h-645q-24 1 -40.5 7.5t-23.5 17.5t-9.5 20t-2.5 18q0 24 18 43t62 19h125l121 725 q-2 0 -22.5 2.5t-39 4.5t-51 8t-61 13t-65.5 19.5t-68.5 27t-66 35.5t-62 46t-52.5 58t-41 70q-30 61 -30 142zM844 -274h162l262 1572h-162z" />
<glyph unicode="&#xb7;" horiz-adv-x="563" d="M201 463q0 73 57 126.5t125 53.5q60 0 99.5 -38.5t39.5 -100.5q0 -70 -54 -125t-128 -55q-60 0 -99.5 40t-39.5 99z" />
<glyph unicode="&#xb8;" horiz-adv-x="1046" d="M141 -408l13 74h24q64 0 111 2t102 9t90 19t58.5 35t23.5 54q0 92 -178 92l21 123h233l-10 -61q170 -23 170 -142q0 -117 -152 -161t-483 -44h-23z" />
<glyph unicode="&#xb9;" horiz-adv-x="1046" d="M313 711l17 98h219l90 541q-107 -38 -258 -43l14 98q97 2 174.5 18.5t122.5 38.5t77 44t55 37.5t40 15.5q47 0 47 -48q0 -11 -25 -164t-54.5 -327t-34.5 -211h219l-17 -98h-120l90 2l-209 4l-244 -2l-170 -4h-33z" />
<glyph unicode="&#xba;" horiz-adv-x="1046" d="M70 608q0 37 57 37h745q27 -1 38.5 -13t11.5 -26q0 -37 -56 -37h-741q-55 0 -55 39zM123 1077q0 64 19 128.5t61.5 127t102.5 111t150.5 78.5t198.5 30q181 0 287.5 -88t106.5 -247q0 -69 -21 -135t-65 -124.5t-105.5 -103t-148.5 -70.5t-189 -26q-177 0 -287 81 t-110 238zM373 989q0 -81 46.5 -115t115.5 -34q58 0 100.5 21t66 43.5t43 82t25 89.5t18.5 113q2 11 3 17q12 82 12 125q0 80 -47.5 114t-116.5 34q-37 0 -67 -6.5t-53 -21.5t-40.5 -32t-30.5 -44.5t-22 -52t-17 -62t-12.5 -67t-11.5 -73.5q-1 -9 -2 -14q-10 -92 -10 -117z " />
<glyph unicode="&#xbb;" horiz-adv-x="1308" d="M221 117q0 16 84 116l78 91l131 137q-85 122 -166 293q-14 28 -14 39q0 8 2 10l6 12q9 9 25.5 9t27.5 -9q1 0 31 -37l43 -57q67 -89 147 -168q49 -49 62 -64q20 -16 20 -34q0 -6 -3 -11.5t-6 -8.5l-9.5 -9.5l-7.5 -7.5q-141 -103 -289 -232q-32 -28 -54.5 -49.5 t-31 -29.5t-18.5 -15q-15 -8 -37 -4q-2 1 -5.5 3t-5.5 3q-9 9 -9.5 10.5t-0.5 12.5zM449 29q0 26 164 187.5t268 242.5q-96 116 -165 213t-96.5 147t-27.5 66q0 4 2 8.5t10.5 10t22.5 5.5q8 0 13.5 -1.5t10.5 -4.5t14.5 -12.5t19 -20t30.5 -33.5t43 -46q71 -73 136.5 -132 t104 -89.5t68.5 -53t42.5 -35.5t12.5 -24q0 -7 -2.5 -12.5t-8 -10.5t-9.5 -8t-11 -7t-8 -5q-129 -79 -236.5 -152.5t-165 -118t-100.5 -79t-64 -48.5t-34 -14q-34 0 -34 27z" />
<glyph unicode="&#xbc;" horiz-adv-x="1046" d="M27 -229q10 69 15 84t30 36l598 474q42 33 57 38q17 5 45 5q44 4 59 -11q13 -13 9 -43q-2 -25 -15 -94l-65 -391h198l-16 -98h-199l-12 -72h199l-17 -98l-297 6h-116l-269 -6l15 98h229v2l10 70h-458zM100 569q0 19 13.5 36.5t38.5 23.5q12 2 38 2h854q40 0 56 -8 q35 -15 35 -56q0 -24 -18 -42.5t-64 -18.5h-875q-32 1 -51 13.5t-23 24t-4 25.5zM168 -131h358l54 326zM322 754l16 98h219l92 551q-59 -8 -97.5 -11t-87 -4t-69.5 -2l15 97q11 1 83.5 3t101 5t89.5 16t119 35q4 1 16 6.5t22.5 8t22.5 2.5q20 0 33.5 -10t13.5 -27 q0 -21 -19 -140t-47 -286t-40 -244h219l-16 -98l-373 6z" />
<glyph unicode="&#xbd;" horiz-adv-x="1046" d="M51 -399q5 36 6.5 50t10.5 29t13 18t27 18q7 5 11 8q70 44 142 88.5t110 68t78.5 49t59.5 38t38.5 26.5t30.5 24t22 23q74 76 74 149q0 108 -223 117q4 -20 4 -28q0 -52 -50 -97t-114 -45q-53 0 -90 35t-37 90q0 33 14.5 58.5t43.5 40.5t58 25t72.5 14t72.5 5t71 1h39 q49 0 89 -2t93 -8.5t92 -21t75 -36t55 -57.5t19 -82q0 -78 -61 -142h39l-137 -456h-748zM98 569q0 19 14.5 36.5t39.5 23.5q12 2 38 2h852q42 0 58 -8q15 -8 25 -23.5t10 -32.5q0 -24 -18 -42.5t-64 -18.5h-877q-45 1 -61.5 21t-16.5 42zM322 754l16 98h219l92 551 q-59 -8 -97.5 -11t-88 -4t-70.5 -2l17 97q11 1 83.5 3t101 5t89 16t117.5 35q6 2 18 7t22 7.5t21 2.5q21 0 35 -10t14 -27q0 -22 -18.5 -138t-48.5 -290.5t-41 -241.5h221l-16 -98l-373 6zM483 -141h37q62 0 91.5 0.5t68 1.5t57 4.5t25.5 9.5q17 14 29 43q6 12 32 88h-2 q-33 -16 -116 -48.5t-136 -57.5z" />
<glyph unicode="&#xbe;" horiz-adv-x="1046" d="M27 -229q10 69 15 84t30 36l598 474q42 33 57 38q17 5 45 5q44 4 59 -11q13 -13 9 -43q-2 -25 -15 -94l-65 -391h198l-16 -98h-199l-12 -72h199l-17 -98l-297 6h-116l-269 -6l15 98h229v2l10 70h-458zM100 569q0 19 13.5 36.5t38.5 23.5q12 2 38 2h854q40 0 56 -8 q35 -15 35 -56q0 -24 -18 -42.5t-64 -18.5h-875q-32 1 -51 13.5t-23 24t-4 25.5zM168 -131h358l54 326zM256 942q0 76 53.5 129t126.5 53q59 0 98 -36t39 -97q0 -93 -88 -155q77 -15 131 -15q42 0 74 10.5t50 24.5t30.5 37.5t17.5 41.5t9 44q6 48 6 55q0 26 -10.5 45t-24 28 t-35 14t-35.5 6t-34 1h-11q-37 0 -51 6.5t-14 28.5q0 24 18.5 32.5t53 11t49.5 7.5q54 17 88 77.5t34 115.5q0 34 -19.5 52t-68.5 18q-75 0 -145 -33q72 -35 72 -111q0 -64 -48 -113t-114 -49q-57 0 -92 33t-35 88q0 104 105.5 185.5t275.5 81.5q151 0 249.5 -45.5 t98.5 -129.5q0 -17 -3 -33.5t-16 -43.5t-35 -50t-64 -48t-99 -42q217 -48 217 -178q0 -32 -15.5 -66t-52 -69t-90.5 -62t-139 -44t-188 -17q-87 0 -154.5 14t-107 35.5t-64.5 51t-34 56t-9 54.5z" />
<glyph unicode="&#xbf;" horiz-adv-x="1112" d="M102 -182q0 28 5 54.5t15 48.5t21.5 40.5t26.5 34.5t27.5 28t28.5 22.5t25 16.5t20 12.5t12 6.5q83 56 139.5 119.5t81 118t36 100t16.5 81t11 44.5q12 18 43 18q47 0 47 -35q0 -17 -5 -50t-10 -57l-5 -24q-20 -87 -57 -167.5t-68 -124.5t-66.5 -88t-39.5 -50 q-24 -43 -38 -115t-14 -108q0 -40 24 -60t89 -20q174 0 299 70q-70 34 -70 102q0 58 43 102t105 44q48 0 80 -30t32 -81q0 -36 -14 -72.5t-50.5 -75t-91 -67.5t-143.5 -47.5t-200 -18.5q-355 0 -355 228zM506 846q0 72 55.5 125t124.5 53q60 0 100.5 -41t40.5 -98 q0 -70 -54.5 -125t-127.5 -55q-60 0 -99.5 40.5t-39.5 100.5z" />
<glyph unicode="&#xc0;" horiz-adv-x="1779" d="M84 0l16 96h43q55 0 107 6q40 5 52 11t24 28l714 1241q18 32 37 40t49 8q38 0 51.5 -10.5t22.5 -47.5l311 -1276h199l-16 -96q-72 6 -332 6q-285 0 -363 -6l15 96h194l-71 299h-549l-158 -276q35 -15 86 -19q37 -4 94 -4l-16 -96q-76 6 -268 6q-28 0 -68 -1t-92 -2.5 t-82 -2.5zM645 492h467l-139 569zM846 1645q0 55 42 101t95 46q16 0 31 -5t42 -22t51 -34.5t81.5 -59t111.5 -78.5l-49 -92q-271 39 -325 55q-64 19 -75 54q-5 14 -5 35z" />
<glyph unicode="&#xc1;" horiz-adv-x="1779" d="M84 0l16 96h43q55 0 107 6q40 5 52 11t24 28l714 1241q18 32 37 40t49 8q38 0 51.5 -10.5t22.5 -47.5l311 -1276h199l-16 -96q-72 6 -332 6q-285 0 -363 -6l15 96h194l-71 299h-549l-158 -276q35 -15 86 -19q37 -4 94 -4l-16 -96q-76 6 -268 6q-28 0 -68 -1t-92 -2.5 t-82 -2.5zM645 492h467l-139 569zM940 1593q301 173 328 186q28 13 55 13q44 0 70 -32t26 -74q0 -24 -7 -44t-16.5 -33.5t-26 -25t-30 -17.5t-34 -11.5t-31.5 -7t-30 -4t-23 -3.5q-40 -6 -128.5 -19.5t-134.5 -19.5z" />
<glyph unicode="&#xc2;" horiz-adv-x="1779" d="M84 0l16 96h43q55 0 107 6q40 5 52 11t24 28l714 1241q18 32 37 40t49 8q38 0 51.5 -10.5t22.5 -47.5l311 -1276h199l-16 -96q-72 6 -332 6q-285 0 -363 -6l15 96h194l-71 299h-549l-158 -276q35 -15 86 -19q37 -4 94 -4l-16 -96q-76 6 -268 6q-28 0 -68 -1t-92 -2.5 t-82 -2.5zM645 492h467l-139 569zM829 1587l365 256l281 -256v-2l-70 -78l-238 166l-295 -166z" />
<glyph unicode="&#xc3;" horiz-adv-x="1779" d="M84 0l16 96h43q55 0 107 6q40 5 52 11t24 28l714 1241q18 32 37 40t49 8q38 0 51.5 -10.5t22.5 -47.5l311 -1276h199l-16 -96q-72 6 -332 6q-285 0 -363 -6l15 96h194l-71 299h-549l-158 -276q35 -15 86 -19q37 -4 94 -4l-16 -96q-76 6 -268 6q-28 0 -68 -1t-92 -2.5 t-82 -2.5zM645 492h467l-139 569zM707 1661v2q16 13 47 40.5t43.5 38t37.5 29.5t40.5 26.5t39 17.5t46.5 13t51 3q68 0 196 -35t199 -35q99 0 190 70l43 -51v-2q-14 -12 -45.5 -40.5t-43.5 -38.5t-37 -29.5t-40.5 -26.5t-39 -17t-46.5 -13t-51 -3q-69 0 -197 34.5t-198 34.5 q-59 0 -100.5 -16t-89.5 -53z" />
<glyph unicode="&#xc4;" horiz-adv-x="1779" d="M84 0l16 96h43q55 0 107 6q40 5 52 11t24 28l714 1241q18 32 37 40t49 8q38 0 51.5 -10.5t22.5 -47.5l311 -1276h199l-16 -96q-72 6 -332 6q-285 0 -363 -6l15 96h194l-71 299h-549l-158 -276q35 -15 86 -19q37 -4 94 -4l-16 -96q-76 6 -268 6q-28 0 -68 -1t-92 -2.5 t-82 -2.5zM645 492h467l-139 569zM776 1651q0 72 55.5 125t124.5 53q60 0 101 -38.5t41 -100.5q0 -72 -55.5 -125.5t-124.5 -53.5q-60 0 -101 39t-41 101zM1235 1651q0 72 55.5 125t124.5 53q60 0 100.5 -40t40.5 -99q0 -70 -54.5 -124.5t-127.5 -54.5q-60 0 -99.5 40.5 t-39.5 99.5z" />
<glyph unicode="&#xc5;" horiz-adv-x="1779" d="M82 0l16 98q80 0 120 1.5t65 12t31 18t22 34.5l694 1204q-125 50 -125 184q0 122 82 208.5t209 86.5q99 0 154 -53t55 -143q0 -51 -16.5 -102.5t-65 -104t-123.5 -76.5l309 -1270h201l-16 -98q-164 6 -326 6q-184 0 -371 -6l17 98h194l-71 295h-551l-158 -274 q11 -5 26 -8.5t26.5 -5.5t32.5 -3.5t30 -1.5t34 -1t31 -1l-16 -98q-135 6 -273 6q-129 0 -237 -6zM643 492h469l-139 569zM999 1536q0 -106 125 -106q42 0 72.5 10.5t49 26.5t31 42.5t18 50t10.5 58.5q4 32 4 49q0 107 -123 107q-52 0 -87 -14.5t-53.5 -44.5t-27 -58 t-14.5 -72q-5 -40 -5 -49z" />
<glyph unicode="&#xc6;" horiz-adv-x="2131" d="M82 0l16 98q104 0 148.5 6t57.5 15.5t30 40.5l676 1147h-158l16 98h1303l-21 -496h-96q0 16 1 46t1 44q0 111 -29 176t-102.5 98.5t-202.5 33.5h-247l-97 -582h109q68 0 110.5 8t78 33t55.5 72.5t32 124.5h99l-97 -576h-96q10 78 10 96q0 38 -11.5 65t-28 41.5 t-43.5 23.5t-48 11t-51 3h-135l-88 -529h227q83 0 147.5 10.5t112.5 25.5t88 49t66 63.5t54 88t45 102.5t46 126h99l-189 -563h-1151l17 98h165l89 529h-363q-26 -48 -97.5 -168.5t-129 -218t-60.5 -107.5q-2 -2 -2 -6q0 -17 38.5 -23t133.5 -6l-16 -98q-138 6 -272 6 q-121 0 -240 -6zM784 725h322l96 582h-76z" />
<glyph unicode="&#xc7;" horiz-adv-x="1699" d="M236 582q0 104 28.5 207t81.5 197t135.5 174.5t185 140t235.5 93t282 33.5q229 0 383 -139h2q132 103 155.5 120t38.5 17q35 0 35 -36q0 -10 -19 -126t-38 -227l-19 -112q-5 -28 -16 -40t-39 -12q-29 0 -41 6.5t-15 24.5t-2 40t-5.5 63t-22.5 84q-17 44 -44 83t-69 76 t-105 58.5t-140 21.5q-168 0 -311 -69t-228 -197q-54 -83 -89 -205.5t-44.5 -208t-9.5 -151.5q0 -98 28.5 -173.5t73.5 -121.5t108.5 -75.5t126 -40.5t132.5 -11q183 0 336.5 105.5t195.5 269.5q10 36 19 45.5t38 9.5q46 0 46 -35q0 -32 -17 -80.5t-60 -111t-105 -119.5 t-163.5 -105.5t-224.5 -68.5l-8 -47q170 -26 170 -140q0 -61 -40 -102t-123.5 -64t-192.5 -32t-267 -9h-34l12 74h22q55 0 92.5 1t87 4.5t82.5 12t64 21.5t46 34.5t15 49.5q0 15 -7 28.5t-24.5 27.5t-55 22.5t-91.5 9.5l17 107q-280 32 -442 184.5t-162 413.5z" />
<glyph unicode="&#xc8;" horiz-adv-x="1546" d="M80 0l14 96h223l199 1200h-221l16 97h1272l-18 -494h-97q2 18 2 68q0 88 -15.5 147t-54.5 101.5t-107.5 61.5t-172.5 19h-311l-88 -526h113q67 0 112 13t74 44t44.5 73.5t25.5 109.5h96l-96 -576h-97q13 60 13 98q0 44 -14 73t-41.5 43.5t-58.5 20t-75 5.5h-112l-97 -578 h312q96 0 171 14t130 49.5t91.5 68t69.5 97.5t50 108t47 128h96l-189 -561h-1306zM817 1645q0 55 42 101t95 46q16 0 30.5 -4.5t42 -22t51.5 -34.5t83 -59.5t111 -78.5l-49 -92q-271 39 -326 55q-63 18 -75 53q-5 14 -5 36z" />
<glyph unicode="&#xc9;" horiz-adv-x="1546" d="M80 0l14 96h223l199 1200h-221l16 97h1272l-18 -494h-97q2 18 2 68q0 88 -15.5 147t-54.5 101.5t-107.5 61.5t-172.5 19h-311l-88 -526h113q67 0 112 13t74 44t44.5 73.5t25.5 109.5h96l-96 -576h-97q13 60 13 98q0 44 -14 73t-41.5 43.5t-58.5 20t-75 5.5h-112l-97 -578 h312q96 0 171 14t130 49.5t91.5 68t69.5 97.5t50 108t47 128h96l-189 -561h-1306zM944 1593q67 38 164 94q135 77 163.5 91t55.5 14q44 0 70 -32t26 -74q0 -24 -7 -44t-17 -33.5t-26.5 -25t-30.5 -17.5t-34 -11.5t-32 -7t-29.5 -4t-21.5 -3.5q-44 -6 -131 -19.5t-131 -19.5z " />
<glyph unicode="&#xca;" horiz-adv-x="1546" d="M80 0l14 96h223l199 1200h-221l16 97h1272l-18 -494h-97q2 18 2 68q0 88 -15.5 147t-54.5 101.5t-107.5 61.5t-172.5 19h-311l-88 -526h113q67 0 112 13t74 44t44.5 73.5t25.5 109.5h96l-96 -576h-97q13 60 13 98q0 44 -14 73t-41.5 43.5t-58.5 20t-75 5.5h-112l-97 -578 h312q96 0 171 14t130 49.5t91.5 68t69.5 97.5t50 108t47 128h96l-189 -561h-1306zM735 1587l365 256l280 -256v-2l-69 -78l-240 166l-293 -166z" />
<glyph unicode="&#xcb;" horiz-adv-x="1546" d="M80 0l14 96h223l199 1200h-221l16 97h1272l-18 -494h-97q2 18 2 68q0 88 -15.5 147t-54.5 101.5t-107.5 61.5t-172.5 19h-311l-88 -526h113q67 0 112 13t74 44t44.5 73.5t25.5 109.5h96l-96 -576h-97q13 60 13 98q0 44 -14 73t-41.5 43.5t-58.5 20t-75 5.5h-112l-97 -578 h312q96 0 171 14t130 49.5t91.5 68t69.5 97.5t50 108t47 128h96l-189 -561h-1306zM682 1651q0 72 56.5 125t125.5 53q60 0 100 -40t40 -99q0 -70 -54 -124.5t-127 -54.5q-62 0 -101.5 41t-39.5 99zM1139 1653q0 72 56.5 125t125.5 53q58 0 98.5 -39.5t40.5 -99.5 q0 -72 -55.5 -126.5t-124.5 -54.5q-59 0 -100 40t-41 102z" />
<glyph unicode="&#xcc;" horiz-adv-x="892" d="M68 0l16 96h233l201 1213h-231l16 96q78 -6 377 -6q301 0 379 6l-17 -96h-231l-203 -1213h234l-19 -96q-78 6 -377 6q-294 0 -378 -6zM436 1645q0 55 42 101t95 46q14 0 28.5 -4.5t29 -12t41 -26t51 -36t74 -53t94.5 -67.5l-49 -92q-271 39 -325 55q-64 19 -76 54 q-5 14 -5 35z" />
<glyph unicode="&#xcd;" horiz-adv-x="892" d="M68 0l16 96h233l201 1213h-231l16 96q78 -6 377 -6q301 0 379 6l-17 -96h-231l-203 -1213h234l-19 -96q-78 6 -377 6q-294 0 -378 -6zM485 1593q298 173 329 187q27 12 54 12q42 0 68.5 -31t26.5 -75q0 -27 -7.5 -49t-23.5 -37t-29.5 -25t-38.5 -16.5t-35.5 -9 t-36.5 -5.5l-26 -4q-44 -6 -131 -19.5t-131 -19.5z" />
<glyph unicode="&#xce;" horiz-adv-x="892" d="M68 0l16 96h233l201 1213h-231l16 96q78 -6 377 -6q301 0 379 6l-17 -96h-231l-203 -1213h234l-19 -96q-78 6 -377 6q-294 0 -378 -6zM389 1587l365 256l278 -256v-2l-69 -78l-238 166l-293 -166z" />
<glyph unicode="&#xcf;" horiz-adv-x="892" d="M68 0l16 96h233l201 1213h-231l16 96q78 -6 377 -6q301 0 379 6l-17 -96h-231l-203 -1213h234l-19 -96q-78 6 -377 6q-294 0 -378 -6zM336 1653q0 69 54 123.5t126 54.5q59 0 99 -39.5t40 -101.5q0 -69 -54 -124t-126 -55q-59 0 -99 41.5t-40 100.5zM793 1653 q0 68 54 123t126 55q62 0 101.5 -40.5t39.5 -100.5q0 -71 -56.5 -125t-125.5 -54q-61 0 -100 42t-39 100z" />
<glyph unicode="&#xd0;" horiz-adv-x="1806" d="M80 0l16 98h221l91 543h-158q-55 0 -55 41q0 20 12 37.5t43 17.5h174l94 570h-221l16 98h871q53 0 106.5 -6.5t132.5 -27t154 -70t127 -123.5q98 -137 98 -342q0 -216 -91.5 -397t-264 -297.5t-397.5 -137.5q-47 -4 -144 -4h-825zM598 98h264q86 0 158.5 13t128 33 t101.5 55t78 69t59 86t43 94.5t31 105.5t22.5 108.5t17.5 113.5q12 93 12 152q0 88 -24 155.5t-64 109t-98.5 68t-120.5 36.5t-137 10h-270l-94 -570h323q3 0 9.5 1t9.5 1q59 0 59 -45q0 -32 -16.5 -42.5t-45.5 -10.5h-356z" />
<glyph unicode="&#xd1;" horiz-adv-x="1843" d="M80 0l14 96h53q118 0 172 21l199 1192h-221l16 96h465q34 0 43.5 -4t24.5 -25l655 -960l139 839l2 25q0 29 -161 29h-54l17 96q84 -6 276 -6q197 0 277 6l-17 -96h-53q-53 0 -106 -6q-46 -4 -55.5 -10.5t-14.5 -32.5l-201 -1207q-6 -35 -17 -44t-42 -9q-25 0 -32 4 t-23 27l-822 1200l-184 -1114q54 -21 164 -21h53l-16 -96q-78 6 -275 6q-192 0 -276 -6zM741 1661v2q14 12 45.5 40.5t43.5 38.5t37 29.5t40.5 26.5t39 17t46.5 13t51 3q69 0 197 -35t199 -35q102 0 190 70l45 -51v-2q-16 -13 -47 -40.5t-43.5 -38t-37.5 -29.5t-40.5 -26.5 t-39 -17.5t-46.5 -13t-51 -3q-67 0 -196.5 34.5t-198.5 34.5q-58 0 -100.5 -16t-90.5 -53z" />
<glyph unicode="&#xd2;" horiz-adv-x="1767" d="M236 555q0 129 36 253.5t110 236.5t177.5 197t248.5 135t312 50q299 0 472 -155.5t173 -431.5q0 -127 -35 -249.5t-108 -234t-176 -195.5t-249 -134t-316 -50q-138 0 -254 35.5t-204 105t-137.5 181.5t-49.5 256zM541 485q0 -191 80 -295q100 -127 274 -127q49 0 99 12 t106.5 38.5t111.5 78t99 121.5q47 77 80.5 183t48 202t20.5 156.5t6 89.5q0 95 -23.5 168t-59.5 116.5t-85.5 71t-95 37t-94.5 9.5q-69 0 -137.5 -21t-136 -65.5t-125.5 -124.5t-93 -187q-36 -111 -55.5 -248.5t-19.5 -214.5zM907 1645q0 55 41 101t94 46q14 0 28.5 -4.5 t29 -12t41 -26t51 -36t74 -53t94.5 -67.5l-47 -92q-273 39 -328 55q-61 19 -73 53q-5 14 -5 36z" />
<glyph unicode="&#xd3;" horiz-adv-x="1767" d="M236 555q0 129 36 253.5t110 236.5t177.5 197t248.5 135t312 50q299 0 472 -155.5t173 -431.5q0 -127 -35 -249.5t-108 -234t-176 -195.5t-249 -134t-316 -50q-138 0 -254 35.5t-204 105t-137.5 181.5t-49.5 256zM541 485q0 -191 80 -295q100 -127 274 -127q49 0 99 12 t106.5 38.5t111.5 78t99 121.5q47 77 80.5 183t48 202t20.5 156.5t6 89.5q0 95 -23.5 168t-59.5 116.5t-85.5 71t-95 37t-94.5 9.5q-69 0 -137.5 -21t-136 -65.5t-125.5 -124.5t-93 -187q-36 -111 -55.5 -248.5t-19.5 -214.5zM936 1593q67 38 164 94q135 77 163.5 91 t55.5 14q43 0 68.5 -31.5t25.5 -74.5q0 -27 -7.5 -49t-23.5 -36.5t-30.5 -25t-38 -17t-36.5 -9.5t-35 -6t-25 -3q-44 -6 -131.5 -19.5t-131.5 -19.5z" />
<glyph unicode="&#xd4;" horiz-adv-x="1767" d="M236 555q0 129 36 253.5t110 236.5t177.5 197t248.5 135t312 50q299 0 472 -155.5t173 -431.5q0 -127 -35 -249.5t-108 -234t-176 -195.5t-249 -134t-316 -50q-138 0 -254 35.5t-204 105t-137.5 181.5t-49.5 256zM541 485q0 -191 80 -295q100 -127 274 -127q49 0 99 12 t106.5 38.5t111.5 78t99 121.5q47 77 80.5 183t48 202t20.5 156.5t6 89.5q0 95 -23.5 168t-59.5 116.5t-85.5 71t-95 37t-94.5 9.5q-69 0 -137.5 -21t-136 -65.5t-125.5 -124.5t-93 -187q-36 -111 -55.5 -248.5t-19.5 -214.5zM825 1587l365 256l280 -256v-2l-69 -78 l-240 166l-293 -166z" />
<glyph unicode="&#xd5;" horiz-adv-x="1767" d="M236 555q0 129 36 253.5t110 236.5t177.5 197t248.5 135t312 50q299 0 472 -155.5t173 -431.5q0 -127 -35 -249.5t-108 -234t-176 -195.5t-249 -134t-316 -50q-138 0 -254 35.5t-204 105t-137.5 181.5t-49.5 256zM541 485q0 -191 80 -295q100 -127 274 -127q49 0 99 12 t106.5 38.5t111.5 78t99 121.5q47 77 80.5 183t48 202t20.5 156.5t6 89.5q0 95 -23.5 168t-59.5 116.5t-85.5 71t-95 37t-94.5 9.5q-69 0 -137.5 -21t-136 -65.5t-125.5 -124.5t-93 -187q-36 -111 -55.5 -248.5t-19.5 -214.5zM702 1661v2q15 13 47 41t44 38t37.5 29.5 t40.5 26.5t39 17t47 13t51 3q68 0 195.5 -35t197.5 -35q57 0 100.5 16.5t91.5 53.5l43 -51v-2q-16 -13 -47 -40.5t-43.5 -38t-37.5 -29.5t-40.5 -26.5t-39 -17.5t-46.5 -13t-51 -3q-69 0 -197 34.5t-196 34.5q-59 0 -101 -16t-92 -53z" />
<glyph unicode="&#xd6;" horiz-adv-x="1767" d="M236 555q0 129 36 253.5t110 236.5t177.5 197t248.5 135t312 50q299 0 472 -155.5t173 -431.5q0 -127 -35 -249.5t-108 -234t-176 -195.5t-249 -134t-316 -50q-138 0 -254 35.5t-204 105t-137.5 181.5t-49.5 256zM541 485q0 -191 80 -295q100 -127 274 -127q49 0 99 12 t106.5 38.5t111.5 78t99 121.5q47 77 80.5 183t48 202t20.5 156.5t6 89.5q0 95 -23.5 168t-59.5 116.5t-85.5 71t-95 37t-94.5 9.5q-69 0 -137.5 -21t-136 -65.5t-125.5 -124.5t-93 -187q-36 -111 -55.5 -248.5t-19.5 -214.5zM772 1653q0 72 55.5 125t124.5 53 q60 0 101 -39.5t41 -101.5q0 -69 -54.5 -124t-126.5 -55q-59 0 -100 40t-41 102zM1229 1651q0 72 56.5 125t125.5 53q60 0 99.5 -40t39.5 -99q0 -70 -53.5 -124.5t-126.5 -54.5q-62 0 -101.5 41t-39.5 99z" />
<glyph unicode="&#xd7;" horiz-adv-x="1830" d="M344 0q0 28 35 61l534 457v2q-58 64 -368 441q-31 41 -31 63t17.5 40.5t43.5 18.5q27 0 62 -39l371 -444l516 442q3 2 14 11.5t18 14.5t18 10t21 5q24 0 42 -17t18 -44q0 -28 -35 -59l-533 -459l371 -445q27 -37 27 -63q0 -24 -18.5 -39.5t-39.5 -15.5q-20 0 -32.5 8 t-32.5 31l-371 444q-4 -4 -109.5 -95.5t-234.5 -202t-182 -155.5q-37 -30 -59 -30q-27 0 -44.5 18t-17.5 41z" />
<glyph unicode="&#xd8;" horiz-adv-x="1830" d="M233 559q0 133 39 260t117.5 237t187.5 193t257.5 130.5t318.5 47.5q124 0 211.5 -21t173.5 -63l160 185h2l59 -47l-153 -181q101 -70 161 -187.5t60 -278.5q0 -172 -65 -327.5t-181.5 -273t-291 -187t-380.5 -69.5q-223 0 -387 84l-157 -184l-62 47v2l154 174 q-224 158 -224 459zM510 451q0 -75 13 -125t40 -103l887 1018q-22 19 -39 31.5t-56 34.5t-93.5 33.5t-118.5 11.5h-4q-139 0 -259 -58t-198 -168q-42 -59 -75 -148.5t-50 -166.5t-28.5 -166.5t-14.5 -125.5t-4 -68zM612 162q118 -111 312 -111q138 0 258.5 58t197.5 165 q52 73 89 185t53 219t22 173t6 95q0 131 -53 232l-885 -1014v-2z" />
<glyph unicode="&#xd9;" horiz-adv-x="1810" d="M297 1309l16 96q78 -6 367 -6q291 0 369 6l-17 -96h-221l-143 -860q-13 -84 -13 -119q0 -256 306 -256q115 0 209.5 32.5t156.5 89t100 125.5t52 148l131 786l2 25q0 29 -162 29h-53l16 96q84 -6 277 -6q196 0 276 6l-16 -96h-54q-54 0 -106 -6q-46 -4 -55.5 -10.5 t-14.5 -32.5l-133 -801q-11 -65 -38.5 -129t-80 -129t-122 -114t-173 -79.5t-225.5 -30.5q-144 0 -256.5 34t-180.5 93t-103 134.5t-35 162.5q0 27 6 68l139 840h-221zM928 1645q0 55 42 101t95 46q16 0 30.5 -5t42 -22t51.5 -34t82 -59t111 -79l-49 -92q-271 39 -326 55 q-62 19 -74 53q-5 15 -5 36z" />
<glyph unicode="&#xda;" horiz-adv-x="1810" d="M297 1309l16 96q78 -6 367 -6q291 0 369 6l-17 -96h-221l-143 -860q-13 -84 -13 -119q0 -256 306 -256q115 0 209.5 32.5t156.5 89t100 125.5t52 148l131 786l2 25q0 29 -162 29h-53l16 96q84 -6 277 -6q196 0 276 6l-16 -96h-54q-54 0 -106 -6q-46 -4 -55.5 -10.5 t-14.5 -32.5l-133 -801q-11 -65 -38.5 -129t-80 -129t-122 -114t-173 -79.5t-225.5 -30.5q-144 0 -256.5 34t-180.5 93t-103 134.5t-35 162.5q0 27 6 68l139 840h-221zM1055 1593q306 175 328 185q30 14 55 14q44 0 70 -32t26 -74q0 -24 -7 -44t-16.5 -33.5t-27.5 -25 t-30 -17.5t-34.5 -11t-31.5 -6.5t-29 -4.5l-21 -2q-220 -35 -264 -41z" />
<glyph unicode="&#xdb;" horiz-adv-x="1810" d="M297 1309l16 96q78 -6 367 -6q291 0 369 6l-17 -96h-221l-143 -860q-13 -84 -13 -119q0 -256 306 -256q115 0 209.5 32.5t156.5 89t100 125.5t52 148l131 786l2 25q0 29 -162 29h-53l16 96q84 -6 277 -6q196 0 276 6l-16 -96h-54q-54 0 -106 -6q-46 -4 -55.5 -10.5 t-14.5 -32.5l-133 -801q-11 -65 -38.5 -129t-80 -129t-122 -114t-173 -79.5t-225.5 -30.5q-144 0 -256.5 34t-180.5 93t-103 134.5t-35 162.5q0 27 6 68l139 840h-221zM893 1587l364 256l279 -256v-2l-68 -78l-239 166l-293 -166z" />
<glyph unicode="&#xdc;" horiz-adv-x="1810" d="M297 1309l16 96q78 -6 367 -6q291 0 369 6l-17 -96h-221l-143 -860q-13 -84 -13 -119q0 -256 306 -256q115 0 209.5 32.5t156.5 89t100 125.5t52 148l131 786l2 25q0 29 -162 29h-53l16 96q84 -6 277 -6q196 0 276 6l-16 -96h-54q-54 0 -106 -6q-46 -4 -55.5 -10.5 t-14.5 -32.5l-133 -801q-11 -65 -38.5 -129t-80 -129t-122 -114t-173 -79.5t-225.5 -30.5q-144 0 -256.5 34t-180.5 93t-103 134.5t-35 162.5q0 27 6 68l139 840h-221zM793 1653q0 72 56.5 125t125.5 53q58 0 98.5 -39.5t40.5 -99.5q0 -72 -55.5 -126.5t-124.5 -54.5 q-60 0 -100.5 41.5t-40.5 100.5zM1251 1653q0 72 56 125t125 53q61 0 101 -40.5t40 -98.5q0 -70 -54 -125.5t-126 -55.5q-58 0 -100 40t-42 102z" />
<glyph unicode="&#xdd;" horiz-adv-x="1779" d="M258 1309l16 96q72 -6 336 -6q291 0 375 6l-16 -96h-174l315 -609l496 586q-1 1 -2 2.5t-4 3t-9 2.5q-44 15 -139 15l16 96q80 -6 271 -6q23 0 233 6l-16 -96h-41q-55 0 -115 -6q-38 -4 -48.5 -9.5t-29.5 -27.5l-600 -705l-78 -465h224l-19 -96q-74 6 -360 6 q-287 0 -361 -6l15 96h223l78 465l-387 748h-199zM1038 1593q302 174 332 188q26 11 51 11q44 0 70.5 -32t26.5 -74q0 -24 -7 -44t-16.5 -33.5t-26 -25t-30 -17.5t-34 -11.5t-32 -7t-29.5 -4t-22 -3.5q-44 -6 -132 -19.5t-132 -19.5z" />
<glyph unicode="&#xde;" horiz-adv-x="1478" d="M80 0l16 98h221l201 1209h-221l16 98q173 -6 344 -6l369 6l-16 -98h-222l-24 -150h274q89 0 161 -15t119 -42t80.5 -59t50.5 -71t24.5 -74t7.5 -71q0 -55 -16 -111t-53 -114.5t-90.5 -105.5t-136.5 -81t-184 -44q-39 -4 -118 -4h-250l-45 -267h221l-16 -98q-174 6 -347 6 q-182 0 -366 -6zM649 463h195q67 0 122 19t90.5 52t61 71.5t38.5 83.5t18.5 82.5t5.5 72.5q0 42 -9 78t-30 68t-61 50.5t-97 18.5h-235z" />
<glyph unicode="&#xdf;" horiz-adv-x="1222" d="M72 0l16 98h141l119 715h-141l16 98h144q4 40 23.5 150t25.5 133q68 240 434 240q157 0 231 -60.5t74 -167.5q0 -31 -8 -79t-25 -106t-51 -103t-78 -54q-9 -1 -29.5 -3t-34 -6t-28.5 -13q-33 -20 -51.5 -61t-18.5 -79q0 -48 22 -71.5t59 -30.5t78 -14t88 -35.5t79 -81.5 q37 -61 37 -135q0 -40 -9 -82t-34.5 -90t-63.5 -85.5t-103 -62t-146 -24.5q-38 0 -69.5 9t-41 14.5t-29.5 19.5q-9 -5 -19 -10.5t-15.5 -9t-12.5 -7t-10.5 -5.5t-8 -4t-6.5 -3t-5 -2t-5.5 -1.5t-4.5 -0.5h-5q-18 0 -25.5 9t-7.5 30q0 13 3 32t8.5 52l9.5 57q3 17 6.5 38 t5.5 32t4.5 24.5t4.5 20.5t5.5 14.5t7 11t9 6.5t12 4t15.5 1q18 0 28.5 -4t15 -15.5t5.5 -22t1.5 -33t2.5 -38.5q3 -30 8.5 -53t18 -45.5t37 -35t59.5 -12.5q58 0 99 20.5t60 52.5t27 60t8 54q0 104 -133 127q-48 9 -70 14.5t-53 23t-55 46.5q-49 64 -49 151q0 20 3.5 44 t12.5 59t28 68t46 63.5t72 52t100 27.5q3 0 10.5 0.5t10 0.5t8.5 1t8.5 2t7 3.5t7.5 5.5t6.5 7.5t7 10.5t6.5 14q20 44 34.5 124t14.5 113q0 72 -47.5 111t-157.5 39q-39 0 -71 -8t-53.5 -18t-38.5 -31.5t-26.5 -37t-18.5 -46.5t-12 -47t-8.5 -52t-7.5 -49l-180 -1069l-78 6 l-122 -2z" />
<glyph unicode="&#xe0;" horiz-adv-x="1144" d="M100 195q0 90 72 164t186 112q108 38 193 50t270 22q19 112 19 139q0 172 -187 172q-33 0 -70 -2.5t-60 -6.5t-23 -7q0 -1 3 -6.5t3 -6.5q22 -27 22 -67q0 -64 -44 -106t-101 -42q-51 0 -83 30.5t-32 78.5q0 43 18.5 77.5t45 55.5t67.5 36.5t74 23t77.5 11.5t65 4.5 t48.5 0.5q114 0 197 -23.5t127 -64t63.5 -84.5t19.5 -94q0 -37 -18 -134q-1 -9 -6.5 -38.5t-9.5 -55.5t-5 -33q-5 -28 -25 -144.5t-20 -123.5q0 -12 14.5 -20.5t37 -11.5t37 -4t26.5 -1q51 0 51 -39q0 -21 -4.5 -33t-16.5 -17t-21 -6t-28 -1h-98q-199 0 -199 115q0 12 5 37 q-3 -6 -14 -20.5t-39.5 -40.5t-64 -48t-91.5 -38.5t-117 -16.5q-30 0 -61 2.5t-76 9t-82.5 21t-71.5 36t-54 57.5t-20 81zM340 195q0 -60 45 -97t113 -37q44 0 97 17.5t95 52.5q34 28 54 60.5t26 54.5t12 61q5 29 14.5 86t14.5 86q-117 -6 -207 -31.5t-138.5 -57.5 t-78.5 -72t-38.5 -69t-8.5 -54zM565 1208q0 52 44.5 100t97.5 48q14 0 24.5 -2.5t24 -11.5t25 -19.5t33 -33.5t42 -46t59 -65t76.5 -82v-2l-63 -82q-52 19 -136 49q-156 55 -191.5 77t-35.5 70z" />
<glyph unicode="&#xe1;" horiz-adv-x="1144" d="M100 195q0 90 72 164t186 112q108 38 193 50t270 22q19 112 19 139q0 172 -187 172q-33 0 -70 -2.5t-60 -6.5t-23 -7q0 -1 3 -6.5t3 -6.5q22 -27 22 -67q0 -64 -44 -106t-101 -42q-51 0 -83 30.5t-32 78.5q0 43 18.5 77.5t45 55.5t67.5 36.5t74 23t77.5 11.5t65 4.5 t48.5 0.5q114 0 197 -23.5t127 -64t63.5 -84.5t19.5 -94q0 -37 -18 -134q-1 -9 -6.5 -38.5t-9.5 -55.5t-5 -33q-5 -28 -25 -144.5t-20 -123.5q0 -12 14.5 -20.5t37 -11.5t37 -4t26.5 -1q51 0 51 -39q0 -21 -4.5 -33t-16.5 -17t-21 -6t-28 -1h-98q-199 0 -199 115q0 12 5 37 q-3 -6 -14 -20.5t-39.5 -40.5t-64 -48t-91.5 -38.5t-117 -16.5q-30 0 -61 2.5t-76 9t-82.5 21t-71.5 36t-54 57.5t-20 81zM340 195q0 -60 45 -97t113 -37q44 0 97 17.5t95 52.5q34 28 54 60.5t26 54.5t12 61q5 29 14.5 86t14.5 86q-117 -6 -207 -31.5t-138.5 -57.5 t-78.5 -72t-38.5 -69t-8.5 -54zM549 1096q263 211 295 233q37 25 67 27h7h2q45 0 72.5 -34t27.5 -77q0 -19 -2.5 -33.5t-12 -28t-19 -23t-32 -21t-42 -19.5t-58 -21t-71 -23t-90.5 -29t-107 -35z" />
<glyph unicode="&#xe2;" horiz-adv-x="1144" d="M100 195q0 90 72 164t186 112q108 38 193 50t270 22q19 112 19 139q0 172 -187 172q-33 0 -70 -2.5t-60 -6.5t-23 -7q0 -1 3 -6.5t3 -6.5q22 -27 22 -67q0 -64 -44 -106t-101 -42q-51 0 -83 30.5t-32 78.5q0 43 18.5 77.5t45 55.5t67.5 36.5t74 23t77.5 11.5t65 4.5 t48.5 0.5q114 0 197 -23.5t127 -64t63.5 -84.5t19.5 -94q0 -37 -18 -134q-1 -9 -6.5 -38.5t-9.5 -55.5t-5 -33q-5 -28 -25 -144.5t-20 -123.5q0 -12 14.5 -20.5t37 -11.5t37 -4t26.5 -1q51 0 51 -39q0 -21 -4.5 -33t-16.5 -17t-21 -6t-28 -1h-98q-199 0 -199 115q0 12 5 37 q-3 -6 -14 -20.5t-39.5 -40.5t-64 -48t-91.5 -38.5t-117 -16.5q-30 0 -61 2.5t-76 9t-82.5 21t-71.5 36t-54 57.5t-20 81zM340 195q0 -60 45 -97t113 -37q44 0 97 17.5t95 52.5q34 28 54 60.5t26 54.5t12 61q5 29 14.5 86t14.5 86q-117 -6 -207 -31.5t-138.5 -57.5 t-78.5 -72t-38.5 -69t-8.5 -54zM371 1044l374 304l277 -301v-3l-76 -73l-227 209h-2l-295 -209z" />
<glyph unicode="&#xe3;" horiz-adv-x="1144" d="M100 195q0 90 72 164t186 112q108 38 193 50t270 22q19 112 19 139q0 172 -187 172q-33 0 -70 -2.5t-60 -6.5t-23 -7q0 -1 3 -6.5t3 -6.5q22 -27 22 -67q0 -64 -44 -106t-101 -42q-51 0 -83 30.5t-32 78.5q0 43 18.5 77.5t45 55.5t67.5 36.5t74 23t77.5 11.5t65 4.5 t48.5 0.5q114 0 197 -23.5t127 -64t63.5 -84.5t19.5 -94q0 -37 -18 -134q-1 -9 -6.5 -38.5t-9.5 -55.5t-5 -33q-5 -28 -25 -144.5t-20 -123.5q0 -12 14.5 -20.5t37 -11.5t37 -4t26.5 -1q51 0 51 -39q0 -21 -4.5 -33t-16.5 -17t-21 -6t-28 -1h-98q-199 0 -199 115q0 12 5 37 q-3 -6 -14 -20.5t-39.5 -40.5t-64 -48t-91.5 -38.5t-117 -16.5q-30 0 -61 2.5t-76 9t-82.5 21t-71.5 36t-54 57.5t-20 81zM340 195q0 -60 45 -97t113 -37q44 0 97 17.5t95 52.5q34 28 54 60.5t26 54.5t12 61q5 29 14.5 86t14.5 86q-117 -6 -207 -31.5t-138.5 -57.5 t-78.5 -72t-38.5 -69t-8.5 -54zM367 1163q12 11 47.5 45t47 43.5t39.5 31.5t45.5 28.5t43.5 14t53 7.5q55 0 158 -34.5t157 -34.5q81 0 166 69l45 -49v-2q-14 -13 -44 -41.5t-41.5 -38.5t-35 -29.5t-37.5 -27t-34.5 -17.5t-40.5 -13t-43 -3q-55 0 -158 35t-157 35 q-50 0 -87.5 -18.5t-78.5 -51.5z" />
<glyph unicode="&#xe4;" horiz-adv-x="1144" d="M100 195q0 90 72 164t186 112q108 38 193 50t270 22q19 112 19 139q0 172 -187 172q-33 0 -70 -2.5t-60 -6.5t-23 -7q0 -1 3 -6.5t3 -6.5q22 -27 22 -67q0 -64 -44 -106t-101 -42q-51 0 -83 30.5t-32 78.5q0 43 18.5 77.5t45 55.5t67.5 36.5t74 23t77.5 11.5t65 4.5 t48.5 0.5q114 0 197 -23.5t127 -64t63.5 -84.5t19.5 -94q0 -37 -18 -134q-1 -9 -6.5 -38.5t-9.5 -55.5t-5 -33q-5 -28 -25 -144.5t-20 -123.5q0 -12 14.5 -20.5t37 -11.5t37 -4t26.5 -1q51 0 51 -39q0 -21 -4.5 -33t-16.5 -17t-21 -6t-28 -1h-98q-199 0 -199 115q0 12 5 37 q-3 -6 -14 -20.5t-39.5 -40.5t-64 -48t-91.5 -38.5t-117 -16.5q-30 0 -61 2.5t-76 9t-82.5 21t-71.5 36t-54 57.5t-20 81zM340 195q0 -60 45 -97t113 -37q44 0 97 17.5t95 52.5q34 28 54 60.5t26 54.5t12 61q5 29 14.5 86t14.5 86q-117 -6 -207 -31.5t-138.5 -57.5 t-78.5 -72t-38.5 -69t-8.5 -54zM406 1227q0 71 55.5 124.5t124.5 53.5q60 0 100.5 -39.5t40.5 -101.5q0 -73 -57 -126t-123 -53q-59 0 -100 40t-41 102zM862 1227q0 68 54 123t126 55q60 0 101 -39.5t41 -101.5q0 -69 -54 -124t-126 -55q-58 0 -100 40t-42 102z" />
<glyph unicode="&#xe5;" horiz-adv-x="1144" d="M100 195q0 90 72 164t186 112q108 38 193 50t270 22q19 112 19 139q0 172 -187 172q-33 0 -70 -2.5t-60 -6.5t-23 -7q0 -1 3 -6.5t3 -6.5q22 -27 22 -67q0 -64 -44 -106t-101 -42q-51 0 -83 30.5t-32 78.5q0 43 18.5 77.5t45 55.5t67.5 36.5t74 23t77.5 11.5t65 4.5 t48.5 0.5q114 0 197 -23.5t127 -64t63.5 -84.5t19.5 -94q0 -37 -18 -134q-1 -9 -6.5 -38.5t-9.5 -55.5t-5 -33q-5 -28 -25 -144.5t-20 -123.5q0 -12 14.5 -20.5t37 -11.5t37 -4t26.5 -1q51 0 51 -39q0 -21 -4.5 -33t-16.5 -17t-21 -6t-28 -1h-98q-199 0 -199 115q0 12 5 37 q-3 -6 -14 -20.5t-39.5 -40.5t-64 -48t-91.5 -38.5t-117 -16.5q-30 0 -61 2.5t-76 9t-82.5 21t-71.5 36t-54 57.5t-20 81zM340 195q0 -60 45 -97t113 -37q44 0 97 17.5t95 52.5q34 28 54 60.5t26 54.5t12 61q5 29 14.5 86t14.5 86q-117 -6 -207 -31.5t-138.5 -57.5 t-78.5 -72t-38.5 -69t-8.5 -54zM471 1151q0 32 15 65.5t46 65.5t88 52t130 20q61 0 105.5 -14.5t67 -39t32.5 -48.5t10 -50q0 -33 -15 -67t-46 -66t-87.5 -52t-130.5 -20q-61 0 -105.5 15t-67 39.5t-32.5 49t-10 50.5zM569 1151q0 -47 29.5 -64.5t95.5 -17.5q29 0 49 1.5 t45.5 9t40.5 21.5t26 39.5t11 61.5q0 23 -8.5 39t-19.5 24t-33 12t-35.5 4.5t-40.5 0.5q-81 0 -117 -27q-43 -37 -43 -104z" />
<glyph unicode="&#xe6;" horiz-adv-x="1699" d="M109 184q0 43 18 83.5t67 84.5t125.5 76.5t204.5 55t293 24.5q3 19 9.5 57.5t11 68.5t4.5 50q0 73 -42.5 120.5t-146.5 47.5q-96 0 -157 -14q30 -40 30 -78q0 -60 -41.5 -104t-103.5 -44q-40 0 -76.5 25.5t-36.5 83.5q0 60 44 110.5t134 73.5q79 23 222 23q115 0 199 -24 t149 -89h2q149 113 354 113q176 0 264 -86t88 -244q0 -70 -9 -104t-21 -41t-37 -7h-615q-3 -3 -7.5 -55t-4.5 -72q0 -57 16 -101.5t41 -71.5t59 -44t66 -23.5t66 -6.5q91 0 169 45.5t122 118.5q18 28 32 35q12 5 25 5q19 0 32 -9t13 -27q0 -17 -16 -45.5t-50.5 -64.5 t-81 -67t-116 -52t-147.5 -21q-236 0 -361 133q-146 -135 -430 -135q-67 0 -126.5 9t-114.5 30t-87 61t-32 96zM350 186q0 -55 42 -89t110 -34q128 0 220.5 68.5t92.5 136.5q0 6 -6 40.5t-6 74.5q0 17 4 57q-63 -5 -105.5 -11t-107 -20.5t-115 -42.5t-84.5 -69 q-45 -56 -45 -111zM1055 514h469q4 4 8 55t4 72q0 211 -164 211q-25 0 -52 -5t-69.5 -25t-77.5 -54t-68.5 -100t-49.5 -154z" />
<glyph unicode="&#xe7;" horiz-adv-x="1046" d="M145 375q0 68 19 140t64.5 147t112.5 133.5t172.5 95.5t234.5 37q329 0 329 -166q0 -62 -42.5 -106t-102.5 -44q-50 0 -82.5 30t-32.5 79q0 60 55 115q-54 8 -127 8q-263 0 -325 -363q-19 -123 -19 -162q0 -57 14.5 -101.5t37.5 -71.5t54.5 -44t62 -23.5t63.5 -6.5 q85 0 152.5 38t109.5 97q6 8 16.5 24.5t15 21t15 10t25.5 5.5q47 0 47 -28q0 -19 -21 -52.5t-58 -71t-99.5 -70.5t-133.5 -46l-10 -61q172 -23 172 -142q0 -118 -178 -170q-63 -17 -157.5 -25.5t-147 -9t-174.5 -0.5l10 74q43 0 72.5 0.5t71 2t70 5t62 9t55.5 14.5t41 21 t28.5 29t9.5 38q0 92 -178 92l20 123q-87 18 -151 56.5t-96 79t-51 92t-22.5 83t-3.5 64.5z" />
<glyph unicode="&#xe8;" horiz-adv-x="1079" d="M135 383q0 76 22.5 152t70.5 147t115 125.5t164.5 87.5t211.5 33q181 0 282 -83t101 -255q0 -53 -3.5 -82.5t-14.5 -43t-22 -16t-36 -2.5h-623q-16 -99 -16 -143q0 -117 62 -174q66 -59 176 -59q19 0 40 1.5t62.5 11.5t78 27t77.5 52.5t69 83.5q9 12 13.5 17t14 9t24.5 4 q47 0 47 -36q0 -12 -14.5 -39t-50 -64t-84.5 -70t-128 -56t-170 -23q-217 0 -343 107t-126 288zM414 514h489q10 90 10 113q0 227 -192 227q-50 0 -93 -16.5t-72.5 -39.5t-54 -59t-38.5 -64t-25.5 -66.5t-15.5 -55t-8 -39.5zM580 1208q0 52 44.5 100t98.5 48q20 0 36 -6.5 t40 -29t44.5 -45.5t68.5 -76.5t94 -102.5v-2l-64 -82q-260 95 -278 103q-66 28 -78 55q-6 14 -6 38z" />
<glyph unicode="&#xe9;" horiz-adv-x="1079" d="M135 383q0 76 22.5 152t70.5 147t115 125.5t164.5 87.5t211.5 33q181 0 282 -83t101 -255q0 -53 -3.5 -82.5t-14.5 -43t-22 -16t-36 -2.5h-623q-16 -99 -16 -143q0 -117 62 -174q66 -59 176 -59q19 0 40 1.5t62.5 11.5t78 27t77.5 52.5t69 83.5q9 12 13.5 17t14 9t24.5 4 q47 0 47 -36q0 -12 -14.5 -39t-50 -64t-84.5 -70t-128 -56t-170 -23q-217 0 -343 107t-126 288zM414 514h489q10 90 10 113q0 227 -192 227q-50 0 -93 -16.5t-72.5 -39.5t-54 -59t-38.5 -64t-25.5 -66.5t-15.5 -55t-8 -39.5zM498 1096q54 43 137 110q127 102 163 126t68 24 q47 0 75 -34t28 -77q0 -67 -51 -97t-239 -90q-90 -28 -144 -46z" />
<glyph unicode="&#xea;" horiz-adv-x="1079" d="M135 383q0 76 22.5 152t70.5 147t115 125.5t164.5 87.5t211.5 33q181 0 282 -83t101 -255q0 -53 -3.5 -82.5t-14.5 -43t-22 -16t-36 -2.5h-623q-16 -99 -16 -143q0 -117 62 -174q66 -59 176 -59q19 0 40 1.5t62.5 11.5t78 27t77.5 52.5t69 83.5q9 12 13.5 17t14 9t24.5 4 q47 0 47 -36q0 -12 -14.5 -39t-50 -64t-84.5 -70t-128 -56t-170 -23q-217 0 -343 107t-126 288zM385 1044l377 304l274 -301v-3l-73 -71h-2l-226 207h-2l-297 -209zM414 514h489q10 90 10 113q0 227 -192 227q-50 0 -93 -16.5t-72.5 -39.5t-54 -59t-38.5 -64t-25.5 -66.5 t-15.5 -55t-8 -39.5z" />
<glyph unicode="&#xeb;" horiz-adv-x="1079" d="M135 383q0 76 22.5 152t70.5 147t115 125.5t164.5 87.5t211.5 33q181 0 282 -83t101 -255q0 -53 -3.5 -82.5t-14.5 -43t-22 -16t-36 -2.5h-623q-16 -99 -16 -143q0 -117 62 -174q66 -59 176 -59q19 0 40 1.5t62.5 11.5t78 27t77.5 52.5t69 83.5q9 12 13.5 17t14 9t24.5 4 q47 0 47 -36q0 -12 -14.5 -39t-50 -64t-84.5 -70t-128 -56t-170 -23q-217 0 -343 107t-126 288zM356 1227q0 68 54 123t127 55q59 0 99 -41t40 -100q0 -69 -53.5 -124t-124.5 -55q-63 0 -102.5 41t-39.5 101zM414 514h489q10 90 10 113q0 227 -192 227q-50 0 -93 -16.5 t-72.5 -39.5t-54 -59t-38.5 -64t-25.5 -66.5t-15.5 -55t-8 -39.5zM813 1227q0 71 55.5 124.5t124.5 53.5q61 0 101.5 -41t40.5 -100q0 -69 -54.5 -124t-126.5 -55q-61 0 -101 41t-40 101z" />
<glyph unicode="&#xec;" horiz-adv-x="653" d="M96 0l15 96h143l106 647q0 3 2.5 13t2.5 12q0 28 -25.5 34.5t-101.5 6.5l16 96l358 17l-137 -826h127l-16 -96q-198 6 -240 6q-97 0 -250 -6zM195 1208q0 52 44 100t97 48q14 0 24.5 -2.5t24.5 -11.5t25.5 -19.5t33.5 -34t42 -45.5t59 -64.5t76 -82.5v-2l-64 -82 q-264 96 -274 100q-68 28 -81 56q-7 15 -7 40z" />
<glyph unicode="&#xed;" horiz-adv-x="653" d="M96 0l15 96h143l106 647q0 3 2.5 13t2.5 12q0 28 -25.5 34.5t-101.5 6.5l16 96l358 17l-137 -826h127l-16 -96q-198 6 -240 6q-97 0 -250 -6zM375 1096q264 211 293 231q38 27 68 29h7h2q45 0 73 -34t28 -77q0 -19 -2.5 -33.5t-12 -28t-19 -23t-32 -21t-42 -19.5t-58 -21 t-71 -23t-90.5 -29t-107 -35z" />
<glyph unicode="&#xee;" horiz-adv-x="653" d="M96 0l15 96h143l106 647q0 3 2.5 13t2.5 12q0 28 -25.5 34.5t-101.5 6.5l16 96l358 17l-137 -826h127l-16 -96q-198 6 -240 6q-97 0 -250 -6zM197 1044l376 304l275 -301v-3l-74 -71h-4l-225 207l-297 -209z" />
<glyph unicode="&#xef;" horiz-adv-x="784" d="M162 0l16 98h141l105 627q2 12 2 33q0 30 -20 39.5t-80 9.5h-23l16 98l361 17l-137 -824h127l-17 -98q-120 6 -241 6q-124 0 -250 -6zM233 1227q0 72 56 125t125 53q62 0 101.5 -40.5t39.5 -100.5q0 -72 -55.5 -125.5t-124.5 -53.5q-60 0 -101 40t-41 102zM690 1227 q0 68 54 123t126 55q60 0 101 -39.5t41 -101.5q0 -69 -54.5 -124t-126.5 -55q-63 0 -102 41t-39 101z" />
<glyph unicode="&#xf0;" d="M133 371q0 80 24.5 159t75 151t120.5 127t168.5 87.5t211.5 32.5q68 0 118.5 -23t98.5 -69q-20 104 -60 176t-106 151q-174 -92 -189 -97q-8 -3 -13 -3q-14 0 -24.5 16t-10.5 31q0 10 6.5 19t23.5 19.5t34 19t48.5 25t57.5 30.5q-60 44 -116 71t-90.5 35t-61 12.5 t-37.5 10.5t-11 22q0 11 7.5 21t34.5 19t69 9q78 0 151.5 -15.5t115.5 -34.5t74.5 -34.5t39.5 -15.5q19 0 105.5 47t101.5 47q16 0 26.5 -15t10.5 -32q0 -25 -31 -37l-135 -73q121 -97 186.5 -238t65.5 -293q0 -51 -11.5 -133.5t-22.5 -137t-13 -61.5q-45 -176 -198 -291.5 t-386 -115.5q-206 0 -332.5 98.5t-126.5 282.5zM387 293q0 -63 18.5 -108.5t50.5 -68.5t67 -33.5t75 -10.5q16 0 35 2.5t54 12t72.5 34.5t67.5 63q43 54 70 151t33 157t6 98q0 78 -20 133t-52.5 81t-65 37t-67.5 11q-69 0 -133 -33t-104 -88q-43 -57 -69.5 -166.5 t-32.5 -190.5z" />
<glyph unicode="&#xf1;" horiz-adv-x="1306" d="M92 0l14 96h144l106 645q4 20 4 27q0 28 -27.5 34.5t-107.5 6.5l17 96l356 17l-35 -211h2q24 36 57 69.5t80.5 67.5t112.5 54t137 20q154 0 215.5 -58.5t61.5 -163.5q0 -38 -6 -75l-88 -529h141l-16 -96q-171 6 -259 6q-156 0 -258 -6l15 96h143l96 582q4 25 4 61 q0 53 -16.5 81t-66.5 28q-117 0 -223 -84.5t-136 -210.5q-8 -64 -76 -457h142l-17 -96q-171 6 -258 6q-156 0 -258 -6zM477 1163q10 9 47.5 44.5t47.5 44t39.5 31t46 29t43 14t53.5 7.5q54 0 157 -34.5t158 -34.5q81 0 166 69l45 -49v-2q-14 -13 -44 -41.5t-41.5 -38.5 t-35 -29.5t-37.5 -27t-34.5 -17.5t-40.5 -13t-43 -3q-54 0 -158 35t-158 35q-50 0 -87.5 -18.5t-78.5 -51.5z" />
<glyph unicode="&#xf2;" d="M133 365q0 78 23.5 156.5t73 152t119.5 130t171.5 90.5t220.5 34q202 0 326.5 -100t124.5 -293q0 -82 -24 -160.5t-74 -148.5t-121 -123t-170.5 -84t-216.5 -31q-211 0 -332 100t-121 277zM385 281q0 -23 1.5 -41t13 -53t32 -57.5t64 -41t104.5 -18.5q83 0 155.5 39.5 t106.5 115.5q37 79 60.5 218t23.5 204q0 15 -0.5 26t-4.5 34.5t-12 40.5t-24 38.5t-38 35t-57.5 23t-80.5 9.5q-90 0 -160.5 -41.5t-109.5 -124.5q-26 -58 -50 -196t-24 -211zM565 1208q0 52 44.5 100t97.5 48q14 0 24.5 -2.5t24.5 -11.5t25 -19.5t33 -34t42.5 -46t59 -64.5 t75.5 -82v-2l-63 -82q-266 96 -271 99q-71 29 -85 56q-7 14 -7 41z" />
<glyph unicode="&#xf3;" d="M133 365q0 78 23.5 156.5t73 152t119.5 130t171.5 90.5t220.5 34q202 0 326.5 -100t124.5 -293q0 -82 -24 -160.5t-74 -148.5t-121 -123t-170.5 -84t-216.5 -31q-211 0 -332 100t-121 277zM385 281q0 -23 1.5 -41t13 -53t32 -57.5t64 -41t104.5 -18.5q83 0 155.5 39.5 t106.5 115.5q37 79 60.5 218t23.5 204q0 15 -0.5 26t-4.5 34.5t-12 40.5t-24 38.5t-38 35t-57.5 23t-80.5 9.5q-90 0 -160.5 -41.5t-109.5 -124.5q-26 -58 -50 -196t-24 -211zM549 1096q263 211 295 233q37 25 67 27h7h2q45 0 72.5 -34t27.5 -77q0 -19 -2.5 -33.5t-12 -28 t-19 -23t-32 -21t-42 -19.5t-58 -21t-71 -23t-90.5 -29t-107 -35z" />
<glyph unicode="&#xf4;" d="M133 365q0 78 23.5 156.5t73 152t119.5 130t171.5 90.5t220.5 34q202 0 326.5 -100t124.5 -293q0 -82 -24 -160.5t-74 -148.5t-121 -123t-170.5 -84t-216.5 -31q-211 0 -332 100t-121 277zM385 281q0 -23 1.5 -41t13 -53t32 -57.5t64 -41t104.5 -18.5q83 0 155.5 39.5 t106.5 115.5q37 79 60.5 218t23.5 204q0 15 -0.5 26t-4.5 34.5t-12 40.5t-24 38.5t-38 35t-57.5 23t-80.5 9.5q-90 0 -160.5 -41.5t-109.5 -124.5q-26 -58 -50 -196t-24 -211zM436 1044l377 304l274 -301v-3l-75 -73l-226 209h-2l-297 -209z" />
<glyph unicode="&#xf5;" d="M133 365q0 78 23.5 156.5t73 152t119.5 130t171.5 90.5t220.5 34q202 0 326.5 -100t124.5 -293q0 -82 -24 -160.5t-74 -148.5t-121 -123t-170.5 -84t-216.5 -31q-211 0 -332 100t-121 277zM385 281q0 -23 1.5 -41t13 -53t32 -57.5t64 -41t104.5 -18.5q83 0 155.5 39.5 t106.5 115.5q37 79 60.5 218t23.5 204q0 15 -0.5 26t-4.5 34.5t-12 40.5t-24 38.5t-38 35t-57.5 23t-80.5 9.5q-90 0 -160.5 -41.5t-109.5 -124.5q-26 -58 -50 -196t-24 -211zM395 1163q10 9 47.5 44.5t47.5 44t39.5 31t46 29t43 14t53.5 7.5q54 0 157 -34.5t158 -34.5 q81 0 166 69l45 -49v-2q-14 -13 -44 -41.5t-41.5 -38.5t-35 -29.5t-37.5 -27t-34.5 -17.5t-40.5 -13t-43 -3q-54 0 -158 35t-158 35q-50 0 -87.5 -18.5t-78.5 -51.5z" />
<glyph unicode="&#xf6;" d="M133 365q0 78 23.5 156.5t73 152t119.5 130t171.5 90.5t220.5 34q202 0 326.5 -100t124.5 -293q0 -82 -24 -160.5t-74 -148.5t-121 -123t-170.5 -84t-216.5 -31q-211 0 -332 100t-121 277zM385 281q0 -23 1.5 -41t13 -53t32 -57.5t64 -41t104.5 -18.5q83 0 155.5 39.5 t106.5 115.5q37 79 60.5 218t23.5 204q0 15 -0.5 26t-4.5 34.5t-12 40.5t-24 38.5t-38 35t-57.5 23t-80.5 9.5q-90 0 -160.5 -41.5t-109.5 -124.5q-26 -58 -50 -196t-24 -211zM406 1227q0 71 56.5 124.5t125.5 53.5q58 0 98.5 -39.5t40.5 -101.5q0 -74 -56.5 -126.5 t-123.5 -52.5q-59 0 -100 40t-41 102zM864 1227q0 68 54 123t126 55q60 0 101 -39.5t41 -101.5q0 -72 -55.5 -125.5t-124.5 -53.5q-63 0 -102.5 41.5t-39.5 100.5z" />
<glyph unicode="&#xf7;" horiz-adv-x="1830" d="M217 512q0 38 24 49.5t60 11.5h1393q27 0 39 -2q21 -6 35 -22t14 -37q0 -61 -84 -61h-1401q-33 0 -52.5 12.5t-23.5 24t-4 24.5zM721 -10q0 86 66 149.5t149 63.5q73 0 123.5 -48t50.5 -124q0 -86 -66 -149.5t-151 -63.5q-71 0 -121.5 48.5t-50.5 123.5zM889 991 q0 87 65.5 150t149.5 63q75 0 123.5 -49.5t48.5 -122.5q0 -87 -65.5 -150t-149.5 -63q-71 0 -121.5 48.5t-50.5 123.5z" />
<glyph unicode="&#xf8;" d="M119 -180l184 233q-172 107 -172 312q0 76 22.5 153t71 151t118 130.5t171.5 92t223 36.5h4q119 0 220 -39l188 239l57 -38l-182 -232q168 -109 168 -321q0 -81 -24 -159t-74 -148.5t-120.5 -123.5t-170.5 -84.5t-217 -31.5q-126 0 -219 35l-191 -244zM354 287 q0 -72 31 -129l510 647l-8 5q-8 5 -14 8t-17.5 8.5t-24 9.5t-28 8t-34.5 6t-40 2q-60 0 -110 -16.5t-83.5 -36t-62 -62t-42.5 -66.5t-28.5 -79t-17.5 -71t-12 -69q-2 -7 -2.5 -12t-1.5 -10q-15 -88 -15 -143zM434 106q71 -43 162 -43q88 0 160 34t116 98q37 54 61.5 161 t31 173.5t6.5 88.5q0 71 -29 134z" />
<glyph unicode="&#xf9;" horiz-adv-x="1306" d="M225 809l17 96l379 17l-121 -727q-4 -24 -4 -54q0 -18 2.5 -28t14.5 -24.5t43 -21t81 -6.5q63 0 118 25t92.5 65t61 86.5t31.5 94.5l68 409q1 5 2 11t1.5 9.5t0.5 6.5q0 28 -27.5 34.5t-107.5 6.5l16 96l379 17l-125 -756q-1 -7 -2 -13l-1.5 -9t-0.5 -5q0 -30 26 -36.5 t107 -6.5l-16 -96l-365 -12l25 149h-2q-112 -149 -314 -149q-56 0 -100.5 4.5t-90 18t-75.5 36.5t-49 62t-19 92q0 22 6 57l80 483q1 5 2 11t1.5 9.5t0.5 6.5q0 28 -27.5 34.5t-107.5 6.5zM621 1208q0 52 44 100t97 48q14 0 24.5 -2.5t24.5 -11.5t25.5 -19.5t33.5 -34 t42 -45.5t59 -64.5t76 -82.5v-2l-64 -82q-264 96 -274 100q-68 28 -81 56q-7 15 -7 40z" />
<glyph unicode="&#xfa;" horiz-adv-x="1306" d="M225 809l17 96l379 17l-121 -727q-4 -24 -4 -54q0 -18 2.5 -28t14.5 -24.5t43 -21t81 -6.5q63 0 118 25t92.5 65t61 86.5t31.5 94.5l68 409q1 5 2 11t1.5 9.5t0.5 6.5q0 28 -27.5 34.5t-107.5 6.5l16 96l379 17l-125 -756q-1 -7 -2 -13l-1.5 -9t-0.5 -5q0 -30 26 -36.5 t107 -6.5l-16 -96l-365 -12l25 149h-2q-112 -149 -314 -149q-56 0 -100.5 4.5t-90 18t-75.5 36.5t-49 62t-19 92q0 22 6 57l80 483q1 5 2 11t1.5 9.5t0.5 6.5q0 28 -27.5 34.5t-107.5 6.5zM637 1096q263 211 295 233q37 25 67 27h7h2q45 0 72.5 -34t27.5 -77 q0 -19 -2.5 -33.5t-12 -28t-19 -23t-32 -21t-42 -19.5t-58 -21t-71 -23t-90.5 -29t-107 -35z" />
<glyph unicode="&#xfb;" horiz-adv-x="1306" d="M225 809l17 96l379 17l-121 -727q-4 -24 -4 -54q0 -18 2.5 -28t14.5 -24.5t43 -21t81 -6.5q63 0 118 25t92.5 65t61 86.5t31.5 94.5l68 409q1 5 2 11t1.5 9.5t0.5 6.5q0 28 -27.5 34.5t-107.5 6.5l16 96l379 17l-125 -756q-1 -7 -2 -13l-1.5 -9t-0.5 -5q0 -30 26 -36.5 t107 -6.5l-16 -96l-365 -12l25 149h-2q-112 -149 -314 -149q-56 0 -100.5 4.5t-90 18t-75.5 36.5t-49 62t-19 92q0 22 6 57l80 483q1 5 2 11t1.5 9.5t0.5 6.5q0 28 -27.5 34.5t-107.5 6.5zM524 1044l377 304l275 -301v-3l-74 -71h-4l-226 207h-2l-295 -209z" />
<glyph unicode="&#xfc;" horiz-adv-x="1306" d="M225 809l17 96l379 17l-121 -727q-4 -24 -4 -54q0 -18 2.5 -28t14.5 -24.5t43 -21t81 -6.5q63 0 118 25t92.5 65t61 86.5t31.5 94.5l68 409q1 5 2 11t1.5 9.5t0.5 6.5q0 28 -27.5 34.5t-107.5 6.5l16 96l379 17l-125 -756q-1 -7 -2 -13l-1.5 -9t-0.5 -5q0 -30 26 -36.5 t107 -6.5l-16 -96l-365 -12l25 149h-2q-112 -149 -314 -149q-56 0 -100.5 4.5t-90 18t-75.5 36.5t-49 62t-19 92q0 22 6 57l80 483q1 5 2 11t1.5 9.5t0.5 6.5q0 28 -27.5 34.5t-107.5 6.5zM494 1225q0 72 56.5 125t125.5 53q60 0 99.5 -40t39.5 -99q0 -70 -53.5 -124.5 t-126.5 -54.5q-62 0 -101.5 41t-39.5 99zM952 1227q0 69 54.5 123.5t126.5 54.5q60 0 99.5 -40.5t39.5 -100.5q0 -69 -54 -124t-126 -55q-59 0 -99.5 41.5t-40.5 100.5z" />
<glyph unicode="&#xfd;" horiz-adv-x="1241" d="M6 -248q0 67 42 106.5t97 39.5q41 0 71 -24t30 -73q0 -44 -25 -79t-59 -50q19 -8 47 -8q55 0 112 32t99 85q21 25 57 78.5t62 96.5t26 46q0 9 -6 27l-240 784h-131l19 96q228 -6 229 -6q162 0 256 6l-16 -96h-111l168 -553l324 508l14 27q-32 18 -96 18l16 96 q129 -6 185 -6q86 0 163 6l-16 -96q-64 0 -96 -5t-41.5 -12.5t-20.5 -25.5l-602 -942q-66 -103 -165 -170.5t-201 -67.5q-85 0 -138 46.5t-53 115.5zM152 -322zM713 1096q264 211 293 231q38 27 68 29h7h2q45 0 73 -34t28 -77q0 -19 -2.5 -33.5t-12 -28t-19 -23t-32 -21 t-42 -19.5t-58 -21t-71 -23t-90.5 -29t-107 -35z" />
<glyph unicode="&#xfe;" horiz-adv-x="1308" d="M6 -399l17 98h141l250 1499q8 41 8 72q0 30 -21 39.5t-90 9.5h-18l16 96l367 19l-101 -609q158 97 322 97q59 0 114.5 -11.5t111 -39.5t96.5 -70t66.5 -109t25.5 -151q0 -152 -75.5 -278t-211 -199.5t-303.5 -73.5q-86 0 -143 22.5t-115 69.5l-64 -383h142l-17 -98 q-132 6 -266 6h-6q-107 0 -246 -6zM487 207q0 -45 63.5 -94.5t145.5 -49.5q106 0 189.5 77.5t125.5 193.5t42 244q0 72 -18.5 128.5t-64.5 94t-114 37.5q-91 0 -177.5 -46t-109.5 -87q-6 -14 -44 -244.5t-38 -253.5z" />
<glyph unicode="&#xff;" horiz-adv-x="1241" d="M6 -248q0 67 42 106.5t97 39.5q41 0 71 -24t30 -73q0 -44 -25 -79t-59 -50q19 -8 47 -8q55 0 112 32t99 85q21 25 57 78.5t62 96.5t26 46q0 9 -6 27l-240 784h-131l19 96q228 -6 229 -6q162 0 256 6l-16 -96h-111l168 -553l324 508l14 27q-32 18 -96 18l16 96 q129 -6 185 -6q86 0 163 6l-16 -96q-64 0 -96 -5t-41.5 -12.5t-20.5 -25.5l-602 -942q-66 -103 -165 -170.5t-201 -67.5q-85 0 -138 46.5t-53 115.5zM152 -322zM438 1225q0 72 57 125t126 53q60 0 99.5 -40t39.5 -99q0 -70 -53.5 -124.5t-126.5 -54.5q-62 0 -102 41t-40 99z M897 1225q0 69 54 124.5t126 55.5q60 0 100 -41t40 -100q0 -69 -54.5 -124t-126.5 -55q-60 0 -99.5 40.5t-39.5 99.5z" />
<glyph unicode="&#x152;" horiz-adv-x="2394" d="M274 559q0 124 36 246.5t111.5 235t182 198.5t259 137t329.5 51q56 0 188 -11t219 -11h836l-20 -496h-99q2 29 2 88q0 60 -10 107.5t-26 80t-44 55t-56 35.5t-70 20.5t-79 9.5t-89 2h-256l-89 -529h168q74 0 120 8.5t85 34t61 73t35 124.5h99l-96 -578h-97q8 58 8 86 q0 88 -53 121t-166 33h-180l-98 -582h244q78 0 130.5 4.5t115 18.5t113 47t91.5 84q34 42 63 100.5t41.5 93.5t40.5 117h99l-189 -563h-858q-102 0 -231 -11.5t-195 -11.5q-309 0 -492.5 152.5t-183.5 429.5zM578 532q0 -99 23.5 -184.5t70 -152.5t124 -105.5t177.5 -38.5 q47 0 84 6t65.5 19.5t49.5 31t37.5 46.5t28 59t22 75t18.5 88.5t18 104.5q8 51 13 78q90 517 90 612q0 105 -46.5 143t-164.5 38q-116 0 -216 -46t-171.5 -125t-122.5 -184t-75.5 -223t-24.5 -242z" />
<glyph unicode="&#x153;" horiz-adv-x="1830" d="M133 379q0 99 38.5 195t110 176t188 129t259.5 49q249 0 373 -150q172 150 403 150q69 -1 126.5 -16t109.5 -50t82 -102t30 -162q0 -68 -9 -102.5t-21.5 -42t-36.5 -7.5h-615q-4 -3 -8 -53.5t-4 -73.5q0 -58 16.5 -102.5t41.5 -71.5t59 -44t65.5 -23t65.5 -6 q89 0 167 43.5t122 117.5q1 2 4.5 7t5 7.5t5 7t6.5 7t7 5.5t8.5 5t10.5 3t12 1q45 0 45 -36q0 -17 -16 -45.5t-50.5 -64.5t-81 -67t-116 -52t-147.5 -21q-255 0 -379 153q-25 -22 -36.5 -31t-56.5 -37.5t-85.5 -43.5t-108 -29t-139.5 -14q-203 0 -327 103t-124 288zM365 301 q0 -68 20 -117t54 -74t70.5 -36t78.5 -11q17 0 38 3t59.5 13t79 37t73.5 68q46 59 75 166t36 173t7 100q0 66 -20.5 113t-55.5 71t-72.5 34.5t-80.5 10.5q-84 0 -150 -35.5t-106 -89.5q-55 -74 -80.5 -206t-25.5 -220zM1184 514h469q4 4 8 55t4 72q0 211 -164 211 q-25 0 -52 -5t-69.5 -25t-77.5 -54t-68.5 -100t-49.5 -154z" />
<glyph unicode="&#x178;" horiz-adv-x="1779" d="M258 1309l16 96q72 -6 336 -6q291 0 375 6l-16 -96h-174l315 -609l496 586q-1 1 -2 2.5t-4 3t-9 2.5q-44 15 -139 15l16 96q80 -6 271 -6q23 0 233 6l-16 -96h-41q-55 0 -115 -6q-38 -4 -48.5 -9.5t-29.5 -27.5l-600 -705l-78 -465h224l-19 -96q-74 6 -360 6 q-287 0 -361 -6l15 96h223l78 465l-387 748h-199zM778 1653q0 72 55.5 125t124.5 53q60 0 101 -39.5t41 -101.5q0 -72 -55.5 -125.5t-124.5 -53.5q-60 0 -101 40t-41 102zM1235 1651q0 72 56.5 125t125.5 53q60 0 99.5 -40t39.5 -99q0 -70 -53.5 -124.5t-126.5 -54.5 q-62 0 -101.5 41t-39.5 99z" />
<glyph unicode="&#x2c6;" d="M436 1044l377 304l274 -301v-3l-75 -73l-228 209l-297 -209z" />
<glyph unicode="&#x2dc;" d="M403 1251q10 9 47.5 44.5t47.5 44t39.5 31t46 29t43 14t53.5 7.5q54 0 157 -34.5t158 -34.5q81 0 166 69l45 -49v-2q-14 -13 -44 -41.5t-41.5 -38.5t-35 -29.5t-37.5 -27t-34.5 -17.5t-40.5 -13t-43 -3q-54 0 -158 35t-158 35q-50 0 -87 -18.5t-78 -51.5z" />
<glyph unicode="&#x2000;" horiz-adv-x="923" />
<glyph unicode="&#x2001;" horiz-adv-x="1847" />
<glyph unicode="&#x2002;" horiz-adv-x="923" />
<glyph unicode="&#x2003;" horiz-adv-x="1847" />
<glyph unicode="&#x2004;" horiz-adv-x="615" />
<glyph unicode="&#x2005;" horiz-adv-x="461" />
<glyph unicode="&#x2006;" horiz-adv-x="307" />
<glyph unicode="&#x2007;" horiz-adv-x="307" />
<glyph unicode="&#x2008;" horiz-adv-x="230" />
<glyph unicode="&#x2009;" horiz-adv-x="369" />
<glyph unicode="&#x200a;" horiz-adv-x="102" />
<glyph unicode="&#x2010;" horiz-adv-x="784" d="M84 356l33 199h626l-32 -199h-627z" />
<glyph unicode="&#x2011;" horiz-adv-x="784" d="M84 356l33 199h626l-32 -199h-627z" />
<glyph unicode="&#x2012;" horiz-adv-x="784" d="M84 356l33 199h626l-32 -199h-627z" />
<glyph unicode="&#x2013;" d="M88 524l12 74h1176l-12 -74h-1176z" />
<glyph unicode="&#x2014;" horiz-adv-x="2355" d="M88 524l12 74h2354l-13 -74h-2353z" />
<glyph unicode="&#x2018;" horiz-adv-x="653" d="M289 903q0 78 41.5 188.5t134.5 211.5q36 38 83 76t68 38q12 0 24.5 -10.5t12.5 -26.5q0 -7 -5 -14.5t-9.5 -11.5t-13 -10t-9.5 -7q-189 -142 -243 -356q59 41 119 41q64 0 101.5 -38t37.5 -97q0 -69 -50.5 -125.5t-129.5 -56.5t-120.5 58.5t-41.5 139.5z" />
<glyph unicode="&#x2019;" horiz-adv-x="653" d="M354 743q0 8 5 16t9.5 12t13 10t9.5 7q92 67 155 158.5t87 198.5q-58 -43 -117 -43q-68 0 -103.5 39t-35.5 96q0 70 49.5 127t132.5 57q70 0 114 -55t44 -143q0 -32 -8.5 -76t-32 -113.5t-80.5 -147t-139 -141.5q-46 -38 -66 -38q-12 0 -24.5 11t-12.5 25z" />
<glyph unicode="&#x201a;" horiz-adv-x="653" d="M168 -356q0 2 0.5 4t0.5 3.5t1 3t1.5 2.5t2.5 3t2.5 3t3 3t4 2.5t4.5 3.5t5 4q194 138 249 361l-6 -4q-5 -4 -15 -9t-22.5 -10.5t-30.5 -9.5t-36 -4q-65 0 -103.5 37.5t-38.5 99.5q0 69 51.5 125.5t131.5 56.5q77 0 116 -57.5t39 -140.5q0 -77 -29 -157.5t-71.5 -143 t-88.5 -113t-82.5 -77.5t-51.5 -27q-13 0 -25 14t-12 27z" />
<glyph unicode="&#x201c;" horiz-adv-x="841" d="M104 903q0 77 42 188t135 212q36 38 83 76t68 38q12 0 24.5 -10.5t12.5 -26.5q0 -7 -5 -14.5t-9.5 -11.5t-13 -10t-9.5 -7q-191 -143 -244 -356q59 41 119 41q63 0 101 -38t38 -97q0 -69 -50.5 -125.5t-129.5 -56.5t-120.5 58.5t-41.5 139.5zM657 903q0 77 42 188 t135 212q36 38 83 76t68 38q12 0 24.5 -10.5t12.5 -26.5q0 -7 -5 -14.5t-9.5 -11.5t-13 -10t-9.5 -7q-191 -143 -244 -356q59 41 119 41q64 0 101.5 -38t37.5 -97q0 -69 -50.5 -125.5t-129.5 -56.5t-120.5 58.5t-41.5 139.5z" />
<glyph unicode="&#x201d;" horiz-adv-x="841" d="M170 743q0 8 5 16t9.5 12t13 10t9.5 7q92 67 155 158.5t87 198.5q-58 -43 -117 -43q-68 0 -103.5 39t-35.5 96q0 70 49.5 127t132.5 57q70 0 113.5 -55t43.5 -143q0 -32 -8.5 -76t-32 -113.5t-80.5 -147t-139 -141.5q-46 -38 -65 -38q-12 0 -24.5 11t-12.5 25zM723 743 q0 8 5 16t9.5 12t13 10t9.5 7q191 139 241 357q-58 -43 -116 -43q-68 0 -104 39t-36 96q0 70 50 127t133 57q70 0 113.5 -55t43.5 -143q0 -32 -8.5 -76t-32 -113.5t-80.5 -147t-139 -141.5q-46 -38 -65 -38q-12 0 -24.5 11t-12.5 25z" />
<glyph unicode="&#x201e;" horiz-adv-x="841" d="M-10 -358q0 8 5 16t9.5 12t13 10t9.5 7q190 139 241 356q-53 -43 -118 -43q-60 0 -100 37t-40 98q0 70 52 127t131 57t119 -59t40 -141q0 -74 -28 -153t-69.5 -141t-87.5 -113t-84 -79t-56 -28q-12 0 -24.5 10.5t-12.5 26.5zM543 -358q0 12 22 31.5t56.5 48.5t72 68.5 t73 106t54.5 146.5q-53 -43 -119 -43q-60 0 -99.5 36.5t-39.5 98.5q0 70 51.5 127t130.5 57t119.5 -59t40.5 -141q0 -74 -28 -153t-69.5 -141t-87.5 -113t-84 -79t-56 -28q-12 0 -24.5 12t-12.5 25z" />
<glyph unicode="&#x2022;" d="M207 430q0 104 36.5 200.5t102.5 172.5t168 122t223 46q181 0 290.5 -102.5t109.5 -274.5q0 -79 -22 -156t-66.5 -146.5t-107 -122.5t-149.5 -84.5t-188 -31.5q-181 0 -289 102t-108 275z" />
<glyph unicode="&#x2026;" horiz-adv-x="1959" d="M193 139q0 73 57 126.5t125 53.5q60 0 99.5 -38.5t39.5 -100.5q0 -70 -54 -125t-128 -55q-60 0 -99.5 40t-39.5 99zM846 139q0 73 57 126.5t125 53.5q60 0 99.5 -38.5t39.5 -100.5q0 -70 -54 -125t-128 -55q-60 0 -99.5 40t-39.5 99zM1499 139q0 73 57 126.5t125 53.5 q60 0 100 -38.5t40 -100.5q0 -70 -54.5 -125t-128.5 -55q-60 0 -99.5 40t-39.5 99z" />
<glyph unicode="&#x202f;" horiz-adv-x="369" />
<glyph unicode="&#x2039;" horiz-adv-x="1046" d="M346 483q0 9 5 16.5t10.5 11t14.5 9t11 6.5q264 144 455 389q3 4 9 11.5t8 10.5t6.5 9t7 8t6.5 5.5t7.5 4.5t7.5 2t9 1q12 0 22.5 -8.5t10.5 -20.5q0 -37 -109 -192.5t-239 -264.5q54 -75 94 -149t58.5 -122.5t29.5 -94t12.5 -61.5t1.5 -27q0 -8 -9.5 -16.5t-22.5 -8.5 q-6 0 -11 1t-9.5 4.5t-7 5t-6 7.5t-4.5 7.5t-5 9.5l-4 8q-102 246 -326 399q-33 19 -33 39z" />
<glyph unicode="&#x203a;" horiz-adv-x="1046" d="M270 31q0 20 44 93.5t129 178.5t175 182v4q-95 115 -146.5 255.5t-51.5 193.5q0 12 12 20.5t23 8.5q7 0 13 -2.5t9.5 -4.5t8 -8.5t6 -8.5t6 -11t4.5 -10q100 -241 313 -390q3 -2 10 -7t10 -7t8 -6t7.5 -7t5 -6.5t3.5 -7.5t1 -8q0 -21 -41 -41q-268 -149 -454 -391 q-31 -38 -42 -44q-10 -5 -20 -5q-13 0 -23 8t-10 21z" />
<glyph unicode="&#x205f;" horiz-adv-x="461" />
<glyph unicode="&#x20ac;" horiz-adv-x="1830" d="M119 520q0 17 43 88q12 19 21.5 27.5t17.5 10t26 1.5h324q3 49 16 111h-352q-51 0 -51 26q0 21 43 90q16 28 27.5 33.5t39.5 5.5h351q91 205 300 348.5t447 143.5h2q93 -1 180 -27.5t141.5 -62.5t87 -69t32.5 -50q0 -16 -78 -147q-1 -2 -6 -9t-8 -11t-7.5 -9t-9.5 -7.5 t-10 -2.5q-11 0 -29 16.5t-44 40t-61 47.5t-92.5 40.5t-126.5 16.5q-32 0 -65 -4t-85.5 -20t-101 -42t-106 -76t-106.5 -116h704q47 0 47 -26q0 -21 -47 -96q-13 -21 -23 -27t-32 -6h-725l-12 -58l-7 -53h641q50 0 50 -26q0 -7 -2 -14t-7.5 -17.5t-8.5 -16t-12 -19.5 t-11 -17q-14 -23 -25.5 -32.5t-20.5 -11t-34 -1.5h-549q42 -121 140.5 -190t238.5 -69q86 0 173 24.5t138 52.5t98 58t49 31q4 2 13 2q24 0 24 -36q0 -13 -2 -17q-22 -141 -31 -160q-6 -13 -29 -30q-2 -1 -3 -2q-91 -66 -211 -111t-256 -45q-124 0 -231 41t-180.5 110 t-120 156.5t-60.5 184.5h-322q-7 0 -22.5 -1.5t-22.5 -1.5h-8q-61 0 -61 31z" />
<glyph unicode="&#x2122;" horiz-adv-x="1568" d="M125 1499q0 37 70 37h649q57 -3 57 -37q0 -37 -65 -37h-281q-4 -36 -106 -641q-7 -73 -56 -73q-20 0 -33.5 12t-13.5 31q0 15 22 143.5t50.5 293t38.5 234.5h-252q-80 0 -80 37zM870 791q0 5 1 15t1 15l111 660q4 25 7.5 37.5t16 25t33.5 12.5q13 0 22.5 -4.5t17.5 -17.5 t12 -21t13 -32.5t13 -34.5l115 -320q26 39 145 211t127 181q25 38 58 38q17 0 32 -10t15 -33q0 -10 -27 -161l-90 -549q-3 -16 -6 -24.5t-15 -19.5t-32 -11q-45 0 -45 47q0 13 19.5 133t41 248t23.5 145q-16 -25 -106 -154t-97 -139q-26 -39 -57 -39q-20 0 -34.5 14.5 t-27.5 46.5t-24 68.5t-32 96.5t-44 114q-3 -23 -86 -518q-3 -19 -6 -30t-15 -22t-32 -11q-48 0 -48 43z" />
<glyph unicode="&#xe000;" horiz-adv-x="911" d="M0 0v911h911v-911h-911z" />
</font>
</defs>
</svg>
