<?xml version="1.0" standalone="no"?>
<!DOCTYPE svg PUBLIC "-//W3C//DTD SVG 1.1//EN" "http://www.w3.org/Graphics/SVG/1.1/DTD/svg11.dtd" >
<svg xmlns="http://www.w3.org/2000/svg">
<metadata></metadata>
<defs>
<font id="cmu_sans_serifmedium" horiz-adv-x="1024" >
<font-face units-per-em="2048" ascent="1638" descent="-410" />
<missing-glyph horiz-adv-x="681" />
<glyph unicode="&#xfb01;" horiz-adv-x="1097" d="M55 791v120h152v203q0 103 26.5 182t69.5 121.5t88 63t90 20.5q27 0 48.5 -3.5t46.5 -11t26 -7.5v-140q-3 1 -13.5 6.5t-14 7t-13.5 6t-15 6t-14 4.5t-16 4t-16.5 2t-18.5 1q-21 0 -41 -8t-40.5 -27t-33 -58t-12.5 -93v-279h248v-120h-242v-791h-153v791h-152zM766 1309 v172h172v-172h-172zM774 0v911h154v-911h-154z" />
<glyph unicode="&#xfb02;" horiz-adv-x="1097" d="M55 791v120h152v203q0 103 26.5 182t69.5 121.5t88 63t90 20.5q27 0 48.5 -3.5t46.5 -11t26 -7.5v-138q-72 35 -121 35q-21 0 -41 -7.5t-40.5 -26.5t-33 -58t-12.5 -94v-279h248v-120h-242v-791h-153v791h-152zM774 0v1479h154v-1479h-154z" />
<glyph unicode="&#xfb03;" horiz-adv-x="1667" d="M55 791v120h152v199q0 95 25.5 171t68.5 123t97.5 72t115.5 25q64 0 139 -22v-138q-85 35 -141 35q-26 0 -51 -8t-50.5 -27t-41 -58t-15.5 -93v-279h248v-120h-242v-791h-153v791h-152zM774 0v1104q0 88 18 158t46.5 113.5t66 73t73 41t71.5 11.5q55 0 122 -20v-142 q-68 37 -120 37q-22 0 -42 -8t-40.5 -27t-32.5 -57.5t-12 -93.5v-279h247v-120h-241v-791h-156zM1335 1309v172h172v-172h-172zM1343 0v911h154v-911h-154z" />
<glyph unicode="&#xfb04;" horiz-adv-x="1667" d="M55 791v120h152v199q0 95 25.5 171t68.5 123t97.5 72t115.5 25q64 0 139 -22v-138q-85 35 -141 35q-26 0 -51 -8t-50.5 -27t-41 -58t-15.5 -93v-279h248v-120h-242v-791h-153v791h-152zM774 0v1104q0 88 18.5 158.5t47 114t66 72.5t73.5 40.5t72 11.5q26 0 48 -3.5 t46 -11t26 -7.5v-138q-72 35 -120 35q-21 0 -41 -7.5t-40.5 -26.5t-33 -58t-12.5 -94v-279h247v-120h-241v-791h-156zM1343 0v1479h154v-1479h-154z" />
<glyph horiz-adv-x="0" />
<glyph unicode="&#xd;" horiz-adv-x="2048" />
<glyph unicode=" "  horiz-adv-x="681" />
<glyph unicode="&#x09;" horiz-adv-x="681" />
<glyph unicode="&#xa0;" horiz-adv-x="681" />
<glyph unicode="!" horiz-adv-x="653" d="M240 0v172h172v-172h-172zM240 1479h172l-19 -1121h-137l-14 1016z" />
<glyph unicode="&#x22;" d="M258 1479h160l-17 -736v-2h-125zM602 1479h160l-19 -738h-125v2z" />
<glyph unicode="#" horiz-adv-x="1705" d="M115 307q0 25 16.5 43.5t58.5 18.5h338l68 286h-410q-30 0 -47.5 13.5t-20.5 25t-3 23.5q0 63 82 63h432l153 619l2 7l3 12t4 13t6 14.5t8.5 12.5t12 11t15.5 7t19 3q24 0 41.5 -18t19.5 -42q0 -19 -8 -47l-147 -592h321l152 619l1 7q2 6 3 9.5t3.5 11t5 12.5t6.5 12 t9 11t11 8.5t13.5 6.5t16.5 2q26 0 44 -18.5t18 -43.5q1 -6 0 -14t-3 -17.5t-3 -13.5l-148 -592h279q7 0 20 -0.5t18.5 -1t13.5 -1.5t13.5 -3.5t10.5 -5.5q26 -20 26 -51q0 -24 -17 -43t-59 -19h-337l-70 -286h412q29 0 46 -13.5t21 -25.5t4 -23q0 -63 -82 -63h-432 l-153 -619l-2 -7l-3 -12t-4 -13t-6 -14.5t-8.5 -12.5t-12 -11t-15.5 -7t-19 -3q-25 0 -43 18.5t-18 43.5q0 17 8 45l145 592h-319l-154 -619l-2 -7l-3 -12t-4 -13t-6 -14.5t-8.5 -12.5t-12 -11t-15.5 -7t-19 -3q-24 0 -41.5 18.5t-19.5 43.5q0 8 3.5 24.5t4.5 20.5l148 592 h-281h-25.5t-24.5 3t-26 9t-16 19t-8 32zM657 369h320l70 286h-320z" />
<glyph unicode="$" d="M90 125l25 141l19 -16q20 -17 30 -24t34.5 -24t47 -27t54.5 -23.5t70 -23t81 -15.5v577h-2q-90 20 -157.5 64.5t-105 102t-55.5 117t-18 120.5q0 65 20.5 128.5t60.5 119.5t106.5 97.5t150.5 57.5v39h120v-37q92 -9 159 -35t144 -82l-24 -135q-75 57 -136 84.5t-143 34.5 v-518q76 -18 136.5 -55t97 -81.5t60.5 -98t33 -101.5t9 -96q0 -163 -96.5 -286t-239.5 -146v-41h-120v37q-201 21 -361 145zM262 1120q0 -76 46 -144t143 -95v481h-2q-99 -32 -143 -100.5t-44 -141.5zM571 119q53 17 92 49.5t58.5 72t28 76t8.5 72.5q0 37 -8.5 73 t-27.5 74.5t-58 71t-93 51.5v-540z" />
<glyph unicode="%" horiz-adv-x="1705" d="M113 1139q0 164 83.5 280.5t202.5 116.5q50 0 99.5 -27t91 -76t67 -126.5t25.5 -169.5q0 -165 -83.5 -281.5t-199.5 -116.5q-111 0 -198.5 113t-87.5 287zM266 1139q0 -46 4.5 -84.5t12.5 -65.5t17.5 -48t21.5 -33.5t22.5 -21t22 -12.5t18.5 -5.5t14 -2.5h7q55 6 94 81.5 t39 191.5q0 121 -42.5 196.5t-97.5 75.5q-51 0 -92 -62.5t-41 -209.5zM360 -14q0 22 19 41l891 1482q15 25 39 25q16 0 27.5 -11t11.5 -28q0 -8 -4 -17.5t-11.5 -23t-9.5 -16.5l-870 -1448q-1 -2 -6 -9.5l-7 -10.5t-7 -9t-9 -8.5t-10.5 -5t-12.5 -2.5q-17 0 -29 12t-12 29z M1022 342q0 162 84 279.5t203 117.5t200.5 -117.5t81.5 -281.5q0 -166 -82.5 -281.5t-199.5 -115.5q-112 0 -199.5 112.5t-87.5 286.5zM1176 342q0 -46 4.5 -84.5t12.5 -65.5t17.5 -47.5t21 -33t22 -21.5t22 -12.5t19 -5t13.5 -2.5h7q55 6 94 81t39 191q0 121 -42 196.5 t-97 75.5q-51 0 -92 -62.5t-41 -209.5z" />
<glyph unicode="&#x26;" horiz-adv-x="1552" d="M84 307q0 48 12.5 91t29 74t51.5 69.5t61 62.5t77 69.5t82 74.5q-67 191 -67 360q0 182 79 299t205 117q116 0 190.5 -99t74.5 -229q0 -39 -11 -78t-42 -95t-96 -129.5t-163 -160.5q41 -84 99 -174t101.5 -146t84.5 -107l41 -50q239 206 340 573l131 -32 q-100 -378 -373 -631q47 -31 69.5 -44t60 -24.5t81.5 -11.5q54 0 109.5 9t89 18.5t35.5 9.5v-137q-140 -31 -234 -31q-181 0 -330 121h-2q-79 -51 -187.5 -86t-223.5 -35q-155 0 -265 101t-110 251zM244 324q0 -95 59 -166.5t160 -71.5q152 0 307 84q-218 249 -319 455 q-16 -14 -49.5 -43.5t-46.5 -41.5t-36.5 -36t-32.5 -40t-21.5 -39t-16.5 -47.5t-4 -53.5zM463 1180q0 -150 55 -320q219 197 219 338q0 31 -6 62.5t-19 64.5t-39 53.5t-61 20.5q-55 0 -102 -53.5t-47 -165.5z" />
<glyph unicode="'" horiz-adv-x="569" d="M203 1479h159l-12 -527l-4 -209v-2h-125l-2 2z" />
<glyph unicode="(" horiz-adv-x="796" d="M164 512q0 672 391 1024h127q-5 -6 -24 -25.5t-25 -26.5t-22 -24.5t-24.5 -29t-21.5 -29t-25 -35.5t-24 -39q-192 -323 -192 -815q0 -177 25 -332.5t61.5 -257t83.5 -188t83.5 -130t69.5 -78.5t35 -38h-127q-391 355 -391 1024z" />
<glyph unicode=")" horiz-adv-x="796" d="M113 -512q42 45 58 63t46.5 58t58.5 86q195 324 195 817q0 177 -25 332.5t-61.5 257t-83.5 188t-83.5 130t-69.5 78.5t-35 38h125q393 -353 393 -1022q0 -673 -393 -1026h-125z" />
<glyph unicode="*" d="M131 891q0 47 57 72l220 116v2q-40 21 -104 54q-133 69 -154 89q-19 17 -19 46t21.5 50t50.5 21q7 0 13.5 -1.5t17.5 -7t21.5 -12.5t30.5 -21t40.5 -28.5t57 -40t73.5 -50.5q-17 261 -17 280q0 39 23.5 57.5t48.5 18.5q22 0 46 -17t24 -53q0 -8 -1.5 -31.5t-6 -94.5 t-9.5 -160q206 144 226 154q14 7 26 7q33 0 53.5 -21t20.5 -50q0 -20 -11.5 -36t-18 -20.5t-25.5 -15.5l-222 -117v-2q43 -23 111 -58q116 -60 141 -79t25 -51q0 -29 -21.5 -50.5t-50.5 -21.5q-11 0 -20 3t-28 15.5t-39 27t-67.5 48.5t-99.5 70q17 -266 17 -281 q0 -41 -22.5 -58t-47.5 -17q-29 0 -50.5 19.5t-21.5 47.5q0 6 1.5 28.5t6 93.5t9.5 167q-47 -33 -114 -81q-82 -58 -102.5 -70.5t-35.5 -12.5q-31 0 -52.5 22.5t-21.5 49.5z" />
<glyph unicode="+" horiz-adv-x="1593" d="M113 512q1 24 15.5 39.5t29.5 19.5q16 4 51 4h524v527q0 92 62 92q12 0 21.5 -2.5t15.5 -8t11 -11t8 -13.5t4.5 -14.5t2 -14.5t0.5 -12.5v-9.5v-6v-527h524q45 0 69.5 -13.5t25.5 -49.5q-1 -21 -9 -34.5t-22 -18.5t-24.5 -6.5t-26.5 -1.5h-537v-529q0 -24 -0.5 -33 t-6 -21.5t-17.5 -23.5q-17 -14 -37 -14q-25 0 -40.5 14.5t-21.5 32.5q-2 7 -2 45v529h-528l-6 -1q-6 -1 -11 -1q-38 0 -55.5 19t-19.5 44z" />
<glyph unicode="," horiz-adv-x="569" d="M197 0v172h172v-143l-2 -29l-84 -256h-86l53 256h-53z" />
<glyph unicode="-" horiz-adv-x="681" d="M20 395v121h545v-121h-545z" />
<glyph unicode="." horiz-adv-x="569" d="M197 0v172h172v-172h-172z" />
<glyph unicode="/" d="M115 -449q0 8 3 19.5t8 26t7 22.5l647 1856q15 59 66 59q25 0 43 -16.5t18 -44.5q0 -16 -14 -58l-651 -1866q-8 -23 -18.5 -36.5t-18 -16.5t-16.5 -5t-11 -3h-2q-25 0 -43 18.5t-18 44.5z" />
<glyph unicode="0" d="M84 635v39q0 54 1.5 97t8 108.5t18 118t34 113.5t53 106.5t77.5 85.5t105 61q66 25 129 25q79 0 152 -33.5t126 -93.5q150 -170 150 -596q0 -305 -74.5 -469.5t-224.5 -219.5q-55 -22 -129 -22q-40 0 -77.5 7t-81 26.5t-80.5 50.5t-72 84t-59.5 122t-40 169t-15.5 221z M244 631q0 -136 18 -239t45 -161t65 -93.5t71 -46.5t69 -11q29 0 56.5 8.5t59 29t57.5 61.5t47.5 99t33.5 149.5t12 205.5v125q0 126 -18 220t-44.5 147t-64.5 85t-71 42t-70 10q-36 0 -68.5 -10t-70.5 -42.5t-64.5 -85t-44.5 -147t-18 -219.5v-127z" />
<glyph unicode="1" d="M184 1135v118q83 0 150.5 13t114.5 37t72.5 42t53.5 44h39v-1268h256v-121h-675v121h256v1061q-117 -47 -267 -47z" />
<glyph unicode="2" d="M84 1053q100 336 397 336q131 0 233 -62t154 -161t52 -216q0 -71 -18.5 -128.5t-74 -124t-95 -104.5t-142.5 -129l-6.5 -6.5t-5.5 -4.5q-47 -41 -330 -310l672 2v-145h-820v133l267 264q18 17 64 58.5t64.5 59.5t57.5 55.5t56 58.5t45.5 56t41 61.5t28 60.5t21 67.5 t5.5 69.5q0 131 -82.5 221t-212.5 90q-51 0 -93.5 -17t-70.5 -44.5t-49.5 -61t-33.5 -67t-19.5 -61t-11.5 -45.5t-5 -19z" />
<glyph unicode="3" d="M84 166l22 125q50 -68 111.5 -114t120 -64.5t95 -24.5t67.5 -6q113 0 182.5 82.5t69.5 208.5q0 122 -69 205.5t-194 83.5h-149v126q106 7 147 13q99 18 161.5 98t62.5 176q0 86 -57 138.5t-150 52.5q-86 0 -162 -41t-123 -113q-14 -21 -33 -59l-73 112q37 58 83.5 101 t88 66t87.5 36.5t76 17t60 3.5q148 0 259.5 -89.5t111.5 -224.5q0 -38 -9 -77.5t-31.5 -88t-70.5 -97t-117 -87.5q141 -50 213 -147t72 -209q0 -75 -30 -148t-84 -132.5t-138 -96.5t-182 -37q-26 0 -52.5 2.5t-75 14.5t-93 32.5t-98.5 62.5t-99 99z" />
<glyph unicode="4" d="M55 350v99q0 19 3.5 27.5t19.5 35.5l495 829h189v-866h203v-125h-203v-350h-164v350h-543zM215 475h395v791q-19 -115 -97 -267t-298 -524z" />
<glyph unicode="5" d="M78 156l69 114q35 -59 81.5 -99.5t93 -58t80.5 -24t65 -6.5q35 0 69 9t71 33t64.5 60.5t45.5 97.5t18 138q0 75 -14 134.5t-35.5 95t-50 59t-55.5 32.5t-54 9q-45 0 -85 -17t-64.5 -41t-42.5 -48t-26 -41l-7 -17h-139v755h690v-131h-541v-419q58 43 105 63t114 20 q158 0 274 -132t116 -324t-131 -327.5t-320 -135.5q-116 0 -220 54t-171 147z" />
<glyph unicode="6" d="M86 662q0 201 70.5 367.5t196 263t280.5 96.5q98 0 219 -41v-123q-4 1 -23.5 7.5l-27 9t-26 8t-31.5 7.5t-32 5.5t-38.5 4.5t-40.5 1q-72 0 -133 -31t-103.5 -81t-73.5 -114.5t-46.5 -131t-18.5 -132.5q63 80 155 124t191 44q74 0 125.5 -31t97.5 -94q60 -85 84.5 -171 t24.5 -191q0 -121 -32.5 -208.5t-108.5 -168.5q-118 -127 -279 -127q-40 0 -78.5 8t-82 29.5t-81 55.5t-73 89.5t-60.5 127t-40 173.5t-15 224zM262 506q0 -37 2 -55q6 -54 14 -98t26.5 -97t44 -89t68.5 -60.5t97 -24.5q55 0 100.5 22t73.5 58.5t45 72.5t25 74q10 56 10 137 q0 97 -11.5 155.5t-45.5 113.5q-67 106 -187 106q-116 0 -189 -92t-73 -223z" />
<glyph unicode="7" d="M84 1198v145l852 -2v-133q-216 -248 -334.5 -570.5t-118.5 -660.5h-174q0 211 48 415t159.5 415t280.5 391h-713z" />
<glyph unicode="8" d="M84 369q0 113 71 209t214 147q-118 35 -187 119t-69 184q0 145 115 253t282 108q162 0 279.5 -105.5t117.5 -253.5q0 -98 -63.5 -179t-192.5 -126q52 -16 100 -46t91 -73t68.5 -105.5t25.5 -133.5q0 -107 -55.5 -201.5t-154 -152.5t-216.5 -58t-216.5 57.5t-154 152.5 t-55.5 204zM250 371q0 -130 71.5 -209.5t188.5 -79.5q48 0 92 16.5t83 49.5t62 91t23 134q0 128 -72 208.5t-190 80.5q-44 0 -87.5 -16t-83 -48.5t-63.5 -91t-24 -135.5zM256 1028q0 -108 71 -174t181 -66q115 0 185.5 67t70.5 173q0 108 -70.5 174t-183.5 66 q-114 0 -184 -66.5t-70 -173.5z" />
<glyph unicode="9" d="M86 891q0 115 33.5 203.5t113.5 171.5q65 65 131.5 94t151.5 29q39 0 76.5 -8t80 -29t79.5 -54.5t71.5 -89t59 -127t39 -174t14.5 -225.5q0 -156 -41.5 -292.5t-111 -231t-164.5 -149t-199 -54.5q-88 0 -149 23.5t-124 70.5l64 111q2 -2 17.5 -12.5t20 -14t20 -12.5 t24 -12.5t25.5 -10t31.5 -9t34 -5t40.5 -2.5q133 0 228 128.5t112 354.5q-144 -170 -346 -170q-75 0 -126 31t-95 94q-62 86 -86.5 173t-24.5 198zM254 891q0 -95 12 -155t53 -120q67 -94 179 -94q116 0 189 92.5t73 225.5q0 47 -5.5 97t-21.5 111t-41.5 107.5t-70.5 78.5 t-103 32q-57 0 -103.5 -22.5t-75.5 -59t-47 -73t-26 -73.5q-12 -49 -12 -147z" />
<glyph unicode=":" horiz-adv-x="569" d="M197 0v172h172v-172h-172zM197 739v172h172v-172h-172z" />
<glyph unicode=";" horiz-adv-x="569" d="M197 0v172h172v-143l-2 -29l-84 -256h-86l53 256h-53zM197 739v172h172v-172h-172z" />
<glyph unicode="&#x3c;" horiz-adv-x="1593" d="M170 512q5 26 16.5 39t53.5 35l1077 544q26 13 41 13q27 0 44 -19t17 -43q0 -21 -13.5 -37.5t-22.5 -21.5t-33 -16l-977 -494l977 -494q45 -22 58 -39q11 -15 11 -36q0 -25 -17.5 -43.5t-43.5 -18.5q-10 0 -22.5 4.5t-33 15.5t-24.5 13l-1038 524q-28 14 -44 26.5t-19 19 t-4.5 16.5t-2.5 12z" />
<glyph unicode="=" horiz-adv-x="1593" d="M115 307q0 24 16.5 44t56.5 20q3 0 10.5 -1t10.5 -1h1190q32 0 51 -12t23 -24t4 -26q0 -63 -84 -63h-1198q-45 0 -62.5 19t-17.5 44zM115 717q0 63 82 63h1198q33 0 53 -12.5t24.5 -25t4.5 -25.5q0 -24 -17.5 -43t-58.5 -19h-1211q-25 0 -41.5 7t-23 19t-8.5 20t-2 16z " />
<glyph unicode="&#x3e;" horiz-adv-x="1593" d="M170 -57q0 7 1.5 13.5t4.5 12.5t6 10.5t8.5 9t9 7t11 6.5t10.5 6t11 5.5t10 4.5l977 494l-977 494q-2 1 -10 4.5t-11 5.5t-10.5 6t-11 6.5t-9 7t-8.5 9t-6 10.5t-4.5 12.5t-1.5 13.5q0 24 18 43t45 19q10 0 22.5 -4.5t33 -15.5t24.5 -13l1039 -524q28 -14 43.5 -27 t18.5 -19t4 -16.5t1 -11.5q-3 -26 -14 -39t-53 -35l-1076 -542q-26 -15 -43 -15q-27 0 -45 19t-18 43z" />
<glyph unicode="?" horiz-adv-x="966" d="M113 1386q158 115 344 115q94 0 166 -22t114 -56t69 -80t36.5 -88t9.5 -86q0 -42 -8.5 -80.5t-20 -63.5t-30 -50.5t-31 -37.5t-30.5 -28.5t-21 -19.5q-55 -53 -93.5 -113.5t-56.5 -105.5t-27.5 -100t-10.5 -76t-1 -54v-82h-137v66q0 87 12 163.5t32.5 133t44 102.5 t51.5 81t50.5 58.5t45 45t30.5 32.5q41 51 41 131q0 205 -231 205q-96 0 -166 -32.5t-135 -86.5zM369 0v172h172v-172h-172z" />
<glyph unicode="@" horiz-adv-x="1366" d="M113 741q0 159 56.5 302t149.5 242.5t216 157.5t253 58q73 0 135 -19t106 -49t79.5 -77.5t58 -92.5t39 -107t24.5 -109.5t12.5 -110t5.5 -98t1 -84.5q0 -117 -33.5 -214t-88.5 -157t-121.5 -92.5t-135.5 -32.5q-156 0 -267 140t-111 341q0 132 50.5 243.5t137.5 176 t190 64.5q33 0 64.5 -7.5t46 -14t38 -20t25.5 -14.5q-75 209 -253 209q-97 0 -191 -46.5t-168.5 -127.5t-120 -202.5t-45.5 -260.5q0 -175 72 -321t195 -230t268 -84q77 0 148.5 17.5t118 36.5t50.5 20q8 2 49 2h82q-89 -99 -208.5 -151t-245.5 -52q-134 0 -259 58.5 t-218 158.5t-149 243.5t-56 303.5zM645 741q0 -153 67 -255.5t158 -102.5q84 0 155 98t71 256t-68.5 258.5t-159.5 100.5q-87 0 -155 -100.5t-68 -254.5z" />
<glyph unicode="A" horiz-adv-x="1366" d="M55 0l535 1421h182l533 -1421h-189l-158 418h-593l-156 -418h-154zM408 532h507q-212 593 -235 672q-14 46 -18 74q-14 -66 -70 -230t-117 -331t-67 -185z" />
<glyph unicode="B" horiz-adv-x="1366" d="M197 0v1421h454q114 0 208 -23.5t154.5 -60.5t102 -85t59 -95t17.5 -92q0 -103 -87.5 -191.5t-256.5 -130.5q106 -17 195.5 -63.5t147.5 -124t58 -170.5q0 -149 -129.5 -256t-310.5 -125q-35 -4 -104 -4h-508zM369 115h290q101 0 183 23.5t133 62t78.5 86.5t27.5 100 q0 99 -98 184t-264 103q-35 2 -105 2h-243l-2 -76v-485zM369 803h245q192 0 304 79.5t112 180.5q0 31 -13.5 63t-46 65t-80 58.5t-122 41.5t-164.5 16h-233l-2 -72v-432z" />
<glyph unicode="C" horiz-adv-x="1308" d="M135 711q0 199 83 370.5t239.5 278t353.5 106.5q183 0 371 -69l-31 -170q-94 58 -167.5 83t-180.5 25q-105 0 -197 -52t-154 -138.5t-97.5 -199.5t-35.5 -234q0 -166 60 -308t173.5 -229.5t256.5 -87.5q93 0 163.5 17t108 37.5t94.5 58.5q11 8 17 12l12 -143 q-111 -65 -191.5 -89t-205.5 -24q-147 0 -274.5 63t-213.5 167.5t-135 241.5t-49 284z" />
<glyph unicode="D" horiz-adv-x="1478" d="M195 0v1421h503q106 0 187 -20t166 -76q148 -98 230.5 -267t82.5 -358q0 -270 -161 -469t-402 -227q-33 -4 -99 -4h-507zM373 115h293q258 0 399 188q121 159 121 395q0 110 -24 203.5t-63 156t-73.5 100t-71.5 63.5q-68 49 -135.5 67.5t-152.5 18.5h-293v-1192z" />
<glyph unicode="E" horiz-adv-x="1222" d="M193 0v1415h915v-135l-731 4v-485h676v-125h-676v-531l760 4v-147h-944z" />
<glyph unicode="F" horiz-adv-x="1165" d="M193 0v1415h886v-135l-702 4v-514h616v-125h-616v-645h-184z" />
<glyph unicode="G" horiz-adv-x="1366" d="M135 711q0 148 49.5 285.5t136 241t212 166t268.5 62.5q124 0 216.5 -24.5t192.5 -73.5l-30 -170q-97 72 -177 104.5t-198 32.5q-106 0 -198 -51.5t-154.5 -138t-98 -199t-35.5 -233.5q0 -173 64.5 -317.5t175.5 -227t244 -82.5q52 0 103 6.5t81 14t54 15t26 7.5v356 h-272v127h432v-559q-212 -98 -426 -98q-138 0 -262 60t-212 161.5t-140 241t-52 293.5z" />
<glyph unicode="H" horiz-adv-x="1449" d="M193 0v1421h184v-618h696v618h184v-1421h-184v676h-696v-676h-184z" />
<glyph unicode="I" horiz-adv-x="569" d="M193 0v1421h184v-1421h-184z" />
<glyph unicode="J" horiz-adv-x="966" d="M84 41l27 154q1 -1 14.5 -13t27 -22.5t38 -26t50 -26t61.5 -18t73 -7.5q38 0 70.5 6t64.5 23t55 43t37 69t14 99v1099h179v-1104q0 -84 -22 -149t-57 -104.5t-83.5 -64.5t-96.5 -34.5t-102 -9.5q-179 0 -350 86z" />
<glyph unicode="K" horiz-adv-x="1421" d="M195 0v1421h176v-759l743 759h191l-549 -561v-2l577 -858h-192l-498 743l-272 -276v-467h-176z" />
<glyph unicode="L" horiz-adv-x="1110" d="M193 0v1421h184v-1288l645 2v-135h-829z" />
<glyph unicode="M" horiz-adv-x="1792" d="M205 0v1421h233l316 -821q133 -362 141 -412h2q6 42 71.5 223t67.5 187l316 823h235v-1421h-160v1212l-2 66q-6 -37 -20 -76l-123 -336l-315 -821h-148l-307 797q-16 46 -42.5 117.5t-39 106t-28 80t-24 76t-13.5 56.5v-1278h-160z" />
<glyph unicode="N" horiz-adv-x="1449" d="M195 0v1421h256l561 -1114l80 -164v1278h159v-1421h-256l-561 1114l-80 164v-1278h-159z" />
<glyph unicode="O" horiz-adv-x="1507" d="M113 707q0 157 52 298.5t138.5 242t204.5 159.5t246 59q126 0 243 -58.5t203.5 -159t138.5 -242t52 -299.5q0 -204 -84.5 -377t-231.5 -274t-323 -101q-124 0 -240.5 57t-204.5 155t-141 239.5t-53 300.5zM297 735q0 -173 56 -320.5t161.5 -237t237.5 -89.5 q128 0 232.5 86t164 234t59.5 327q0 135 -37.5 249.5t-101 190t-146 118t-171.5 42.5q-94 0 -177.5 -44.5t-144.5 -123t-97 -191t-36 -241.5z" />
<glyph unicode="P" horiz-adv-x="1308" d="M195 0v1421h483q95 0 169 -16.5t146 -63.5q94 -57 146.5 -144t52.5 -187q0 -54 -17 -110t-56.5 -112t-96 -99.5t-144 -71t-192.5 -27.5q-12 0 -34 1t-34 1h-239v-592h-184zM373 711h272q88 0 156.5 20t109.5 50.5t68 71.5t37 79.5t10 77.5q0 38 -10 76t-37 79t-68 71.5 t-110 50.5t-156 20h-272v-596z" />
<glyph unicode="Q" horiz-adv-x="1507" d="M113 707q0 173 62.5 329t182.5 269t277 149q59 12 117 12q128 0 246 -59t204.5 -159.5t138.5 -242t52 -298.5q0 -112 -26 -213.5t-59.5 -167t-82 -125.5t-76 -85t-57.5 -48l243 -324h-215l-172 246q-3 -1 -26 -8t-30 -8.5t-28 -6.5t-34.5 -6.5t-34.5 -3.5t-43 -2 q-127 0 -244.5 58t-204.5 157.5t-138.5 240t-51.5 296.5zM291 705q0 -173 60.5 -315t167 -223t235.5 -81q25 0 47.5 3.5t42 8.5t24.5 6l-206 295h182l160 -215h2q208 186 208 521q0 181 -62 326t-168 224.5t-234 79.5h-2q-189 -3 -323 -178t-134 -452z" />
<glyph unicode="R" horiz-adv-x="1323" d="M195 0v1421h462q119 0 215.5 -26t157 -66t102 -92t58 -101.5t16.5 -95.5q0 -117 -89 -219.5t-261 -152.5l408 -668h-185l-383 647h-323v-647h-178zM373 774h233h30h34.5t31.5 1t36.5 2.5t33 4.5t38.5 8t36 11q98 33 146 97t48 140q0 46 -18 89t-59 85.5t-122 68.5 t-192 26h-276v-533z" />
<glyph unicode="S" horiz-adv-x="1136" d="M90 96l31 170q208 -170 438 -170q130 0 214.5 81t84.5 190q0 81 -48.5 147.5t-127.5 97.5q-38 15 -118.5 34t-141 35t-132 62.5t-118.5 118.5q-56 88 -59 201q0 75 32 147t90 129t146.5 92t193.5 35q114 0 199.5 -25t175.5 -73l-28 -170q-85 68 -160.5 99.5t-188.5 31.5 q-133 0 -215 -73t-82 -169q0 -73 46.5 -131.5t117.5 -87.5q25 -10 147 -39.5t161 -46.5q111 -45 192.5 -149t81.5 -246q0 -83 -33.5 -161t-92 -138t-147 -96.5t-190.5 -36.5q-247 0 -469 141z" />
<glyph unicode="T" horiz-adv-x="1392" d="M72 1276v135h1245v-135l-531 2v-1278h-182v1278z" />
<glyph unicode="U" horiz-adv-x="1406" d="M193 526v895h184v-850q0 -14 -0.5 -41t-0.5 -44t1 -40.5t4 -42.5q6 -50 21.5 -97.5t44 -90.5t65.5 -75t88 -51t109 -19q60 0 116.5 21.5t106 64t82.5 114.5t39 164v987h161v-876v-22v-19v-15q0 -14 -1 -41t-5.5 -50.5t-11 -54t-18.5 -59.5t-27.5 -60t-38.5 -62.5 t-51 -59.5q-62 -62 -152 -104.5t-200 -42.5q-197 0 -341 128.5t-171 317.5q-4 43 -4 125z" />
<glyph unicode="V" horiz-adv-x="1366" d="M29 1421h190l313 -807q16 -44 40 -108t34.5 -93t26 -71t23 -63t16.5 -48.5t15 -47t11 -40.5q5 38 39.5 135t74 200t46.5 126l318 817h159l-559 -1421h-188z" />
<glyph unicode="W" horiz-adv-x="1933" d="M29 1421h178l237 -833q92 -332 105 -445q9 102 106 451l236 827h168q135 -447 241 -841l60 -222q19 -74 30 -120.5t13 -60t2.5 -22t1.5 -12.5q5 63 109 449l239 829h148l-416 -1421h-178l-219 756q-84 312 -95.5 357.5t-33.5 164.5q-10 -98 -121 -483l-230 -795h-164z " />
<glyph unicode="X" horiz-adv-x="1366" d="M29 0l549 748v2l-521 671h215l396 -534l385 534h196l-493 -671v-2l579 -748h-215l-452 625l-443 -625h-196z" />
<glyph unicode="Y" horiz-adv-x="1366" d="M4 1421h215l301 -436q25 -37 60 -89.5t52.5 -78t36 -55t29.5 -49.5q11 20 43.5 70t75 113.5t91 135t96 140t85.5 123.5t63 91l24 35h180l-586 -852v-569h-178v569z" />
<glyph unicode="Z" horiz-adv-x="1251" d="M113 0v51q0 30 3 39.5t23 38.5l762 1165l-760 -2v129h996v-49v-11.5t-0.5 -9.5t-1 -7.5t-2 -6.5t-2 -6t-3.5 -7t-4.5 -7t-6 -9.5t-7.5 -11.5l-762 -1163l799 2v-135h-1034z" />
<glyph unicode="[" horiz-adv-x="591" d="M205 -512v2048h340v-125h-187v-1798h187v-125h-340z" />
<glyph unicode="\" d="M115 1473q0 27 18.5 44t42.5 17q17 0 30.5 -7.5t21.5 -22t12 -24t8 -24.5l649 -1859q10 -35 10 -46q0 -23 -17.5 -43t-43.5 -20q-11 0 -20.5 3t-16.5 10t-12 13t-9.5 17t-7 16.5t-6 17t-4.5 13.5l-653 1874q-2 6 -2 21z" />
<glyph unicode="]" horiz-adv-x="591" d="M43 -387h184v1798h-184v125h340v-2048h-340v125z" />
<glyph unicode="^" horiz-adv-x="1251" d="M272 911l289 379h127l289 -379h-125l-227 279l-228 -279h-125z" />
<glyph unicode="_" horiz-adv-x="1593" d="M172 -467q0 7 1.5 12.5t3.5 9.5t6 7t7 5t8.5 3.5t8.5 2t9.5 1t9 0.5h9h7.5h1110h7.5h8.5t8.5 -0.5t9.5 -1t8 -2t8 -3.5t7 -5t5.5 -7t3 -9.5t1.5 -12.5q0 -41 -57 -41h-1120q-14 0 -23 1t-21.5 4t-19 12.5t-6.5 23.5z" />
<glyph unicode="`" d="M199 1311h159l273 -267h-125z" />
<glyph unicode="a" horiz-adv-x="983" d="M90 231q0 62 39.5 111t99.5 78t139.5 48t150 26t140.5 8v69q-1 43 -3.5 66.5t-14.5 58.5t-35 64q-51 61 -129 61q-54 0 -100 -8.5t-86 -27t-62.5 -31.5t-58.5 -37l-12 137q79 45 153.5 67.5t171.5 22.5q140 0 233.5 -94t102.5 -225v-625h-155v72q-136 -95 -340 -95 q-61 0 -108.5 26t-73.5 66.5t-39 82t-13 79.5zM240 233q0 -57 54 -93t136 -36q39 0 76 7.5t73 24t58 50t22 80.5v129q-65 -1 -130 -8.5t-134 -24.5t-112 -50t-43 -79z" />
<glyph unicode="b" horiz-adv-x="1058" d="M166 0v1479h153v-666q152 119 328 119q98 0 176 -67t119 -174.5t41 -231.5q0 -201 -111 -341.5t-272 -140.5q-83 0 -147 31t-127 86v-94h-160zM326 272q0 -16 0.5 -25.5t4 -18.5t5 -12t11 -14.5t13.5 -17.5q65 -82 168 -82q37 0 75.5 11t78 37.5t70 65.5t50 101.5 t19.5 139.5q0 78 -18 140.5t-46.5 100.5t-66.5 63.5t-73.5 35.5t-71.5 10q-79 0 -149 -48t-70 -104v-383z" />
<glyph unicode="c" horiz-adv-x="909" d="M72 457q0 90 30.5 176.5t86 156t142.5 112t191 42.5q96 0 160.5 -18t157.5 -72l-25 -135q-7 4 -28.5 17.5t-29 18t-27.5 15.5t-32 15t-34 11t-41.5 9.5t-46 5t-56.5 2.5q-94 0 -161.5 -53t-97.5 -131.5t-30 -171.5q0 -151 79.5 -249.5t207.5 -98.5q74 0 142 20.5 t100.5 39t79.5 50.5l10 -137q-158 -105 -334 -105q-124 0 -226 64.5t-160 174.5t-58 241z" />
<glyph unicode="d" horiz-adv-x="1058" d="M72 453q0 133 48 243.5t131.5 174t184.5 63.5q154 0 297 -113v658h156v-1479h-162v106q-137 -129 -303 -129q-98 0 -179.5 65t-127 174t-45.5 237zM231 455q0 -78 18.5 -140t47 -100.5t66 -64.5t73.5 -36t72 -10q86 0 152.5 57.5t66.5 112.5v392q0 26 -7.5 39.5 t-35.5 39.5q-64 62 -152 62h-4q-38 0 -76.5 -10.5t-79 -36.5t-71.5 -65t-50.5 -101t-19.5 -139z" />
<glyph unicode="e" horiz-adv-x="909" d="M70 463q0 127 53.5 237.5t149 177t210.5 66.5q47 0 92 -11t93.5 -41.5t85.5 -77t63 -125t31 -179.5v-59h-635q6 -148 91.5 -247.5t211.5 -99.5q94 0 166.5 30.5t144.5 82.5l13 -135q-157 -105 -324 -105q-98 0 -182.5 40.5t-141.5 107.5t-89.5 155t-32.5 183zM223 563 h508q-9 65 -33 114t-51 74.5t-61 41.5t-57.5 20t-45.5 4q-45 0 -84.5 -17t-68 -43t-51 -60.5t-36 -67.5t-20.5 -66z" />
<glyph unicode="f" horiz-adv-x="624" d="M55 791v120h152v150q0 8 -1 24.5t-1 24.5q0 183 99.5 287t244.5 104q76 0 162 -22v-138q-91 35 -166 35q-32 0 -62.5 -8.5t-61 -28t-49 -58t-18.5 -91.5v-279h232v-120h-226v-791h-153v791h-152z" />
<glyph unicode="g" d="M55 -145q0 63 35.5 119.5t95.5 91.5q-51 73 -51 155q0 93 60 172v2q-68 91 -68 203q0 133 92.5 233.5t233.5 100.5q56 0 101 -16t99 -52l-4 4q152 64 322 64l22 -129q-62 6 -121 6q-13 0 -153 -8l-19 16q43 -56 61.5 -105.5t18.5 -113.5q0 -134 -94 -234t-233 -100 q-32 0 -62.5 6t-51.5 15t-37 18t-25.5 16t-10.5 7q-22 -45 -22 -76q0 -44 26.5 -76.5t87.5 -32.5h154q38 0 64.5 -0.5t71 -5t77 -12t72.5 -23t68 -37t52.5 -55.5t36.5 -76q11 -46 11 -75q0 -119 -133 -199t-322 -80q-190 0 -322.5 79.5t-132.5 197.5zM199 -145 q0 -41 32 -73.5t80.5 -50.5t99 -27t95.5 -9q128 0 221.5 44.5t93.5 113.5q0 141 -305 141h-129l-59 -2q-59 -4 -94 -46.5t-35 -90.5zM270 598q0 -100 50.5 -157.5t134.5 -57.5q30 0 59 10t58 32.5t47 67.5t18 107q0 99 -50 157t-134 58q-24 0 -47.5 -5.5t-48.5 -21t-44 -39 t-31 -62.5t-12 -89z" />
<glyph unicode="h" horiz-adv-x="1058" d="M164 0v1479h153v-693q59 68 128.5 107t166.5 39q56 0 101 -13t74 -32.5t50 -50.5t31.5 -58.5t16.5 -65.5t7 -63t1 -59v-590h-160v575q0 41 -3.5 71t-16 62t-33.5 52.5t-58.5 33.5t-89.5 13q-74 0 -122.5 -48.5t-67 -116t-18.5 -150.5v-492h-160z" />
<glyph unicode="i" horiz-adv-x="489" d="M152 1208v183h184v-183h-184zM166 0v911h153v-911h-153z" />
<glyph unicode="j" horiz-adv-x="546" d="M-125 -350l31 125q80 -64 160 -64q60 0 102 30.5t53 72.5q4 16 4 53v1044h154v-1013q0 -72 -17 -129t-43.5 -91.5t-62 -57.5t-68.5 -31.5t-67 -8.5q-127 0 -246 70zM197 1208v183h184v-183h-184z" />
<glyph unicode="k" horiz-adv-x="1001" d="M170 0v1479h147v-996l418 428h185l-345 -352l390 -559h-168l-320 459l-164 -168v-291h-143z" />
<glyph unicode="l" horiz-adv-x="489" d="M166 0v1479h153v-1479h-153z" />
<glyph unicode="m" horiz-adv-x="1626" d="M164 0v922h149v-144q121 154 299 154q61 0 108 -14.5t76.5 -40t46.5 -52t29 -59.5q126 166 310 166q56 0 101 -13t73.5 -32.5t49.5 -51t31.5 -59t16.5 -65.5t7 -62.5t1 -58.5v-590h-162v575q0 53 -6.5 88.5t-25.5 71.5t-60.5 54t-105.5 18q-74 0 -123 -48.5t-67.5 -116.5 t-18.5 -150v-492h-160v575q0 41 -3.5 71t-16 62t-33.5 52.5t-58.5 33.5t-89.5 13q-74 0 -122.5 -48.5t-67 -116t-18.5 -150.5v-492h-160z" />
<glyph unicode="n" horiz-adv-x="1058" d="M164 0v922h149v-144q121 154 299 154q75 0 129.5 -23t83 -55.5t44.5 -82.5t20 -89.5t4 -91.5v-590h-160v575q0 41 -3.5 71t-16 62t-33.5 52.5t-58.5 33.5t-89.5 13q-74 0 -122.5 -48.5t-67 -116t-18.5 -150.5v-492h-160z" />
<glyph unicode="o" d="M61 453q0 120 53.5 231.5t158.5 185.5t237 74q184 0 317.5 -144t133.5 -349q0 -135 -64.5 -245t-167 -169.5t-219.5 -59.5q-87 0 -168.5 35.5t-143.5 97t-99.5 151.5t-37.5 192zM221 473q0 -167 82.5 -265.5t206.5 -98.5q53 0 103 21.5t92.5 64t68 114.5t25.5 164 q0 159 -82 251.5t-207 92.5q-52 0 -101 -19.5t-92 -58.5t-69.5 -108t-26.5 -158z" />
<glyph unicode="p" horiz-adv-x="1058" d="M166 -399v1310h153v-100q152 121 340 121q93 0 168.5 -67t115.5 -175t40 -231q0 -126 -47 -236t-135.5 -178t-198.5 -68q-146 0 -276 117v-493h-160zM326 258q0 -45 58 -100.5t140 -55.5q114 0 205.5 99.5t91.5 253.5q0 140 -78 243t-200 103q-29 0 -56.5 -6.5t-48.5 -17 t-39.5 -23t-31.5 -24.5t-22 -22.5t-14 -17.5l-5 -6v-426z" />
<glyph unicode="q" horiz-adv-x="1058" d="M72 453q0 132 50.5 242t138 173.5t192.5 63.5q161 0 280 -137v137h156v-1331h-162v501q-135 -125 -309 -125q-97 0 -176.5 64t-124.5 173t-45 239zM231 453q0 -142 81.5 -245.5t197.5 -103.5q83 0 153 56.5t70 122.5v301q0 25 -12 59.5t-35 71.5t-64.5 62.5t-93.5 25.5 q-48 0 -98.5 -23t-95.5 -65t-74 -111t-29 -151z" />
<glyph unicode="r" horiz-adv-x="700" d="M166 0v922h143v-185q138 193 359 195v-137q-40 -1 -82.5 -11t-91.5 -36.5t-86.5 -66.5t-63 -107t-25.5 -152v-422h-153z" />
<glyph unicode="s" horiz-adv-x="784" d="M55 70l25 139q99 -58 146 -74q79 -29 175 -29q103 0 147 43.5t44 96.5t-36.5 86t-78.5 45q-20 6 -91 20t-105 25q-82 25 -147.5 90t-65.5 162q0 36 7.5 70t30.5 71.5t58.5 65t97 45.5t141.5 18q86 0 150.5 -14t148.5 -49l-22 -136q-2 1 -23.5 11.5t-25 12t-23 10 t-26 10.5t-25 8.5t-29 8t-30 6t-35 5.5t-36 2.5t-42.5 1.5q-94 0 -133 -38.5t-39 -86.5q0 -42 24 -70.5t65 -43t83.5 -23t93 -19.5t80.5 -24q74 -34 126 -99.5t52 -156.5q0 -37 -8.5 -73t-31.5 -75t-58.5 -68t-96.5 -48t-139 -19q-177 0 -348 93z" />
<glyph unicode="t" horiz-adv-x="739" d="M37 791v120h176v258h143v-258h289v-120h-289v-504q0 -178 111 -178q33 0 66 9.5t51 19t39 23t24 15.5l33 -121q-145 -78 -303 -78q-30 0 -55.5 10t-52.5 36t-43 81.5t-17 135.5v551h-172z" />
<glyph unicode="u" horiz-adv-x="1058" d="M164 250v661h160v-686q1 -36 7 -58.5t23 -40.5t49.5 -26t83.5 -8q107 0 171.5 57t72.5 130q2 20 2 59v573h160v-911h-156v98q-72 -64 -167.5 -92.5t-190.5 -28.5q-45 0 -79.5 10.5t-57 24.5t-38.5 39.5t-23.5 45.5t-11.5 53t-4.5 50.5t-0.5 49.5z" />
<glyph unicode="v" horiz-adv-x="944" d="M29 911h157l191 -499q60 -167 75.5 -216t22.5 -94q8 60 72 239.5t137 366.5t78 203h151l-352 -911h-180z" />
<glyph unicode="w" horiz-adv-x="1398" d="M29 911h153q44 -140 78.5 -252.5t56.5 -191t37 -132.5t23.5 -95t12.5 -59t8 -45.5t5 -33.5q3 68 55 259t107 368.5t56 181.5h145l149 -499q48 -169 60 -216.5t18 -93.5q5 60 58 246t111 372t59 191h149l-283 -911h-178q-57 191 -94 316.5t-59 199.5t-34 124t-15.5 65.5 t-8.5 49.5t-8 52q-4 -72 -55 -260t-105.5 -362t-56.5 -185h-162z" />
<glyph unicode="x" horiz-adv-x="944" d="M0 0l397 467v4l-385 440h170l283 -338h2l272 338h170l-377 -440v-2l410 -469h-170l-307 385l-295 -385h-170z" />
<glyph unicode="y" horiz-adv-x="944" d="M29 911h161q88 -204 146 -343t86 -220t38 -114t17 -76t10 -56q2 82 67 272.5t135.5 362.5t70.5 174h153l-444 -1095q-60 -137 -111.5 -186.5t-124.5 -49.5q-80 0 -149 17l-10 133q103 -35 149 -35q56 0 90.5 51t100.5 223q8 19 8 33q0 8 -10 35z" />
<glyph unicode="z" horiz-adv-x="890" d="M55 0v84l545 707l-516 -3v123h731v-82l-543 -702l549 2v-129h-766z" />
<glyph unicode="{" d="M106 449v126q75 0 143.5 22.5t120.5 74.5t60 125v471q0 7 0.5 24t1 23.5t2.5 18.5t6 23t11 23q37 77 132 116.5t222 39.5h108v-125h-49q-77 0 -130.5 -8.5t-81 -20t-42.5 -32t-17.5 -36.5t-2.5 -42v-432q0 -75 -25.5 -134t-61.5 -93t-84 -57.5t-85.5 -32t-73.5 -11.5 q25 -2 51 -7t59 -16t63 -27t59 -41.5t50.5 -58t34.5 -78.5t13 -100v-440q0 -32 10 -54t38 -40.5t84 -27.5t142 -9h49v-125h-92q-151 0 -243 43q-47 21 -78.5 48.5t-44.5 56.5t-18.5 48.5t-6.5 45.5v26v424q0 68 -14 107q-34 77 -120.5 119.5t-189.5 42.5z" />
<glyph unicode="|" horiz-adv-x="569" d="M242 -451v1926q0 59 41 59t41 -59v-1926q0 -59 -41 -59t-41 59z" />
<glyph unicode="}" d="M106 -387q143 3 191 11q113 20 131 83q2 9 2 55v422q0 54 13 100t34.5 78.5t50.5 58t59 41.5t63 27t59 16t51 7q-25 2 -51 7t-59 16t-63 27t-59 41.5t-50.5 58t-34.5 78.5t-13 100v436q0 56 -28.5 83.5t-95 39t-200.5 12.5v125h109q99 0 173 -21.5t111.5 -50.5t60 -68 t27.5 -64.5t5 -49.5l-2 -14v-424q0 -6 0.5 -23t1 -23t2.5 -18t4.5 -22t7.5 -21q34 -78 118.5 -120t188.5 -42v-126q-75 0 -143 -22.5t-119.5 -74.5t-58.5 -125l-2 -47v-424q0 -69 -19 -112q-38 -77 -133.5 -116.5t-222.5 -39.5h-109v125z" />
<glyph unicode="~" horiz-adv-x="1251" d="M170 1141q4 111 80 177t180 66q58 0 127.5 -29t137.5 -58t122 -29q55 0 93 30t44 86h125q-4 -110 -80 -176.5t-180 -66.5q-46 0 -100.5 18.5t-96 41t-94 41t-96.5 18.5q-55 0 -93 -31t-44 -88h-125z" />
<glyph unicode="&#xa1;" horiz-adv-x="653" d="M240 -399l16 1122h137l17 -1016l2 -106h-172zM240 909v172h172v-172h-172z" />
<glyph unicode="&#xa2;" d="M72 455q0 175 118 316.5t316 168.5v180h121v-178q97 -3 160.5 -20.5t164.5 -67.5l-22 -135q-7 4 -34.5 18t-34 17t-30 14t-33.5 13.5t-33 9.5t-41 9.5t-43.5 6t-53.5 4.5v-700q97 9 166 32t159 76l13 -137q-83 -46 -161 -70.5t-177 -31.5v-179h-121v181 q-183 22 -308.5 155.5t-125.5 317.5zM231 457q0 -134 76 -227t199 -115v692q-71 -13 -125.5 -48.5t-86 -85t-47.5 -104.5t-16 -112z" />
<glyph unicode="&#xa3;" horiz-adv-x="1308" d="M113 119q0 78 76 128t186 50q50 0 104 -14q8 74 8 114v283h-147v119h147v282q0 102 24 185.5t62 137.5t87 91t96.5 52.5t93.5 15.5q65 0 120 -24.5t91 -64.5t62.5 -87.5t41 -98.5t21 -91.5t6.5 -72.5q0 -50 -22.5 -68t-49.5 -18q-30 0 -48 17.5t-20 34.5l-3 18h-17 q-1 79 -13 139.5t-30.5 95.5t-43 57.5t-47 30t-46.5 7.5q-35 0 -67.5 -15t-65 -50t-52.5 -107.5t-20 -173.5v-293h205v-119h-205v-285q0 -85 -22 -166q5 -2 53.5 -25t95.5 -44t108 -39.5t101 -18.5q62 0 84.5 45t22.5 150h159q-3 -96 -49.5 -170.5t-118 -112t-153.5 -37.5 q-73 0 -141.5 24.5t-235.5 102.5q-36 -42 -78.5 -70.5t-81.5 -39t-61.5 -14t-42.5 -3.5q-72 0 -123 40t-51 102zM266 125q0 -21 29 -21q28 0 57.5 13t45.5 26l16 13q-57 14 -92 14q-32 0 -44 -14.5t-12 -30.5z" />
<glyph unicode="&#xa4;" horiz-adv-x="1550" d="M94 -59q0 2 1 6.5t1 7.5q2 6 5.5 11.5t11.5 14.5t17 18.5t27.5 27.5t38 37t53 52t68.5 68v2q-76 85 -113.5 190.5t-37.5 209.5q0 110 39 214t112 185v2q-187 185 -190 189q-33 35 -33 53q0 12 11.5 24.5t27.5 12.5h6q13 0 130 -116l106 -106q82 72 186 111t213 39 q103 0 208.5 -37.5t191.5 -112.5h2q31 31 80 81q102 103 123 122t36 19t28 -10.5t13 -34.5q0 -10 -17.5 -29.5t-118.5 -119.5l-27 -27l-27 -27l-33 -33q72 -83 110.5 -186.5t38.5 -212.5q0 -222 -149 -402q199 -197 205 -204q16 -23 16 -37q1 -7 -1 -12t-5 -9t-4 -6 q-21 -12 -25 -12q-2 0 -6.5 1t-7.5 1q-6 3 -11 6.5t-14.5 11.5t-18.5 17l-28 28t-37 37.5t-52.5 53l-67.5 67.5h-2q-81 -72 -186 -111t-214 -39q-221 0 -399 150l-95 -95q-94 -95 -112.5 -110.5t-36.5 -15.5q-14 0 -25.5 13t-11.5 22zM248 586q0 -141 69 -262t190.5 -193 t266.5 -72q140 0 260.5 68t193 190t72.5 269q0 141 -69 262t-190 192.5t-265 71.5q-142 0 -263 -69t-193 -190.5t-72 -266.5z" />
<glyph unicode="&#xa5;" horiz-adv-x="1366" d="M-55 387q0 64 82 64h567v118l-113 164h-448q-88 0 -88 62q0 63 84 63h16q10 0 14 2h336l-389 561h217l383 -561h189l385 561h180l-387 -561h364q84 0 84 -65q0 -62 -86 -62h-448l-115 -164v-118h559q25 0 43 -5q20 -6 33.5 -22.5t13.5 -36.5q0 -22 -12.5 -38.5 t-32.5 -20.5q-14 -4 -43 -4h-561v-324h-178v324h-561q-29 0 -41 4q-20 5 -33.5 21t-13.5 38zM690 733l10 -20l13 20h-23z" />
<glyph unicode="&#xa6;" horiz-adv-x="342" d="M129 289q0 57 41 57q19 0 29.5 -14t10.5 -28l1 -13v-744q0 -57 -41 -57q-19 0 -29.5 14t-10.5 28l-1 13v744zM129 733v744q0 31 12.5 44t28.5 13q41 0 41 -55v-742q0 -59 -41 -59q-19 0 -29.5 14t-10.5 28z" />
<glyph unicode="&#xa7;" horiz-adv-x="909" d="M90 -272l25 139q2 -2 14.5 -16t17.5 -19.5t20 -20t25 -22t28.5 -20.5t34.5 -20.5t38.5 -17t44.5 -14.5t49.5 -8.5t56.5 -3.5q46 0 79 23t49.5 59t24 71t7.5 68q0 25 -4.5 48t-12 41.5t-19 36t-22.5 30t-26.5 25t-26 20t-26.5 16t-23 12t-20 9.5t-14 6q-18 10 -32.5 19 t-44.5 30.5t-52.5 42.5t-50.5 54t-46 67t-30.5 79.5t-12.5 92.5q0 57 15.5 108t37.5 84t44 57.5t38 35.5l15 10q-69 66 -109.5 136.5t-40.5 166.5q0 63 21.5 124.5t61 111.5t101 81t134.5 31q99 0 166.5 -29.5t134.5 -89.5l-12 -75l-13 -60q-47 50 -79 72q-84 57 -193 57 q-45 0 -78 -23t-50 -59t-24.5 -71t-7.5 -68q0 -25 4.5 -48t12 -41.5t19.5 -36t22.5 -30t26 -25t26.5 -20t26.5 -16t23.5 -12t20.5 -9.5t13.5 -6q27 -15 50 -30t67 -52.5t74 -76.5t53.5 -100t23.5 -126q0 -57 -15.5 -108.5t-37.5 -84.5t-44 -57.5t-37 -35.5l-16 -11 q68 -63 109 -133.5t41 -167.5q0 -65 -21.5 -127t-61.5 -111.5t-102 -79.5t-137 -30q-116 0 -198 38.5t-156 109.5zM303 557q0 -51 19 -94t45.5 -69t56 -45t49 -26.5t25.5 -7.5q35 0 70.5 62t35.5 147q0 51 -19 94t-45.5 68.5t-55.5 44t-48.5 26t-25.5 7.5q-35 0 -71 -61.5 t-36 -145.5z" />
<glyph unicode="&#xa8;" d="M219 1169v183h184v-183h-184zM618 1169v183h185v-183h-185z" />
<glyph unicode="&#xa9;" horiz-adv-x="2275" d="M113 512q0 216 80.5 413t217 341t326.5 229.5t400 85.5q134 0 264 -37t242.5 -104t208 -165t163.5 -214.5t106 -257.5t38 -291q0 -211 -78 -406.5t-212.5 -341.5t-326.5 -233.5t-407 -87.5q-135 0 -265.5 37.5t-243 105t-207.5 165t-162.5 214.5t-105.5 257.5t-38 289.5z M195 512q0 -199 74 -381t199 -315t299 -212t366 -79q190 0 364 77t301.5 208t203 314.5t75.5 387.5q0 199 -74 381t-199.5 315t-299.5 212t-365 79t-365.5 -77.5t-301.5 -209t-202 -314.5t-75 -386zM590 498q0 108 52 207t142 173t220.5 118t279.5 44q147 0 295 -49 l-29 -170q-3 2 -21 13.5t-21.5 13.5t-20.5 11.5t-23 12t-22.5 10t-26.5 9.5t-27.5 7t-32.5 6.5t-34.5 3t-40.5 1.5q-138 0 -254.5 -54.5t-185 -149.5t-68.5 -207q0 -75 35.5 -148t99.5 -132.5t163 -95.5t216 -36q72 0 125 11.5t81 24.5t80 44q4 2 6 3.5t5 3t6 3.5l13 -141 q-89 -46 -148 -63t-172 -17q-147 0 -277 44.5t-220 118.5t-142.5 173.5t-52.5 206.5z" />
<glyph unicode="&#xaa;" horiz-adv-x="909" d="M51 623q0 25 18.5 44t63.5 19h641q84 0 84 -63q0 -24 -17.5 -43t-62.5 -19h-624q-4 0 -12.5 -1t-12.5 -1q-31 0 -50 13.5t-23.5 26t-4.5 24.5zM90 952q0 41 28 73t75.5 51t97 32t106 18t89.5 7t59 2v73q0 47 -6 86.5t-20 76t-41 57t-64 20.5q-44 0 -83 -10t-72.5 -30.5 t-48.5 -31.5t-40 -33l-12 140q124 86 264 86q47 0 93 -17.5t91 -56.5t73 -114t28 -177v-436h-156v68q-72 -48 -133 -68q-72 -23 -152 -23q-49 0 -86 23t-55.5 58t-26.5 67t-8 59zM242 967q-4 -46 33.5 -70.5t93.5 -24.5q64 0 114 33.5t60 91.5l2 33q-65 -2 -115.5 -6.5 t-78.5 -9t-50.5 -11.5t-29 -10t-15.5 -9l-8 -7z" />
<glyph unicode="&#xab;" horiz-adv-x="1366" d="M225 451l459 448h133l-442 -450l442 -449h-133zM565 451l459 448h133l-440 -450l440 -449h-133z" />
<glyph unicode="&#xac;" horiz-adv-x="1366" d="M115 680q0 13 4.5 21.5t14.5 12t16.5 5t19 2t14.5 0.5h1010q25 0 38 -10t15 -20.5t2 -28.5v-517q0 -57 -41 -57t-41 62v489h-987q-65 0 -65 41z" />
<glyph unicode="&#xad;" horiz-adv-x="342" d="M20 395v121h545v-121h-545z" />
<glyph unicode="&#xae;" horiz-adv-x="2275" d="M113 512q0 216 80.5 413t217 341t326.5 229.5t400 85.5q134 0 264 -37t242.5 -104t208 -165t163.5 -214.5t106 -257.5t38 -291q0 -211 -78 -406.5t-212.5 -341.5t-326.5 -233.5t-407 -87.5q-135 0 -265.5 37.5t-243 105t-207.5 165t-162.5 214.5t-105.5 257.5t-38 289.5z M195 512q0 -199 74 -381t199 -315t299 -212t366 -79q190 0 364 77t301.5 208t203 314.5t75.5 387.5q0 199 -74 381t-199.5 315t-299.5 212t-365 79t-365.5 -77.5t-301.5 -209t-202 -314.5t-75 -386zM707 0v995h458q221 0 361 -65q178 -84 178 -209q0 -65 -48 -121.5 t-120.5 -92t-161.5 -54.5l387 -453h-184l-360 434h-334v-434h-176zM883 561h252q107 0 167.5 6t116.5 29q35 13 59 29.5t35 32t16.5 27t6.5 23.5l2 11q-3 27 -13 48t-36.5 43.5t-69.5 37t-116 24t-170 9.5h-248l-2 -117v-203z" />
<glyph unicode="&#xaf;" d="M141 1266v131h738v-131h-738z" />
<glyph unicode="&#xb0;" horiz-adv-x="681" d="M113 1194q0 94 66.5 160.5t160.5 66.5q97 0 162 -67t65 -160q0 -94 -66.5 -160.5t-160.5 -66.5q-97 0 -162 67t-65 160zM195 1194q0 -57 41 -100t104 -43q60 0 101.5 40.5t41.5 102.5q0 58 -40.5 101.5t-102.5 43.5q-60 0 -102.5 -41.5t-42.5 -103.5z" />
<glyph unicode="&#xb1;" horiz-adv-x="1593" d="M115 39q0 43 55 43h584v559h-578q-19 0 -30 2t-21 11.5t-10 27.5t10 27.5t21 11.5t28 2h580v577q0 19 2 30t11.5 21.5t27.5 10.5t27.5 -10t11.5 -21t2 -28v-580h577q64 0 64 -41t-62 -41h-579v-559h587q52 -2 52 -41q0 -41 -58 -41h-1245q-57 0 -57 39z" />
<glyph unicode="&#xb2;" horiz-adv-x="909" d="M84 1415q71 88 149.5 127t190.5 39q168 0 274.5 -85t106.5 -218q0 -46 -19 -81.5t-57.5 -61.5t-73.5 -42.5t-92 -39.5t-88 -39q-8 -3 -237 -131h305l51 2h211v-146h-705v144q194 116 230 135q23 12 78 36t85.5 40.5t68 43t55.5 60.5t18 76q0 78 -66.5 127t-171.5 49 q-52 0 -92 -13t-67 -39t-41.5 -47t-32.5 -55z" />
<glyph unicode="&#xb3;" horiz-adv-x="909" d="M84 774l18 125q186 -55 340 -55q107 0 152 40.5t45 86.5q0 31 -19.5 56.5t-44.5 39.5q-48 29 -151 29h-84v127q11 1 40.5 3.5t41 3.5t35 5.5t37.5 9.5t31.5 14.5t31.5 22.5q39 39 39 84q0 36 -33.5 65t-113.5 29q-82 0 -145 -28t-124 -78l-67 114q153 113 336 113 q132 0 224.5 -62.5t92.5 -152.5q0 -40 -14.5 -75.5t-35.5 -58.5t-42 -39.5t-37 -26.5l-16 -9q31 -9 61.5 -23t64 -36.5t54 -56t20.5 -72.5q0 -42 -24 -85.5t-69 -81t-119 -61.5t-163 -24q-178 0 -362 57z" />
<glyph unicode="&#xb4;" d="M389 1044l273 267h159l-305 -267h-127z" />
<glyph unicode="&#xb5;" horiz-adv-x="1058" d="M164 -399v1310h160v-686q1 -36 7 -58.5t23 -40.5t49.5 -26t83.5 -8q107 0 171.5 57t72.5 130q2 20 2 59v573h160v-911h-156v98q-73 -63 -168 -92t-188 -29q-12 0 -57 5v-381h-160z" />
<glyph unicode="&#xb6;" horiz-adv-x="1251" d="M113 991q0 119 58 225t162.5 176.5t233.5 84.5q29 2 84 2h477q64 0 64 -41q0 -15 -11.5 -27.5t-41.5 -13.5h-117v-1735q0 -59 -41 -59t-41 59v1735h-141v-1727q0 -67 -41 -67t-41 59v838q-85 4 -167.5 24t-162.5 60t-140 95t-97 136t-37 176z" />
<glyph unicode="&#xb7;" horiz-adv-x="483" d="M150 358v183h184v-183h-184z" />
<glyph unicode="&#xb8;" horiz-adv-x="909" d="M240 -393l151 346h125l-133 -346h-143z" />
<glyph unicode="&#xb9;" horiz-adv-x="909" d="M141 1309v118q65 1 122 12.5t93.5 26.5t72.5 39t52 39t37 37h39v-721h209v-121h-596v121h223v502q-1 -1 -11 -5.5t-17 -7.5t-21.5 -8t-28 -9t-34 -8.5t-40.5 -7.5t-46.5 -5t-53.5 -2z" />
<glyph unicode="&#xba;" horiz-adv-x="909" d="M51 623q0 25 18.5 44t63.5 19h641q84 0 84 -63q0 -24 -17.5 -43t-62.5 -19h-624q-4 0 -12.5 -1t-12.5 -1q-31 0 -50 13.5t-23.5 26t-4.5 24.5zM61 1149q0 106 49 202t141 157t204 61q83 0 157.5 -35.5t125.5 -94t80.5 -134.5t29.5 -156q0 -164 -113.5 -284t-279.5 -120 q-159 0 -276.5 115.5t-117.5 288.5zM223 1167q0 -133 64 -211.5t170 -78.5q30 0 59.5 8t60.5 29t55 52.5t39 83.5t15 117q0 129 -65 203t-166 74q-39 0 -77 -14.5t-74.5 -44.5t-58.5 -86.5t-22 -131.5z" />
<glyph unicode="&#xbb;" horiz-adv-x="1366" d="M205 0l440 451l-440 448h133l459 -450l-459 -449h-133zM545 0l442 451l-442 448h133l459 -450l-459 -449h-133z" />
<glyph unicode="&#xbc;" horiz-adv-x="909" d="M16 573q11 37 56 37h755q19 0 28.5 -1.5t19 -8t14.5 -20.5q2 -24 -9 -38t-46 -14h-760q-15 0 -26 3t-16.5 6.5t-9 9.5t-4.5 10t-1.5 9.5t-0.5 6.5zM55 -96l396 542h198v-542h203v-127h-203v-176h-164v176h-430v127zM141 1376v121q72 0 121.5 3.5t122.5 23.5t131 57h41 v-770h209v-119h-598v119h225v594q-97 -26 -252 -29zM225 -96h271v465q-14 -74 -57.5 -150t-213.5 -315z" />
<glyph unicode="&#xbd;" horiz-adv-x="909" d="M16 573q11 37 56 37h755q19 0 28.5 -1.5t19 -8t14.5 -20.5q2 -24 -9 -38t-46 -14h-760q-15 0 -26 3t-16.5 6.5t-9 9.5t-4.5 10t-1.5 9.5t-0.5 6.5zM84 344q76 79 153.5 113.5t186.5 34.5h2q167 0 273 -78t106 -205q0 -41 -14.5 -76t-35 -59.5t-56.5 -51t-66 -43.5 t-77.5 -43.5t-76.5 -44.5l-227 -157h553v-133h-705v120l232 170q160 101 202 134q87 71 99 148q2 15 2 32q0 45 -22.5 79t-59.5 52t-76 26.5t-80 8.5q-93 0 -143.5 -38.5t-89.5 -107.5zM141 1376v121q72 0 121.5 3.5t122.5 23.5t131 57h41v-770h209v-119h-598v119h225v594 q-97 -26 -252 -29z" />
<glyph unicode="&#xbe;" horiz-adv-x="909" d="M16 573q11 37 56 37h755q19 0 28.5 -1.5t19 -8t14.5 -20.5q2 -24 -9 -38t-46 -14h-760q-15 0 -26 3t-16.5 6.5t-9 9.5t-4.5 10t-1.5 9.5t-0.5 6.5zM55 -96l396 542h198v-542h203v-127h-203v-176h-164v176h-430v127zM84 696l18 127q67 -17 99.5 -24.5t101.5 -17t135 -9.5 q59 0 101.5 15t62.5 39.5t28.5 47t8.5 44.5q0 33 -11.5 58.5t-31 40.5t-41 25.5t-47 15t-42 6t-32.5 1.5h-94v125q6 0 29 1.5t33 2.5t30.5 4t34 7t30.5 12t31 18q68 50 68 117q0 42 -33.5 75t-113.5 33q-143 0 -269 -100l-67 115q156 106 336 106q134 0 225.5 -66t91.5 -163 q0 -42 -16 -80.5t-38.5 -64t-45 -45t-38.5 -28.5l-16 -8q28 -11 50 -20.5t54 -29t53 -40.5t36.5 -53t15.5 -68q0 -30 -11.5 -63.5t-40.5 -71t-70.5 -67t-109 -49t-149.5 -19.5q-167 0 -356 51zM225 -96h271v465q-14 -74 -57.5 -150t-213.5 -315z" />
<glyph unicode="&#xbf;" horiz-adv-x="966" d="M113 -88q0 42 6.5 79t14.5 60.5t24.5 49.5t25 36.5t28.5 31.5t24 26q149 174 149 440v88h137v-61q0 -117 -18 -215t-48 -164.5t-57.5 -110.5t-58 -82t-37.5 -51q-31 -52 -31 -135q0 -107 47.5 -153t137.5 -46q180 0 348 119l47 -131q-186 -113 -395 -113q-98 0 -168.5 30 t-107 81t-52.5 105t-16 116zM369 909v172h172v-172h-172z" />
<glyph unicode="&#xc0;" horiz-adv-x="1366" d="M55 0l535 1421h182l533 -1421h-189l-158 418h-593l-156 -418h-154zM389 1741h203q14 0 35 -8t54.5 -26.5t65.5 -37.5t88 -52.5t103 -60.5h-160q-6 0 -10 0.5t-9.5 1.5t-13.5 4.5t-17.5 7.5t-25.5 12.5t-34 17.5l-47 23.5t-59.5 30.5t-77 39.5t-95.5 47.5zM408 532h507 q-212 593 -235 672q-14 46 -18 74q-14 -66 -70 -230t-117 -331t-67 -185z" />
<glyph unicode="&#xc1;" horiz-adv-x="1366" d="M55 0l535 1421h182l533 -1421h-189l-158 418h-593l-156 -418h-154zM408 532h507q-212 593 -235 672q-14 46 -18 74q-14 -66 -70 -230t-117 -331t-67 -185zM424 1556q44 25 86 49.5t69 40.5t53 31t41 23.5t29 16.5t22 12t14.5 7t11.5 3.5t9 1t11 0.5h201l-324 -162 l-45 -20l-31 -3h-147z" />
<glyph unicode="&#xc2;" horiz-adv-x="1366" d="M55 0l535 1421h182l533 -1421h-189l-158 418h-593l-156 -418h-154zM348 1489l254 354h156l227 -354h-127l-192 250l-191 -250h-127zM408 532h507q-212 593 -235 672q-14 46 -18 74q-14 -66 -70 -230t-117 -331t-67 -185z" />
<glyph unicode="&#xc3;" horiz-adv-x="1366" d="M55 0l535 1421h182l533 -1421h-189l-158 418h-593l-156 -418h-154zM340 1489q2 149 55 240.5t142 91.5q38 0 69 -21t52.5 -50.5t42.5 -59.5t50.5 -51t65.5 -21q17 0 27 2q18 12 26 22t16.5 54t8.5 125h127q-1 -92 -20.5 -160t-50 -103.5t-62.5 -52t-66 -16.5 q-37 0 -68 21t-54 51.5t-45 60.5t-51 51t-62 21q-25 0 -41.5 -15.5t-24 -47t-10 -63.5t-2.5 -79h-125zM408 532h507q-212 593 -235 672q-14 46 -18 74q-14 -66 -70 -230t-117 -331t-67 -185z" />
<glyph unicode="&#xc4;" horiz-adv-x="1366" d="M55 0l535 1421h182l533 -1421h-189l-158 418h-593l-156 -418h-154zM389 1556v183h184v-183h-184zM408 532h507q-212 593 -235 672q-14 46 -18 74q-14 -66 -70 -230t-117 -331t-67 -185zM788 1556v183h185v-183h-185z" />
<glyph unicode="&#xc5;" horiz-adv-x="1366" d="M55 0l500 1329q-22 18 -34 29.5t-35.5 41.5t-35.5 70t-12 89q0 105 66 182.5t162 77.5q98 0 162.5 -78.5t64.5 -184.5q0 -39 -9.5 -75t-23 -59t-27 -40.5t-23.5 -26.5l-9 -9l504 -1346h-189l-158 418h-593l-156 -418h-154zM408 532h507q-212 593 -235 672q-14 46 -18 74 q-14 -66 -70 -230t-117 -331t-67 -185zM553 1559q0 -77 34.5 -107.5t78.5 -30.5t79 30.5t35 104.5q0 77 -35 107.5t-79 30.5t-78.5 -30.5t-34.5 -104.5z" />
<glyph unicode="&#xc6;" horiz-adv-x="1763" d="M55 0l582 1421h1010v-135h-97l-47 2h-420l-45 2v-487h553v-127h-553v-533h133l50 2h331l43 2h80v-147h-819v455h-461l-186 -455h-154zM444 569h412v721h-119z" />
<glyph unicode="&#xc7;" horiz-adv-x="1308" d="M135 711q0 111 28.5 220t86.5 206t138 171t190.5 117t236.5 43q178 0 367 -71l-31 -170q-92 57 -165.5 82.5t-182.5 25.5q-134 0 -245.5 -84t-175 -227t-63.5 -313q0 -166 60 -308t173.5 -229.5t256.5 -87.5q93 0 163.5 17t108 37.5t94.5 58.5q11 8 17 12l12 -143 q-111 -65 -191.5 -89t-205.5 -24q-147 0 -274.5 63t-213.5 167.5t-135 241.5t-49 284zM582 -393l151 346h125l-133 -346h-143z" />
<glyph unicode="&#xc8;" horiz-adv-x="1222" d="M193 0v1415h915v-135l-731 4v-485h676v-125h-676v-531l760 4v-147h-944zM291 1743h201q14 0 35 -8t55.5 -27t65.5 -37.5t89 -53.5t103 -61h-158q-6 0 -9.5 0.5t-9 1.5t-13 4.5t-16.5 7.5t-25 12l-34 17t-47.5 24t-61 31t-78.5 40t-97 49z" />
<glyph unicode="&#xc9;" horiz-adv-x="1222" d="M193 0v1415h915v-135l-731 4v-485h676v-125h-676v-531l760 4v-147h-944zM410 1556q44 25 86.5 49.5t70 40.5t53 31t41 23.5t29 16.5t21.5 12t14.5 7t12 3.5t9.5 1t11 0.5h200l-323 -162l-45 -20l-31 -3h-149z" />
<glyph unicode="&#xca;" horiz-adv-x="1222" d="M193 0v1415h915v-135l-731 4v-485h676v-125h-676v-531l760 4v-147h-944zM264 1489l256 354h125l256 -354h-125l-194 250l-193 -250h-125z" />
<glyph unicode="&#xcb;" horiz-adv-x="1222" d="M193 0v1415h915v-135l-731 4v-485h676v-125h-676v-531l760 4v-147h-944zM293 1556v183h184v-183h-184zM690 1556v183h184v-183h-184z" />
<glyph unicode="&#xcc;" horiz-adv-x="569" d="M-33 1741h201q14 0 35 -8t54 -26t64.5 -37t88.5 -53t104 -61h-149q-2 0 -6 -1t-5 -1q-6 0 -13.5 2t-22 8t-30.5 14l-48 24t-65 33t-90.5 46.5t-117.5 59.5zM195 0v1421h184v-1421h-184z" />
<glyph unicode="&#xcd;" horiz-adv-x="569" d="M111 1556q44 25 86 49.5t69 40.5t53 31t41 23.5t29 16.5t22 12t14.5 7t11.5 3.5t9 1t11 0.5h202l-323 -162l-45 -20l-31 -3h-149zM193 0v1421h184v-1421h-184z" />
<glyph unicode="&#xce;" horiz-adv-x="569" d="M-33 1489l256 354h125l256 -354h-125l-194 250l-191 -250h-127zM195 0v1421h184v-1421h-184z" />
<glyph unicode="&#xcf;" horiz-adv-x="569" d="M-6 1556v183h184v-183h-184zM193 0v1421h184v-1421h-184zM391 1556v183h184v-183h-184z" />
<glyph unicode="&#xd0;" horiz-adv-x="1478" d="M0 637v121h195v663h503q74 0 111 -4q112 -15 213.5 -76t177 -154.5t120 -220t44.5 -266.5q0 -213 -98 -380t-256 -252q-76 -39 -144.5 -53.5t-160.5 -14.5h-510v637h-195zM373 115h295q258 0 399 188q121 159 121 395q0 179 -63.5 313t-170.5 210q-66 49 -134 67.5 t-154 18.5h-291l-2 -76v-473h366v-121h-366v-522z" />
<glyph unicode="&#xd1;" horiz-adv-x="1449" d="M195 0v1421h256l561 -1114l80 -164v1278h159v-1421h-256l-561 1114l-80 164v-1278h-159zM381 1489q1 151 55.5 240.5t143.5 89.5q38 0 68.5 -20.5t52 -50.5t42.5 -59.5t50.5 -50t64.5 -20.5q19 0 29 2q18 12 26 22t16.5 54t8.5 125h127q-2 -151 -56 -241.5t-143 -90.5 q-36 0 -66.5 19.5t-52.5 48t-43 57.5t-49 51.5t-59 26.5q-16 3 -37 -4l-14 -11q-15 -16 -20.5 -26.5t-11 -50t-5.5 -111.5h-127z" />
<glyph unicode="&#xd2;" horiz-adv-x="1507" d="M113 707q0 157 52 298.5t138.5 242t204.5 159.5t246 59q126 0 243 -58.5t203.5 -159t138.5 -242t52 -299.5q0 -204 -84.5 -377t-231.5 -274t-323 -101q-124 0 -240.5 57t-204.5 155t-141 239.5t-53 300.5zM297 735q0 -173 56 -320.5t161.5 -237t237.5 -89.5 q128 0 232.5 86t164 234t59.5 327q0 135 -37.5 249.5t-101 190t-146 118t-171.5 42.5q-94 0 -177.5 -44.5t-144.5 -123t-97 -191t-36 -241.5zM461 1743h201q14 0 35 -8t55.5 -27t65.5 -37.5t89 -53.5t103 -61h-158q-6 0 -9.5 0.5t-9 1.5t-13 4.5t-16.5 7.5t-25 12l-34 17 t-47.5 24t-61 31t-78.5 40t-97 49z" />
<glyph unicode="&#xd3;" horiz-adv-x="1507" d="M113 707q0 157 52 298.5t138.5 242t204.5 159.5t246 59q126 0 243 -58.5t203.5 -159t138.5 -242t52 -299.5q0 -204 -84.5 -377t-231.5 -274t-323 -101q-124 0 -240.5 57t-204.5 155t-141 239.5t-53 300.5zM297 735q0 -173 56 -320.5t161.5 -237t237.5 -89.5 q128 0 232.5 86t164 234t59.5 327q0 135 -37.5 249.5t-101 190t-146 118t-171.5 42.5q-94 0 -177.5 -44.5t-144.5 -123t-97 -191t-36 -241.5zM496 1556q44 25 86 49.5t69 40.5t53 31t41 23.5t29 16.5t22 12t14.5 7t11.5 3.5t9 1t11 0.5h202l-325 -162l-45 -20l-29 -3h-149z " />
<glyph unicode="&#xd4;" horiz-adv-x="1507" d="M113 707q0 157 52 298.5t138.5 242t204.5 159.5t246 59q126 0 243 -58.5t203.5 -159t138.5 -242t52 -299.5q0 -204 -84.5 -377t-231.5 -274t-323 -101q-124 0 -240.5 57t-204.5 155t-141 239.5t-53 300.5zM297 735q0 -173 56 -320.5t161.5 -237t237.5 -89.5 q128 0 232.5 86t164 234t59.5 327q0 135 -37.5 249.5t-101 190t-146 118t-171.5 42.5q-94 0 -177.5 -44.5t-144.5 -123t-97 -191t-36 -241.5zM434 1489l254 354h127l256 -354h-125l-194 250l-193 -250h-125z" />
<glyph unicode="&#xd5;" horiz-adv-x="1507" d="M113 707q0 157 52 298.5t138.5 242t204.5 159.5t246 59q126 0 243 -58.5t203.5 -159t138.5 -242t52 -299.5q0 -204 -84.5 -377t-231.5 -274t-323 -101q-124 0 -240.5 57t-204.5 155t-141 239.5t-53 300.5zM297 735q0 -173 56 -320.5t161.5 -237t237.5 -89.5 q128 0 232.5 86t164 234t59.5 327q0 135 -37.5 249.5t-101 190t-146 118t-171.5 42.5q-94 0 -177.5 -44.5t-144.5 -123t-97 -191t-36 -241.5zM410 1489q3 47 7 80.5t14.5 76t30.5 77t50 59.5q39 39 94 39t107 -52q4 -4 38.5 -51.5t68 -75.5t67.5 -28q22 0 28 6q38 26 47 80 q4 27 7 121h125q-8 -216 -101 -295q-42 -37 -96 -37q-55 0 -104 49q-5 6 -42 55.5t-68.5 75t-64.5 25.5q-10 0 -14 -2l-16 -4l-15 -9q-22 -26 -28.5 -57t-7.5 -133h-127z" />
<glyph unicode="&#xd6;" horiz-adv-x="1507" d="M113 707q0 157 52 298.5t138.5 242t204.5 159.5t246 59q126 0 243 -58.5t203.5 -159t138.5 -242t52 -299.5q0 -204 -84.5 -377t-231.5 -274t-323 -101q-124 0 -240.5 57t-204.5 155t-141 239.5t-53 300.5zM297 735q0 -173 56 -320.5t161.5 -237t237.5 -89.5 q128 0 232.5 86t164 234t59.5 327q0 135 -37.5 249.5t-101 190t-146 118t-171.5 42.5q-94 0 -177.5 -44.5t-144.5 -123t-97 -191t-36 -241.5zM461 1556v183h184v-183h-184zM860 1556v183h184v-183h-184z" />
<glyph unicode="&#xd7;" horiz-adv-x="1593" d="M303 57q0 9 6 20t11 16.5t17.5 17.5t14.5 14l385 387l-387 387q-36 37 -38 42q-3 6 -9 15v13q0 12 11.5 23.5t27.5 11.5q7 0 13.5 -2t14 -7.5t10 -8l12 -12l11.5 -11.5l394 -394l393 396l13.5 13.5t14.5 13.5t13.5 8t17.5 4q20 0 29.5 -13.5t9.5 -23.5q0 -2 -1 -6t-1 -7 q-8 -18 -45 -55l-387 -387l387 -387q37 -38 39 -44t6 -13l2 -13q0 -13 -12 -24t-27 -11q-5 0 -9.5 1t-8 2.5t-8 4.5t-6.5 5t-7 6.5t-6.5 6.5t-7 8t-6.5 7l-395 394l-410 -412q-3 -3 -10 -8.5t-9.5 -7.5t-7.5 -4.5t-9 -3.5t-9 -1q-12 0 -24.5 13t-12.5 26z" />
<glyph unicode="&#xd8;" horiz-adv-x="1593" d="M113 707q0 152 53 292t143.5 242.5t217.5 163.5t268 61q159 0 313 -84l98 172h2l113 -65l-107 -184q117 -98 190 -256t73 -342q0 -201 -89 -373.5t-246.5 -275.5t-346.5 -103q-160 0 -314 84l-98 -172l-113 65l105 183q-129 110 -195.5 267t-66.5 325zM289 705 q0 -289 157 -465l594 1028q-120 73 -245 73q-97 0 -186.5 -42t-161.5 -120t-115 -201t-43 -273zM549 154q48 -27 76 -39.5t73.5 -23.5t98.5 -11q69 0 138.5 23t135.5 73t116.5 121.5t81.5 178t31 233.5q0 280 -157 471h-2z" />
<glyph unicode="&#xd9;" horiz-adv-x="1406" d="M193 526v895h184v-850q0 -14 -0.5 -41t-0.5 -44t1 -40.5t4 -42.5q6 -50 21.5 -97.5t44 -90.5t65.5 -75t88 -51t109 -19q60 0 116.5 21.5t106 64t82.5 114.5t39 164v987h161v-876q0 -2 0.5 -22t0 -34t-1.5 -41t-5.5 -50.5t-11 -54t-18.5 -59.5t-27.5 -60t-38.5 -62.5 t-51 -59.5q-62 -62 -152 -104.5t-200 -42.5q-197 0 -341 128.5t-171 317.5q-4 43 -4 125zM412 1743h200q14 0 35 -8t56 -27t65.5 -37.5t89.5 -53.5t103 -61h-158q-6 0 -9.5 0.5t-9 1.5t-13 4.5t-16.5 7.5t-25 12l-34 17t-47.5 24t-61 31t-78.5 40t-97 49z" />
<glyph unicode="&#xda;" horiz-adv-x="1406" d="M193 526v895h184v-850q0 -14 -0.5 -41t-0.5 -44t1 -40.5t4 -42.5q6 -50 21.5 -97.5t44 -90.5t65.5 -75t88 -51t109 -19q60 0 116.5 21.5t106 64t82.5 114.5t39 164v987h161v-876q0 -2 0.5 -22t0 -34t-1.5 -41t-5.5 -50.5t-11 -54t-18.5 -59.5t-27.5 -60t-38.5 -62.5 t-51 -59.5q-62 -62 -152 -104.5t-200 -42.5q-197 0 -341 128.5t-171 317.5q-4 43 -4 125zM530 1556q44 25 86.5 49.5t70 40.5t53 31t41 23.5t29 16.5t22 12t15 7t12 3.5t9.5 1t11 0.5h200l-323 -162l-45 -20l-31 -3h-150z" />
<glyph unicode="&#xdb;" horiz-adv-x="1406" d="M193 526v895h184v-850q0 -14 -0.5 -41t-0.5 -44t1 -40.5t4 -42.5q6 -50 21.5 -97.5t44 -90.5t65.5 -75t88 -51t109 -19q60 0 116.5 21.5t106 64t82.5 114.5t39 164v987h161v-876q0 -2 0.5 -22t0 -34t-1.5 -41t-5.5 -50.5t-11 -54t-18.5 -59.5t-27.5 -60t-38.5 -62.5 t-51 -59.5q-62 -62 -152 -104.5t-200 -42.5q-197 0 -341 128.5t-171 317.5q-4 43 -4 125zM389 1489l256 354h117l266 -354h-127l-192 250l-193 -250h-127z" />
<glyph unicode="&#xdc;" horiz-adv-x="1406" d="M193 526v895h184v-850q0 -14 -0.5 -41t-0.5 -44t1 -40.5t4 -42.5q6 -50 21.5 -97.5t44 -90.5t65.5 -75t88 -51t109 -19q60 0 116.5 21.5t106 64t82.5 114.5t39 164v987h161v-876q0 -2 0.5 -22t0 -34t-1.5 -41t-5.5 -50.5t-11 -54t-18.5 -59.5t-27.5 -60t-38.5 -62.5 t-51 -59.5q-62 -62 -152 -104.5t-200 -42.5q-197 0 -341 128.5t-171 317.5q-4 43 -4 125zM412 1556v183h184v-183h-184zM811 1556v183h184v-183h-184z" />
<glyph unicode="&#xdd;" horiz-adv-x="1366" d="M4 1421h215l301 -436q25 -37 60 -89.5t52.5 -78t36 -55t29.5 -49.5q11 20 43.5 70t75 113.5t91 135t96 140t85.5 123.5t63 91l24 35h180l-586 -852v-569h-178v569zM508 1556q44 25 86.5 49.5t70 40.5t53 31t41 23.5t29 16.5t21.5 12t14.5 7t12 3.5t9.5 1t11 0.5h201 l-324 -162l-45 -20l-31 -3h-149z" />
<glyph unicode="&#xde;" horiz-adv-x="1193" d="M197 0v1421h172v-260h249q98 0 178.5 -26t131.5 -67.5t85.5 -94.5t49 -105t14.5 -102q0 -54 -16 -108.5t-51.5 -106.5t-86.5 -92.5t-126.5 -65t-165.5 -24.5h-262v-369h-172zM369 483h209q70 0 128 18.5t95 48t62.5 67t36.5 74.5t11 73t-11 73t-38.5 75.5t-68.5 67.5 t-107.5 48t-148.5 19h-166l-2 -78v-486z" />
<glyph unicode="&#xdf;" horiz-adv-x="983" d="M166 0v1155q0 99 29.5 169.5t81.5 107.5t110 53t127 16q53 0 100.5 -9t95.5 -32.5t82 -60t55 -97t21 -137.5q0 -28 -2.5 -55.5t-9 -67.5t-22 -73.5t-38.5 -66t-61 -53.5t-86 -26q-40 -5 -54.5 -30t-14.5 -107q0 -47 3.5 -71.5t16.5 -36.5t26 -14.5t45.5 -8.5t61.5 -16 q68 -26 124 -96.5t56 -182.5q0 -129 -68 -206t-192 -77q-123 0 -219 93l25 139l5 -5q4 -6 7.5 -10.5t11 -12l14 -14t17 -14.5t21 -14.5t24 -12.5t27 -10.5t30 -7t33.5 -2.5q64 0 91.5 43.5t27.5 96.5q0 99 -74 135q-18 9 -50 15t-63.5 17.5t-60.5 37.5q-86 81 -86 227 q0 109 47 180.5t140 83.5q5 1 15.5 1.5t14.5 1.5t11.5 3.5t11.5 7t9 12.5t9 19q17 57 17 168q0 105 -41 163t-150 58q-42 0 -75 -10t-53.5 -23t-35 -36.5t-21 -40t-10 -44.5t-4 -39t-0.5 -34v-1149h-153z" />
<glyph unicode="&#xe0;" horiz-adv-x="983" d="M90 231q0 62 39.5 111t99.5 78t139.5 48t150 26t140.5 8v69q-1 43 -3.5 66.5t-14.5 58.5t-35 64q-51 61 -129 61q-54 0 -100 -8.5t-86 -27t-62.5 -31.5t-58.5 -37l-12 137q79 45 153.5 67.5t171.5 22.5q140 0 233.5 -94t102.5 -225v-625h-155v72q-136 -95 -340 -95 q-61 0 -108.5 26t-73.5 66.5t-39 82t-13 79.5zM240 233q0 -57 54 -93t136 -36q39 0 76 7.5t73 24t58 50t22 80.5v129q-65 -1 -130 -8.5t-134 -24.5t-112 -50t-43 -79zM313 1311h160l272 -267h-124z" />
<glyph unicode="&#xe1;" horiz-adv-x="983" d="M90 231q0 62 39.5 111t99.5 78t139.5 48t150 26t140.5 8v69q-1 43 -3.5 66.5t-14.5 58.5t-35 64q-51 61 -129 61q-54 0 -100 -8.5t-86 -27t-62.5 -31.5t-58.5 -37l-12 137q79 45 153.5 67.5t171.5 22.5q140 0 233.5 -94t102.5 -225v-625h-155v72q-136 -95 -340 -95 q-61 0 -108.5 26t-73.5 66.5t-39 82t-13 79.5zM240 233q0 -57 54 -93t136 -36q39 0 76 7.5t73 24t58 50t22 80.5v129q-65 -1 -130 -8.5t-134 -24.5t-112 -50t-43 -79zM279 1044l272 267h160l-305 -267h-127z" />
<glyph unicode="&#xe2;" horiz-adv-x="983" d="M90 231q0 62 39.5 111t99.5 78t139.5 48t150 26t140.5 8v69q-1 43 -3.5 66.5t-14.5 58.5t-35 64q-51 61 -129 61q-54 0 -100 -8.5t-86 -27t-62.5 -31.5t-58.5 -37l-12 137q79 45 153.5 67.5t171.5 22.5q140 0 233.5 -94t102.5 -225v-625h-155v72q-136 -95 -340 -95 q-61 0 -108.5 26t-73.5 66.5t-39 82t-13 79.5zM170 1042l256 289h172l209 -289h-125l-193 203l-194 -203h-125zM240 233q0 -57 54 -93t136 -36q39 0 76 7.5t73 24t58 50t22 80.5v129q-65 -1 -130 -8.5t-134 -24.5t-112 -50t-43 -79z" />
<glyph unicode="&#xe3;" horiz-adv-x="983" d="M90 231q0 62 39.5 111t99.5 78t139.5 48t150 26t140.5 8v69q-1 43 -3.5 66.5t-14.5 58.5t-35 64q-51 61 -129 61q-54 0 -100 -8.5t-86 -27t-62.5 -31.5t-58.5 -37l-12 137q79 45 153.5 67.5t171.5 22.5q140 0 233.5 -94t102.5 -225v-625h-155v72q-136 -95 -340 -95 q-61 0 -108.5 26t-73.5 66.5t-39 82t-13 79.5zM178 1128q3 99 62 161.5t139 62.5q45 0 94.5 -25t95.5 -49.5t82 -24.5q39 0 60.5 29t23.5 72h125q-3 -99 -62 -162.5t-139 -63.5q-44 0 -93.5 25t-96 49.5t-82.5 24.5q-30 0 -54.5 -22.5t-29.5 -76.5h-125zM240 233 q0 -57 54 -93t136 -36q39 0 76 7.5t73 24t58 50t22 80.5v129q-65 -1 -130 -8.5t-134 -24.5t-112 -50t-43 -79z" />
<glyph unicode="&#xe4;" horiz-adv-x="983" d="M90 231q0 62 39.5 111t99.5 78t139.5 48t150 26t140.5 8v69q-1 43 -3.5 66.5t-14.5 58.5t-35 64q-51 61 -129 61q-54 0 -100 -8.5t-86 -27t-62.5 -31.5t-58.5 -37l-12 137q79 45 153.5 67.5t171.5 22.5q140 0 233.5 -94t102.5 -225v-625h-155v72q-136 -95 -340 -95 q-61 0 -108.5 26t-73.5 66.5t-39 82t-13 79.5zM221 1169v183h185v-183h-185zM240 233q0 -57 54 -93t136 -36q39 0 76 7.5t73 24t58 50t22 80.5v129q-65 -1 -130 -8.5t-134 -24.5t-112 -50t-43 -79zM621 1169v183h184v-183h-184z" />
<glyph unicode="&#xe5;" horiz-adv-x="983" d="M90 231q0 62 39.5 111t99.5 78t139.5 48t150 26t140.5 8v69q-1 43 -3.5 66.5t-14.5 58.5t-35 64q-51 61 -129 61q-54 0 -100 -8.5t-86 -27t-62.5 -31.5t-58.5 -37l-12 137q79 45 153.5 67.5t171.5 22.5q140 0 233.5 -94t102.5 -225v-625h-155v72q-136 -95 -340 -95 q-61 0 -108.5 26t-73.5 66.5t-39 82t-13 79.5zM240 233q0 -57 54 -93t136 -36q39 0 76 7.5t73 24t58 50t22 80.5v129q-65 -1 -130 -8.5t-134 -24.5t-112 -50t-43 -79zM260 1143q0 69 67.5 117.5t161.5 48.5q91 0 159.5 -48.5t68.5 -119.5q0 -69 -67.5 -117.5t-162.5 -48.5 q-91 0 -159 48.5t-68 119.5zM375 1141q0 -38 26 -68.5t86 -30.5q62 0 88.5 31t26.5 70q0 37 -26.5 67.5t-86.5 30.5q-54 0 -84 -27t-30 -73z" />
<glyph unicode="&#xe6;" horiz-adv-x="1478" d="M94 233q0 88 79 150.5t202.5 91t281.5 31.5v65l-2 54q-6 84 -54.5 140t-123.5 56q-55 0 -101.5 -8.5t-86.5 -27t-62.5 -31.5t-58.5 -37l-12 137q84 47 157.5 68.5t165.5 21.5q58 0 108.5 -16t82 -39.5t53.5 -47t33 -40.5l12 -17q58 73 139 116.5t172 43.5q37 0 72.5 -8 t75.5 -27.5t73 -56.5t60.5 -89t43 -132t15.5 -180h-602q0 -1 1.5 -15.5t2.5 -22.5t4 -27t6.5 -32.5t10 -34.5t14.5 -37.5t20 -37t26.5 -37t33.5 -33.5t41 -31q70 -39 137 -39q148 0 283 113l12 -135q-146 -105 -297 -105q-194 0 -336 158q-41 -60 -121 -97t-159 -49 t-170 -12q-52 0 -94.5 19t-67 47.5t-41.5 65t-23 67t-6 57.5zM244 236q0 -48 47.5 -90t140.5 -42q41 0 79 7t75 23.5t59.5 48t22.5 75.5q0 19 -3.5 71t-5.5 62q-55 0 -117 -6.5t-133.5 -21.5t-118 -48t-46.5 -79zM829 563h469q-11 69 -34 119.5t-46.5 75.5t-53.5 39.5 t-47 17t-36 2.5q-81 0 -154 -67.5t-98 -186.5z" />
<glyph unicode="&#xe7;" horiz-adv-x="909" d="M72 457q0 90 30.5 176.5t86 156t142.5 112t191 42.5q96 0 160.5 -18t157.5 -72l-25 -135q-7 4 -28.5 17.5t-29 18t-27.5 15.5t-32 15t-34 11t-41.5 9.5t-46 5t-56.5 2.5q-94 0 -161.5 -53t-97.5 -131.5t-30 -171.5q0 -151 79.5 -249.5t207.5 -98.5q74 0 142 20.5 t100.5 39t79.5 50.5l10 -137q-158 -105 -334 -105q-124 0 -226 64.5t-160 174.5t-58 241zM297 -393l152 346h124l-133 -346h-143z" />
<glyph unicode="&#xe8;" horiz-adv-x="909" d="M70 463q0 127 53.5 237.5t149 177t210.5 66.5q47 0 92 -11t93.5 -41.5t85.5 -77t63 -125t31 -179.5v-59h-635q6 -148 91.5 -247.5t211.5 -99.5q94 0 166.5 30.5t144.5 82.5l13 -135q-157 -105 -324 -105q-98 0 -182.5 40.5t-141.5 107.5t-89.5 155t-32.5 183zM223 563 h508q-9 65 -33 114t-51 74.5t-61 41.5t-57.5 20t-45.5 4q-45 0 -84.5 -17t-68 -43t-51 -60.5t-36 -67.5t-20.5 -66zM311 1311h160l272 -267h-125z" />
<glyph unicode="&#xe9;" horiz-adv-x="909" d="M70 463q0 127 53.5 237.5t149 177t210.5 66.5q47 0 92 -11t93.5 -41.5t85.5 -77t63 -125t31 -179.5v-59h-635q6 -148 91.5 -247.5t211.5 -99.5q94 0 166.5 30.5t144.5 82.5l13 -135q-157 -105 -324 -105q-98 0 -182.5 40.5t-141.5 107.5t-89.5 155t-32.5 183zM221 1044 l273 267h159l-305 -267h-127zM223 563h508q-9 65 -33 114t-51 74.5t-61 41.5t-57.5 20t-45.5 4q-45 0 -84.5 -17t-68 -43t-51 -60.5t-36 -67.5t-20.5 -66z" />
<glyph unicode="&#xea;" horiz-adv-x="909" d="M70 463q0 127 53.5 237.5t149 177t210.5 66.5q47 0 92 -11t93.5 -41.5t85.5 -77t63 -125t31 -179.5v-59h-635q6 -148 91.5 -247.5t211.5 -99.5q94 0 166.5 30.5t144.5 82.5l13 -135q-157 -105 -324 -105q-98 0 -182.5 40.5t-141.5 107.5t-89.5 155t-32.5 183zM135 1042 l254 289h129l254 -289h-125l-194 203l-193 -203h-125zM223 563h508q-9 65 -33 114t-51 74.5t-61 41.5t-57.5 20t-45.5 4q-45 0 -84.5 -17t-68 -43t-51 -60.5t-36 -67.5t-20.5 -66z" />
<glyph unicode="&#xeb;" horiz-adv-x="909" d="M70 463q0 127 53.5 237.5t149 177t210.5 66.5q47 0 92 -11t93.5 -41.5t85.5 -77t63 -125t31 -179.5v-59h-635q6 -148 91.5 -247.5t211.5 -99.5q94 0 166.5 30.5t144.5 82.5l13 -135q-157 -105 -324 -105q-98 0 -182.5 40.5t-141.5 107.5t-89.5 155t-32.5 183zM162 1169 v183h184v-183h-184zM223 563h508q-9 65 -33 114t-51 74.5t-61 41.5t-57.5 20t-45.5 4q-45 0 -84.5 -17t-68 -43t-51 -60.5t-36 -67.5t-20.5 -66zM561 1169v183h184v-183h-184z" />
<glyph unicode="&#xec;" horiz-adv-x="489" d="M-68 1311h160l273 -267h-125zM168 0v911h154v-911h-154z" />
<glyph unicode="&#xed;" horiz-adv-x="489" d="M66 1044l272 267h160l-305 -267h-127zM166 0v911h153v-911h-153z" />
<glyph unicode="&#xee;" horiz-adv-x="489" d="M-74 1042l256 289h125l256 -289h-125l-194 203l-193 -203h-125zM168 0v911h154v-911h-154z" />
<glyph unicode="&#xef;" horiz-adv-x="602" d="M10 1169v183h185v-183h-185zM223 0v911h154v-911h-154zM408 1167v183h184v-183h-184z" />
<glyph unicode="&#xf0;" d="M61 451q0 128 57 240.5t161.5 182.5t230.5 70q97 0 207 -55q-35 72 -74.5 129.5t-70 90.5t-85.5 87h-2l-194 -113l-70 125l141 82q-80 44 -117 60t-104 36l109 93q138 -42 242 -115l200 115l72 -123l-150 -86q67 -59 125.5 -133t110 -168.5t81.5 -213.5t30 -245v-27 q0 -90 -16 -158.5t-60 -138.5q-63 -98 -162.5 -153.5t-212.5 -55.5q-87 0 -168.5 35.5t-143.5 97.5t-99.5 151t-37.5 190zM221 473q0 -163 81 -263.5t208 -100.5q129 0 209 100.5t80 253.5t-80 253.5t-209 100.5q-52 0 -101 -19.5t-92 -58.5t-69.5 -108t-26.5 -158z" />
<glyph unicode="&#xf1;" horiz-adv-x="1058" d="M164 0v922h149v-144q121 154 299 154q75 0 129.5 -23t83 -55.5t44.5 -82.5t20 -89.5t4 -91.5v-590h-160v575q0 41 -3.5 71t-16 62t-33.5 52.5t-58.5 33.5t-89.5 13q-74 0 -122.5 -48.5t-67 -116t-18.5 -150.5v-492h-160zM186 1128q3 99 62 161.5t139 62.5q45 0 94.5 -25 t95.5 -49.5t82 -24.5q39 0 60.5 29t23.5 72h125q-3 -99 -61.5 -162.5t-138.5 -63.5q-44 0 -93.5 25t-96.5 49.5t-83 24.5q-30 0 -54.5 -22.5t-29.5 -76.5h-125z" />
<glyph unicode="&#xf2;" d="M61 453q0 120 53.5 231.5t158.5 185.5t237 74q184 0 317.5 -144t133.5 -349q0 -135 -64.5 -245t-167 -169.5t-219.5 -59.5q-87 0 -168.5 35.5t-143.5 97t-99.5 151.5t-37.5 192zM221 473q0 -167 82.5 -265.5t206.5 -98.5q53 0 103 21.5t92.5 64t68 114.5t25.5 164 q0 159 -82 251.5t-207 92.5q-52 0 -101 -19.5t-92 -58.5t-69.5 -108t-26.5 -158zM311 1311h160l272 -267h-125z" />
<glyph unicode="&#xf3;" d="M61 453q0 120 53.5 231.5t158.5 185.5t237 74q184 0 317.5 -144t133.5 -349q0 -135 -64.5 -245t-167 -169.5t-219.5 -59.5q-87 0 -168.5 35.5t-143.5 97t-99.5 151.5t-37.5 192zM221 473q0 -167 82.5 -265.5t206.5 -98.5q53 0 103 21.5t92.5 64t68 114.5t25.5 164 q0 159 -82 251.5t-207 92.5q-52 0 -101 -19.5t-92 -58.5t-69.5 -108t-26.5 -158zM391 1044l273 267h159l-305 -267h-127z" />
<glyph unicode="&#xf4;" d="M61 453q0 120 53.5 231.5t158.5 185.5t237 74q184 0 317.5 -144t133.5 -349q0 -135 -64.5 -245t-167 -169.5t-219.5 -59.5q-87 0 -168.5 35.5t-143.5 97t-99.5 151.5t-37.5 192zM193 1042l256 289h124l256 -289h-124l-195 203l-193 -203h-124zM221 473 q0 -167 82.5 -265.5t206.5 -98.5q53 0 103 21.5t92.5 64t68 114.5t25.5 164q0 159 -82 251.5t-207 92.5q-52 0 -101 -19.5t-92 -58.5t-69.5 -108t-26.5 -158z" />
<glyph unicode="&#xf5;" d="M61 453q0 120 53.5 231.5t158.5 185.5t237 74q184 0 317.5 -144t133.5 -349q0 -135 -64.5 -245t-167 -169.5t-219.5 -59.5q-87 0 -168.5 35.5t-143.5 97t-99.5 151.5t-37.5 192zM170 1128q3 99 62 161.5t139 62.5q45 0 94.5 -25t95.5 -49.5t82 -24.5q39 0 60.5 29 t23.5 72h125q-3 -99 -62 -162.5t-139 -63.5q-44 0 -93.5 25t-96 49.5t-82.5 24.5q-30 0 -54.5 -22.5t-29.5 -76.5h-125zM221 473q0 -167 82.5 -265.5t206.5 -98.5q53 0 103 21.5t92.5 64t68 114.5t25.5 164q0 159 -82 251.5t-207 92.5q-52 0 -101 -19.5t-92 -58.5 t-69.5 -108t-26.5 -158z" />
<glyph unicode="&#xf6;" d="M61 453q0 120 53.5 231.5t158.5 185.5t237 74q184 0 317.5 -144t133.5 -349q0 -135 -64.5 -245t-167 -169.5t-219.5 -59.5q-87 0 -168.5 35.5t-143.5 97t-99.5 151.5t-37.5 192zM219 1167v183h184v-183h-184zM221 473q0 -167 82.5 -265.5t206.5 -98.5q53 0 103 21.5 t92.5 64t68 114.5t25.5 164q0 159 -82 251.5t-207 92.5q-52 0 -101 -19.5t-92 -58.5t-69.5 -108t-26.5 -158zM618 1169v183h185v-183h-185z" />
<glyph unicode="&#xf7;" horiz-adv-x="1593" d="M115 514q0 39 59 39h1227q52 0 65 -14q9 -10 9 -27q0 -41 -58 -41h-1247q-55 0 -55 43zM668 -12v137q0 57 55 57h133q42 0 54 -14.5t12 -46.5v-101q-2 -58 -9 -71q-12 -19 -51 -19h-133q-37 0 -49 15.5t-12 42.5zM668 899v137q0 58 55 58h133q22 0 34 -2.5t22 -16 t10 -39.5v-104q-2 -58 -9 -71q-11 -18 -49 -19h-135q-20 0 -31.5 3t-20.5 16t-9 38z" />
<glyph unicode="&#xf8;" d="M63 453q0 128 57 240t161 181.5t229 69.5q82 0 180 -43l133 238h2l109 -62l-139 -248q71 -71 116 -159.5t45 -216.5q0 -129 -59 -238.5t-161.5 -173.5t-225.5 -64q-80 0 -176 39l-137 -245l-111 61l141 252q-71 61 -117.5 156.5t-46.5 212.5zM217 451q0 -44 5.5 -81 t17 -65.5t19 -44t21.5 -35.5t15 -22l332 588q-61 26 -117 26q-53 0 -103 -21.5t-93.5 -63.5t-70 -115t-26.5 -166zM397 127q57 -23 113 -23q55 0 106 20.5t93.5 61t68 109t25.5 154.5q0 149 -72 255q-3 3 -4 5h-2z" />
<glyph unicode="&#xf9;" horiz-adv-x="1058" d="M164 250v661h160v-686q1 -36 7 -58.5t23 -40.5t49.5 -26t83.5 -8q107 0 171.5 57t72.5 130q2 20 2 59v573h160v-911h-156v98q-72 -64 -167.5 -92.5t-190.5 -28.5q-45 0 -79.5 10.5t-57 24.5t-38.5 39.5t-23.5 45.5t-11.5 53t-4.5 50.5t-0.5 49.5zM301 1311h160l272 -267 h-125z" />
<glyph unicode="&#xfa;" horiz-adv-x="1058" d="M164 250v661h160v-686q1 -36 7 -58.5t23 -40.5t49.5 -26t83.5 -8q107 0 171.5 57t72.5 130q2 20 2 59v573h160v-911h-156v98q-72 -64 -167.5 -92.5t-190.5 -28.5q-45 0 -79.5 10.5t-57 24.5t-38.5 39.5t-23.5 45.5t-11.5 53t-4.5 50.5t-0.5 49.5zM295 1044l272 267h160 l-305 -267h-127z" />
<glyph unicode="&#xfb;" horiz-adv-x="1058" d="M164 250v661h160v-686q1 -36 7 -58.5t23 -40.5t49.5 -26t83.5 -8q107 0 171.5 57t72.5 130q2 20 2 59v573h160v-911h-156v98q-72 -64 -167.5 -92.5t-190.5 -28.5q-45 0 -79.5 10.5t-57 24.5t-38.5 39.5t-23.5 45.5t-11.5 53t-4.5 50.5t-0.5 49.5zM211 1042l256 289h125 l256 -289h-125l-195 203l-192 -203h-125z" />
<glyph unicode="&#xfc;" horiz-adv-x="1058" d="M164 250v661h160v-686q1 -36 7 -58.5t23 -40.5t49.5 -26t83.5 -8q107 0 171.5 57t72.5 130q2 20 2 59v573h160v-911h-156v98q-72 -64 -167.5 -92.5t-190.5 -28.5q-45 0 -79.5 10.5t-57 24.5t-38.5 39.5t-23.5 45.5t-11.5 53t-4.5 50.5t-0.5 49.5zM238 1169v183h184v-183 h-184zM637 1169v183h184v-183h-184z" />
<glyph unicode="&#xfd;" horiz-adv-x="944" d="M29 911h161q88 -204 146 -343t86 -220t38 -114t17 -76t10 -56q2 82 67 272.5t135.5 362.5t70.5 174h153l-444 -1095q-60 -137 -111.5 -186.5t-124.5 -49.5q-80 0 -149 17l-10 133q103 -35 149 -35q56 0 90.5 51t100.5 223q8 19 8 33q0 8 -10 35zM350 1044l273 267h159 l-305 -267h-127z" />
<glyph unicode="&#xfe;" horiz-adv-x="1058" d="M166 -399v1878h153v-668q152 121 340 121q93 0 168.5 -67t115.5 -175t40 -231q0 -126 -47 -236t-135.5 -178t-198.5 -68q-146 0 -276 117v-493h-160zM326 258q0 -45 58 -100.5t140 -55.5q114 0 205.5 99.5t91.5 253.5q0 140 -78 243t-200 103q-29 0 -56.5 -6.5t-48.5 -17 t-39.5 -23t-31.5 -24.5t-22 -22.5t-14 -17.5l-5 -6v-426z" />
<glyph unicode="&#xff;" horiz-adv-x="944" d="M29 911h161q88 -204 146 -343t86 -220t38 -114t17 -76t10 -56q2 82 67 272.5t135.5 362.5t70.5 174h153l-444 -1095q-60 -137 -111.5 -186.5t-124.5 -49.5q-80 0 -149 17l-10 133q103 -35 149 -35q56 0 90.5 51t100.5 223q8 19 8 33q0 8 -10 35zM180 1169v183h185v-183 h-185zM580 1169v183h184v-183h-184z" />
<glyph unicode="&#x152;" horiz-adv-x="1990" d="M55 707q0 204 90.5 378.5t247.5 277.5t342 103q57 0 162 -22.5t182 -22.5h795v-135h-117l-49 2h-489l-76 2v-487h674v-127h-674v-533h176l49 2h395l45 2h95v-147h-869q-45 -3 -144 -24t-159 -21q-130 0 -252.5 56.5t-216 154.5t-150.5 239.5t-57 301.5zM233 733 q0 -97 22.5 -191.5t67 -177.5t105 -146.5t142.5 -100.5t173 -37q59 0 96.5 11.5t63.5 35t39 72t18 110t5 160.5v496q0 96 -5.5 157t-18 105.5t-37.5 67.5t-59 33.5t-87 12.5h-39q-90 -5 -176.5 -49t-155.5 -119.5t-111.5 -190.5t-42.5 -249z" />
<glyph unicode="&#x153;" horiz-adv-x="1593" d="M61 461q0 96 33.5 185t91 154.5t138 104.5t170.5 39q26 0 53 -3.5t67.5 -16t78 -33t80 -59.5t77.5 -91q55 90 148 146.5t194 56.5q38 0 73.5 -8t76 -27t73.5 -56t60.5 -89t43 -132.5t15.5 -180.5h-602q0 -1 1.5 -15.5t2.5 -22.5t4 -27t6.5 -32.5t10 -34.5t14.5 -37.5 t20 -37t26.5 -37t33.5 -33.5t41 -31q64 -39 135 -39q149 0 284 113l13 -135q-141 -105 -299 -105q-36 0 -73 6.5t-90 25.5t-108.5 64t-101.5 111q-60 -96 -155.5 -151.5t-202.5 -55.5q-112 0 -211 61.5t-160.5 174t-61.5 248.5zM211 473q0 -166 79.5 -267.5t203.5 -101.5 q49 0 96.5 20.5t89 62.5t67 116t25.5 170q0 161 -79.5 252.5t-198.5 91.5q-39 0 -77.5 -11.5t-76 -38t-66 -65t-46 -98t-17.5 -131.5zM942 563h471q-11 69 -34 119.5t-46.5 75.5t-53.5 39.5t-47 17t-36 2.5q-82 0 -155 -67t-99 -187z" />
<glyph unicode="&#x178;" horiz-adv-x="1366" d="M4 1421h215l301 -436q25 -37 60 -89.5t52.5 -78t36 -55t29.5 -49.5q11 20 43.5 70t75 113.5t91 135t96 140t85.5 123.5t63 91l24 35h180l-586 -852v-569h-178v569zM389 1556v183h184v-183h-184zM788 1556v183h185v-183h-185z" />
<glyph unicode="&#x2c6;" d="M193 1042l256 289h124l256 -289h-124l-195 203l-193 -203h-124z" />
<glyph unicode="&#x2dc;" d="M170 1083q3 99 62 161.5t139 62.5q36 0 75 -15.5t68 -34t64.5 -34t64.5 -15.5q39 0 60.5 29t23.5 72h125q-3 -99 -62 -162.5t-139 -63.5q-35 0 -74 15.5t-68 34t-65 34t-65 15.5q-30 0 -54.5 -22.5t-29.5 -76.5h-125z" />
<glyph unicode="&#x2000;" horiz-adv-x="921" />
<glyph unicode="&#x2001;" horiz-adv-x="1843" />
<glyph unicode="&#x2002;" horiz-adv-x="921" />
<glyph unicode="&#x2003;" horiz-adv-x="1843" />
<glyph unicode="&#x2004;" horiz-adv-x="614" />
<glyph unicode="&#x2005;" horiz-adv-x="460" />
<glyph unicode="&#x2006;" horiz-adv-x="307" />
<glyph unicode="&#x2007;" horiz-adv-x="307" />
<glyph unicode="&#x2008;" horiz-adv-x="230" />
<glyph unicode="&#x2009;" horiz-adv-x="368" />
<glyph unicode="&#x200a;" horiz-adv-x="102" />
<glyph unicode="&#x2010;" horiz-adv-x="681" d="M20 395v121h545v-121h-545z" />
<glyph unicode="&#x2011;" horiz-adv-x="681" d="M20 395v121h545v-121h-545z" />
<glyph unicode="&#x2012;" horiz-adv-x="681" d="M20 395v121h545v-121h-545z" />
<glyph unicode="&#x2013;" d="M0 500v125h1024v-125h-1024z" />
<glyph unicode="&#x2014;" horiz-adv-x="2048" d="M0 500v125h2046v-125h-2046z" />
<glyph unicode="&#x2018;" horiz-adv-x="569" d="M197 1053v141l2 31l84 256h86l-54 -256h54v-172h-172z" />
<glyph unicode="&#x2019;" horiz-adv-x="569" d="M197 1053l53 256h-53v172h172v-144l-2 -28l-84 -256h-86z" />
<glyph unicode="&#x201a;" horiz-adv-x="569" d="M197 0v172h172v-143l-2 -29l-84 -256h-86l53 256h-53z" />
<glyph unicode="&#x201c;" horiz-adv-x="681" d="M39 1053v141l2 31l84 256h86l-53 -256h53v-172h-172zM471 1053v141l2 31l84 256h86l-53 -256h53v-172h-172z" />
<glyph unicode="&#x201d;" horiz-adv-x="681" d="M37 1053l53 256h-53v172h172v-144l-2 -28l-84 -256h-86zM469 1053l53 256h-53v172h172v-144l-2 -28l-84 -256h-86z" />
<glyph unicode="&#x201e;" horiz-adv-x="681" d="M37 0v172h172v-143l-2 -29l-84 -256h-86l53 256h-53zM469 0v172h172v-143l-2 -29l-84 -256h-86l53 256h-53z" />
<glyph unicode="&#x2022;" d="M113 512q0 161 114 279t283 118q168 0 282.5 -117.5t114.5 -279.5q0 -161 -114 -279t-283 -118q-168 0 -282.5 117.5t-114.5 279.5z" />
<glyph unicode="&#x2026;" horiz-adv-x="1708" d="M197 0v172h172v-172h-172zM766 0v172h172v-172h-172zM1335 0v172h172v-172h-172z" />
<glyph unicode="&#x202f;" horiz-adv-x="368" />
<glyph unicode="&#x2039;" horiz-adv-x="909" d="M225 451l330 448h125l-295 -450l295 -449h-125z" />
<glyph unicode="&#x203a;" horiz-adv-x="909" d="M225 0l295 451l-295 448h125l330 -450l-330 -449h-125z" />
<glyph unicode="&#x205f;" horiz-adv-x="460" />
<glyph unicode="&#x20ac;" horiz-adv-x="1478" d="M0 524l63 148h156v78h-219l63 147h181q24 97 82 188.5t143 167.5t205 122t254 46q268 0 479 -190l-64 -148h-2q-81 85 -188 132t-225 47q-62 0 -128.5 -16.5t-141.5 -54.5t-141.5 -114t-106.5 -180h850l-64 -147h-817v-78h782l-65 -148h-686q64 -166 203 -265t319 -99 q83 0 161 19t132 46t95 54t63.5 46t23.5 19v-160q-210 -184 -479 -184q-103 0 -200 28.5t-174 78t-140.5 116t-106 143.5t-63.5 158h-244z" />
<glyph unicode="&#x2122;" horiz-adv-x="1366" d="M2 1466v15q12 55 88 55h490q52 0 75 -18q25 -17 25 -43q0 -25 -20.5 -45.5t-71.5 -20.5q-5 0 -15.5 1t-15.5 1h-137v-610q0 -42 -23.5 -60t-56.5 -18q-24 0 -40.5 8t-24 17t-11.5 25.5t-4 21.5v18v598h-166q-26 0 -45 5.5t-27 13.5t-12.5 15.5t-5.5 14t-2 6.5zM717 803 v698q2 36 18 58t62 22q27 0 63 -22l12 -21l150 -336h2l152 336l12 21q31 22 61 22q25 0 42 -8t24.5 -19.5t11 -23t3.5 -20.5l1 -9v-698q-2 -17 -5.5 -28.5t-11.5 -24.5t-24.5 -20t-40.5 -7q-30 0 -61 22q-1 2 -4 7t-4 6t-3 5.5t-2.5 6t-2 5.5t-1.5 7t-1 8t-1 10.5v12.5v334 q-10 -23 -23 -53t-19.5 -44.5t-15.5 -33.5t-14.5 -27.5t-14 -18.5t-16.5 -13.5t-18.5 -6t-23.5 -2.5q-12 0 -21 1t-17.5 6t-14.5 9t-13.5 14.5t-12.5 19t-13.5 27t-14.5 32.5t-18 41.5t-22 48.5v-332q0 -29 -3 -40.5t-14 -29.5q-36 -22 -63 -22q-39 0 -59 20t-20 40z" />
<glyph unicode="&#xe000;" horiz-adv-x="911" d="M0 0v911h911v-911h-911z" />
</font>
</defs>
</svg>
