<?xml version="1.0" standalone="no"?>
<!DOCTYPE svg PUBLIC "-//W3C//DTD SVG 1.1//EN" "http://www.w3.org/Graphics/SVG/1.1/DTD/svg11.dtd" >
<svg xmlns="http://www.w3.org/2000/svg">
<metadata></metadata>
<defs>
<font id="cmu_sans_serifoblique" horiz-adv-x="1024" >
<font-face units-per-em="2048" ascent="1638" descent="-410" />
<missing-glyph horiz-adv-x="681" />
<glyph unicode="&#xfb01;" horiz-adv-x="1097" d="M205 0l168 791h-150l25 120h151q5 22 19.5 95.5t19.5 95t20.5 76t29.5 81.5t38.5 65.5t55.5 70.5q103 106 217 106q31 0 53 -4t40 -10.5t23 -7.5l-30 -140q-56 31 -89 35q-11 2 -24 2q-84 0 -137 -100q-13 -25 -23.5 -67t-29 -134t-35.5 -164h248l-27 -120h-242 l-168 -791h-153zM774 0l195 911h153l-194 -911h-154zM1042 1309l37 172h170l-35 -172h-172z" />
<glyph unicode="&#xfb02;" horiz-adv-x="1097" d="M205 0l168 791h-150l25 120h151q5 22 19.5 95.5t19.5 95t20.5 76t29.5 81.5t38.5 65.5t55.5 70.5q103 106 217 106q31 0 53 -4t40 -10.5t23 -7.5l-30 -138q-64 35 -113 35q-44 0 -80 -29.5t-59 -72.5q-13 -25 -23.5 -69t-28 -133.5t-34.5 -160.5h248l-27 -120h-242 l-168 -791h-153zM774 0l313 1479h156l-315 -1479h-154z" />
<glyph unicode="&#xfb03;" horiz-adv-x="1667" d="M205 0l168 791h-150l25 120h151q8 36 19 91.5t15.5 76t11.5 50.5t12 46.5t12 32.5q49 131 148.5 212t207.5 81h2q67 0 140 -22l-31 -138q-30 14 -44.5 20t-37.5 10.5t-51 4.5q-60 0 -105 -34t-69 -80q-12 -26 -56 -232q-16 -73 -26 -119h248l-27 -120h-242l-168 -791 h-153zM774 0l221 1047q26 127 54 192q19 45 47.5 88t68 84t92.5 65.5t111 24.5q55 0 117 -20l-31 -142q-61 37 -111 37q-87 0 -141 -102q-12 -23 -25.5 -80.5t-60.5 -282.5h246l-25 -120h-241l-168 -791h-154zM1341 0l195 911h154l-195 -911h-154zM1612 1309l37 172h170 l-35 -172h-172z" />
<glyph unicode="&#xfb04;" horiz-adv-x="1667" d="M205 0l168 791h-150l25 120h151q8 36 19 91.5t15.5 76t11.5 50.5t12 46.5t12 32.5q49 131 148.5 212t207.5 81h2q67 0 140 -22l-31 -138q-30 14 -44.5 20t-38 10.5t-52.5 4.5q-59 0 -103.5 -34t-68.5 -80q-12 -26 -56 -232q-16 -73 -26 -119h248l-27 -120h-242l-168 -791 h-153zM774 0l221 1047q28 131 52 190q19 45 48 88.5t69 84.5t93.5 66t110.5 25q26 0 47 -3.5t44 -10.5t26 -8l-31 -138q-64 35 -113 35q-44 0 -80 -29.5t-59 -72.5q-12 -23 -25.5 -80.5t-60.5 -282.5h246l-25 -120h-241l-168 -791h-154zM1343 0l314 1479h155l-315 -1479 h-154z" />
<glyph horiz-adv-x="0" />
<glyph unicode="&#xd;" horiz-adv-x="2048" />
<glyph unicode=" "  horiz-adv-x="681" />
<glyph unicode="&#x09;" horiz-adv-x="681" />
<glyph unicode="&#xa0;" horiz-adv-x="681" />
<glyph unicode="!" horiz-adv-x="653" d="M240 0l36 172h170l-34 -172h-172zM332 358l221 1121h172l-256 -1121h-137z" />
<glyph unicode="&#x22;" d="M434 743l139 738h160l-174 -738h-125zM778 741l140 738h159l-174 -738h-125z" />
<glyph unicode="#" horiz-adv-x="1705" d="M180 307q0 14 4 26t23 24t51 12h344l129 286h-385q-80 0 -80 62q0 63 82 63h443l288 627q21 47 38 60q15 12 36 12q27 0 44 -19t17 -45q0 -6 -1 -12t-2.5 -11.5t-6 -15.5t-8.5 -18.5t-13 -27t-16 -34.5l-237 -516h311l287 627q8 18 12 25.5t13.5 21t22 19.5t28.5 6 q27 0 43 -19t16 -45q0 -6 -1 -12t-2.5 -11.5t-6 -15.5t-8.5 -18.5t-13 -27t-16 -34.5l-238 -516h267q29 0 43 -2q20 -4 37.5 -20t17.5 -41q0 -23 -16.5 -42.5t-61.5 -19.5h-344l-131 -286h385q80 0 80 -62q0 -63 -82 -63h-443l-288 -629q-7 -17 -11 -23.5t-13 -20.5 t-21.5 -20t-28.5 -6q-29 0 -44 17.5t-15 35.5v17v1q1 12 55 129q10 22 36 79q103 224 193 420h-313l-287 -629q-9 -20 -15.5 -31.5t-22.5 -25t-36 -13.5q-29 0 -44.5 17.5t-16.5 35.5v17q3 14 81 185q121 262 204 444h-267q-28 0 -40 2q-27 4 -41.5 22t-14.5 39zM741 369 h310l131 286h-312z" />
<glyph unicode="$" d="M117 125l53 141q73 -72 134 -104.5t171 -48.5l121 577q-52 12 -94 34t-68.5 46t-46 55t-29 55.5t-15 53.5t-6.5 43.5t-1 30.5q0 75 29.5 153t82.5 147t136.5 120t183.5 69l8 39h121l-8 -37q86 -8 147 -33.5t131 -83.5l-53 -135q-57 53 -112 82.5t-142 36.5l-108 -518 q25 -6 46.5 -13.5t63.5 -32.5t71 -57.5t52 -93t23 -135.5q0 -123 -60.5 -240t-162.5 -195.5t-218 -96.5l-10 -41h-119l6 37q-190 19 -327 145zM496 1069q0 -63 33 -115t108 -73l102 481h-2q-114 -34 -177.5 -117t-63.5 -176zM596 119q68 20 120 62t79 92t40 96t13 86 q0 152 -137 204z" />
<glyph unicode="%" horiz-adv-x="1705" d="M342 1024q0 124 55.5 243.5t145 194t182.5 74.5q95 0 153 -80t58 -205q0 -121 -53.5 -240t-142 -195.5t-183.5 -76.5q-96 0 -155.5 80t-59.5 205zM358 -14q0 7 3.5 15t7 13t10 14t8.5 11l1198 1468q23 27 41 27q17 0 29 -12t12 -27q0 -8 -5 -17.5t-10 -16.5t-14 -17 t-12 -14l-1190 -1463q-18 -22 -39 -22q-17 0 -28 12.5t-11 28.5zM492 1012q0 -72 26 -109t66 -37q49 0 98 55.5t80 143.5t31 176q0 70 -24 119t-71 49q-48 0 -89.5 -44.5t-65.5 -109t-37.5 -129.5t-13.5 -114zM1083 229q0 124 55.5 243t145 193t182.5 74q94 0 152.5 -79 t58.5 -203t-54.5 -244t-143 -195t-181.5 -75q-96 0 -155.5 80t-59.5 206zM1235 227q0 -71 22.5 -114t67.5 -43q51 0 100.5 59t79 146.5t29.5 170.5q0 73 -25.5 120.5t-68.5 47.5q-55 0 -104 -64t-75 -152.5t-26 -170.5z" />
<glyph unicode="&#x26;" horiz-adv-x="1552" d="M143 238q0 87 40.5 163t95.5 127q31 29 280 220q-12 80 -12 159q0 175 55 318t145 221t193 78q92 0 147.5 -67.5t55.5 -178.5q0 -50 -10 -90.5t-40.5 -96.5t-96.5 -125t-169 -153l-100 -78q23 -106 94.5 -253t130.5 -226q43 35 71 58.5t86.5 81.5t103.5 114t100 141.5 t98 177.5l123 -32q-99 -207 -225.5 -359t-280.5 -272q2 -2 18 -14.5t24 -18t27 -16.5t35.5 -16.5t41 -10t51.5 -4.5q49 0 92.5 6t93 18t53.5 13l-28 -137q-129 -31 -248 -31h-4q-170 0 -293 121q-112 -56 -214.5 -88.5t-223.5 -32.5q-143 0 -226.5 81.5t-83.5 201.5z M309 268q0 -31 8 -60.5t26 -58t53.5 -46t84.5 -17.5q160 0 328 84q-29 43 -63 98t-85 161.5t-75 195.5q-13 -10 -53 -38.5t-57 -42t-49.5 -41.5t-48.5 -49.5t-34.5 -52t-26.5 -63.5t-8 -70zM694 979q0 -27 8 -119q81 60 139.5 115.5t88.5 95t47 80t20.5 65t3.5 54.5 q0 129 -90 129q-28 0 -56 -11t-57.5 -41t-52 -75.5t-37 -121t-14.5 -171.5z" />
<glyph unicode="'" horiz-adv-x="569" d="M379 741l139 738h160l-174 -738h-125z" />
<glyph unicode="(" horiz-adv-x="796" d="M227 127q0 160 33 335t97.5 352.5t173.5 346t249 293.5q25 23 101 82h125q-428 -340 -576 -1024q-47 -222 -47 -416q0 -121 19 -226.5t46.5 -171.5t55 -113t47.5 -71.5t20 -25.5h-127q-30 34 -51 61.5t-55.5 88t-56 123.5t-38 160t-16.5 206z" />
<glyph unicode=")" horiz-adv-x="796" d="M4 -512q133 107 241 252.5t178 296t117 314t67 306.5t20 273q0 118 -18.5 221t-45.5 169.5t-53.5 112.5t-47.5 73t-22 30h125q32 -37 49.5 -60t54 -85.5t57.5 -124t38.5 -161t17.5 -210.5q0 -174 -37.5 -360t-109.5 -370t-191 -353.5t-270 -290.5q-6 -4 -17 -12.5 t-16.5 -11.5t-16 -6t-22.5 -3h-98z" />
<glyph unicode="*" d="M317 874q0 16 6 29.5t12.5 22t23 19t26.5 15.5t35.5 16.5t36.5 16.5l178 88q-43 26 -108 65q-90 54 -109 69.5t-19 39.5q0 32 27.5 59t58.5 27q12 0 22.5 -4.5t29 -18t36.5 -29t56.5 -47t77.5 -62.5q46 293 49 303q9 20 31 36.5t49 16.5q20 0 38.5 -13.5t18.5 -43.5 q0 -11 -78 -301q197 122 231.5 141.5t55.5 21.5q59 -5 59 -55q0 -19 -7 -34.5t-22 -26.5t-24.5 -16t-26.5 -13l-237 -115v-2q43 -26 106 -64q96 -57 112.5 -71t16.5 -39q0 -36 -28.5 -61t-57.5 -25q-12 0 -22.5 4t-27.5 17.5t-35 29t-56.5 48t-79.5 65.5q-10 -63 -23 -151 q-22 -142 -28 -156q-11 -22 -32 -35.5t-46 -13.5q-26 0 -41.5 15.5t-15.5 35.5q0 5 1 12t4 20t6.5 26.5t10.5 39.5t14 51t19 69.5t23 86.5q-244 -150 -260 -157q-12 -6 -29 -7q-23 4 -37 15.5t-17.5 21t-3.5 18.5z" />
<glyph unicode="+" horiz-adv-x="1593" d="M223 512q0 63 86 63h545l115 543q0 1 1.5 8t3 11t4 12t5.5 13t8.5 12t11.5 10.5t14.5 6.5t18.5 3q24 0 43 -18t19 -46q0 -2 -6 -38l-111 -517h530q41 0 57.5 -21.5t16.5 -41.5q0 -24 -15 -39.5t-32 -19.5q-6 -2 -41 -2h-543l-114 -545q0 -1 -1.5 -7t-2.5 -9.5l-3 -10.5 t-5 -11.5t-6.5 -11t-8.5 -10.5t-11 -8t-13.5 -6t-16.5 -2q-24 0 -42.5 19t-18.5 47q0 11 114 555h-516q-2 0 -7.5 -1t-8.5 -1q-38 0 -54 20t-16 43z" />
<glyph unicode="," horiz-adv-x="569" d="M143 -256l107 256h-51l37 172h170l-29 -141l-8 -31l-140 -256h-86z" />
<glyph unicode="-" horiz-adv-x="681" d="M104 395l27 121h545l-27 -121h-545z" />
<glyph unicode="." horiz-adv-x="569" d="M197 0l36 172h170l-34 -172h-172z" />
<glyph unicode="/" d="M18 -449q0 12 5 24.5t15 30t13 23.5l1039 1852q30 53 69 53q24 0 43 -17.5t19 -41.5q0 -10 -4 -21.5t-7.5 -18.5t-10 -18t-7.5 -12l-1040 -1856q0 -1 -3.5 -6.5t-5.5 -9t-6 -10t-8 -10.5t-9.5 -9t-11 -8.5t-13 -5.5t-15.5 -2q-25 0 -43.5 18t-18.5 45z" />
<glyph unicode="0" d="M184 348q0 44 7 113t26 169t48 201t78.5 203t111.5 179.5t153 126.5t197 49q43 0 82 -8.5t83 -35t76 -68.5t53 -116t21 -170q0 -60 -13.5 -161.5t-43.5 -238t-92 -273t-144 -220.5q-48 -49 -102.5 -81t-103 -44t-73 -15t-46.5 -3q-43 0 -82.5 8.5t-84 34t-76.5 67 t-53.5 114.5t-21.5 169zM342 348q0 -81 18 -137.5t48 -83t59 -37t61 -10.5q23 0 50 7.5t63.5 25.5t75.5 58.5t71 98.5q72 130 126.5 372t54.5 359v3q0 78 -18.5 132.5t-49.5 80t-60.5 35.5t-62.5 10q-78 0 -148 -51.5t-120 -143.5q-65 -118 -116.5 -354t-51.5 -365z" />
<glyph unicode="1" d="M195 0l26 121h256l225 1061q-126 -47 -278 -47l27 118q253 0 417 136h41l-268 -1268h254l-25 -121h-675z" />
<glyph unicode="2" d="M102 0q5 23 10.5 48t7 35t5 23t5 17t7 11t9.5 10.5t14 11.5l340 278q17 13 61.5 46.5t73.5 56t75 62t76.5 71t66.5 76t57.5 85.5t36 90.5t14.5 98.5q0 108 -65.5 171.5t-172.5 63.5q-55 0 -104 -20t-82 -48t-63.5 -68.5t-46.5 -70.5t-33 -65.5t-21 -42.5l-64 113 q10 28 31.5 65t63.5 86.5t93 89t125.5 67.5t155.5 28q164 0 259.5 -92t95.5 -248q0 -55 -13.5 -107.5t-27 -90t-55 -87t-60.5 -72.5t-83.5 -75.5t-84 -66.5t-99.5 -73q-3 -3 -5 -4q-95 -70 -426 -330l673 2l-30 -145h-820z" />
<glyph unicode="3" d="M121 164l49 127q16 -29 38.5 -61t29.5 -37q41 -34 70.5 -54t86.5 -38.5t125 -18.5q70 0 132 33.5t102.5 87t64 119t23.5 129.5q0 55 -17 96.5t-40.5 62.5t-55.5 33.5t-54.5 15.5t-45.5 3h-148l27 126q23 2 59.5 4t49 3t34.5 3.5t33 6t26.5 9t32.5 13.5q65 33 113 88.5 t68 108t20 96.5q0 67 -45.5 107.5t-122.5 40.5q-65 0 -126.5 -22t-103 -54t-73 -63.5t-46.5 -53.5l-15 -22l-52 110q61 73 132 122.5t135 69.5t104 27t72 7q134 0 222.5 -71t88.5 -185q0 -28 -7 -62t-28 -81t-53 -91t-89 -91t-130 -83q75 -27 125 -74t71 -99.5t21 -111.5 q0 -84 -42 -171t-112 -156.5t-168.5 -113.5t-203.5 -44q-248 0 -377 209z" />
<glyph unicode="4" d="M131 350q5 22 10.5 47.5t7 34.5t5.5 23t5 16.5t6.5 12t9 13t13.5 15.5l672 829h189l-138 -649l-47 -217h203l-27 -125h-202l-74 -350h-164l74 350h-543zM317 475h396l168 791q-48 -119 -153 -263.5t-411 -527.5z" />
<glyph unicode="5" d="M113 158l92 112q35 -92 111.5 -140t168.5 -48q27 0 58 6t76.5 28t83.5 58t73.5 103t52.5 155q13 84 13 117q0 88 -39.5 144.5t-114.5 56.5q-25 0 -52.5 -6.5t-63.5 -23t-74.5 -51t-71.5 -83.5h-137l162 755h686l-27 -131h-539l-2 -2l-88 -417q61 41 115 62t121 21 q136 0 220.5 -97t84.5 -249q0 -151 -80.5 -284.5t-210.5 -211t-272 -77.5q-114 0 -208 54.5t-138 148.5z" />
<glyph unicode="6" d="M190 369q0 105 28 256t89 280q28 60 67 121t98.5 128t126 117.5t153 84t176.5 33.5q108 0 211 -41l-27 -123q-118 43 -203 43q-153 0 -283 -125t-202 -365q182 168 383 168q73 0 123 -34.5t86 -123.5q37 -91 37 -176q0 -71 -20.5 -161.5t-53.5 -159.5 q-45 -93 -132.5 -178t-172.5 -123q-82 -35 -170 -35q-42 0 -81 9.5t-83 37.5t-76 72t-53 120t-21 175zM350 342q0 -65 12 -113.5t30.5 -75.5t44 -44t48 -22t47.5 -5q61 0 114 26.5t88.5 67.5t55 72t31.5 59q21 44 42.5 136.5t21.5 154.5q0 29 -5 58t-18 59.5t-33 53 t-54 37.5t-77 15q-44 0 -90 -15.5t-92.5 -52.5t-83 -90.5t-59.5 -136.5t-23 -184z" />
<glyph unicode="7" d="M307 -23q39 189 118 372.5t181.5 337t214.5 280.5t234 231h-715l31 145h852q-5 -25 -13 -61q-10 -53 -16 -65.5t-31 -37.5l-3.5 -3.5l-4 -4l-4.5 -4.5q-527 -527 -672 -1190h-172z" />
<glyph unicode="8" d="M154 289q0 138 95 258.5t273 177.5q-79 26 -138.5 89.5t-59.5 158.5q0 71 38 145t101.5 134t154 98.5t187.5 38.5q142 0 235 -82t93 -213q0 -116 -83 -215t-245 -154q90 -30 153.5 -103t63.5 -182q0 -84 -42 -171t-111 -156t-167 -113.5t-200 -44.5q-151 0 -249.5 92.5 t-98.5 241.5zM319 289q0 -99 58 -153t151 -54q97 0 174.5 56.5t116.5 140.5t39 174q0 96 -56.5 152.5t-152.5 56.5q-137 0 -233.5 -111t-96.5 -262zM467 973q0 -85 57 -135t152 -50q132 0 222.5 87.5t90.5 207.5q0 87 -57 136t-152 49q-96 0 -169.5 -46t-108.5 -112 t-35 -137z" />
<glyph unicode="9" d="M158 49l86 111q3 -2 16 -13t17.5 -14.5t17.5 -12.5t21 -12.5t22.5 -10t28 -9t31.5 -4.5t38 -2q139 0 262.5 129t186.5 354q-59 -57 -122.5 -95t-117.5 -52.5t-84.5 -18.5t-58.5 -4q-76 0 -119 31.5t-74 87.5q-53 104 -53 217q0 143 51.5 269.5t132.5 209.5t178.5 131 t192.5 48q106 0 176.5 -56t100.5 -145.5t30 -208.5q0 -98 -23.5 -229t-60.5 -230q-88 -246 -262 -405.5t-360 -159.5q-82 0 -140.5 21.5t-113.5 72.5zM422 745q0 -26 4 -52.5t16.5 -58.5t32 -56t54 -40t79.5 -16t91 16t94 53.5t84.5 92.5t60 141t23.5 191q0 76 -17 129.5 t-45 78t-55 34.5t-58 10q-106 0 -188 -78q-65 -60 -99 -127t-57 -170q-20 -98 -20 -148z" />
<glyph unicode=":" horiz-adv-x="569" d="M197 0l36 172h170l-34 -172h-172zM354 739l37 172h170l-35 -172h-172z" />
<glyph unicode=";" horiz-adv-x="569" d="M143 -256l107 256h-51l37 172h170l-29 -141l-8 -31l-140 -256h-86zM356 739l37 172h170l-35 -172h-172z" />
<glyph unicode="&#x3c;" horiz-adv-x="1593" d="M280.5 507q0.5 7 0.5 9q4 29 16 40t59 32l1190 542q26 13 41 13q26 0 44 -19t18 -43q0 -11 -3 -20t-9 -16t-11.5 -12.5t-14.5 -10.5t-14 -7.5t-14.5 -6t-11.5 -4.5l-1092 -498l871 -492q1 0 6 -3t7 -4.5t7.5 -5t9 -6.5t8.5 -7.5t7.5 -9t5.5 -10t4.5 -12t1.5 -13.5 q0 -25 -18 -43.5t-43 -18.5q-6 0 -10 0.5t-8.5 2t-12 5.5t-17 9t-27.5 15.5t-39 22.5t-55.5 31.5t-72.5 40.5l-764 432q-20 12 -33 22t-18 18.5t-7 14t-1.5 12.5z" />
<glyph unicode="=" horiz-adv-x="1593" d="M180 307q0 21 13 39.5t36 22.5h1235q32 0 51 -12.5t23 -24.5t4 -25q0 -63 -84 -63h-1196q-26 0 -43.5 6.5t-25.5 17.5t-10.5 20t-2.5 19zM266 717q0 63 82 63h1198q26 0 44 -7t25.5 -18t10 -20t2.5 -18q0 -23 -17 -42.5t-59 -19.5h-1210q-25 0 -42 7.5t-23.5 19 t-8.5 19.5t-2 16z" />
<glyph unicode="&#x3e;" horiz-adv-x="1593" d="M160 -57q0 8 1.5 14.5t5 12.5t6.5 10.5t9.5 9.5t10 7.5t11.5 6.5t11.5 6t12 5.5t10.5 4.5l1091 498q-27 14 -76.5 42.5t-62.5 35.5l-731 414l-6 4l-9 4.5t-9.5 6t-10 8t-8.5 9t-8 11t-5 13t-2 15.5q0 25 18.5 43.5t43.5 18.5q17 0 45 -17l960 -542q20 -12 33.5 -22.5 t18 -18t7 -14.5t1.5 -11.5t0 -9.5q-4 -21 -13.5 -33.5t-20 -18.5t-42.5 -20l-1190 -542q-26 -13 -43 -13q-24 0 -41.5 19t-17.5 43z" />
<glyph unicode="?" horiz-adv-x="966" d="M369 0l37 172h169l-34 -172h-172zM410 1386q175 115 370 115q48 0 92 -6.5t88.5 -24.5t77 -45.5t52.5 -73t20 -104.5q0 -63 -20 -121.5t-44.5 -95.5t-59.5 -72t-51 -46.5t-33 -22.5q-1 -1 -2 -1l-1 -1q-54 -43 -97 -89t-72.5 -91.5t-50.5 -84t-35 -83t-21 -70t-15 -64 t-10 -47.5h-137q33 148 47 191q28 87 70 163.5t89 131.5t84 91t76.5 67t44.5 36q76 79 76 195q0 80 -53 111.5t-145 31.5q-93 0 -169.5 -32t-152.5 -87z" />
<glyph unicode="@" horiz-adv-x="1366" d="M250 557q0 122 34.5 242.5t94 223.5t142.5 192.5t177 152t200 98t210 35.5q71 0 129.5 -19t109.5 -62.5t79 -124t28 -193.5q0 -102 -29 -266q-26 -139 -63 -232t-121 -184q-62 -69 -145.5 -115.5t-171.5 -46.5q-129 0 -210 100t-81 252q0 115 43 228t112 197t159.5 136 t180.5 52q86 0 164 -56q-27 209 -213 209q-116 0 -237 -65.5t-217 -172.5t-157.5 -255t-61.5 -301q0 -209 114.5 -343.5t298.5 -134.5q61 0 123.5 11t100.5 23.5t71.5 25.5t38.5 14q8 2 51 2h82q-95 -88 -226 -145.5t-272 -57.5q-159 0 -283 78.5t-189.5 210t-65.5 291.5z M788 625q0 -58 15 -110.5t53 -92t94 -39.5q80 0 154.5 73t118 182t43.5 216q0 113 -47.5 177.5t-116.5 64.5q-74 0 -147 -67t-120 -177.5t-47 -226.5z" />
<glyph unicode="A" horiz-adv-x="1366" d="M55 0l836 1421h182l232 -1421h-189l-67 418h-594l-246 -418h-154zM520 532h510q-96 610 -96 723v23q-30 -70 -110 -214t-183.5 -322.5t-120.5 -209.5z" />
<glyph unicode="B" horiz-adv-x="1366" d="M197 0l301 1421h458q104 0 187 -20t134 -51.5t85 -73t47.5 -81t13.5 -79.5q0 -118 -109.5 -221.5t-307.5 -151.5q91 -15 158.5 -50t103 -79.5t51.5 -87.5t16 -86q0 -69 -38 -141t-104.5 -133t-165 -105t-210.5 -57q-39 -4 -119 -4h-501zM393 115h289q97 0 179.5 20.5 t137.5 53t94 74t56.5 83t17.5 80.5q0 33 -10 64.5t-38.5 66t-72 60.5t-117 42.5t-167.5 16.5h-248zM539 803h229q121 0 219 28.5t155.5 73.5t87.5 94t30 95q0 36 -18.5 70.5t-58.5 68t-117.5 54t-182.5 20.5h-236z" />
<glyph unicode="C" horiz-adv-x="1308" d="M266 530q0 136 43.5 273.5t124 255t184.5 209.5t234 145t264 53q106 0 188.5 -16.5t174.5 -52.5l-66 -170q-76 56 -147 82t-181 26q-125 0 -243.5 -72t-203 -185.5t-136 -255.5t-51.5 -279q0 -68 13.5 -133t43.5 -124t72.5 -103.5t105 -70.5t137.5 -26q70 0 121.5 6 t103.5 25.5t77 32t90 49.5q15 8 22 12l-18 -143q-128 -66 -209.5 -89.5t-212.5 -23.5q-102 0 -188.5 30.5t-149 83.5t-106.5 125.5t-65.5 157.5t-21.5 178z" />
<glyph unicode="D" horiz-adv-x="1478" d="M195 0l270 1270l31 151h514q109 0 194.5 -27t163.5 -100q85 -82 124.5 -192.5t39.5 -231.5q0 -89 -27 -200q-41 -170 -146.5 -316.5t-254.5 -240.5q-142 -89 -291 -109q-37 -4 -113 -4h-505zM397 115h314q171 0 319.5 103t236 279t87.5 380q0 58 -10.5 114t-39.5 114.5 t-73 102t-117 71.5t-166 28h-297z" />
<glyph unicode="E" horiz-adv-x="1222" d="M193 0l301 1415h915l-29 -135l-731 4l-104 -485h676l-25 -125h-676l-112 -531l759 4l-30 -147h-944z" />
<glyph unicode="F" horiz-adv-x="1165" d="M193 0l301 1415h886l-28 -135l-703 4l-108 -514h616l-27 -125h-618l-135 -645h-184z" />
<glyph unicode="G" horiz-adv-x="1366" d="M266 530q0 171 69.5 341t183.5 301t271.5 212.5t323.5 81.5q111 0 199 -22t186 -76l-65 -170q-2 2 -18 16t-21.5 18.5t-22.5 17.5t-26.5 18.5t-29.5 17t-35.5 16.5t-39 12.5t-46 11t-51 6.5t-59.5 3q-122 0 -240 -70t-203.5 -181.5t-138 -255.5t-52.5 -287 q0 -86 22.5 -165t66 -145t116.5 -105.5t165 -39.5q136 0 273 43l75 356h-270l27 127h430l-117 -557q-100 -48 -221.5 -74t-222.5 -26q-125 0 -226.5 46t-167 125.5t-100.5 183t-35 220.5z" />
<glyph unicode="H" horiz-adv-x="1449" d="M193 0l301 1421h184l-131 -618h696l131 618h185l-302 -1421h-184l144 676h-697l-143 -676h-184z" />
<glyph unicode="I" horiz-adv-x="569" d="M193 0l301 1421h184l-301 -1421h-184z" />
<glyph unicode="J" horiz-adv-x="966" d="M92 41l62 154q14 -17 23 -27t32 -28.5t46 -29t59 -19.5t77 -9q27 0 55.5 5t69.5 18.5t78 46t61 79.5q9 17 16 38t10 34.5t9 42t8 39.5l220 1036h178l-224 -1052l-24 -111q-42 -136 -151.5 -219.5t-270.5 -83.5q-180 0 -334 86z" />
<glyph unicode="K" horiz-adv-x="1421" d="M195 0l301 1421h176l-160 -759l903 759h193l-670 -561l395 -860h-192l-340 743l-332 -276l-98 -467h-176z" />
<glyph unicode="L" horiz-adv-x="1110" d="M193 0l301 1421h184l-275 -1288l648 2l-29 -135h-829z" />
<glyph unicode="M" horiz-adv-x="1792" d="M205 0l303 1421h233l140 -821q57 -371 55 -412h2q11 31 61 121t103 182t61 107l492 823h235l-303 -1421h-160l259 1212l12 66q-14 -37 -37 -76l-195 -336l-489 -821h-148l-139 797q-7 50 -21 142t-19 128q-6 38 -10 86q-4 40 -3 68v12l-272 -1278h-160z" />
<glyph unicode="N" horiz-adv-x="1449" d="M195 0l301 1421h258l344 -1181l24 -97l271 1278h159l-301 -1421h-256l-272 926q-82 293 -98 352l-271 -1278h-159z" />
<glyph unicode="O" horiz-adv-x="1507" d="M244 522q0 173 69.5 345.5t182 303.5t264 213t305.5 82q220 0 359 -161t139 -412q0 -177 -70.5 -349.5t-183.5 -301t-263.5 -208t-302.5 -79.5q-222 0 -360.5 160t-138.5 407zM432 537q0 -201 93.5 -325t246.5 -124q95 0 189 49t168.5 132.5t133 188t90 222t31.5 227.5 q0 197 -97.5 312.5t-250.5 115.5q-111 0 -220.5 -63.5t-194 -169t-137 -255t-52.5 -310.5z" />
<glyph unicode="P" horiz-adv-x="1308" d="M195 0l301 1421h489q85 0 152 -14t129 -55q147 -97 149 -271q0 -65 -26 -132.5t-76 -129.5t-116.5 -111.5t-155 -80.5t-183.5 -35h-354l-125 -592h-184zM522 711h271q97 0 176.5 23.5t130 61t84.5 86t48.5 95.5t14.5 92q0 32 -7 62t-28.5 63t-55.5 57t-93.5 40t-136.5 16 h-275z" />
<glyph unicode="Q" horiz-adv-x="1507" d="M244 516q0 147 46 291t127 261t184.5 207.5t224 140.5t239.5 50q147 0 261 -74.5t175.5 -205t61.5 -293.5q0 -243 -125.5 -468.5t-331.5 -354.5l174 -326h-213l-121 246q-100 -35 -203 -35q-147 0 -261.5 73.5t-176 201t-61.5 286.5zM420 526q0 -197 96.5 -318.5 t253.5 -121.5q27 0 50.5 3.5t44 8.5t26.5 6l-146 295h185l114 -215q101 68 179.5 184.5t120.5 253.5t42 271q0 197 -97 319.5t-253 122.5q-159 0 -303 -121t-228.5 -308t-84.5 -380z" />
<glyph unicode="R" horiz-adv-x="1323" d="M195 0l301 1421h469q105 0 188.5 -21.5t135 -54.5t85.5 -77t47 -86t13 -84q0 -134 -116 -253.5t-319 -176.5l265 -668h-185l-245 647h-324l-137 -647h-178zM537 774h272q99 0 179 20.5t130.5 53t85 74.5t48.5 82.5t14 80.5q0 98 -76 155.5t-205 66.5h-334z" />
<glyph unicode="S" horiz-adv-x="1136" d="M111 96l67 170q81 -85 185 -127.5t217 -42.5q77 0 146 29.5t115.5 76.5t73.5 104t27 112q0 68 -36 118t-89 74q-34 16 -137.5 41t-142.5 41q-34 15 -65.5 37t-65.5 57.5t-55 88.5t-21 116q0 80 41.5 164t112.5 153.5t177 113.5t224 44q108 0 187 -21.5t169 -76.5 l-65 -170q-57 53 -86 72q-94 59 -234 59q-80 0 -149 -27.5t-112.5 -70.5t-68 -92t-24.5 -95q0 -50 21 -87.5t53 -58.5t77.5 -38.5t87 -26t90 -21.5t78.5 -26q86 -38 145.5 -118.5t59.5 -194.5q0 -95 -45 -189t-120 -166.5t-179.5 -117.5t-216.5 -45q-244 0 -442 141z" />
<glyph unicode="T" horiz-adv-x="1392" d="M344 1276l29 135h1245l-29 -135l-528 2l-273 -1278h-184l273 1278z" />
<glyph unicode="U" horiz-adv-x="1406" d="M281 367q0 21 0.5 33t1.5 23.5t5.5 33t8.5 41t14.5 69t20.5 97.5l162 757h182l-178 -841q-35 -162 -35 -228q0 -129 71.5 -205.5t188.5 -76.5q130 0 246.5 92.5t167.5 251.5q7 24 17.5 71.5t12.5 53.5l187 882h159l-188 -889q-21 -101 -35 -139q-43 -116 -130 -215 t-210 -161t-252 -62q-182 2 -299.5 115t-117.5 297z" />
<glyph unicode="V" horiz-adv-x="1366" d="M330 1421h190l129 -721q3 -21 10 -60q58 -353 63 -411q0 -5 1 -15q3 -39 6 -71q11 34 62 125.5t110 191.5t72 124l504 837h159l-860 -1421h-190z" />
<glyph unicode="W" horiz-adv-x="1933" d="M330 1421h178l59 -784q12 -212 17 -414l-4 -78q15 55 59 148l98 209l457 919h166q53 -667 67 -909q11 -209 11 -333v-36q77 199 221 484l399 794h148l-719 -1421h-178q-80 940 -80 1198l2 78l-29 -76l-166 -348l-426 -852h-166z" />
<glyph unicode="X" horiz-adv-x="1366" d="M29 0l708 748v4l-63 108l-316 561h215l72 -135l174 -332l35 -67l70 74l430 460h198l-483 -510l-154 -163l70 -123l350 -625h-215l-321 627l-78 -86l-496 -541h-196z" />
<glyph unicode="Y" horiz-adv-x="1366" d="M307 1421h215l221 -467q14 -32 41.5 -89.5t43.5 -93.5t22 -58l108 127l521 581h180l-735 -817q-23 -25 -29 -34t-10 -31l-115 -539h-178l115 541q4 20 4 22q0 9 -15 39z" />
<glyph unicode="Z" horiz-adv-x="1251" d="M113 0q9 70 26 94q6 9 27 35l1012 1165l-762 -2l26 129h996l-11 -49q-7 -31 -26 -57l-1024 -1182l799 2l-29 -135h-1034z" />
<glyph unicode="[" horiz-adv-x="591" d="M96 -512l434 2048h342l-28 -125h-185l-380 -1798h184l-27 -125h-340z" />
<glyph unicode="\" d="M428 1450v20q0 28 18.5 46t42.5 18q13 0 23.5 -4t17.5 -11.5t11.5 -15t7.5 -17.5t4.5 -16.5t2.5 -13.5l1 -8l254 -1872q0 -4 1 -11.5t1 -10.5q0 -28 -18.5 -46t-42.5 -18q-14 0 -24.5 4t-17.5 11t-12 14.5t-7.5 17.5t-3.5 16.5t-2 14t-1 8.5z" />
<glyph unicode="]" horiz-adv-x="591" d="M-63 -512l26 125h187l380 1798h-184l27 125h340l-437 -2048h-339z" />
<glyph unicode="^" horiz-adv-x="1251" d="M465 911l369 379h129l206 -379h-125l-167 279l-287 -279h-125z" />
<glyph unicode="_" horiz-adv-x="1593" d="M74 -469q0 43 55 43h1122q16 0 26 -1t21.5 -5t17 -13t5.5 -24q0 -39 -59 -39h-1131q-57 0 -57 39z" />
<glyph unicode="`" d="M477 1311h160l217 -267h-127z" />
<glyph unicode="a" horiz-adv-x="983" d="M133 174q0 82 49 146.5t166 111.5q183 70 418 70q27 137 27 153q0 67 -33.5 116.5t-106.5 49.5q-51 0 -100 -9t-87 -23.5t-64.5 -27.5t-51 -27.5t-28.5 -16.5l16 137q86 44 165 67t175 23q72 0 127.5 -24t86.5 -64t46.5 -85.5t15.5 -94.5q0 -24 -2.5 -42.5t-7.5 -40 t-6 -30.5l-119 -563h-155l14 72q-159 -95 -363 -95q-42 0 -74.5 13t-52.5 33.5t-32.5 47.5t-17.5 52.5t-5 50.5zM287 213q0 -54 48.5 -82.5t121.5 -28.5q63 0 125 22.5t96 61.5q10 12 17 24t13 32.5t9 34.5t10.5 53t13.5 65q-30 0 -66.5 -2.5t-91.5 -8.5t-104 -19t-94 -32 t-71.5 -50t-26.5 -70z" />
<glyph unicode="b" horiz-adv-x="1058" d="M166 0l313 1479h156l-141 -666q166 119 356 119q116 0 181 -95t65 -239q0 -157 -71 -301.5t-187 -232t-242 -87.5q-145 0 -250 117l-20 -94h-160zM379 238q0 -9 8 -28t25 -44.5t52.5 -43.5t82.5 -18q106 0 195 64.5t139.5 171t50.5 229.5q0 67 -21 116.5t-55 74.5 t-68.5 36t-70.5 11q-81 0 -152 -43t-90 -78q-7 -12 -51.5 -223t-44.5 -225z" />
<glyph unicode="c" horiz-adv-x="909" d="M158 348q0 106 45 214t119.5 192t179.5 137t217 53q108 0 165 -18t138 -72l-51 -135q-76 53 -104 65q-64 29 -169 29q-72 0 -135 -29.5t-106.5 -77.5t-75.5 -108.5t-47 -122.5t-15 -119q0 -108 58 -177.5t164 -69.5q52 0 99 8t87.5 23.5t64.5 26.5t57.5 30.5t37.5 21.5 l-17 -137q-186 -105 -356 -105q-164 0 -260 106t-96 265z" />
<glyph unicode="d" horiz-adv-x="1058" d="M154 317q0 153 68 296.5t179 231t230 87.5q71 0 132 -21.5t87 -40.5t59 -49l140 658h153l-313 -1479h-162l23 106q-167 -129 -332 -129q-54 0 -98.5 20t-75 53.5t-51 78t-30 92t-9.5 96.5zM315 342q0 -65 20.5 -114t54 -74.5t68.5 -37.5t72 -12q82 0 155 51.5t93 94.5 q7 15 30.5 124t43.5 210l20 102q0 35 -46 78t-126 43q-99 0 -187 -59t-143 -167t-55 -239z" />
<glyph unicode="e" horiz-adv-x="909" d="M156 350q0 144 74 282t197.5 225t256.5 87q40 0 77.5 -8.5t76 -30.5t66.5 -56t45.5 -90.5t17.5 -129.5q0 -28 -2.5 -56t-4.5 -41.5t-8.5 -43.5t-7.5 -37h-635q-8 -57 -8 -74q0 -129 68.5 -202t169.5 -73q158 0 335 115l-16 -135q-178 -105 -346 -105q-162 0 -259 106 t-97 267zM344 563h508v27q0 55 -13.5 97.5t-33.5 66t-47.5 38.5t-50.5 20t-48 5q-99 0 -185.5 -75.5t-129.5 -178.5z" />
<glyph unicode="f" horiz-adv-x="624" d="M205 0l168 791h-150l25 120h151q6 29 16 79q28 136 37.5 172.5t32.5 80.5q12 24 29.5 51.5t52.5 66t75 68t99.5 51t124.5 21.5q72 0 158 -22l-31 -138q-3 1 -30 11.5t-37 13t-36 6.5t-54 4q-45 0 -84 -14.5t-64 -36.5t-41 -42.5t-24 -39.5q-2 -5 -4 -10.5t-4.5 -13.5 t-4.5 -16.5t-5.5 -23.5l-7 -30t-9 -41t-10.5 -51t-14 -65.5t-17 -80.5h231l-24 -120h-228l-168 -791h-153z" />
<glyph unicode="g" d="M20 -182q0 71 53 140.5t128 107.5q-25 55 -25 102q0 118 103 225v2q-33 63 -33 133q0 98 55 191.5t150 153t200 59.5t189 -70l-4 8q99 34 173 48t160 14l-4 -129q-62 6 -121 6q-53 0 -155 -8l-12 16q38 -71 38 -149q0 -73 -33 -146t-87.5 -130t-130 -92.5t-154.5 -35.5 q-96 0 -174 62q-22 -33 -31.5 -54t-9.5 -49t8.5 -46t25.5 -25t29 -9t31 -2h164q46 -1 71 -2.5t72 -6.5t75 -13.5t64 -25.5t56 -40t34.5 -58.5t14.5 -80.5q0 -79 -47 -145t-123 -106.5t-165.5 -62.5t-180.5 -22q-170 0 -287 67.5t-117 172.5zM166 -166q0 -60 82 -99.5 t198 -39.5q86 0 164.5 21t130.5 63t52 94q0 25 -11.5 44.5t-28 32t-43.5 21.5t-49 13.5t-55 6.5t-49.5 2.5t-44.5 0.5h-135l-49 -2q-68 -4 -115 -55t-47 -103zM389 532q0 -75 42 -112t104 -37q73 0 129 44.5t82 108t26 130.5q0 68 -38.5 108.5t-106.5 40.5 q-75 0 -131.5 -46.5t-81.5 -109.5t-25 -127z" />
<glyph unicode="h" horiz-adv-x="1058" d="M164 0l313 1479h156l-148 -693q150 146 324 146q227 0 227 -205q0 -45 -16 -131l-127 -596h-160l125 592q10 45 10 80q0 135 -166 135q-45 0 -84.5 -19t-67 -47t-51 -65t-36 -68t-21.5 -61q-9 -29 -26 -111t-44 -211.5t-48 -224.5h-160z" />
<glyph unicode="i" horiz-adv-x="489" d="M166 0l194 911h154l-195 -911h-153zM408 1208l38 183h183l-37 -183h-184z" />
<glyph unicode="j" horiz-adv-x="546" d="M-199 -350l58 125l9 -8q8 -8 15 -13.5t20.5 -14t27.5 -14t33.5 -10t39.5 -4.5q49 0 87.5 16.5t57.5 40t31.5 47t15.5 39.5l3 17l221 1040h153l-204 -966q-2 -8 -7 -33t-7.5 -36t-7.5 -30.5t-11 -34.5t-14 -30q-38 -78 -113 -139.5t-176 -61.5q-123 0 -232 70zM455 1208 l39 183h182l-37 -183h-184z" />
<glyph unicode="k" horiz-adv-x="1001" d="M170 0l313 1479h150l-211 -994l508 426h182l-420 -352l273 -559h-168l-222 459l-200 -168l-62 -291h-143z" />
<glyph unicode="l" horiz-adv-x="489" d="M166 0l313 1479h156l-316 -1479h-153z" />
<glyph unicode="m" horiz-adv-x="1626" d="M164 0l194 922h150l-29 -144q154 154 330 154q208 0 225 -166q86 83 165.5 124.5t178.5 41.5q228 0 228 -205q0 -38 -17 -129l-127 -598h-162l127 594q11 46 11 78q0 135 -166 135q-62 0 -114 -34t-81 -82.5t-49.5 -97t-27.5 -82.5l-7 -34l-100 -477h-160l125 592 q10 45 10 80q0 135 -166 135q-45 0 -84.5 -19t-67 -47t-51 -65t-36 -68t-21.5 -61q-9 -29 -26 -111t-44 -211.5t-48 -224.5h-160z" />
<glyph unicode="n" horiz-adv-x="1058" d="M164 0l194 922h150l-29 -144q154 154 330 154q227 0 227 -205q0 -45 -16 -131l-127 -596h-160l125 592q10 45 10 80q0 135 -166 135q-45 0 -84.5 -19t-67 -47t-51 -65t-36 -68t-21.5 -61q-9 -29 -26 -111t-44 -211.5t-48 -224.5h-160z" />
<glyph unicode="o" d="M145 346q0 145 79 284t211.5 226.5t275.5 87.5q157 0 256.5 -108t99.5 -275q0 -116 -49.5 -225t-128.5 -187t-180.5 -125t-202.5 -47q-160 0 -260.5 104.5t-100.5 264.5zM309 360q0 -121 62.5 -186t160.5 -65q83 0 156 43t120.5 111t75 149.5t27.5 160.5 q0 115 -63.5 179.5t-163.5 64.5q-97 0 -183 -58.5t-139 -164.5t-53 -234z" />
<glyph unicode="p" horiz-adv-x="1058" d="M82 -399l278 1310h154l-20 -100q174 121 362 121q64 0 113 -31t75.5 -81t39 -105t12.5 -113q0 -117 -41.5 -231.5t-109 -201t-159.5 -139.5t-188 -53q-148 0 -250 117l-106 -493h-160zM379 238q0 -13 9.5 -34t28 -44t52.5 -39.5t76 -16.5q92 0 181 59.5t146.5 162.5 t57.5 217t-60 186t-157 72q-81 0 -150.5 -43t-87.5 -76q-6 -12 -51 -221t-45 -223z" />
<glyph unicode="q" horiz-adv-x="1058" d="M154 317q0 119 43.5 233t112.5 197t159 134t180 51q41 0 77 -8.5t59.5 -20t46 -29.5t32.5 -30t23.5 -29.5t15.5 -19.5l29 137h155l-282 -1331h-160l105 501q-168 -125 -336 -125q-120 0 -190 96.5t-70 243.5zM319 362q0 -113 60 -185.5t156 -72.5q82 0 152.5 50t96.5 94 q6 13 42 180.5t36 187.5q0 24 -7.5 52.5t-24 60t-50.5 52t-80 20.5q-67 0 -135.5 -35t-122.5 -93t-88.5 -140.5t-34.5 -170.5z" />
<glyph unicode="r" horiz-adv-x="700" d="M166 0l194 922h144l-39 -185q184 195 401 195l-28 -137q-143 -4 -251 -88.5t-151 -194.5l-6 -16t-6.5 -21t-7 -25t-9 -36.5t-10 -46.5t-13.5 -63t-17 -79t-21.5 -101.5t-26.5 -123.5h-153z" />
<glyph unicode="s" horiz-adv-x="784" d="M72 70l53 139q48 -33 80 -51t92 -35t129 -17q61 0 106.5 17t69 44t34.5 53t11 50q0 35 -19 59.5t-53 38.5t-67 22t-74.5 16.5t-62.5 15.5q-67 23 -115.5 75.5t-48.5 129.5q0 31 9 67t36.5 82t69.5 82t117.5 61t172.5 25q80 0 142 -14t137 -49l-51 -136q-51 27 -77.5 39.5 t-81 24.5t-120.5 12q-57 0 -99.5 -15.5t-63.5 -40t-30.5 -47.5t-9.5 -44q0 -43 32.5 -69.5t72.5 -35.5t98 -21t88 -24q23 -9 45.5 -24t48 -39.5t41 -62.5t15.5 -83q0 -40 -12 -82.5t-41.5 -89t-73.5 -83t-115.5 -60t-159.5 -23.5q-178 0 -325 93z" />
<glyph unicode="t" horiz-adv-x="739" d="M205 791l26 120h177l55 258h143l-55 -258h289l-25 -120h-291q-27 -131 -64 -307q-39 -184 -45.5 -220t-6.5 -59q0 -96 81 -96q41 0 88 15.5t61 23.5t48 28l6 -121q-160 -78 -321 -78q-67 0 -95 45.5t-28 112.5q0 43 17.5 132t53.5 250.5t58 273.5h-172z" />
<glyph unicode="u" horiz-adv-x="1058" d="M199 129q0 26 4.5 56t13.5 69.5t10 44.5l129 612h160l-137 -653q-14 -66 -14 -84q0 -49 37 -65.5t106 -16.5q58 0 107.5 17.5t82.5 45t53 53t31 50.5q15 41 21 80l123 573h159l-192 -911h-156l21 98q-168 -121 -387 -121q-172 0 -172 152z" />
<glyph unicode="v" horiz-adv-x="944" d="M221 911h160q12 -70 28.5 -168t25.5 -153t21 -127.5t18.5 -116t12.5 -91t8.5 -81t2.5 -59.5v-13q17 54 120.5 236t214 367t121.5 206h154l-547 -911h-180z" />
<glyph unicode="w" horiz-adv-x="1398" d="M221 911h156l41 -458l10 -183q3 -46 3 -67q0 -11 -1 -15l-4 -84q26 114 233 506l156 301h143l46 -512q10 -135 14 -254l-2 -43q16 55 110 248l191 377l96 184h150l-476 -911h-178l-37 403q-14 182 -14 300v40l4 64q-14 -59 -108 -252l-185 -367q-95 -186 -96 -188h-162z " />
<glyph unicode="x" horiz-adv-x="944" d="M0 0l498 469l-293 442h172l209 -338l348 338h168l-469 -442l309 -469h-170l-223 385l-379 -385h-170z" />
<glyph unicode="y" horiz-adv-x="944" d="M0 -406l16 136q88 -33 142 -33q16 0 29 2.5t27 10t23.5 14t24 23t23 27t25.5 36.5t26.5 41t31.5 51t35 57q4 7 9.5 15.5t7.5 12.5t4 9t2 10q0 10 -6 31l-197 874h162q129 -577 129 -741q0 -27 -4 -68q13 49 49 125.5t97.5 185t100.5 175t114.5 189.5t82.5 134h154 l-688 -1114q-78 -121 -140 -169t-135 -48q-43 0 -145 14z" />
<glyph unicode="z" horiz-adv-x="890" d="M55 0q9 67 29 90q10 14 92 96l606 605l-530 -3l27 123h731l-11 -53q-6 -27 -8 -31l-24 -24l-680 -676l561 2l-27 -129h-766z" />
<glyph unicode="{" d="M203 449l26 126q125 0 231.5 59t137.5 163l100 467q19 82 56 130q109 142 395 142h92l-27 -125h-30q-86 0 -146 -9t-91.5 -19.5t-51.5 -35t-24.5 -38.5t-11.5 -47q-2 -9 -3 -13q-21 -98 -40 -184.5t-28 -130t-16.5 -80.5t-11.5 -53t-8 -27.5t-9 -23.5 q-45 -97 -148.5 -164t-225.5 -74q52 -4 99.5 -21t86.5 -47t62.5 -76.5t23.5 -103.5q0 -40 -54.5 -285.5t-54.5 -269.5q0 -96 246 -96h53l-26 -125h-86q-6 0 -28 0.5t-30.5 1t-28.5 1.5t-32 3t-30 5.5t-34 8.5t-32 11q-68 27 -101.5 71.5t-33.5 96.5q0 29 55 280t55 285 q0 88 -77.5 142.5t-198.5 54.5z" />
<glyph unicode="|" horiz-adv-x="569" d="M143 -467q0 7 4 23l404 1908l2 9q2 9 2.5 11l2.5 10t4 10.5t5 9t6 9t7.5 6t10 4.5t11.5 1q37 0 37 -45q0 -17 -6 -35l-404 -1900q-1 -3 -2 -12.5t-2.5 -14t-4.5 -12t-9 -13t-14 -10.5q-10 -2 -15 -2q-15 0 -27 11.5t-12 31.5z" />
<glyph unicode="}" d="M0 -512l27 125h28q58 0 96.5 2.5t88 11t82 29t47.5 53.5q5 11 40 177l52 247q1 4 6 30t7.5 37t9.5 36t16 41.5t22.5 39.5t32.5 43.5t43 40.5q117 102 272 111q-110 8 -190 72.5t-80 175.5q0 40 55.5 289t53.5 272l-4 18q-9 17 -22.5 29.5t-37.5 20t-42 12t-58 6.5 t-61 2.5t-74 1.5l26 125h86q6 0 28 -0.5t31 -1t29 -1.5t32.5 -3t30 -5.5t34 -8.5t32.5 -11q133 -56 133 -170q0 -26 -55 -280.5t-55 -282.5q0 -88 77.5 -142.5t198.5 -54.5l-26 -124v-2q-123 0 -228.5 -58t-140.5 -160q-10 -31 -57.5 -262.5t-57.5 -263.5 q-33 -100 -146 -158.5t-290 -58.5h-92z" />
<glyph unicode="~" horiz-adv-x="1251" d="M412 1141q24 108 115 175.5t194 67.5q49 0 100.5 -18t88.5 -40t85 -40t90 -18q48 0 95 27.5t67 88.5h125q-24 -105 -113.5 -174t-195.5 -69q-49 0 -100.5 18.5t-89 41t-85.5 41t-90 18.5q-47 0 -94 -28.5t-67 -90.5h-125z" />
<glyph unicode="&#xa1;" horiz-adv-x="653" d="M156 -399l256 1122h137l-221 -1122h-172zM434 909l37 172h170l-35 -172h-172z" />
<glyph unicode="&#xa2;" d="M160 358q0 96 41 193.5t112 178.5t175 138.5t221 71.5l36 180h121l-39 -178q95 -3 156 -20t154 -68l-54 -135q-62 37 -89 50.5t-75.5 25.5t-117.5 16l-150 -700q40 5 71.5 9.5t60 12t45 12t42.5 15t37.5 15.5t44 21t47.5 23l-16 -137q-96 -47 -176 -71t-184 -31l-37 -179 h-119l37 181q-147 18 -245.5 118t-98.5 258zM322 375q0 -113 59.5 -178.5t150.5 -81.5l148 692q-105 -18 -188.5 -86.5t-126.5 -160t-43 -185.5z" />
<glyph unicode="&#xa3;" horiz-adv-x="1544" d="M135 94q0 79 87 141t214 62q45 0 103 -14l18 55l74 342h-148l27 119h147q72 343 86 385q57 165 182.5 273t258.5 108q118 0 188 -88t70 -238q0 -201 -99 -201q-62 0 -59 70l-16 2q18 81 18 141q0 57 -12.5 96.5t-33.5 57.5t-41 25.5t-42 7.5q-78 0 -150.5 -73.5 t-107.5 -195.5q-8 -25 -82 -370h205l-27 -119h-204q-69 -329 -79 -362q-11 -36 -40 -89q14 -7 59.5 -31t71 -36t66 -28.5t77 -24t70.5 -7.5q45 0 79.5 42t55.5 153h162q-28 -131 -140.5 -225.5t-248.5 -94.5q-47 0 -104.5 16.5t-86.5 29t-94 46.5t-66 35 q-134 -127 -290 -127q-63 0 -105.5 32.5t-42.5 84.5zM293 119q0 -15 24 -15q23 0 47 7.5t39 16t30 18t16 10.5q-55 14 -91 14q-28 0 -44 -13t-18 -25z" />
<glyph unicode="&#xa4;" horiz-adv-x="1550" d="M82 -57q0 12 7 23t28.5 30t48 39.5t80.5 65t110 92.5q-77 115 -77 274q0 51 8.5 101t22.5 92t32 82t38.5 72.5t40.5 60.5t39 49.5t33 36t23 23.5l10 9q-36 45 -87 109q-59 72 -72 91t-13 34q0 19 14.5 29t24.5 10q7 0 14 -3t17 -12.5t19.5 -19.5t26 -31t30.5 -40 t40.5 -52.5t49.5 -63.5h2q94 73 209.5 111.5t218.5 38.5q219 0 369 -150h2q49 41 122 101q103 85 126 103t34 18q23 0 33 -14t10 -25q0 -2 -4 -13t-4 -12q-47 -44 -141 -119t-127 -104q80 -124 80 -274q0 -85 -25 -170t-55.5 -141t-73 -110t-60.5 -72t-35 -33l-1 -1 q161 -203 165 -209t7 -18v-12q-1 -14 -13.5 -23.5t-23.5 -9.5q-2 0 -8.5 1t-7.5 1q-13 7 -25.5 20.5t-26 31.5t-50.5 66.5t-79 100.5q-214 -150 -432 -150q-227 0 -368 150q-208 -172 -236 -194.5t-43 -26.5h-14q-11 2 -22 13t-11 24zM360 467q0 -181 118 -294.5t300 -113.5 q124 0 245 54.5t211 143t146 206.5t56 239q0 182 -117 296t-299 114q-124 0 -245.5 -54.5t-212 -143t-146.5 -207t-56 -240.5z" />
<glyph unicode="&#xa5;" horiz-adv-x="1366" d="M25 387q0 19 13 36t34 23q17 5 45 5h571q4 22 10 46.5t8.5 37t2.5 22.5q0 12 -4.5 26.5t-11 28t-24.5 50.5t-34 71h-451q-22 0 -37.5 7.5t-22 19t-9 20t-2.5 15.5q0 24 16.5 44t58.5 21h387l-268 561h217l262 -561h191l502 561h180l-506 -561h326q7 0 22 -0.5t20 -1 t14.5 -2t15.5 -4t12 -6.5q26 -20 26 -51q0 -22 -12.5 -36.5t-24.5 -19.5q-18 -6 -55 -6h-459q-24 -27 -49 -54t-37.5 -41.5t-26 -27.5t-19 -23t-11 -17.5t-8.5 -20.5t-5.5 -22t-7 -33t-8.5 -43h557q42 0 60 -21t18 -43q0 -20 -13 -37t-32 -22q-14 -4 -43 -4h-573l-70 -324 h-178l70 324h-562q-40 0 -57.5 19.5t-17.5 43.5zM844 733l6 -20l16 20h-22z" />
<glyph unicode="&#xa6;" horiz-adv-x="342" d="M31 -471l162 778q11 39 43 39q15 0 26.5 -12t11.5 -27l-153 -737q0 -1 -1.5 -9.5t-2 -11t-2.5 -10.5t-3.5 -11t-4 -9.5t-4.5 -9.5t-5.5 -7.5t-7.5 -6.5t-9 -3.5t-11 -1.5q-15 0 -27 12t-12 27zM283 717l163 778q11 39 41 39q17 0 29 -12t12 -31q0 -8 -3.5 -24.5 t-4.5 -20.5l-158 -731q-11 -37 -40 -37q-15 0 -26 12t-13 27z" />
<glyph unicode="&#xa7;" horiz-adv-x="909" d="M33 -272l53 139h2q19 -31 39.5 -54.5t55.5 -50.5t86 -42t114 -15q50 0 92.5 30t67 74t38 88t13.5 78q0 87 -66 144q-8 7 -44 28t-72 47.5t-74 64.5t-62 95.5t-24 124.5q0 110 62.5 213t156.5 158q-44 55 -68 107t-24 120q0 69 29.5 143t80 137t127.5 103.5t164 40.5 q57 0 103.5 -10.5t79.5 -31.5t51 -36.5t41 -40.5l-54 -135q-19 26 -34.5 43t-45 39.5t-71.5 34.5t-94 12q-51 0 -93.5 -30t-67 -74.5t-37.5 -89t-13 -78.5q0 -86 63 -143q7 -6 34.5 -22t56.5 -33.5t63.5 -48t61.5 -65t45 -85t18 -107.5q0 -107 -63 -210.5t-156 -160.5 q31 -40 48 -67t30.5 -69.5t13.5 -90.5q0 -69 -29.5 -143t-81 -136.5t-129 -102.5t-164.5 -40q-56 0 -104 10t-79 23.5t-61 36.5t-44.5 38.5t-34.5 39.5zM416 506q0 -39 12.5 -71t33.5 -53.5t38.5 -34.5t38.5 -24t22 -12q44 19 77.5 54.5t50 76t24.5 74t8 59.5 q0 39 -14.5 72.5t-34.5 54t-42 35.5t-37 21t-20 6q-27 0 -63.5 -37t-65 -99t-28.5 -122z" />
<glyph unicode="&#xa8;" d="M469 1167l39 183h182l-37 -183h-184zM868 1169l39 183h183l-37 -183h-185z" />
<glyph unicode="&#xa9;" horiz-adv-x="2275" d="M197 289q0 164 49 327.5t134.5 304.5t206 264t259 210t298 136.5t318.5 49.5q180 0 334.5 -64t263.5 -175.5t170.5 -268.5t61.5 -338q0 -163 -49 -326t-134.5 -304.5t-206 -264.5t-259 -210t-299 -137t-320.5 -50q-239 0 -428 109t-294 302t-105 435zM279 289 q0 -162 54 -303t150 -242.5t236 -160t305 -58.5q148 0 297 46.5t279 128.5t243 197t194 247t127 285t46 306q0 218 -93.5 392t-264.5 273t-388 99q-148 0 -297 -46.5t-279 -128t-243 -196.5t-193.5 -247.5t-126.5 -285.5t-46 -306zM684 410q0 115 64.5 228.5t172.5 202.5 t261.5 144t318.5 55q155 0 289 -49l-66 -170q-2 1 -16 12t-19.5 15t-21.5 14t-27 14.5t-31 12.5t-38.5 11t-44 6t-53.5 3q-120 0 -232 -41.5t-193 -108.5t-129.5 -154.5t-48.5 -176.5q0 -60 25 -118t75 -109.5t137 -83t198 -31.5q101 0 159.5 18t161.5 72l-16 -141 q-105 -48 -169.5 -64t-162.5 -16q-268 0 -431 129.5t-163 325.5z" />
<glyph unicode="&#xaa;" horiz-adv-x="909" d="M20 623q0 22 15.5 40t38.5 21q12 2 39 2h602q59 0 78 -8q32 -16 32 -55q0 -24 -17.5 -43t-62.5 -19h-624q-4 0 -12 -1t-11 -1q-33 0 -52 14t-22.5 26t-3.5 24zM123 901q0 64 32 108t130 76q148 50 338 50q28 130 28 178q0 55 -19.5 95t-66.5 40q-78 0 -139 -25.5 t-133 -79.5l16 140q145 86 285 86q105 0 162 -72.5t57 -177.5q0 -50 -53.5 -296t-54.5 -255h-154l12 68q-139 -91 -305 -91q-51 0 -83 26.5t-42 59t-10 70.5zM279 944q0 -34 31 -53t79 -19q41 0 80.5 13t78 50.5t52.5 94.5q-128 -6 -197.5 -16.5t-96.5 -26.5t-27 -43z" />
<glyph unicode="&#xab;" horiz-adv-x="1366" d="M322 449v2l552 448h134l-537 -448l346 -451h-133zM662 449v2l552 448h134l-535 -448l344 -451h-133z" />
<glyph unicode="&#xac;" horiz-adv-x="1366" d="M258 680q0 13 5 21.5t15 12t17 5t19 2t14 0.5h1009q54 0 54 -45q0 -16 -109 -522q-4 -17 -5.5 -23.5t-7 -19.5t-14 -18t-20.5 -5q-17 0 -29 12.5t-12 24.5q0 14 10 62.5t39 181t57 270.5h-978q-64 0 -64 41z" />
<glyph unicode="&#xad;" horiz-adv-x="342" d="M104 395l27 121h545l-27 -121h-545z" />
<glyph unicode="&#xae;" horiz-adv-x="2275" d="M197 289q0 164 49 327.5t134.5 304.5t206 264t259 210t298 136.5t318.5 49.5q180 0 334.5 -64t263.5 -175.5t170.5 -268.5t61.5 -338q0 -163 -49 -326t-134.5 -304.5t-206 -264.5t-259 -210t-299 -137t-320.5 -50q-239 0 -428 109t-294 302t-105 435zM279 289 q0 -162 54 -303t150 -242.5t236 -160t305 -58.5q148 0 297 46.5t279 128.5t243 197t194 247t127 285t46 306q0 218 -93.5 392t-264.5 273t-388 99q-148 0 -297 -46.5t-279 -128t-243 -196.5t-193.5 -247.5t-126.5 -285.5t-46 -306zM705 0l210 995h465q105 0 189.5 -16 t137.5 -41t88.5 -58t50 -64t14.5 -62q0 -94 -105 -178t-285 -123l291 -453h-184l-268 434h-334l-92 -434h-178zM1001 561h254q126 0 216.5 17t136 45.5t65 57t19.5 58.5l-2 19l-7 18q-28 48 -104 76l-29 8q-76 21 -223 21h-256l-14 -58z" />
<glyph unicode="&#xaf;" d="M410 1266l28 131h738l-29 -131h-737z" />
<glyph unicode="&#xb0;" horiz-adv-x="681" d="M362 1157q0 101 82 182.5t189 81.5q81 0 136.5 -52.5t55.5 -137.5q0 -101 -82 -182.5t-188 -81.5q-81 0 -137 53t-56 137zM444 1157q0 -49 30.5 -77.5t80.5 -28.5q72 0 130 56t58 126q0 49 -31 77.5t-79 28.5q-74 0 -131.5 -57.5t-57.5 -124.5z" />
<glyph unicode="&#xb1;" horiz-adv-x="1593" d="M123 41q0 41 55 41h592l119 559h-567q-19 0 -30 2t-21.5 11.5t-10.5 27.5t10.5 27.5t21.5 11.5t30 2h585l121 569q0 1 1 8t1.5 9t2 9t2.5 10t3.5 9t5 9t6 7t7.5 6t9 3.5t11 1.5q17 0 28 -12.5t11 -34.5q0 -9 -21 -104q-48 -223 -104 -490h568q19 0 30 -2t21 -11.5 t10 -27.5q0 -41 -59 -41h-588l-119 -559h567q26 0 40 -5.5t22 -25.5v-12q0 -39 -58 -39h-1245q-57 0 -57 41z" />
<glyph unicode="&#xb2;" horiz-adv-x="909" d="M258 739l31 144l256 135q26 12 74.5 32t82.5 34.5t76 38t68.5 48t44.5 60t18 76.5q0 65 -55.5 104t-148.5 39q-91 0 -153 -40.5t-112 -113.5l-55 119q86 84 171.5 125t203.5 41q149 0 236 -67.5t87 -178.5q0 -52 -18 -93.5t-43.5 -68t-69 -50.5t-80 -37.5t-91.5 -34 t-89 -35.5q-38 -17 -266 -133h303l51 2h213l-30 -146h-705z" />
<glyph unicode="&#xb3;" horiz-adv-x="909" d="M250 774l45 125q178 -55 326 -55q115 0 171 46.5t56 100.5q0 42 -39 73.5t-145 31.5h-91l27 127l62 6l55 6q83 16 128.5 60.5t43.5 90.5q-3 15 -8.5 26t-18 23t-38 18.5t-62.5 6.5q-85 0 -152 -27.5t-141 -78.5l-45 114q183 113 362 113q116 0 195.5 -51t79.5 -131 q0 -71 -53.5 -135.5t-141.5 -106.5q82 -27 124 -69t42 -93q0 -43 -30 -90.5t-83.5 -90t-138 -70t-182.5 -27.5q-182 0 -348 57z" />
<glyph unicode="&#xb4;" d="M612 1044l328 267h94l68 -2l-363 -265h-127z" />
<glyph unicode="&#xb5;" horiz-adv-x="1058" d="M78 -399l278 1310h160l-139 -653q-12 -66 -12 -84q0 -49 36.5 -65.5t106.5 -16.5q58 0 107.5 17.5t82 45t52.5 53t32 50.5q8 22 21 80l123 573h159l-194 -911h-154l21 98q-172 -121 -383 -121q-11 0 -56 5l-81 -381h-160z" />
<glyph unicode="&#xb6;" horiz-adv-x="1251" d="M315 911q0 95 45.5 194.5t125 183t203 137t265.5 53.5h482q61 0 61 -43q0 -13 -12 -25.5t-43 -13.5h-121l-371 -1743q-8 -51 -45 -51t-37 45q0 14 2 22l367 1727h-141l-365 -1719q-10 -53 -25 -66q-9 -9 -24 -9q-13 0 -26.5 11t-12.5 34l178 854q-69 2 -137.5 18 t-135.5 49t-118.5 79t-83 114.5t-31.5 148.5z" />
<glyph unicode="&#xb7;" horiz-adv-x="483" d="M225 358l39 183h182l-36 -183h-185z" />
<glyph unicode="&#xb8;" horiz-adv-x="909" d="M156 -393l225 346h125l-207 -346h-143z" />
<glyph unicode="&#xb9;" horiz-adv-x="909" d="M328 739l24 121h226l106 502q-125 -53 -264 -53l24 118h2q70 1 133.5 14t103 28.5t80 41.5t54.5 37.5t37 32.5h41l-154 -721h209l-26 -121h-596z" />
<glyph unicode="&#xba;" horiz-adv-x="909" d="M20 623q0 22 15.5 40t38.5 21q12 2 39 2h602q59 0 78 -8q32 -16 32 -55q0 -24 -17.5 -43t-62.5 -19h-624q-4 0 -12 -1t-11 -1q-33 0 -52 14t-22.5 26t-3.5 24zM133 1061q0 91 41 183.5t107.5 163.5t157.5 116t184 45q139 0 226 -92.5t87 -235.5q0 -99 -42.5 -191.5 t-111 -159t-156.5 -106t-177 -39.5q-136 0 -226 88t-90 228zM295 1075q0 -104 54 -151t128 -47q92 0 163.5 60.5t105.5 144t34 167.5q0 90 -49 142.5t-135 52.5q-87 0 -157 -54t-107 -138t-37 -177z" />
<glyph unicode="&#xbb;" horiz-adv-x="1366" d="M205 0l536 449v2l-346 448h133l363 -450l-553 -449h-133zM545 0l536 449v2l-344 448h133l363 -450l-555 -449h-133z" />
<glyph unicode="&#xbc;" horiz-adv-x="909" d="M8 -223q4 20 9.5 45.5t7 34t5.5 22t5 16.5t6.5 11.5t9 12t12.5 13.5l482 514h198l-114 -542h202l-26 -127h-203l-39 -176h-162l37 176h-430zM139 567q0 11 2 17q7 13 16.5 19t16 6.5t23.5 0.5h764q15 -1 26 -5.5t15.5 -10.5t6.5 -12.5t3 -10.5v-4q-5 -39 -58 -39h-764 q-31 0 -41 10.5t-10 28.5zM205 -96h272l98 465q-33 -79 -94.5 -155t-220.5 -250q-36 -39 -55 -60zM315 692l27 119h223l2 2l125 592q-112 -26 -258 -29l25 121q113 0 208 16.5t185 67.5h41l-164 -770h211l-27 -119h-598z" />
<glyph unicode="&#xbd;" horiz-adv-x="909" d="M16 -399l25 120q75 47 142.5 90t89 57t49.5 31.5t45 26.5t55 29q132 68 194 134q68 73 68 149q0 60 -56 96.5t-151 36.5q-53 0 -97 -13.5t-76 -38.5t-49 -42.5t-37 -42.5q-5 -6 -7 -9l-53 119q95 78 177 113t193 35q60 0 115 -12t104.5 -37.5t79 -72.5t29.5 -110 q0 -50 -19.5 -94t-47.5 -74.5t-74.5 -62t-83 -50t-91.5 -45.5t-83 -43l-262 -157h555l-29 -133h-705zM139 567v17q8 13 18 19t16.5 6.5t23.5 0.5h764q15 -1 26 -5.5t15.5 -10.5t6.5 -12.5t3 -10.5v-4q-5 -39 -58 -39h-764q-31 0 -41 10.5t-10 28.5zM315 692l27 119h223l2 2 l125 592q-112 -26 -258 -29l25 121q113 0 208 16.5t185 67.5h41l-164 -770h209l-25 -119h-598z" />
<glyph unicode="&#xbe;" horiz-adv-x="909" d="M8 -223q4 20 9.5 45.5t7 34t5.5 22t5 16.5t6.5 11.5t9 12t12.5 13.5l482 514h198l-114 -542h202l-26 -127h-203l-39 -176h-162l37 176h-430zM139 567q0 11 2 17q7 13 16.5 19t16 6.5t23.5 0.5h764q15 -1 26 -5.5t15.5 -10.5t6.5 -12.5t3 -10.5v-4q-4 -39 -58 -39h-764 q-31 0 -41 10.5t-10 28.5zM205 -96h272l98 465q-33 -79 -94.5 -155t-220.5 -250q-36 -39 -55 -60zM233 696l46 127q165 -51 329 -51q106 0 168 53.5t62 118.5q0 58 -54 94q-44 27 -131 27h-88l27 123v2q96 8 119 12q75 17 125.5 67.5t50.5 102.5q0 34 -28.5 61t-98.5 27 q-61 0 -123 -19t-93 -36t-75 -45l-43 115q175 106 358 106q121 0 197 -54.5t76 -137.5q0 -24 -7.5 -51.5t-27.5 -64.5t-63.5 -76t-106.5 -71q84 -30 126 -76t42 -102q0 -47 -30.5 -99t-84 -98t-139.5 -76t-186 -30q-176 0 -347 51z" />
<glyph unicode="&#xbf;" horiz-adv-x="966" d="M84 -182q0 44 8 86t20.5 74.5t29 63t33 52t34.5 40.5t30.5 29.5t22.5 18.5l10 8q44 41 80.5 84t62.5 89t43.5 80.5t32 83.5t20.5 71t16 70t12 55h137q-3 -15 -12 -59t-16.5 -74.5t-16.5 -57.5q-25 -84 -63.5 -160.5t-79 -131t-75 -93.5t-66.5 -70.5t-38 -39.5 q-34 -42 -49.5 -103t-15.5 -104q0 -125 151 -125q176 0 373 119l18 -131q-208 -113 -417 -113q-133 0 -208.5 59t-76.5 179zM561 909l37 172h170l-35 -172h-172z" />
<glyph unicode="&#xc0;" horiz-adv-x="1366" d="M55 0l836 1421h182l232 -1421h-189l-67 418h-594l-246 -418h-154zM520 532h510q-96 610 -96 723v23q-30 -70 -110 -214t-183.5 -322.5t-120.5 -209.5zM760 1741h227l281 -185h-150q-15 0 -32.5 5.5t-48 22t-61 34t-93.5 54t-123 69.5z" />
<glyph unicode="&#xc1;" horiz-adv-x="1366" d="M55 0l836 1421h182l232 -1421h-189l-67 418h-594l-246 -418h-154zM520 532h510q-96 610 -96 723v23q-30 -70 -110 -214t-183.5 -322.5t-120.5 -209.5zM754 1556q50 25 97 49.5t78 40.5t59.5 31t45.5 23.5t32.5 16.5t24 12t15.5 7t12.5 3.5t9.5 1t11 0.5h202l-358 -162 l-51 -20l-31 -3h-147z" />
<glyph unicode="&#xc2;" horiz-adv-x="1366" d="M55 0l836 1421h182l232 -1421h-189l-67 418h-594l-246 -418h-154zM520 532h510q-96 610 -96 723v23q-30 -70 -110 -214t-183.5 -322.5t-120.5 -209.5zM664 1489l331 354h156l149 -354h-124l-140 250l-245 -250h-127z" />
<glyph unicode="&#xc3;" horiz-adv-x="1366" d="M55 0l836 1421h182l232 -1421h-189l-67 418h-594l-246 -418h-154zM520 532h510q-96 610 -96 723v23q-30 -70 -110 -214t-183.5 -322.5t-120.5 -209.5zM655 1489q34 156 109.5 243t159.5 87q37 0 64 -21t43 -50.5t32 -59.5t41 -51t59 -21q26 0 46 16.5t33.5 49t22 63.5 t17.5 76h125q-30 -152 -106.5 -242t-161.5 -90q-36 0 -62.5 21t-43 51.5t-32.5 60.5t-41 51t-59 21q-21 0 -38 -12.5t-28 -29t-22 -48.5t-16.5 -53.5t-14.5 -61.5h-127z" />
<glyph unicode="&#xc4;" horiz-adv-x="1366" d="M55 0l836 1421h182l232 -1421h-189l-67 418h-594l-246 -418h-154zM520 532h510q-96 610 -96 723v23q-30 -70 -110 -214t-183.5 -322.5t-120.5 -209.5zM721 1556l39 183h182l-37 -183h-184zM1118 1556l39 183h182l-36 -183h-185z" />
<glyph unicode="&#xc5;" horiz-adv-x="1366" d="M55 0l783 1331q-74 59 -74 164q0 126 90 225t199 99q81 0 129.5 -56t48.5 -143q0 -80 -40 -153.5t-106 -120.5l220 -1346h-189l-67 418h-594l-246 -418h-154zM520 532h510q-96 610 -96 723v23q-30 -70 -110 -214t-183.5 -322.5t-120.5 -209.5zM879 1518q0 -52 26 -74.5 t64 -22.5q34 0 61 14t42.5 35t26 47t14 47.5t3.5 39.5q0 43 -24.5 66.5t-63.5 23.5h-2q-48 0 -94 -37q-53 -66 -53 -139z" />
<glyph unicode="&#xc6;" horiz-adv-x="1763" d="M55 0l885 1421h1010l-29 -135h-98l-47 2h-416l-49 2l-103 -487h553l-26 -127h-553l-113 -533h133l49 2h334l43 2h78l-31 -147h-819l98 455h-462l-283 -455h-154zM563 569h414l153 721h-118z" />
<glyph unicode="&#xc7;" horiz-adv-x="1308" d="M266 530q0 136 43.5 273.5t124 255t184.5 209.5t234 145t264 53q106 0 188.5 -16.5t174.5 -52.5l-66 -170q-76 56 -147 82t-181 26q-125 0 -243.5 -72t-203 -185.5t-136 -255.5t-51.5 -279q0 -68 13.5 -133t43.5 -124t72.5 -103.5t105 -70.5t137.5 -26q70 0 121.5 6 t103.5 25.5t77 32t90 49.5q15 8 22 12l-18 -143q-128 -66 -209.5 -89.5t-212.5 -23.5q-102 0 -188.5 30.5t-149 83.5t-106.5 125.5t-65.5 157.5t-21.5 178zM498 -393l225 346h125l-207 -346h-143z" />
<glyph unicode="&#xc8;" horiz-adv-x="1222" d="M193 0l301 1415h915l-29 -135l-731 4l-104 -485h676l-25 -125h-676l-112 -531l759 4l-30 -147h-944zM662 1741h227l280 -185h-149q-15 0 -32.5 5.5t-48 22t-61 34t-93.5 54t-123 69.5z" />
<glyph unicode="&#xc9;" horiz-adv-x="1222" d="M193 0l301 1415h915l-29 -135l-731 4l-104 -485h676l-25 -125h-676l-112 -531l759 4l-30 -147h-944zM741 1556q94 48 213 111q107 55 128.5 64.5t43.5 9.5h203l-358 -162l-51 -20l-31 -3h-148z" />
<glyph unicode="&#xca;" horiz-adv-x="1222" d="M193 0l301 1415h915l-29 -135l-731 4l-104 -485h676l-25 -125h-676l-112 -531l759 4l-30 -147h-944zM582 1489l329 354h127l181 -354h-125l-142 250l-245 -250h-125z" />
<glyph unicode="&#xcb;" horiz-adv-x="1222" d="M193 0l301 1415h915l-29 -135l-731 4l-104 -485h676l-25 -125h-676l-112 -531l759 4l-30 -147h-944zM623 1556l39 183h182l-37 -183h-184zM1022 1559l39 182h182l-37 -182h-184z" />
<glyph unicode="&#xcc;" horiz-adv-x="569" d="M193 0l301 1421h184l-301 -1421h-184zM336 1741h227l281 -185h-152q-15 0 -30.5 5t-45 20.5t-58.5 32.5t-94.5 54.5t-127.5 72.5z" />
<glyph unicode="&#xcd;" horiz-adv-x="569" d="M193 0l301 1421h184l-301 -1421h-184zM442 1556q94 48 213 111q107 55 128.5 64.5t43.5 9.5h203l-358 -162l-51 -20l-31 -3h-148z" />
<glyph unicode="&#xce;" horiz-adv-x="569" d="M193 0l301 1421h184l-301 -1421h-184zM283 1489l329 354h127l181 -354h-127l-140 250l-245 -250h-125z" />
<glyph unicode="&#xcf;" horiz-adv-x="569" d="M193 0l301 1421h184l-301 -1421h-184zM324 1556l38 183h183l-37 -183h-184zM721 1556l39 183h182l-37 -183h-184z" />
<glyph unicode="&#xd0;" horiz-adv-x="1478" d="M135 637l25 121h196l140 663h514q111 0 196.5 -27.5t163.5 -101.5q16 -15 31.5 -33t41 -57.5t43.5 -83.5t32 -110t14 -138q0 -89 -27 -204q-43 -169 -148 -314t-253 -239q-142 -89 -291 -109q-37 -4 -113 -4h-505l135 637h-195zM397 115h314q105 0 204 40t177.5 112 t138 166t91.5 208t32 233q0 59 -10.5 115.5t-39.5 115.5t-73 102.5t-117 71.5t-166 28h-297l-116 -549h364l-25 -121h-366z" />
<glyph unicode="&#xd1;" horiz-adv-x="1449" d="M195 0l301 1421h258l344 -1181l24 -97l271 1278h159l-301 -1421h-256l-272 926q-82 293 -98 352l-271 -1278h-159zM698 1489q34 155 109 242.5t158 87.5q37 0 64 -21t43.5 -50.5t32.5 -59.5t40.5 -51t58.5 -21q26 0 46 16.5t34 48t23 63.5t18 77h125q-6 -32 -17.5 -70.5 t-34.5 -86t-51.5 -85.5t-71.5 -64t-91 -26q-37 0 -64 21t-44 51.5t-33 60.5t-40.5 51t-58.5 21q-26 0 -45.5 -16.5t-34 -51.5t-22.5 -62t-19 -75h-125z" />
<glyph unicode="&#xd2;" horiz-adv-x="1507" d="M244 522q0 173 69.5 345.5t182 303.5t264 213t305.5 82q220 0 359 -161t139 -412q0 -177 -70.5 -349.5t-183.5 -301t-263.5 -208t-302.5 -79.5q-222 0 -360.5 160t-138.5 407zM432 537q0 -201 93.5 -325t246.5 -124q95 0 189 49t168.5 132.5t133 188t90 222t31.5 227.5 q0 197 -97.5 312.5t-250.5 115.5q-111 0 -220.5 -63.5t-194 -169t-137 -255t-52.5 -310.5zM831 1741h230l278 -185h-149q-15 0 -32.5 5.5t-48.5 22t-61 34t-93.5 54t-123.5 69.5z" />
<glyph unicode="&#xd3;" horiz-adv-x="1507" d="M244 522q0 173 69.5 345.5t182 303.5t264 213t305.5 82q220 0 359 -161t139 -412q0 -177 -70.5 -349.5t-183.5 -301t-263.5 -208t-302.5 -79.5q-222 0 -360.5 160t-138.5 407zM432 537q0 -201 93.5 -325t246.5 -124q95 0 189 49t168.5 132.5t133 188t90 222t31.5 227.5 q0 197 -97.5 312.5t-250.5 115.5q-111 0 -220.5 -63.5t-194 -169t-137 -255t-52.5 -310.5zM827 1556q94 48 213 111q107 55 128.5 64.5t43.5 9.5h201l-358 -162l-49 -20l-31 -3h-148z" />
<glyph unicode="&#xd4;" horiz-adv-x="1507" d="M244 522q0 173 69.5 345.5t182 303.5t264 213t305.5 82q220 0 359 -161t139 -412q0 -177 -70.5 -349.5t-183.5 -301t-263.5 -208t-302.5 -79.5q-222 0 -360.5 160t-138.5 407zM432 537q0 -201 93.5 -325t246.5 -124q95 0 189 49t168.5 132.5t133 188t90 222t31.5 227.5 q0 197 -97.5 312.5t-250.5 115.5q-111 0 -220.5 -63.5t-194 -169t-137 -255t-52.5 -310.5zM752 1489l329 354h127l181 -354h-125l-140 250l-247 -250h-125z" />
<glyph unicode="&#xd5;" horiz-adv-x="1507" d="M244 522q0 173 69.5 345.5t182 303.5t264 213t305.5 82q220 0 359 -161t139 -412q0 -177 -70.5 -349.5t-183.5 -301t-263.5 -208t-302.5 -79.5q-222 0 -360.5 160t-138.5 407zM432 537q0 -201 93.5 -325t246.5 -124q95 0 189 49t168.5 132.5t133 188t90 222t31.5 227.5 q0 197 -97.5 312.5t-250.5 115.5q-111 0 -220.5 -63.5t-194 -169t-137 -255t-52.5 -310.5zM727 1489q23 87 54 151.5t59.5 98t61 53t53 24.5t40.5 5q38 0 65.5 -21t43.5 -51.5t31 -60.5t40 -51t60 -21q21 0 38.5 12.5t28.5 29.5t22 48.5t17 54t15 60.5h125q-6 -33 -18 -70.5 t-35 -85.5t-52 -86t-72 -64t-92 -26q-36 0 -62.5 21t-43 51.5t-32.5 60.5t-41.5 51t-59.5 21q-27 0 -48.5 -21t-34 -51t-20.5 -60.5t-11.5 -51.5t-4.5 -21h-127z" />
<glyph unicode="&#xd6;" horiz-adv-x="1507" d="M244 522q0 173 69.5 345.5t182 303.5t264 213t305.5 82q220 0 359 -161t139 -412q0 -177 -70.5 -349.5t-183.5 -301t-263.5 -208t-302.5 -79.5q-222 0 -360.5 160t-138.5 407zM432 537q0 -201 93.5 -325t246.5 -124q95 0 189 49t168.5 132.5t133 188t90 222t31.5 227.5 q0 197 -97.5 312.5t-250.5 115.5q-111 0 -220.5 -63.5t-194 -169t-137 -255t-52.5 -310.5zM793 1556l38 183h183l-37 -183h-184zM1192 1556l39 183h182l-37 -183h-184z" />
<glyph unicode="&#xd7;" horiz-adv-x="1593" d="M315 59q0 7 2 13t7.5 12.5t9 10t14.5 12.5t17 14l483 397q-53 67 -135 170q-152 192 -178.5 228t-26.5 53q0 12 13 24.5t26 12.5l14 -5q13 -6 25.5 -20.5t69.5 -87.5q124 -160 253 -322h2l482 398q42 37 63 37q15 0 26 -12.5t11 -26.5q0 -7 -2 -12.5t-4 -9.5t-7.5 -10 t-9 -9t-12.5 -11t-14 -12l-483 -397l321 -408q18 -24 18 -43q0 -17 -12 -27t-24 -10q-2 0 -9 2.5t-8 2.5q-9 4 -20.5 16t-38 45t-57.5 73.5t-95.5 123t-136.5 172.5h-2l-479 -396q-3 -2 -14 -11.5t-17 -14t-16 -9t-19 -4.5q-14 0 -25.5 13t-11.5 28z" />
<glyph unicode="&#xd8;" horiz-adv-x="1593" d="M244 532q0 173 73.5 344.5t192 300.5t277 209t319.5 80q65 0 123 -12.5t89.5 -27.5t56 -29t26.5 -15l135 172h2l98 -65l-143 -184q154 -163 154 -424q0 -117 -33.5 -234t-92 -218.5t-141 -189.5t-177 -150.5t-203 -98t-216.5 -35.5q-170 0 -292 84h-3l-133 -172l-102 65 l143 183q-153 160 -153 417zM418 526q0 -161 80 -286l811 1026v2q-103 73 -230 73q-173 0 -327 -116.5t-244 -305t-90 -393.5zM582 154q34 -23 56 -35.5t70 -25.5t103 -13q176 0 330 116.5t243 303t89 389.5q0 166 -80 291z" />
<glyph unicode="&#xd9;" horiz-adv-x="1406" d="M281 367q0 21 0.5 33t1.5 23.5t5.5 33t8.5 41t14.5 69t20.5 97.5l162 757h182l-178 -841q-35 -162 -35 -228q0 -129 71.5 -205.5t188.5 -76.5q130 0 246.5 92.5t167.5 251.5q7 24 17.5 71.5t12.5 53.5l187 882h159l-188 -889q-21 -101 -35 -139q-43 -116 -130 -215 t-210 -161t-252 -62q-182 2 -299.5 115t-117.5 297zM782 1741h228l280 -185h-151q-14 0 -31 5.5t-48 22t-61.5 34t-93.5 54t-123 69.5z" />
<glyph unicode="&#xda;" horiz-adv-x="1406" d="M281 367q0 21 0.5 33t1.5 23.5t5.5 33t8.5 41t14.5 69t20.5 97.5l162 757h182l-178 -841q-35 -162 -35 -228q0 -129 71.5 -205.5t188.5 -76.5q130 0 246.5 92.5t167.5 251.5q7 24 17.5 71.5t12.5 53.5l187 882h159l-188 -889q-21 -101 -35 -139q-43 -116 -130 -215 t-210 -161t-252 -62q-182 2 -299.5 115t-117.5 297zM860 1556q49 25 96.5 49.5t78 40.5t59.5 31t46 23.5t32.5 16.5t24.5 12t16 7t13 3.5t10 1t11 0.5h201l-358 -162l-52 -20l-30 -3h-148z" />
<glyph unicode="&#xdb;" horiz-adv-x="1406" d="M281 367q0 21 0.5 33t1.5 23.5t5.5 33t8.5 41t14.5 69t20.5 97.5l162 757h182l-178 -841q-35 -162 -35 -228q0 -129 71.5 -205.5t188.5 -76.5q130 0 246.5 92.5t167.5 251.5q7 24 17.5 71.5t12.5 53.5l187 882h159l-188 -889q-21 -101 -35 -139q-43 -116 -130 -215 t-210 -161t-252 -62q-182 2 -299.5 115t-117.5 297zM705 1489l331 354h115l192 -354h-126l-140 250l-246 -250h-126z" />
<glyph unicode="&#xdc;" horiz-adv-x="1406" d="M281 367q0 21 0.5 33t1.5 23.5t5.5 33t8.5 41t14.5 69t20.5 97.5l162 757h182l-178 -841q-35 -162 -35 -228q0 -129 71.5 -205.5t188.5 -76.5q130 0 246.5 92.5t167.5 251.5q7 24 17.5 71.5t12.5 53.5l187 882h159l-188 -889q-21 -101 -35 -139q-43 -116 -130 -215 t-210 -161t-252 -62q-182 2 -299.5 115t-117.5 297zM741 1556l39 183h183l-37 -183h-185zM1141 1556l39 183h182l-37 -183h-184z" />
<glyph unicode="&#xdd;" horiz-adv-x="1366" d="M307 1421h215l221 -467q14 -32 41.5 -89.5t43.5 -93.5t22 -58l108 127l521 581h180l-735 -817q-23 -25 -29 -34t-10 -31l-115 -539h-178l115 541q4 20 4 22q0 9 -15 39zM840 1556q50 25 97 49.5t78 40.5t59.5 31t45.5 23.5t32.5 16.5t24 12t15.5 7t12.5 3.5t9.5 1t11 0.5 h202l-358 -162l-51 -20l-31 -3h-147z" />
<glyph unicode="&#xde;" horiz-adv-x="1193" d="M197 0l301 1421h172l-54 -260h254q91 0 161 -23t110 -57t65.5 -79.5t34 -84.5t8.5 -77q0 -113 -65.5 -215.5t-164.5 -166t-206 -81.5q-49 -8 -115 -8h-252l-77 -369h-172zM473 483h203q97 0 177 33t127.5 84t73 106.5t25.5 106.5q0 38 -13.5 74.5t-46 74.5t-99.5 61.5 t-160 23.5h-168z" />
<glyph unicode="&#xdf;" horiz-adv-x="983" d="M166 0l235 1108q9 45 13 63t16.5 59t26.5 65.5t39.5 57.5t58.5 60q109 88 281 88q56 0 104 -11t92.5 -36t70 -74t25.5 -118q0 -51 -16 -116.5t-49 -137.5t-96 -124.5t-144 -60.5q-38 -3 -59 -29t-41 -116q-8 -36 -8 -64q0 -29 14 -42t34 -14t54.5 -9.5t63.5 -26.5 q96 -65 96 -190q0 -33 -8.5 -74.5t-32 -92.5t-59 -91.5t-95.5 -68.5t-135 -28q-36 0 -67 7.5t-53.5 21t-35.5 23.5t-27 25t-15 16l55 139q12 -20 22.5 -33t31 -31.5t49.5 -28.5t65 -10q68 0 110.5 55.5t42.5 121.5q0 77 -55 100q-8 4 -37 10t-53.5 16t-51.5 30t-43 60 t-16 97q0 86 39.5 175t108.5 134q35 23 70.5 31t54.5 9t39 17t37 62.5t36 136.5q13 59 13 82q0 67 -42.5 100t-117.5 33q-32 0 -59 -6t-48 -13.5t-39 -23.5t-30.5 -28t-24 -35.5t-17.5 -36.5t-14 -41t-10.5 -39t-8.5 -41t-7 -37l-230 -1075h-153z" />
<glyph unicode="&#xe0;" horiz-adv-x="983" d="M133 174q0 82 49 146.5t166 111.5q183 70 418 70q27 137 27 153q0 67 -33.5 116.5t-106.5 49.5q-51 0 -100 -9t-87 -23.5t-64.5 -27.5t-51 -27.5t-28.5 -16.5l16 137q86 44 165 67t175 23q72 0 127.5 -24t86.5 -64t46.5 -85.5t15.5 -94.5q0 -24 -2.5 -42.5t-7.5 -40 t-6 -30.5l-119 -563h-155l14 72q-159 -95 -363 -95q-42 0 -74.5 13t-52.5 33.5t-32.5 47.5t-17.5 52.5t-5 50.5zM287 213q0 -54 48.5 -82.5t121.5 -28.5q63 0 125 22.5t96 61.5q10 12 17 24t13 32.5t9 34.5t10.5 53t13.5 65q-30 0 -66.5 -2.5t-91.5 -8.5t-104 -19t-94 -32 t-71.5 -50t-26.5 -70zM590 1311h160l217 -267h-127z" />
<glyph unicode="&#xe1;" horiz-adv-x="983" d="M133 174q0 82 49 146.5t166 111.5q183 70 418 70q27 137 27 153q0 67 -33.5 116.5t-106.5 49.5q-51 0 -100 -9t-87 -23.5t-64.5 -27.5t-51 -27.5t-28.5 -16.5l16 137q86 44 165 67t175 23q72 0 127.5 -24t86.5 -64t46.5 -85.5t15.5 -94.5q0 -24 -2.5 -42.5t-7.5 -40 t-6 -30.5l-119 -563h-155l14 72q-159 -95 -363 -95q-42 0 -74.5 13t-52.5 33.5t-32.5 47.5t-17.5 52.5t-5 50.5zM287 213q0 -54 48.5 -82.5t121.5 -28.5q63 0 125 22.5t96 61.5q10 12 17 24t13 32.5t9 34.5t10.5 53t13.5 65q-30 0 -66.5 -2.5t-91.5 -8.5t-104 -19t-94 -32 t-71.5 -50t-26.5 -70zM498 1044l327 267h95l67 -2l-362 -265h-127z" />
<glyph unicode="&#xe2;" horiz-adv-x="983" d="M133 174q0 82 49 146.5t166 111.5q183 70 418 70q27 137 27 153q0 67 -33.5 116.5t-106.5 49.5q-51 0 -100 -9t-87 -23.5t-64.5 -27.5t-51 -27.5t-28.5 -16.5l16 137q86 44 165 67t175 23q72 0 127.5 -24t86.5 -64t46.5 -85.5t15.5 -94.5q0 -24 -2.5 -42.5t-7.5 -40 t-6 -30.5l-119 -563h-155l14 72q-159 -95 -363 -95q-42 0 -74.5 13t-52.5 33.5t-32.5 47.5t-17.5 52.5t-5 50.5zM287 213q0 -54 48.5 -82.5t121.5 -28.5q63 0 125 22.5t96 61.5q10 12 17 24t13 32.5t9 34.5t10.5 53t13.5 65q-30 0 -66.5 -2.5t-91.5 -8.5t-104 -19t-94 -32 t-71.5 -50t-26.5 -70zM391 1044q71 65 168 154q108 100 130 116.5t46 16.5h146l147 -289h-125l-151 203q-56 -48 -129 -112q-78 -68 -95 -79.5t-39 -11.5h-18z" />
<glyph unicode="&#xe3;" horiz-adv-x="983" d="M133 174q0 82 49 146.5t166 111.5q183 70 418 70q27 137 27 153q0 67 -33.5 116.5t-106.5 49.5q-51 0 -100 -9t-87 -23.5t-64.5 -27.5t-51 -27.5t-28.5 -16.5l16 137q86 44 165 67t175 23q72 0 127.5 -24t86.5 -64t46.5 -85.5t15.5 -94.5q0 -24 -2.5 -42.5t-7.5 -40 t-6 -30.5l-119 -563h-155l14 72q-159 -95 -363 -95q-42 0 -74.5 13t-52.5 33.5t-32.5 47.5t-17.5 52.5t-5 50.5zM287 213q0 -54 48.5 -82.5t121.5 -28.5q63 0 125 22.5t96 61.5q10 12 17 24t13 32.5t9 34.5t10.5 53t13.5 65q-30 0 -66.5 -2.5t-91.5 -8.5t-104 -19t-94 -32 t-71.5 -50t-26.5 -70zM416 1128q25 100 98 163t150 63q35 0 71.5 -16t62 -34.5t59 -34.5t63.5 -16q35 0 60 26t32.5 47.5t7.5 27.5h127q-28 -104 -99 -165t-149 -61q-45 0 -90 25t-87 49.5t-79 24.5q-22 0 -40 -10t-29 -24.5t-18.5 -29.5t-11.5 -25l-3 -10h-125z" />
<glyph unicode="&#xe4;" horiz-adv-x="983" d="M133 174q0 82 49 146.5t166 111.5q183 70 418 70q27 137 27 153q0 67 -33.5 116.5t-106.5 49.5q-51 0 -100 -9t-87 -23.5t-64.5 -27.5t-51 -27.5t-28.5 -16.5l16 137q86 44 165 67t175 23q72 0 127.5 -24t86.5 -64t46.5 -85.5t15.5 -94.5q0 -24 -2.5 -42.5t-7.5 -40 t-6 -30.5l-119 -563h-155l14 72q-159 -95 -363 -95q-42 0 -74.5 13t-52.5 33.5t-32.5 47.5t-17.5 52.5t-5 50.5zM287 213q0 -54 48.5 -82.5t121.5 -28.5q63 0 125 22.5t96 61.5q10 12 17 24t13 32.5t9 34.5t10.5 53t13.5 65q-30 0 -66.5 -2.5t-91.5 -8.5t-104 -19t-94 -32 t-71.5 -50t-26.5 -70zM469 1167l39 183h182l-37 -183h-184zM866 1169l39 183h182l-36 -183h-185z" />
<glyph unicode="&#xe5;" horiz-adv-x="983" d="M133 174q0 82 49 146.5t166 111.5q183 70 418 70q27 137 27 153q0 67 -33.5 116.5t-106.5 49.5q-51 0 -100 -9t-87 -23.5t-64.5 -27.5t-51 -27.5t-28.5 -16.5l16 137q86 44 165 67t175 23q72 0 127.5 -24t86.5 -64t46.5 -85.5t15.5 -94.5q0 -24 -2.5 -42.5t-7.5 -40 t-6 -30.5l-119 -563h-155l14 72q-159 -95 -363 -95q-42 0 -74.5 13t-52.5 33.5t-32.5 47.5t-17.5 52.5t-5 50.5zM287 213q0 -54 48.5 -82.5t121.5 -28.5q63 0 125 22.5t96 61.5q10 12 17 24t13 32.5t9 34.5t10.5 53t13.5 65q-30 0 -66.5 -2.5t-91.5 -8.5t-104 -19t-94 -32 t-71.5 -50t-26.5 -70zM500 1118q0 66 70.5 124.5t177.5 64.5h32q42 -2 81 -15.5t69.5 -46t30.5 -78.5q0 -68 -71 -127t-177 -63h-33q-40 1 -79 14.5t-70 46.5t-31 80zM614 1120q0 -38 25.5 -58t69.5 -20q68 0 102.5 39t34.5 82q0 39 -25.5 58.5t-66.5 19.5q-69 0 -104.5 -39 t-35.5 -82z" />
<glyph unicode="&#xe6;" horiz-adv-x="1478" d="M139 174q0 76 41.5 136t105 95t150.5 58.5t166.5 32.5t163.5 10q27 133 27 149q0 89 -42 127.5t-98 38.5q-97 0 -171.5 -27.5t-157.5 -76.5l16 137q87 45 166 67.5t176 22.5q104 0 165 -46.5t87 -113.5q174 160 348 160q34 0 66.5 -7t68.5 -27.5t62 -52.5t43.5 -88 t17.5 -128q0 -75 -22 -190h-603q-8 -39 -8 -82q0 -49 13.5 -94.5t40 -84.5t73.5 -62.5t107 -23.5q152 0 303 113l-17 -135q-162 -105 -319 -105q-27 0 -56 4.5t-75 18t-91.5 48t-78.5 85.5q-22 -21 -33.5 -31t-57 -38t-92.5 -43.5t-129 -29.5t-178 -14q-41 0 -73 13 t-51.5 33t-32 47t-17 52.5t-4.5 51.5zM293 215q0 -50 43 -81.5t117 -31.5q84 0 161 31t101 94q6 16 11 41t10.5 69t6.5 54q-37 0 -82 -2.5t-114 -13.5t-122.5 -28.5t-92.5 -52t-39 -79.5zM950 563h469q2 12 2 37q0 53 -11 93t-27.5 63t-40 37.5t-44 19t-43.5 4.5 q-88 0 -174.5 -74t-130.5 -180z" />
<glyph unicode="&#xe7;" horiz-adv-x="909" d="M158 348q0 106 45 214t119.5 192t179.5 137t217 53q108 0 165 -18t138 -72l-51 -135q-76 53 -104 65q-64 29 -169 29q-72 0 -135 -29.5t-106.5 -77.5t-75.5 -108.5t-47 -122.5t-15 -119q0 -108 58 -177.5t164 -69.5q52 0 99 8t87.5 23.5t64.5 26.5t57.5 30.5t37.5 21.5 l-17 -137q-186 -105 -356 -105q-164 0 -260 106t-96 265zM213 -393l225 346h125l-207 -346h-143z" />
<glyph unicode="&#xe8;" horiz-adv-x="909" d="M156 350q0 144 74 282t197.5 225t256.5 87q40 0 77.5 -8.5t76 -30.5t66.5 -56t45.5 -90.5t17.5 -129.5q0 -28 -2.5 -56t-4.5 -41.5t-8.5 -43.5t-7.5 -37h-635q-8 -57 -8 -74q0 -129 68.5 -202t169.5 -73q158 0 335 115l-16 -135q-178 -105 -346 -105q-162 0 -259 106 t-97 267zM344 563h508v27q0 55 -13.5 97.5t-33.5 66t-47.5 38.5t-50.5 20t-48 5q-99 0 -185.5 -75.5t-129.5 -178.5zM590 1311h160l217 -267h-127z" />
<glyph unicode="&#xe9;" horiz-adv-x="909" d="M156 350q0 144 74 282t197.5 225t256.5 87q40 0 77.5 -8.5t76 -30.5t66.5 -56t45.5 -90.5t17.5 -129.5q0 -28 -2.5 -56t-4.5 -41.5t-8.5 -43.5t-7.5 -37h-635q-8 -57 -8 -74q0 -129 68.5 -202t169.5 -73q158 0 335 115l-16 -135q-178 -105 -346 -105q-162 0 -259 106 t-97 267zM344 563h508v27q0 55 -13.5 97.5t-33.5 66t-47.5 38.5t-50.5 20t-48 5q-99 0 -185.5 -75.5t-129.5 -178.5zM442 1044l328 267h94l68 -2l-363 -265h-127z" />
<glyph unicode="&#xea;" horiz-adv-x="909" d="M156 350q0 144 74 282t197.5 225t256.5 87q40 0 77.5 -8.5t76 -30.5t66.5 -56t45.5 -90.5t17.5 -129.5q0 -28 -2.5 -56t-4.5 -41.5t-8.5 -43.5t-7.5 -37h-635q-8 -57 -8 -74q0 -129 68.5 -202t169.5 -73q158 0 335 115l-16 -135q-178 -105 -346 -105q-162 0 -259 106 t-97 267zM344 563h508v27q0 55 -13.5 97.5t-33.5 66t-47.5 38.5t-50.5 20t-48 5q-99 0 -185.5 -75.5t-129.5 -178.5zM356 1044q75 68 174 159q105 96 126.5 112t43.5 16h101l194 -289h-127l-149 203q-52 -45 -123 -107q-83 -72 -100.5 -84t-40.5 -12h-19z" />
<glyph unicode="&#xeb;" horiz-adv-x="909" d="M156 350q0 144 74 282t197.5 225t256.5 87q40 0 77.5 -8.5t76 -30.5t66.5 -56t45.5 -90.5t17.5 -129.5q0 -28 -2.5 -56t-4.5 -41.5t-8.5 -43.5t-7.5 -37h-635q-8 -57 -8 -74q0 -129 68.5 -202t169.5 -73q158 0 335 115l-16 -135q-178 -105 -346 -105q-162 0 -259 106 t-97 267zM344 563h508v27q0 55 -13.5 97.5t-33.5 66t-47.5 38.5t-50.5 20t-48 5q-99 0 -185.5 -75.5t-129.5 -178.5zM412 1167l39 183h182l-37 -183h-184zM811 1169l39 183h182l-37 -183h-184z" />
<glyph unicode="&#xec;" horiz-adv-x="489" d="M166 0l194 911h154l-195 -911h-153zM209 1311h160l217 -267h-127z" />
<glyph unicode="&#xed;" horiz-adv-x="489" d="M166 0l194 911h154l-195 -911h-153zM289 1044l327 267h95l67 -2l-362 -265h-127z" />
<glyph unicode="&#xee;" horiz-adv-x="489" d="M147 1042q74 68 173 160q104 97 125.5 113t43.5 16h101l194 -289h-125l-151 203l-236 -203h-125zM166 0l194 911h154l-195 -911h-153z" />
<glyph unicode="&#xef;" horiz-adv-x="602" d="M223 0l195 911h153l-194 -911h-154zM258 1167l39 183h182l-37 -183h-184zM655 1167l39 183h183l-37 -183h-185z" />
<glyph unicode="&#xf0;" d="M145 346q0 109 47.5 218.5t125 192.5t182 135t211.5 52q101 0 194 -55q-18 70 -49.5 133t-53 93.5t-61.5 80.5l-221 -113l-45 123l162 84q-66 41 -99.5 57t-103.5 42l129 90q124 -40 217 -115l226 115l45 -123l-168 -86q106 -118 157.5 -262t51.5 -291q0 -135 -48 -307 q-54 -181 -207 -307t-331 -126q-159 0 -260 104t-101 265zM309 360q0 -71 21.5 -122.5t56.5 -78t71 -38.5t74 -12q102 0 189 64.5t136.5 169t49.5 220.5q0 72 -21.5 124.5t-57 79t-72 38.5t-74.5 12q-70 0 -137 -34t-119.5 -93t-84.5 -145.5t-32 -184.5z" />
<glyph unicode="&#xf1;" horiz-adv-x="1058" d="M164 0l194 922h150l-29 -144q154 154 330 154q227 0 227 -205q0 -45 -16 -131l-127 -596h-160l125 592q10 45 10 80q0 135 -166 135q-45 0 -84.5 -19t-67 -47t-51 -65t-36 -68t-21.5 -61q-9 -29 -26 -111t-44 -211.5t-48 -224.5h-160zM426 1128q25 100 98 163t150 63 q35 0 71.5 -16t62 -34.5t59 -34.5t63.5 -16q35 0 60 26t32.5 47.5t7.5 27.5h127q-28 -104 -99 -165t-149 -61q-45 0 -90 25t-87 49.5t-79 24.5q-22 0 -40 -10t-29 -24.5t-18.5 -29.5t-11.5 -25l-3 -10h-125z" />
<glyph unicode="&#xf2;" d="M145 346q0 145 79 284t211.5 226.5t275.5 87.5q157 0 256.5 -108t99.5 -275q0 -116 -49.5 -225t-128.5 -187t-180.5 -125t-202.5 -47q-160 0 -260.5 104.5t-100.5 264.5zM309 360q0 -121 62.5 -186t160.5 -65q83 0 156 43t120.5 111t75 149.5t27.5 160.5 q0 115 -63.5 179.5t-163.5 64.5q-97 0 -183 -58.5t-139 -164.5t-53 -234zM590 1311h160l217 -267h-127z" />
<glyph unicode="&#xf3;" d="M145 346q0 145 79 284t211.5 226.5t275.5 87.5q157 0 256.5 -108t99.5 -275q0 -116 -49.5 -225t-128.5 -187t-180.5 -125t-202.5 -47q-160 0 -260.5 104.5t-100.5 264.5zM309 360q0 -121 62.5 -186t160.5 -65q83 0 156 43t120.5 111t75 149.5t27.5 160.5 q0 115 -63.5 179.5t-163.5 64.5q-97 0 -183 -58.5t-139 -164.5t-53 -234zM612 1044l328 267h94l68 -2l-363 -265h-127z" />
<glyph unicode="&#xf4;" d="M145 346q0 145 79 284t211.5 226.5t275.5 87.5q157 0 256.5 -108t99.5 -275q0 -116 -49.5 -225t-128.5 -187t-180.5 -125t-202.5 -47q-160 0 -260.5 104.5t-100.5 264.5zM309 360q0 -121 62.5 -186t160.5 -65q83 0 156 43t120.5 111t75 149.5t27.5 160.5 q0 115 -63.5 179.5t-163.5 64.5q-97 0 -183 -58.5t-139 -164.5t-53 -234zM414 1044q81 73 184 168q97 89 117 104t43 15h98l195 -289h-125l-152 203q-59 -51 -135 -117q-73 -65 -89 -75.5t-38 -10.5h-18z" />
<glyph unicode="&#xf5;" d="M145 346q0 145 79 284t211.5 226.5t275.5 87.5q157 0 256.5 -108t99.5 -275q0 -116 -49.5 -225t-128.5 -187t-180.5 -125t-202.5 -47q-160 0 -260.5 104.5t-100.5 264.5zM309 360q0 -121 62.5 -186t160.5 -65q83 0 156 43t120.5 111t75 149.5t27.5 160.5 q0 115 -63.5 179.5t-163.5 64.5q-97 0 -183 -58.5t-139 -164.5t-53 -234zM410 1128q25 100 97.5 163t149.5 63q35 0 71.5 -16t62 -34.5t59 -34.5t63.5 -16q35 0 60 26t33 47.5t8 27.5h127q-28 -104 -99 -165t-149 -61q-45 0 -90 25t-87 49.5t-79 24.5q-22 0 -40 -10 t-29 -24.5t-18.5 -29.5t-11.5 -25l-3 -10h-125z" />
<glyph unicode="&#xf6;" d="M145 346q0 145 79 284t211.5 226.5t275.5 87.5q157 0 256.5 -108t99.5 -275q0 -116 -49.5 -225t-128.5 -187t-180.5 -125t-202.5 -47q-160 0 -260.5 104.5t-100.5 264.5zM309 360q0 -121 62.5 -186t160.5 -65q83 0 156 43t120.5 111t75 149.5t27.5 160.5 q0 115 -63.5 179.5t-163.5 64.5q-97 0 -183 -58.5t-139 -164.5t-53 -234zM467 1167l39 183h182l-37 -183h-184zM866 1169l39 183h182l-36 -183h-185z" />
<glyph unicode="&#xf7;" horiz-adv-x="1593" d="M223 514q0 39 60 39h1226q19 0 28 -1t22 -4.5t18.5 -13t5.5 -24.5q0 -39 -59 -39h-1245q-32 0 -44 13.5t-12 29.5zM664 -25q0 11 9.5 57t18.5 86l10 40l9 10l10 8l12 4l25 2h129q35 0 48 -10.5t13 -32.5q0 -13 -10 -58.5t-20 -84.5l-9 -39l-6 -10l-10 -10q-25 -7 -37 -7 h-133q-59 0 -59 45zM858 887q0 11 10 56.5t20 85.5l9 40l6 10l12 8l13 5l22 2h131q19 0 30.5 -2.5t21.5 -12.5t10 -28q0 -12 -9.5 -58t-19.5 -87l-10 -40l-19 -18q-16 -6 -34 -6h-133q-60 0 -60 45z" />
<glyph unicode="&#xf8;" d="M51 -170l197 254q-98 106 -98 260q0 109 47.5 218.5t124 193t180 136t209.5 52.5q33 0 63.5 -5.5t46.5 -11t37 -15t27 -11.5l182 238h2l96 -62l-192 -246v-2q92 -105 92 -266q0 -116 -49 -225.5t-127 -187.5t-179.5 -125.5t-203.5 -47.5q-85 0 -168 39l-191 -245z M303 348q0 -18 1.5 -34.5t4.5 -30t6.5 -24.5t7.5 -21t7 -15.5t6.5 -12t3.5 -7.5l459 588q-60 26 -113 26q-83 0 -156 -43t-122 -111.5t-77 -151.5t-28 -163zM426 127q59 -25 109 -25q152 0 265 134t113 327q0 78 -34 146z" />
<glyph unicode="&#xf9;" horiz-adv-x="1058" d="M199 129q0 26 4.5 56t13.5 69.5t10 44.5l129 612h160l-137 -653q-14 -66 -14 -84q0 -49 37 -65.5t106 -16.5q58 0 107.5 17.5t82.5 45t53 53t31 50.5q15 41 21 80l123 573h159l-192 -911h-156l21 98q-168 -121 -387 -121q-172 0 -172 152zM578 1311h159l217 -267h-127z " />
<glyph unicode="&#xfa;" horiz-adv-x="1058" d="M199 129q0 26 4.5 56t13.5 69.5t10 44.5l129 612h160l-137 -653q-14 -66 -14 -84q0 -49 37 -65.5t106 -16.5q58 0 107.5 17.5t82.5 45t53 53t31 50.5q15 41 21 80l123 573h159l-192 -911h-156l21 98q-168 -121 -387 -121q-172 0 -172 152zM516 1044l328 267h94l68 -2 l-363 -265h-127z" />
<glyph unicode="&#xfb;" horiz-adv-x="1058" d="M199 129q0 26 4.5 56t13.5 69.5t10 44.5l129 612h160l-137 -653q-14 -66 -14 -84q0 -49 37 -65.5t106 -16.5q58 0 107.5 17.5t82.5 45t53 53t31 50.5q15 41 21 80l123 573h159l-192 -911h-156l21 98q-168 -121 -387 -121q-172 0 -172 152zM430 1044q75 68 174 159 q105 96 126.5 112t43.5 16h100l195 -289h-127l-149 203l-236 -203h-72z" />
<glyph unicode="&#xfc;" horiz-adv-x="1058" d="M199 129q0 26 4.5 56t13.5 69.5t10 44.5l129 612h160l-137 -653q-14 -66 -14 -84q0 -49 37 -65.5t106 -16.5q58 0 107.5 17.5t82.5 45t53 53t31 50.5q15 41 21 80l123 573h159l-192 -911h-156l21 98q-168 -121 -387 -121q-172 0 -172 152zM485 1167l39 183h183l-37 -183 h-185zM885 1167l39 183h182l-37 -183h-184z" />
<glyph unicode="&#xfd;" horiz-adv-x="944" d="M0 -406l16 136q88 -33 142 -33q16 0 29 2.5t27 10t23.5 14t24 23t23 27t25.5 36.5t26.5 41t31.5 51t35 57q4 7 9.5 15.5t7.5 12.5t4 9t2 10q0 10 -6 31l-197 874h162q129 -577 129 -741q0 -27 -4 -68q13 49 49 125.5t97.5 185t100.5 175t114.5 189.5t82.5 134h154 l-688 -1114q-78 -121 -140 -169t-135 -48q-43 0 -145 14zM573 1044l328 267h94l68 -2l-363 -265h-127z" />
<glyph unicode="&#xfe;" horiz-adv-x="1058" d="M82 -399l399 1878h154l-141 -668q174 121 362 121q64 0 113 -31t75.5 -81t39 -105t12.5 -113q0 -117 -41.5 -231.5t-109 -201t-159.5 -139.5t-188 -53q-148 0 -250 117l-106 -493h-160zM379 238q0 -13 9.5 -34t28 -44t52.5 -39.5t76 -16.5q92 0 181 59.5t146.5 162.5 t57.5 217t-60 186t-157 72q-81 0 -150.5 -43t-87.5 -76q-6 -12 -51 -221t-45 -223z" />
<glyph unicode="&#xff;" horiz-adv-x="944" d="M0 -406l16 136q88 -33 142 -33q16 0 29 2.5t27 10t23.5 14t24 23t23 27t25.5 36.5t26.5 41t31.5 51t35 57q4 7 9.5 15.5t7.5 12.5t4 9t2 10q0 10 -6 31l-197 874h162q129 -577 129 -741q0 -27 -4 -68q13 49 49 125.5t97.5 185t100.5 175t114.5 189.5t82.5 134h154 l-688 -1114q-78 -121 -140 -169t-135 -48q-43 0 -145 14zM430 1167l39 183h182l-37 -183h-184zM829 1169l39 183h183l-37 -183h-185z" />
<glyph unicode="&#x152;" horiz-adv-x="1990" d="M186 532q0 176 75 348.5t194.5 300t276 206.5t312.5 79q58 0 155 -21.5t144 -23.5h832l-27 -135h-118l-50 2h-489l-74 2l-104 -487h676l-27 -127h-676l-112 -533h176l49 2h395l45 2h94l-30 -147h-822q-80 0 -190 -22.5t-170 -22.5q-106 0 -202 39.5t-170.5 111.5 t-118.5 182.5t-44 243.5zM371 559q0 -210 107.5 -344.5t279.5 -134.5q53 0 91.5 9t55.5 19.5t39 28.5q25 29 39 54.5t35.5 92t44.5 177.5l108 510q33 154 33 227q0 72 -35.5 107.5t-142.5 35.5q-118 0 -236.5 -61.5t-211 -165t-150 -250.5t-57.5 -305z" />
<glyph unicode="&#x153;" horiz-adv-x="1593" d="M147 350q0 112 47 221t122.5 190.5t176.5 132t203 50.5q111 0 192 -56t120 -147h2q71 86 174 144.5t211 58.5q35 0 67.5 -7t68 -27.5t62 -52.5t43.5 -88t17 -128q0 -69 -23 -190h-602q-8 -58 -8 -82q0 -110 61 -187.5t170 -77.5q152 0 305 113l-16 -135 q-158 -105 -317 -105q-119 0 -204 57.5t-126 149.5q-59 -66 -122 -111t-118.5 -64t-92.5 -25.5t-71 -6.5q-151 0 -246.5 105.5t-95.5 267.5zM299 358q0 -118 59.5 -186t157.5 -68q105 0 192 74.5t132 182t45 217.5q0 113 -59.5 176t-157.5 63q-148 0 -258.5 -132.5 t-110.5 -326.5zM1063 563h471v37q0 53 -11 93t-27.5 63t-39.5 37.5t-43.5 19t-42.5 4.5q-90 0 -176.5 -74t-130.5 -180z" />
<glyph unicode="&#x178;" horiz-adv-x="1366" d="M307 1421h215l221 -467q14 -32 41.5 -89.5t43.5 -93.5t22 -58l108 127l521 581h180l-735 -817q-23 -25 -29 -34t-10 -31l-115 -539h-178l115 541q4 20 4 22q0 9 -15 39zM721 1556l39 183h182l-37 -183h-184zM1118 1556l39 183h182l-36 -183h-185z" />
<glyph unicode="&#x2c6;" d="M414 1044q81 73 184 168q97 89 117 104t43 15h98l195 -289h-125l-152 203q-59 -51 -135 -117q-73 -65 -89 -75.5t-38 -10.5h-18z" />
<glyph unicode="&#x2dc;" d="M399 1083q25 100 98 163t150 63q44 0 89 -25.5t87.5 -50.5t79.5 -25q35 0 60 26t33 47.5t8 27.5h126q-28 -104 -99 -165t-148 -61q-35 0 -72 15.5t-62.5 34t-58.5 34t-63 15.5q-22 0 -40.5 -10t-29.5 -25t-18.5 -29.5t-10.5 -24.5l-4 -10h-125z" />
<glyph unicode="&#x2000;" horiz-adv-x="921" />
<glyph unicode="&#x2001;" horiz-adv-x="1843" />
<glyph unicode="&#x2002;" horiz-adv-x="921" />
<glyph unicode="&#x2003;" horiz-adv-x="1843" />
<glyph unicode="&#x2004;" horiz-adv-x="614" />
<glyph unicode="&#x2005;" horiz-adv-x="460" />
<glyph unicode="&#x2006;" horiz-adv-x="307" />
<glyph unicode="&#x2007;" horiz-adv-x="307" />
<glyph unicode="&#x2008;" horiz-adv-x="230" />
<glyph unicode="&#x2009;" horiz-adv-x="368" />
<glyph unicode="&#x200a;" horiz-adv-x="102" />
<glyph unicode="&#x2010;" horiz-adv-x="681" d="M104 395l27 121h545l-27 -121h-545z" />
<glyph unicode="&#x2011;" horiz-adv-x="681" d="M104 395l27 121h545l-27 -121h-545z" />
<glyph unicode="&#x2012;" horiz-adv-x="681" d="M104 395l27 121h545l-27 -121h-545z" />
<glyph unicode="&#x2013;" d="M104 500l27 125h1024l-27 -125h-1024z" />
<glyph unicode="&#x2014;" horiz-adv-x="2048" d="M104 500l27 125h2046l-27 -125h-2046z" />
<glyph unicode="&#x2018;" horiz-adv-x="569" d="M420 1051l22 108l17 64l137 256h86l-107 -256h52l-35 -172h-172z" />
<glyph unicode="&#x2019;" horiz-adv-x="569" d="M420 1053l106 256h-51l37 170h170l-23 -109l-14 -61l-139 -256h-86z" />
<glyph unicode="&#x201a;" horiz-adv-x="569" d="M143 -256l107 256h-51l37 172h170l-29 -141l-8 -31l-140 -256h-86z" />
<glyph unicode="&#x201c;" horiz-adv-x="681" d="M262 1051l23 108l16 64l137 256h86l-106 -256h51l-35 -172h-172zM694 1051l23 108l16 64l137 256h86l-106 -256h51l-35 -172h-172z" />
<glyph unicode="&#x201d;" horiz-adv-x="681" d="M262 1053l107 256h-52l37 170h170l-22 -109l-15 -61l-139 -256h-86zM694 1053l107 256h-51l36 170h170l-22 -109l-14 -61l-140 -256h-86z" />
<glyph unicode="&#x201e;" horiz-adv-x="681" d="M-14 -256l106 256h-51l37 172h170l-29 -141l-8 -31l-139 -256h-86zM418 -256l106 256h-51l37 172h170l-29 -141l-8 -31l-139 -256h-86z" />
<glyph unicode="&#x2022;" d="M213 438q0 118 66.5 227.5t178.5 177.5t236 68q142 0 236 -91t94 -234q0 -118 -65.5 -227t-178 -177.5t-237.5 -68.5q-142 0 -236 90.5t-94 234.5z" />
<glyph unicode="&#x2026;" horiz-adv-x="1708" d="M197 0l36 172h170l-34 -172h-172zM766 0l37 172h170l-35 -172h-172zM1335 0l37 172h170l-35 -172h-172z" />
<glyph unicode="&#x202f;" horiz-adv-x="368" />
<glyph unicode="&#x2039;" horiz-adv-x="909" d="M322 449v2l423 448h127l-391 -448l199 -451h-125z" />
<glyph unicode="&#x203a;" horiz-adv-x="909" d="M225 0l391 449l-200 450h127l233 -450l-426 -449h-125z" />
<glyph unicode="&#x205f;" horiz-adv-x="460" />
<glyph unicode="&#x20ac;" horiz-adv-x="1478" d="M111 524l94 148h155l17 78h-217l94 147h178q102 221 327 372.5t470 151.5q46 0 89 -5.5t78.5 -15.5t66.5 -22t57.5 -27.5t46.5 -28.5t38 -29.5t28 -26t21.5 -22t12.5 -13.5l-96 -148q-22 26 -35 40.5t-50 44.5t-73.5 47.5t-94.5 32t-122 14.5q-177 0 -337 -100.5 t-259 -264.5h850l-94 -147h-819l-17 -78h783l-97 -148h-686q24 -161 144.5 -262.5t302.5 -101.5q43 0 86 5t81.5 15t72.5 20t68 26t58 27.5t51.5 28.5t40.5 25t33 22t21 15q-5 -23 -10 -47t-7 -36.5t-5.5 -27t-4.5 -20.5t-4 -14t-4.5 -10.5t-5.5 -7t-7 -6.5t-10 -7 q-235 -168 -495 -168q-220 0 -376 126.5t-190 332.5l-8 65h-241z" />
<glyph unicode="&#x2122;" horiz-adv-x="1366" d="M152 1475q0 23 21 42t73 19h483q56 0 78 -18.5t22 -42.5q0 -25 -21 -44.5t-71 -19.5h-178l-129 -606l-1 -5q-1 -4 -1.5 -7.5t-2.5 -9.5t-4 -11t-5.5 -11.5t-8 -11.5t-11 -10t-14 -8.5t-17.5 -5.5t-21 -2q-36 0 -57 19.5t-21 39.5q0 22 73 366q34 159 56 263h-145 q-98 0 -98 64zM721 786q0 17 2 25l147 692q3 14 5.5 21t11.5 23.5t26.5 25t42.5 8.5q33 0 53.5 -18t24.5 -36l4 -18l74 -307q45 69 111 171q101 156 124 182t62 26q32 0 56 -18t24 -45q0 -11 -4 -23l-148 -696q-10 -47 -35 -63q-20 -13 -49 -13q-27 0 -52 15t-25 50l69 347 q-85 -134 -99 -150q-27 -34 -61 -37h-12q-12 0 -21.5 2t-17 4t-14 9t-11 12t-9.5 17.5t-8 21t-7.5 27t-7.5 32t-9 39t-10 43.5q-16 -76 -38 -191q-32 -164 -50 -202.5t-71 -38.5q-29 0 -53.5 17t-24.5 46z" />
<glyph unicode="&#xe000;" horiz-adv-x="911" d="M0 0v911h911v-911h-911z" />
</font>
</defs>
</svg>
